<?xml version="1.0" encoding="UTF-8" standalone="no"?>
<!-- Created with Inkscape (http://www.inkscape.org/) -->

<svg
   width="210mm"
   height="297mm"
   viewBox="0 0 210 297"
   version="1.1"
   id="svg1"
   xml:space="preserve"
   xmlns="http://www.w3.org/2000/svg"
   xmlns:svg="http://www.w3.org/2000/svg"><defs
     id="defs1" /><g
     id="layer1"
     transform="rotate(90,61.279475,36.698645)"
     style="display:inline"><path
       id="body"
       class="st0"
       d="m 282.86551,-12.419721 c 0,0.56304 -0.0704,1.09088 -0.21114,1.61873 -3.09668,11.15509034 -11.36623,21.11375 -17.80593,27.48305 -4.85616,4.85616 -11.33104,7.49539 -18.2282,7.49539 h -18.5801 c -6.89716,0 -13.37204,-2.67441 -18.2282,-7.49539 -6.40451,-6.3693 -14.70925,-16.29276966 -17.77074,-27.44787 -0.14076,-0.52784 -0.21114,-1.09087 -0.21114,-1.61872 0,-2.81517 1.86505,-5.27844 4.53945,-5.94704 0.45747,-0.1056 0.95012,-0.17595 1.44278,-0.17595 2.7096,0 5.10249,1.82986 5.80628,4.43389 2.77998,10.1697898 11.64775,19.5302203 16.67986,24.21043 l 0.0352,0.0352 -9.43081,-96.595398 c -0.0352,-0.24633 -0.0352,-0.49266 -0.0352,-0.73898 0,-3.44857 2.60403,-6.334126 6.01742,-6.721206 0.24633,-0.0352 0.49265,-0.0352 0.73898,-0.0352 1.09088,0 2.18176,0.28152 3.13187,0.77418 2.18176,0.98531 3.7301,3.061486 3.97643,5.454386 l 0.63341,5.80627 7.95285,46.098358 h 7.46019 l 8.72701,-52.115768 c 0.38709,-3.44859 3.27263,-6.017426 6.72121,-6.017426 0.24633,0 0.49266,0 0.73899,0.0352 0.84455,0.1056 1.65391,0.35189 2.39289,0.73899 2.46327,1.090858 4.0468,3.518946 4.0468,6.193346 0,0.24633 0,0.49266 -0.0352,0.73899 l -1.75948,16.2224 -6.68602,79.6340283 0.0352,-0.0353 c 5.91185,-5.55996 13.5128,-14.1814005 16.08164,-23.6474003 0.70379,-2.60403 3.09668,-4.43389 5.80628,-4.43389 0.59822,0 1.19645,0.0704 1.75948,0.24633 2.53365,0.73898 4.25794,3.13187 4.25794,5.80628 z"
       style="fill:none;stroke:#000000;stroke-width:0.351895;stroke-miterlimit:10" /><g
       id="shorts"
       transform="matrix(0.35189583,0,0,0.35189583,34.067726,-154.44641)"
       style="display:none">
	<line
   id="pants_top"
   class="st1"
   x1="340.89999"
   y1="472.60001"
   x2="340.89999"
   y2="587.5"
   style="fill:none;stroke:#3265ae;stroke-miterlimit:10" />
	<line
   id="pants_leg"
   class="st1"
   x1="400.10001"
   y1="543.40002"
   x2="392.29999"
   y2="592"
   style="fill:none;stroke:#3265ae;stroke-miterlimit:10" />
	
		<line
   id="pants_leg_00000154399437059703933320000012751104359486683782_"
   class="st1"
   x1="394"
   y1="467.60001"
   x2="400.10001"
   y2="515.20001"
   style="fill:none;stroke:#3265ae;stroke-miterlimit:10" />
</g><g
       id="bra"
       transform="matrix(0,-0.35189583,0.35189583,0,50.790187,97.794056)">
	<path
   class="st2"
   d="m 271.2,581.8 c 14.5,-19.2 13.3,-78.1 0.7,-102.3"
   id="path1"
   style="fill:none;stroke:#b74e97;stroke-miterlimit:10" />
	<line
   class="st2"
   x1="249.3"
   y1="481.70001"
   x2="211.3"
   y2="485.20001"
   id="line1"
   style="fill:none;stroke:#b74e97;stroke-miterlimit:10" />
	<line
   class="st2"
   x1="251.10001"
   y1="580.20001"
   x2="212"
   y2="576.90002"
   id="line2"
   style="fill:none;stroke:#b74e97;stroke-miterlimit:10" />
	<path
   class="st2"
   d="m 210.7,571.8 c 54.9,-25.7 51.2,-60.3 -0.4,-81.6"
   id="path2"
   style="fill:none;stroke:#b74e97;stroke-miterlimit:10" />
</g><g
       id="panties"
       transform="matrix(0,-0.35189583,0.35189583,0,50.790187,97.794056)">
	<path
   class="st2"
   d="m 317.9,475 c 0,0 22.1,15.5 22.1,55.1 0,39.6 -22.2,55.6 -22.2,55.6"
   id="path3"
   style="fill:none;stroke:#b74e97;stroke-miterlimit:10" />
	<line
   class="st2"
   x1="347.79999"
   y1="472.10001"
   x2="379.60001"
   y2="518.79999"
   id="line3"
   style="fill:none;stroke:#b74e97;stroke-miterlimit:10" />
	<line
   class="st2"
   x1="379.60001"
   y1="539.90002"
   x2="347.79999"
   y2="588.29999"
   id="line4"
   style="fill:none;stroke:#b74e97;stroke-miterlimit:10" />
</g><g
       id="short_hair_ears"
       transform="matrix(0.35189583,0,0,0.35189583,34.067726,-154.44641)"
       style="display:none">
	<path
   id="ear_00000134244838907327822830000000210152333635462027_"
   class="st1"
   d="m 145.3,464 c -9.2,-0.3 -16.5,-5.4 -16.3,-11.4 0.2,-6 7.8,-10.7 17,-10.4 9.2,0.3 16.5,5.4 16.3,11.4 -0.2,6 -7.8,10.7 -17,10.4 z"
   style="fill:none;stroke:#3265ae;stroke-miterlimit:10" />
	<path
   id="ear"
   class="st1"
   d="m 152,595.8 c -9.1,1.2 -15.9,7 -15.1,12.9 0.8,6 8.8,9.9 17.9,8.7 9.1,-1.2 15.9,-7 15.1,-12.9 -0.8,-6 -8.8,-9.9 -17.9,-8.7 z"
   style="fill:none;stroke:#3265ae;stroke-miterlimit:10" />
</g><g
       id="long_hair_ponytails"
       transform="matrix(0,-0.35189583,0.35189583,0,50.790187,97.794056)">
	<path
   id="ponytail_00000018920695854897356630000017633903483718003903_"
   class="st2"
   d="m 160.7,446.9 c 1.1,-3 2.8,-5.8 4.8,-8.3 3.1,-3.8 7,-6.9 9.8,-10.9 2.8,-4 4.3,-9.5 2.1,-13.8 -0.4,-0.8 -0.9,-1.6 -0.5,-2.4 0.4,-0.8 1.5,-1 2.4,-0.9 3.3,0.2 6.5,1.6 9.2,3.7 5.6,4.4 8.9,11.5 9.2,18.6 0.3,7.1 -2.1,14.2 -6.2,20.1 -2.7,3.9 -6.1,7.3 -10.3,9.5 -6.2,3.2 -16.2,3.8 -20,-3.3 -1.3,-2.4 -1.6,-5.3 -1.3,-8.1 0,-1.5 0.3,-2.9 0.8,-4.2"
   style="fill:none;stroke:#b74e97;stroke-miterlimit:10" />
	<path
   id="ponytail"
   class="st2"
   d="m 164.7,614.7 c 2,3.2 5,5.9 8.1,8.1 4.2,3 8.9,5.3 12.3,9.2 3,3.4 4.6,8.5 2.8,12.5 -0.3,0.8 0.2,1.7 1.1,1.7 6.1,-0.4 11.1,-5.9 13.3,-11.8 7.5,-20.2 -9.6,-33.2 -15.5,-37 -10.5,-6.8 -29.3,-2.2 -24.1,13.3 0.5,1.4 1.2,2.7 2,4"
   style="fill:none;stroke:#b74e97;stroke-miterlimit:10" />
</g><path
       id="head"
       class="st3"
       d="m 264.25022,45.748662 c 0.73898,14.603678 -10.73282,27.060791 -25.58283,27.799772 -14.85,0.738981 -27.48306,-10.486497 -28.22204,-25.090173 -0.73898,-14.603677 10.73282,-27.060792 25.58282,-27.799772 14.85001,-0.73898 27.48307,10.486489 28.22205,25.090173 z"
       style="fill:#ffffff;stroke:#000000;stroke-width:0.351895;stroke-miterlimit:10" /><path
       id="mouth"
       class="st0"
       d="m 246.26834,34.030532 -3.27263,-0.211137 c -4.22275,-0.281517 -8.4455,0.03519 -12.56268,0.914928 l -4.25794,0.879741 c -0.38708,0.03519 -0.6686,-0.316707 -0.56303,-0.703792 0.63341,-2.111375 2.95592,-7.988043 9.92346,-8.515893 7.00273,-0.56303 10.20498,4.891357 11.1551,6.861982 0.21114,0.351896 -0.0352,0.738981 -0.42228,0.774171 z"
       style="fill:none;stroke:#000000;stroke-width:0.351895;stroke-miterlimit:10" /><path
       id="nose"
       class="st0"
       d="m 236.76716,37.690248 c 0.84455,-0.527843 1.97061,-0.281516 2.49846,0.563034 0.52784,0.84455 0.28151,1.970616 -0.56304,2.49846"
       style="fill:none;stroke:#000000;stroke-width:0.351895;stroke-miterlimit:10" /><path
       id="short_hair"
       class="st4"
       d="m 61.410032,13.161594 c -4.152372,5.243248 -6.404504,12.492302 -6.615642,18.931995 -0.175948,5.348818 0.105562,8.938155 2.428081,13.970265 2.252133,4.926542 7.037917,8.551068 11.471805,10.768012 4.011612,2.005806 10.06422,3.167063 14.920383,1.829859 2.005806,-0.563034 4.187559,-1.6891 4.680214,-3.765286 -2.991114,0.457465 -5.806281,-0.457464 -8.621447,-1.442773 -0.774172,-0.281516 -1.583531,-0.563033 -2.357703,-0.84455 1.900237,-2.322512 3.272631,-5.348816 3.976423,-8.551069 0.140758,-0.598222 1.513152,-8.058414 1.442774,-8.058414 -2.040997,0.175949 -4.046803,0.738981 -5.876661,1.653911 1.935426,-5.806281 4.293129,-11.436614 7.108295,-16.82062 -2.322512,0.84455 -4.680214,2.111375 -6.404503,3.976422 0.211137,-2.744788 1.442772,-7.178675 2.674408,-9.606757 C 82.523782,10.663133 85.057432,8.094294 89.35056,5.5958332 88.083735,3.8011657 67.603398,5.3846957 61.410032,13.161594 Z"
       style="display:none;fill:#ffffff;stroke:#3265ae;stroke-width:0.351895;stroke-miterlimit:10" /><g
       id="long_hair"
       transform="matrix(0,-0.35189583,0.35189583,0,50.790187,97.794056)">
	<path
   class="st5"
   d="m 109.8,542.4 c 8.9,-9.8 10.6,-20.8 10.8,-33.5 -4.7,5.2 -6.8,5.4 -6.8,5.4 7.3,-9.9 15.6,-24.5 15.3,-36.7 -0.8,1.1 -5.7,5.4 -5.7,5.4 2.3,-8.4 11.4,-16.9 19.3,-20.5 7.9,-3.6 18.3,-3 26.9,-4.2 -8.3,-3.5 -18.8,-5.9 -27.8,-6.7 -11.4,-1.1 -21.7,1.4 -32.5,5.1 -21.3,7.4 -58.2,41 -41.5,93.3 2.4,7.7 6.7,14.9 6.7,14.9 0,0 21.9,-7.8 35.3,-22.5 z"
   id="path4"
   style="fill:#ffffff;stroke:#b74e97;stroke-miterlimit:10" />
	<path
   class="st5"
   d="m 63.8,519.2 c 8.2,-3.8 41.1,7.1 51.4,22.7 5.4,8.2 8.9,17.4 11.8,26.8 1.6,5.1 3,10.3 5.5,15.1 9,16.9 20,17.8 37.2,18.3 C 103.2,623.9 59,589.7 63.8,519.2 Z"
   id="path5"
   style="fill:#ffffff;stroke:#b74e97;stroke-miterlimit:10" />
</g><path
       id="eye_00000077303645340664995420000007728925370770267787_"
       class="st0"
       d="m 226.35104,41.596292 c 1.37239,-0.07038 2.53365,0.985309 2.60403,2.357703 0.0704,1.372392 -0.98531,2.533649 -2.3577,2.604028 -1.3724,0.07038 -2.53365,-0.985308 -2.60403,-2.357701 -0.0704,-1.372394 0.98531,-2.53365 2.3577,-2.60403"
       style="fill:none;stroke:#000000;stroke-width:0.351895;stroke-miterlimit:10" /><path
       id="pupil"
       class="st0"
       d="m 228.04014,44.833734 c 0.0352,0.598222 -0.42228,1.126066 -1.05569,1.161256 -0.59822,0.03519 -1.12606,-0.422275 -1.16125,-1.055687 -0.0352,-0.598223 0.42227,-1.126067 1.05568,-1.161256 0.63342,0 1.12607,0.457464 1.16126,1.055687"
       style="fill:none;stroke:#000000;stroke-width:0.351895;stroke-miterlimit:10" /><path
       id="eye"
       class="st0"
       d="m 248.06301,41.596292 c 1.3724,-0.07038 2.53365,0.985309 2.60403,2.357703 0.0704,1.372392 -0.98531,2.533649 -2.3577,2.604028 -1.37239,0.07038 -2.53365,-0.985308 -2.60403,-2.357701 -0.0352,-1.372394 1.0205,-2.53365 2.3577,-2.60403"
       style="fill:none;stroke:#000000;stroke-width:0.351895;stroke-miterlimit:10" /><path
       id="pupil_00000149367124268036342930000001570494510261434269_"
       class="st0"
       d="m 248.7668,44.833734 c 0.0352,0.598222 -0.42227,1.126066 -1.05568,1.161256 -0.59823,0.03519 -1.12607,-0.422275 -1.16126,-1.055687 -0.0352,-0.598223 0.42227,-1.126067 1.05569,-1.161256 0.63341,0 1.12606,0.457464 1.16125,1.055687 z"
       style="fill:none;stroke:#000000;stroke-width:0.351895;stroke-miterlimit:10" /></g><g
     id="g25"
     transform="rotate(90,102.59197,78.011141)"
     style="display:inline"><path
       id="path6"
       class="st0"
       d="m 109.20506,96.855619 c 0,-0.56304 0.0704,-1.09087 0.21114,-1.61873 3.09668,-11.15509 11.36624,-21.11375 17.80593,-27.48305 4.85616,-4.85616 11.33105,-7.49539 18.22821,-7.49539 h 18.5801 c 6.89715,0 13.37204,2.6744 18.2282,7.49539 6.40451,6.3693 14.70925,16.29277 17.77074,27.44788 0.14076,0.52783 0.21114,1.09086 0.21114,1.61871 0,2.81517 -1.86505,5.278441 -4.53946,5.947041 -0.45746,0.10561 -0.95012,0.17595 -1.44277,0.17595 -2.7096,0 -5.10249,-1.82985 -5.80628,-4.433891 -2.77998,-10.16979 -11.64776,-19.53022 -16.67987,-24.21043 l -0.0352,-0.0352 9.43081,96.595391 c 0.0352,0.24633 0.0352,0.49266 0.0352,0.73899 0,3.44857 -2.60402,6.33412 -6.01742,6.7212 -0.24632,0.0352 -0.49265,0.0352 -0.73898,0.0352 -1.09087,0 -2.18175,-0.28152 -3.13187,-0.77418 -2.18175,-0.9853 -3.7301,-3.06149 -3.97642,-5.45438 l -0.63342,-5.80628 -7.95284,-46.09835 h -7.46019 l -8.72702,52.11576 c -0.38708,3.44859 -3.27263,6.01743 -6.72121,6.01743 -0.24633,0 -0.49265,0 -0.73898,-0.0352 -0.84455,-0.1056 -1.65391,-0.35189 -2.39289,-0.73898 -2.46327,-1.09087 -4.0468,-3.51896 -4.0468,-6.19336 0,-0.24633 0,-0.49266 0.0352,-0.73899 l 1.75948,-16.22239 6.68602,-79.634021 -0.0352,0.0352 c -5.91185,5.55996 -13.51281,14.18141 -16.08165,23.6474 -0.70379,2.604031 -3.09668,4.433891 -5.80628,4.433891 -0.59822,0 -1.19644,-0.0704 -1.75948,-0.24633 -2.53365,-0.73898 -4.25794,-3.131871 -4.25794,-5.806281 z"
       style="fill:none;stroke:#000000;stroke-width:0.351895;stroke-miterlimit:10" /><g
       id="g8"
       transform="matrix(-0.35189583,0,0,-0.35189583,226.46962,218.66878)"
       style="display:none">
	<line
   id="line6"
   class="st1"
   x1="340.89999"
   y1="472.60001"
   x2="340.89999"
   y2="587.5"
   style="fill:none;stroke:#3265ae;stroke-miterlimit:10" />
	<line
   id="line7"
   class="st1"
   x1="400.10001"
   y1="543.40002"
   x2="392.29999"
   y2="592"
   style="fill:none;stroke:#3265ae;stroke-miterlimit:10" />
	
		<line
   id="line8"
   class="st1"
   x1="394"
   y1="467.60001"
   x2="400.10001"
   y2="515.20001"
   style="fill:none;stroke:#3265ae;stroke-miterlimit:10" />
</g><g
       id="g10"
       transform="matrix(0,0.35189583,-0.35189583,0,341.28039,-13.314111)"
       style="display:inline">
	<path
   class="st2"
   d="m 271.2,581.8 c 14.5,-19.2 13.3,-78.1 0.7,-102.3"
   id="path8"
   style="fill:none;stroke:#b74e97;stroke-miterlimit:10" />
	<line
   class="st2"
   x1="249.3"
   y1="481.70001"
   x2="211.3"
   y2="485.20001"
   id="line9"
   style="fill:none;stroke:#b74e97;stroke-miterlimit:10" />
	<line
   class="st2"
   x1="251.10001"
   y1="580.20001"
   x2="212"
   y2="576.90002"
   id="line10"
   style="fill:none;stroke:#b74e97;stroke-miterlimit:10" />
	<path
   class="st2"
   d="m 210.7,571.8 c 54.9,-25.7 51.2,-60.3 -0.4,-81.6"
   id="path10"
   style="fill:none;stroke:#b74e97;stroke-miterlimit:10" />
</g><g
       id="g12"
       transform="matrix(0,0.35189583,-0.35189583,0,341.28039,-13.314111)"
       style="display:inline">
	<path
   class="st2"
   d="m 317.9,475 c 0,0 22.1,15.5 22.1,55.1 0,39.6 -22.2,55.6 -22.2,55.6"
   id="path11"
   style="fill:none;stroke:#b74e97;stroke-miterlimit:10" />
	<line
   class="st2"
   x1="347.79999"
   y1="472.10001"
   x2="379.60001"
   y2="518.79999"
   id="line11"
   style="fill:none;stroke:#b74e97;stroke-miterlimit:10" />
	<line
   class="st2"
   x1="379.60001"
   y1="539.90002"
   x2="347.79999"
   y2="588.29999"
   id="line12"
   style="fill:none;stroke:#b74e97;stroke-miterlimit:10" />
</g><g
       id="g13"
       transform="matrix(0,0.35189583,-0.35189583,0,341.28039,-13.358161)"
       style="display:inline">
	<path
   id="path12"
   class="st1"
   d="m 145.3,464 c -9.2,-0.3 -16.5,-5.4 -16.3,-11.4 0.2,-6 7.8,-10.7 17,-10.4 9.2,0.3 16.5,5.4 16.3,11.4 -0.2,6 -7.8,10.7 -17,10.4 z"
   style="fill:none;stroke:#3265ae;stroke-miterlimit:10" />
	<path
   id="path13"
   class="st1"
   d="m 152,595.8 c -9.1,1.2 -15.9,7 -15.1,12.9 0.8,6 8.8,9.9 17.9,8.7 9.1,-1.2 15.9,-7 15.1,-12.9 -0.8,-6 -8.8,-9.9 -17.9,-8.7 z"
   style="fill:none;stroke:#3265ae;stroke-miterlimit:10" />
</g><g
       id="g15"
       transform="matrix(-0.35189583,0,0,-0.35189583,225.09431,218.66878)"
       style="display:none">
	<path
   id="path14"
   class="st2"
   d="m 160.7,446.9 c 1.1,-3 2.8,-5.8 4.8,-8.3 3.1,-3.8 7,-6.9 9.8,-10.9 2.8,-4 4.3,-9.5 2.1,-13.8 -0.4,-0.8 -0.9,-1.6 -0.5,-2.4 0.4,-0.8 1.5,-1 2.4,-0.9 3.3,0.2 6.5,1.6 9.2,3.7 5.6,4.4 8.9,11.5 9.2,18.6 0.3,7.1 -2.1,14.2 -6.2,20.1 -2.7,3.9 -6.1,7.3 -10.3,9.5 -6.2,3.2 -16.2,3.8 -20,-3.3 -1.3,-2.4 -1.6,-5.3 -1.3,-8.1 0,-1.5 0.3,-2.9 0.8,-4.2"
   style="fill:none;stroke:#b74e97;stroke-miterlimit:10" />
	<path
   id="path15"
   class="st2"
   d="m 164.7,614.7 c 2,3.2 5,5.9 8.1,8.1 4.2,3 8.9,5.3 12.3,9.2 3,3.4 4.6,8.5 2.8,12.5 -0.3,0.8 0.2,1.7 1.1,1.7 6.1,-0.4 11.1,-5.9 13.3,-11.8 7.5,-20.2 -9.6,-33.2 -15.5,-37 -10.5,-6.8 -29.3,-2.2 -24.1,13.3 0.5,1.4 1.2,2.7 2,4"
   style="fill:none;stroke:#b74e97;stroke-miterlimit:10" />
</g><path
       id="path16"
       class="st3"
       d="m 127.82035,38.687229 c -0.73898,-14.60368 10.73283,-27.06079 25.58283,-27.79977 14.85001,-0.73898 27.48307,10.4865 28.22205,25.09017 0.73898,14.60368 -10.73283,27.0608 -25.58283,27.79978 -14.85,0.73899 -27.48306,-10.48649 -28.22205,-25.09018 z"
       style="fill:#ffffff;stroke:#000000;stroke-width:0.351895;stroke-miterlimit:10" /><path
       id="path17"
       class="st0"
       d="m 145.80223,50.405359 3.27263,0.21114 c 4.22275,0.28152 8.4455,-0.0352 12.56268,-0.91493 l 4.25794,-0.87974 c 0.38709,-0.0352 0.66861,0.31671 0.56304,0.70379 -0.63342,2.11138 -2.95593,7.98804 -9.92347,8.51589 -7.00272,0.56303 -10.20497,-4.89135 -11.15509,-6.86198 -0.21114,-0.35189 0.0352,-0.73898 0.42227,-0.77417 z"
       style="fill:none;stroke:#000000;stroke-width:0.351895;stroke-miterlimit:10" /><path
       id="path18"
       class="st0"
       d="m 155.30342,46.745649 c -0.84455,0.52784 -1.97062,0.28151 -2.49846,-0.56304 -0.52785,-0.84455 -0.28152,-1.97061 0.56303,-2.49846"
       style="fill:none;stroke:#000000;stroke-width:0.351895;stroke-miterlimit:10" /><path
       id="path19"
       class="st4"
       d="m 135.83178,13.984139 c 5.24325,-4.1523697 12.4923,-6.4044997 18.93199,-6.6156397 5.34882,-0.17595 8.93816,0.10556 13.97027,2.42808 4.92654,2.2521397 8.55107,7.0379197 10.76801,11.4718097 2.00581,4.01161 3.16706,10.06422 1.82986,14.92038 -0.56304,2.00581 -1.6891,4.18756 -3.76529,4.68021 0.45747,-2.99111 -0.45746,-5.80628 -1.44277,-8.62144 -0.28152,-0.77417 -0.56303,-1.58353 -0.84455,-2.35771 -2.32251,1.90024 -5.34882,3.27264 -8.55107,3.97643 -0.59822,0.14076 -8.05841,1.51315 -8.05841,1.44277 0.17594,-2.041 0.73898,-4.0468 1.65391,-5.87666 -5.80628,1.93543 -11.43662,4.29313 -16.82062,7.1083 0.84455,-2.32252 2.11137,-4.68022 3.97642,-6.40451 -2.74479,0.21114 -7.17868,1.44277 -9.60676,2.67441 -4.53945,2.28732 -7.10829,4.82097 -9.60675,9.1141 -1.79467,-1.26682 -0.21114,-21.74716 7.56576,-27.94053 z"
       style="fill:#ffffff;stroke:#3265ae;stroke-width:0.351895;stroke-miterlimit:10" /><g
       id="g21"
       transform="matrix(-0.35189583,0,0,-0.35189583,225.09431,218.66878)"
       style="display:none">
	<path
   class="st5"
   d="m 109.8,542.4 c 8.9,-9.8 10.6,-20.8 10.8,-33.5 -4.7,5.2 -6.8,5.4 -6.8,5.4 7.3,-9.9 15.6,-24.5 15.3,-36.7 -0.8,1.1 -5.7,5.4 -5.7,5.4 2.3,-8.4 11.4,-16.9 19.3,-20.5 7.9,-3.6 18.3,-3 26.9,-4.2 -8.3,-3.5 -18.8,-5.9 -27.8,-6.7 -11.4,-1.1 -21.7,1.4 -32.5,5.1 -21.3,7.4 -58.2,41 -41.5,93.3 2.4,7.7 6.7,14.9 6.7,14.9 0,0 21.9,-7.8 35.3,-22.5 z"
   id="path20"
   style="fill:#ffffff;stroke:#b74e97;stroke-miterlimit:10" />
	<path
   class="st5"
   d="m 63.8,519.2 c 8.2,-3.8 41.1,7.1 51.4,22.7 5.4,8.2 8.9,17.4 11.8,26.8 1.6,5.1 3,10.3 5.5,15.1 9,16.9 20,17.8 37.2,18.3 C 103.2,623.9 59,589.7 63.8,519.2 Z"
   id="path21"
   style="fill:#ffffff;stroke:#b74e97;stroke-miterlimit:10" />
</g><path
       id="path22"
       class="st0"
       d="m 165.71954,42.839599 c -1.3724,0.0704 -2.53365,-0.98531 -2.60403,-2.3577 -0.0704,-1.37239 0.9853,-2.53365 2.3577,-2.60403 1.37239,-0.0704 2.53365,0.98531 2.60403,2.3577 0.0704,1.3724 -0.98531,2.53365 -2.3577,2.60403"
       style="fill:none;stroke:#000000;stroke-width:0.351895;stroke-miterlimit:10" /><path
       id="path23"
       class="st0"
       d="m 164.03044,39.602159 c -0.0352,-0.59822 0.42227,-1.12607 1.05568,-1.16126 0.59823,-0.0352 1.12607,0.42228 1.16126,1.05569 0.0352,0.59822 -0.42228,1.12607 -1.05569,1.16126 -0.63341,0 -1.12606,-0.45747 -1.16125,-1.05569"
       style="fill:none;stroke:#000000;stroke-width:0.351895;stroke-miterlimit:10" /><path
       id="path24"
       class="st0"
       d="m 144.00756,42.839599 c -1.37239,0.0704 -2.53365,-0.98531 -2.60403,-2.3577 -0.0704,-1.37239 0.98531,-2.53365 2.35771,-2.60403 1.37239,-0.0704 2.53365,0.98531 2.60403,2.3577 0.0352,1.3724 -1.0205,2.53365 -2.35771,2.60403"
       style="fill:none;stroke:#000000;stroke-width:0.351895;stroke-miterlimit:10" /><path
       id="path25"
       class="st0"
       d="m 143.30377,39.602159 c -0.0352,-0.59822 0.42228,-1.12607 1.05569,-1.16126 0.59822,-0.0352 1.12607,0.42228 1.16126,1.05569 0.0352,0.59822 -0.42228,1.12607 -1.05569,1.16126 -0.63341,0 -1.12607,-0.45747 -1.16126,-1.05569 z"
       style="fill:none;stroke:#000000;stroke-width:0.351895;stroke-miterlimit:10" /></g><g
     id="g45"
     transform="rotate(90,143.90447,119.32364)"
     style="display:inline"><path
       id="path26"
       class="st0"
       d="m 117.61552,152.83096 c 0,0.56304 -0.0704,1.09087 -0.21114,1.61873 -3.09668,11.15509 -11.36623,21.11375 -17.805929,27.48305 -4.85616,4.85616 -11.33104,7.49538 -18.228203,7.49538 H 62.790146 c -6.897157,0 -13.37204,-2.6744 -18.228203,-7.49538 -6.404505,-6.3693 -14.709247,-16.29277 -17.77074,-27.44788 -0.140759,-0.52783 -0.211138,-1.09086 -0.211138,-1.61871 0,-2.81517 1.865048,-5.27844 4.539457,-5.94704 0.457464,-0.10561 0.950119,-0.17595 1.442773,-0.17595 2.709597,0 5.102489,1.82985 5.80628,4.43389 2.779978,10.16979 11.647753,19.53022 16.679864,24.21043 l 0.03519,0.0352 -9.430808,-96.595401 c -0.03519,-0.24633 -0.03519,-0.49266 -0.03519,-0.73899 0,-3.44857 2.604029,-6.33412 6.017419,-6.7212 0.246327,-0.0352 0.492654,-0.0352 0.738982,-0.0352 1.090876,0 2.181753,0.28152 3.131872,0.77418 2.181754,0.9853 3.730096,3.06149 3.976423,5.45438 l 0.633413,5.80628 7.952845,46.098361 h 7.460192 l 8.727024,-52.115771 c 0.38708,-3.44859 3.27263,-6.01743 6.72121,-6.01743 0.24632,0 0.49265,0 0.73898,0.0352 0.84455,0.1056 1.65391,0.35189 2.39289,0.73898 2.46327,1.09087 4.0468,3.51896 4.0468,6.19336 0,0.24633 0,0.49266 -0.0352,0.73899 l -1.75948,16.22239 -6.68602,79.634031 0.0352,-0.0352 c 5.91185,-5.55996 13.512799,-14.18141 16.081639,-23.6474 0.70379,-2.60403 3.09668,-4.43389 5.80628,-4.43389 0.59822,0 1.19645,0.0704 1.75948,0.24633 2.53365,0.73898 4.25794,3.13187 4.25794,5.80628 z"
       style="fill:none;stroke:#000000;stroke-width:0.351895;stroke-miterlimit:10" /><g
       id="g28"
       transform="matrix(0,-0.35189583,0.35189583,0,-114.4598,261.66942)"
       style="display:inline">
	<line
   id="line26"
   class="st1"
   x1="340.89999"
   y1="472.60001"
   x2="340.89999"
   y2="587.5"
   style="fill:none;stroke:#3265ae;stroke-miterlimit:10" />
	<line
   id="line27"
   class="st1"
   x1="400.10001"
   y1="543.40002"
   x2="392.29999"
   y2="592"
   style="fill:none;stroke:#3265ae;stroke-miterlimit:10" />
	
		<line
   id="line28"
   class="st1"
   x1="394"
   y1="467.60001"
   x2="400.10001"
   y2="515.20001"
   style="fill:none;stroke:#3265ae;stroke-miterlimit:10" />
</g><g
       id="g33"
       transform="matrix(0,-0.35189583,0.35189583,0,-114.4598,263.04473)">
	<path
   id="path32"
   class="st1"
   d="m 145.3,464 c -9.2,-0.3 -16.5,-5.4 -16.3,-11.4 0.2,-6 7.8,-10.7 17,-10.4 9.2,0.3 16.5,5.4 16.3,11.4 -0.2,6 -7.8,10.7 -17,10.4 z"
   style="fill:none;stroke:#3265ae;stroke-miterlimit:10" />
	<path
   id="path33"
   class="st1"
   d="m 152,595.8 c -9.1,1.2 -15.9,7 -15.1,12.9 0.8,6 8.8,9.9 17.9,8.7 9.1,-1.2 15.9,-7 15.1,-12.9 -0.8,-6 -8.8,-9.9 -17.9,-8.7 z"
   style="fill:none;stroke:#3265ae;stroke-miterlimit:10" />
</g><g
       id="g35"
       transform="matrix(0.35189583,0,0,0.35189583,34.067038,-154.44641)"
       style="display:none">
	<path
   id="path34"
   class="st2"
   d="m 160.7,446.9 c 1.1,-3 2.8,-5.8 4.8,-8.3 3.1,-3.8 7,-6.9 9.8,-10.9 2.8,-4 4.3,-9.5 2.1,-13.8 -0.4,-0.8 -0.9,-1.6 -0.5,-2.4 0.4,-0.8 1.5,-1 2.4,-0.9 3.3,0.2 6.5,1.6 9.2,3.7 5.6,4.4 8.9,11.5 9.2,18.6 0.3,7.1 -2.1,14.2 -6.2,20.1 -2.7,3.9 -6.1,7.3 -10.3,9.5 -6.2,3.2 -16.2,3.8 -20,-3.3 -1.3,-2.4 -1.6,-5.3 -1.3,-8.1 0,-1.5 0.3,-2.9 0.8,-4.2"
   style="fill:none;stroke:#b74e97;stroke-miterlimit:10" />
	<path
   id="path35"
   class="st2"
   d="m 164.7,614.7 c 2,3.2 5,5.9 8.1,8.1 4.2,3 8.9,5.3 12.3,9.2 3,3.4 4.6,8.5 2.8,12.5 -0.3,0.8 0.2,1.7 1.1,1.7 6.1,-0.4 11.1,-5.9 13.3,-11.8 7.5,-20.2 -9.6,-33.2 -15.5,-37 -10.5,-6.8 -29.3,-2.2 -24.1,13.3 0.5,1.4 1.2,2.7 2,4"
   style="fill:none;stroke:#b74e97;stroke-miterlimit:10" />
</g><path
       id="path36"
       class="st3"
       d="m 99.000231,210.99934 c 0.73898,14.60368 -10.73282,27.06079 -25.58283,27.79977 -14.850005,0.73898 -27.483064,-10.4865 -28.222045,-25.09017 -0.738982,-14.60368 10.732822,-27.0608 25.582826,-27.79977 14.850009,-0.73899 27.483069,10.48648 28.222049,25.09017 z"
       style="fill:#ffffff;stroke:#000000;stroke-width:0.351895;stroke-miterlimit:10" /><path
       id="path37"
       class="st0"
       d="m 81.018348,199.28121 -3.272628,-0.21114 c -4.22275,-0.28152 -8.4455,0.0352 -12.562681,0.91493 l -4.25794,0.87974 c -0.387085,0.0352 -0.668603,-0.31671 -0.563034,-0.70379 0.633413,-2.11138 2.955925,-7.98804 9.923463,-8.51589 7.002728,-0.56303 10.20498,4.89135 11.1551,6.86198 0.211143,0.35189 -0.0352,0.73898 -0.42228,0.77417 z"
       style="fill:none;stroke:#000000;stroke-width:0.351895;stroke-miterlimit:10" /><path
       id="path38"
       class="st0"
       d="m 71.517164,202.94092 c 0.84455,-0.52784 1.970617,-0.28151 2.49846,0.56304 0.527844,0.84455 0.281516,1.97061 -0.563034,2.49846"
       style="fill:none;stroke:#000000;stroke-width:0.351895;stroke-miterlimit:10" /><path
       id="path39"
       class="st4"
       d="m 53.148201,235.70243 c 5.243248,4.15237 12.492302,6.4045 18.931995,6.61564 5.348818,0.17595 8.938152,-0.10556 13.970265,-2.42808 4.92655,-2.25214 8.55107,-7.03792 10.76802,-11.47181 2.0058,-4.01161 3.16706,-10.06422 1.82985,-14.92038 -0.56303,-2.00581 -1.6891,-4.18756 -3.76528,-4.68021 0.45746,2.99111 -0.45747,5.80628 -1.44277,8.62144 -0.28152,0.77417 -0.56304,1.58353 -0.84455,2.35771 -2.32252,-1.90024 -5.34882,-3.27264 -8.55107,-3.97643 -0.59823,-0.14076 -8.058421,-1.51315 -8.058421,-1.44277 0.175949,2.041 0.738981,4.0468 1.653911,5.87666 -5.806281,-1.93543 -11.436614,-4.29313 -16.82062,-7.1083 0.84455,2.32252 2.111375,4.68022 3.976422,6.40451 -2.744788,-0.21114 -7.178675,-1.44277 -9.606757,-2.67441 -4.539456,-2.28732 -7.108295,-4.82097 -9.606756,-9.1141 -1.794667,1.26682 -0.211137,21.74716 7.565761,27.94053 z"
       style="fill:#ffffff;stroke:#3265ae;stroke-width:0.351895;stroke-miterlimit:10" /><g
       id="g41"
       transform="matrix(0.35189583,0,0,0.35189583,34.067038,-154.44641)"
       style="display:none">
	<path
   class="st5"
   d="m 109.8,542.4 c 8.9,-9.8 10.6,-20.8 10.8,-33.5 -4.7,5.2 -6.8,5.4 -6.8,5.4 7.3,-9.9 15.6,-24.5 15.3,-36.7 -0.8,1.1 -5.7,5.4 -5.7,5.4 2.3,-8.4 11.4,-16.9 19.3,-20.5 7.9,-3.6 18.3,-3 26.9,-4.2 -8.3,-3.5 -18.8,-5.9 -27.8,-6.7 -11.4,-1.1 -21.7,1.4 -32.5,5.1 -21.3,7.4 -58.2,41 -41.5,93.3 2.4,7.7 6.7,14.9 6.7,14.9 0,0 21.9,-7.8 35.3,-22.5 z"
   id="path40"
   style="fill:#ffffff;stroke:#b74e97;stroke-miterlimit:10" />
	<path
   class="st5"
   d="m 63.8,519.2 c 8.2,-3.8 41.1,7.1 51.4,22.7 5.4,8.2 8.9,17.4 11.8,26.8 1.6,5.1 3,10.3 5.5,15.1 9,16.9 20,17.8 37.2,18.3 C 103.2,623.9 59,589.7 63.8,519.2 Z"
   id="path41"
   style="fill:#ffffff;stroke:#b74e97;stroke-miterlimit:10" />
</g><path
       id="path42"
       class="st0"
       d="m 61.101046,206.84697 c 1.372394,-0.0704 2.53365,0.98531 2.60403,2.3577 0.07038,1.37239 -0.985308,2.53365 -2.357702,2.60403 -1.372393,0.0704 -2.53365,-0.98531 -2.604029,-2.3577 -0.07038,-1.3724 0.985308,-2.53365 2.357701,-2.60403"
       style="fill:none;stroke:#000000;stroke-width:0.351895;stroke-miterlimit:10" /><path
       id="path43"
       class="st0"
       d="m 62.790146,210.08441 c 0.03519,0.59822 -0.422275,1.12607 -1.055687,1.16126 -0.598222,0.0352 -1.126066,-0.42228 -1.161256,-1.05569 -0.03519,-0.59822 0.422275,-1.12607 1.055687,-1.16126 0.633413,0 1.126067,0.45747 1.161256,1.05569"
       style="fill:none;stroke:#000000;stroke-width:0.351895;stroke-miterlimit:10" /><path
       id="path44"
       class="st0"
       d="m 82.813021,206.84697 c 1.3724,-0.0704 2.53365,0.98531 2.60403,2.3577 0.0704,1.37239 -0.98531,2.53365 -2.3577,2.60403 -1.37239,0.0704 -2.533653,-0.98531 -2.604033,-2.3577 -0.0352,-1.3724 1.0205,-2.53365 2.357703,-2.60403"
       style="fill:none;stroke:#000000;stroke-width:0.351895;stroke-miterlimit:10" /><path
       id="path45"
       class="st0"
       d="m 83.516811,210.08441 c 0.0352,0.59822 -0.42227,1.12607 -1.05568,1.16126 -0.59823,0.0352 -1.126073,-0.42228 -1.161263,-1.05569 -0.0352,-0.59822 0.422273,-1.12607 1.055693,-1.16126 0.63341,0 1.12606,0.45747 1.16125,1.05569 z"
       style="fill:none;stroke:#000000;stroke-width:0.351895;stroke-miterlimit:10" /></g><g
     id="layer2"
     style="display:none"><rect
       style="display:inline;fill:#00ff00;fill-opacity:0.25;stroke:none;stroke-width:0.414988"
       id="rect3"
       width="270"
       height="200"
       x="13.499996"
       y="5.0000024" /></g></svg>
