<?xml version="1.0" encoding="UTF-8" standalone="no"?>
<!-- Created with Inkscape (http://www.inkscape.org/) -->

<svg
   width="297mm"
   height="210mm"
   viewBox="0 0 297 210"
   version="1.1"
   id="svg1"
   xml:space="preserve"
   xmlns="http://www.w3.org/2000/svg"
   xmlns:svg="http://www.w3.org/2000/svg"><defs
     id="defs1" /><g
     id="layer4"
     style="display:inline"
     transform="translate(-920.99997)"><g
       id="g316"
       transform="translate(924.09154,28.673936)"
       style="stroke-width:0.352;stroke-dasharray:none"><rect
         style="display:inline;fill:#ffffff;fill-opacity:1;stroke:#000000;stroke-width:0.352;stroke-dasharray:none"
         id="rect317"
         width="2.7658691"
         height="9.7658691"
         x="24.906956"
         y="80.307861"
         transform="rotate(-12.459217)" /><rect
         style="display:inline;fill:#ffffff;fill-opacity:1;stroke:#000000;stroke-width:0.352;stroke-dasharray:none"
         id="rect317-4"
         width="2.7658691"
         height="9.7658691"
         x="-95.265869"
         y="51.378021"
         transform="matrix(-0.96880788,-0.24781297,-0.24781297,0.96880788,0,0)" /><rect
         style="display:inline;fill:#ffffff;fill-opacity:1;stroke:#000000;stroke-width:0.352;stroke-dasharray:none;stroke-opacity:1"
         id="rect336"
         width="15"
         height="10"
         x="34.563046"
         y="94.556931"
         transform="rotate(3.8843183,1.6900499e-5,8.653052e-6)" /><rect
         style="display:inline;fill:#ffffff;fill-opacity:1;stroke:#000000;stroke-width:0.352;stroke-dasharray:none;stroke-opacity:1"
         id="rect336-6"
         width="15"
         height="10"
         x="-86.034744"
         y="102.6477"
         transform="matrix(-0.99770286,0.06774222,0.06774222,0.99770286,0,0)" /><path
         style="fill:#ffffff;fill-opacity:1;stroke:#000000;stroke-width:0.352;stroke-dasharray:none"
         d="m 46.32317,81.899365 c -0.825783,0.215131 -2.526718,0.539033 -2.526718,0.539033 l -1.785548,25.401942 -9.904736,49.48999 56.733249,0.0337 -10.039493,-49.48999 -1.617101,-25.368253 c 0,0 -1.324495,-0.393744 -2.526718,-0.70748 -1.575748,1.736014 -9.070522,5.06185 -14.082243,5.087125 -5.01172,0.02528 -11.081069,-2.545807 -14.250692,-4.986067 z"
         id="path312" /><path
         style="fill:none;fill-opacity:1;stroke:#000000;stroke-width:0.352;stroke-dasharray:none"
         d="m 41.967634,107.76647 c 0,0 7.93609,4.62756 18.220573,4.49165 10.284483,-0.13591 18.566614,-4.46384 18.566614,-4.46384"
         id="path314" /><path
         style="fill:none;fill-opacity:1;stroke:#000000;stroke-width:0.352;stroke-dasharray:none"
         d="m 55.478311,117.08393 c 0,0 2.510735,0.58768 3.680615,-1.65386 1.169881,-2.24154 0.82782,-4.96093 1.7827,-6.14701 0.954882,-1.18606 1.866557,-1.70027 2.707403,-1.13691 0.840846,0.56336 0.744918,2.43592 -0.507068,3.43884 -1.251988,1.0029 -5.383375,0.8051 -6.503983,-0.29333 -1.120609,-1.09844 -1.252207,-2.72914 -0.325921,-3.24556 0.926287,-0.51643 1.871883,-0.0843 2.642976,1.2453 0.771094,1.32963 1.385288,3.63698 2.58007,6.39182 1.19478,2.75484 3.781422,2.93479 3.781422,2.93479"
         id="path316" /></g><g
       id="g335"
       style="display:inline;stroke-width:0.352;stroke-dasharray:none"
       transform="translate(1092.5703,27.022959)"><rect
         style="fill:#ffffff;fill-opacity:1;stroke:#000000;stroke-width:0.352;stroke-dasharray:none;stroke-opacity:1"
         id="rect335"
         width="10"
         height="15"
         x="-116.13412"
         y="36.173172"
         transform="rotate(-83.138914)" /><rect
         style="display:inline;fill:#ffffff;fill-opacity:1;stroke:#000000;stroke-width:0.352;stroke-dasharray:none;stroke-opacity:1"
         id="rect335-7"
         width="10"
         height="15"
         x="-130.53067"
         y="-83.474869"
         transform="matrix(-0.11946255,-0.99283871,-0.99283871,0.11946255,0,0)" /><rect
         style="display:inline;fill:#ffffff;fill-opacity:1;stroke:#000000;stroke-width:0.352;stroke-dasharray:none;stroke-opacity:1"
         id="rect335-1"
         width="10"
         height="15"
         x="-1.722837"
         y="78.26091"
         transform="rotate(-23.309464)" /><rect
         style="display:inline;fill:#ffffff;fill-opacity:1;stroke:#000000;stroke-width:0.352;stroke-dasharray:none;stroke-opacity:1"
         id="rect335-1-5"
         width="10"
         height="15"
         x="-113.24374"
         y="30.572117"
         transform="matrix(-0.91838103,-0.3956972,-0.3956972,0.91838103,0,0)" /><path
         style="display:inline;fill:#ffffff;fill-opacity:1;stroke:#000000;stroke-width:0.352;stroke-dasharray:none;stroke-opacity:1"
         d="m 81.604089,101.20266 5.87807,-13.912834 -8.246215,-4.144251 -5.83578,12.432752 z"
         id="path335-5" /><path
         style="display:inline;fill:#ffffff;fill-opacity:1;stroke:#000000;stroke-width:0.352;stroke-dasharray:none;stroke-opacity:1"
         d="m 39.032076,101.15355 -5.87807,-13.91284 8.246215,-4.144251 5.83578,12.432752 z"
         id="path335" /><path
         style="display:inline;fill:#ffffff;fill-opacity:1;stroke:#000000;stroke-width:0.352;stroke-dasharray:none;stroke-opacity:1"
         d="m 46.111739,82.049944 c -1.534373,0.05988 -4.714563,1.033897 -4.714563,1.033897 L 31.84398,159.38533 88.666877,159.26126 79.155038,83.083841 c 0,0 -2.372588,-0.826326 -4.673209,-0.99254 -0.646388,2.273779 -4.813236,11.921533 -14.019622,11.951833 -9.206386,0.0303 -13.849991,-10.481546 -14.350468,-11.99319 z"
         id="path318" /></g><g
       id="g337"
       style="display:inline;stroke-width:0.352;stroke-dasharray:none"
       transform="translate(1008.2831,-27.275506)"><rect
         style="display:inline;fill:#ffffff;stroke:#000000;stroke-width:0.352;stroke-dasharray:none"
         id="rect337"
         width="14.638557"
         height="5.638557"
         x="62.548447"
         y="129.99358"
         transform="rotate(-7.9707195)" /><rect
         style="display:inline;fill:#ffffff;stroke:#000000;stroke-width:0.352;stroke-dasharray:none"
         id="rect337-1"
         width="14.638557"
         height="5.638557"
         x="-57.873447"
         y="113.13213"
         transform="matrix(-0.99033907,-0.13866702,-0.13866702,0.99033907,0,0)" /><path
         style="fill:#ffffff;stroke:#000000;stroke-width:0.352;stroke-dasharray:none"
         d="m 40.618352,119.93335 c -1.06087,1.93294 -0.995413,4.08542 -0.660964,5.50715 -5.233886,2.64554 -10.05985,15.36157 -10.280002,25.76119 7.428659,2.87319 21.092351,5.49891 31.5131,5.44596 10.420749,-0.053 24.179658,-2.50321 30.289292,-5.50715 -0.68251,-9.73489 -3.809393,-22.31279 -10.280003,-25.57762 0.260343,-1.61269 0.05393,-4.12316 -0.866265,-5.56834 -3.80375,0.74807 -13.395549,1.35212 -19.99969,1.3462 -6.604141,-0.006 -15.16674,-0.70914 -19.715468,-1.40739 z"
         id="path336" /><path
         style="fill:none;stroke:#000000;stroke-width:0.352;stroke-dasharray:none"
         d="m 39.957388,125.31811 c 0,0 10.803057,2.85705 20.682385,2.75358 9.879328,-0.10348 20.621193,-2.63119 20.621193,-2.63119"
         id="path337" /></g><g
       id="g389"
       transform="translate(1091.7122,-49.936883)"
       style="stroke-width:0.352;stroke-dasharray:none"><rect
         style="display:inline;fill:#ffffff;stroke:#000000;stroke-width:0.352;stroke-dasharray:none"
         id="rect4"
         width="14.579063"
         height="9.5790634"
         x="35.593513"
         y="111.10843"
         transform="rotate(4.6530914)" /><rect
         style="display:inline;fill:#ffffff;stroke:#000000;stroke-width:0.352;stroke-dasharray:none"
         id="rect5"
         width="14.579063"
         height="9.5790634"
         x="77.249359"
         y="16.80089"
         transform="rotate(54.010887)" /><rect
         style="display:inline;fill:#ffffff;stroke:#000000;stroke-width:0.352;stroke-dasharray:none"
         id="rect6"
         width="14.579063"
         height="9.5790634"
         x="5.7001739"
         y="115.31926"
         transform="matrix(-0.58763152,0.80912867,0.80912867,0.58763152,0,0)" /><rect
         style="display:inline;fill:#ffffff;stroke:#000000;stroke-width:0.352;stroke-dasharray:none"
         id="rect7"
         width="14.579063"
         height="9.5790634"
         x="-84.839905"
         y="120.91056"
         transform="matrix(-0.99670414,0.08112252,0.08112252,0.99670414,0,0)" /><path
         style="display:inline;fill:#ffffff;stroke:#000000;stroke-width:0.352;stroke-dasharray:none"
         d="m 39.533763,128.08939 2.555597,-29.52162 -4.891611,4.98272 -9.336104,-9.682772 c 5.968542,-7.274568 11.293226,-10.938749 17.72969,-12.183204 2.439328,3.863801 9.72534,5.733404 15.106258,5.692498 5.172823,-0.03932 11.79472,-2.059111 14.437183,-5.692498 6.436464,1.244455 11.990484,4.526409 17.959026,11.800977 l -9.56544,10.064999 -4.891611,-4.982723 2.555597,29.521633 c -14.174183,2.78389 -28.095544,3.12381 -41.658585,-1e-5 z"
         id="path388" /><path
         style="display:inline;fill:none;stroke:#000000;stroke-width:0.352;stroke-dasharray:none"
         d="m 44.038779,81.955091 c 3.289651,4.671162 10.35118,6.550339 16.165454,6.552113 5.870772,0.0018 12.299548,-1.490295 16.326569,-6.605818"
         id="path389" /></g><g
       id="g355"
       transform="translate(834.59824,-87.412289)"
       style="display:inline;stroke-width:0.352;stroke-dasharray:none"><rect
         style="display:inline;fill:#ffffff;stroke:#000000;stroke-width:0.352;stroke-dasharray:none"
         id="rect349"
         width="14.579063"
         height="9.5790634"
         x="210.63158"
         y="126.55812"
         transform="rotate(4.6530914)" /><rect
         style="display:inline;fill:#ffffff;stroke:#000000;stroke-width:0.352;stroke-dasharray:none"
         id="rect350"
         width="14.579063"
         height="9.5790634"
         x="-260.59076"
         y="164.91125"
         transform="matrix(-0.99670414,0.08112252,0.08112252,0.99670414,0,0)" /><rect
         style="display:inline;fill:#ffffff;stroke:#000000;stroke-width:0.352;stroke-dasharray:none"
         id="rect351"
         width="14.579063"
         height="9.5790634"
         x="210.38277"
         y="108.33914"
         transform="rotate(4.6530914)" /><rect
         style="display:inline;fill:#ffffff;stroke:#000000;stroke-width:0.352;stroke-dasharray:none"
         id="rect352"
         width="14.579063"
         height="9.5790634"
         x="-260.41357"
         y="146.65761"
         transform="matrix(-0.99670414,0.08112252,0.08112252,0.99670414,0,0)" /><path
         style="fill:#ffffff;stroke:#000000;stroke-width:0.352;stroke-dasharray:none"
         d="m 215.43547,123.8707 -2.77565,33.78296 h 18.50568 l 3.8977,-14.90653 h 2.72347 l 4.45218,14.90653 h 18.3111 l -3.5112,-33.78296 z"
         id="path352" /><rect
         style="fill:#ffffff;stroke:#000000;stroke-width:0.352;stroke-dasharray:none"
         id="rect353"
         width="42.260662"
         height="2.5356398"
         x="215.05981"
         y="121.33506" /><path
         style="fill:none;stroke:#000000;stroke-width:0.352;stroke-dasharray:none"
         d="m 235.29714,123.71801 v 13.52746 l 1.79172,2.77716"
         id="path353" /><path
         style="fill:none;stroke:#000000;stroke-width:0.352;stroke-dasharray:none"
         d="m 214.51323,132.81097 c 4.52409,0.65696 7.33739,-3.15824 8.19711,-6.89811"
         id="path354" /><path
         style="display:inline;fill:none;stroke:#000000;stroke-width:0.352;stroke-dasharray:none"
         d="m 257.90719,132.81097 c -4.52409,0.65696 -7.33739,-3.15824 -8.19711,-6.89811"
         id="path355" /><circle
         style="fill:none;stroke:#000000;stroke-width:0.352;stroke-dasharray:none"
         id="circle355"
         cx="237.4024"
         cy="127.88375"
         r="0.98544395" /></g><g
       id="g349"
       transform="translate(831.85028,25.623897)"
       style="display:inline;stroke-width:0.352;stroke-dasharray:none"><rect
         style="display:inline;fill:#ffffff;stroke:#000000;stroke-width:0.352;stroke-dasharray:none"
         id="rect343"
         width="14.579063"
         height="9.5790634"
         x="210.63158"
         y="126.55812"
         transform="rotate(4.6530914)" /><rect
         style="display:inline;fill:#ffffff;stroke:#000000;stroke-width:0.352;stroke-dasharray:none"
         id="rect344"
         width="14.579063"
         height="9.5790634"
         x="-260.59076"
         y="164.91125"
         transform="matrix(-0.99670414,0.08112252,0.08112252,0.99670414,0,0)" /><rect
         style="display:inline;fill:#ffffff;stroke:#000000;stroke-width:0.352;stroke-dasharray:none"
         id="rect345"
         width="14.579063"
         height="9.5790634"
         x="210.38277"
         y="108.33914"
         transform="rotate(4.6530914)" /><rect
         style="display:inline;fill:#ffffff;stroke:#000000;stroke-width:0.352;stroke-dasharray:none"
         id="rect346"
         width="14.579063"
         height="9.5790634"
         x="-260.41357"
         y="146.65761"
         transform="matrix(-0.99670414,0.08112252,0.08112252,0.99670414,0,0)" /><path
         style="fill:#ffffff;stroke:#000000;stroke-width:0.352;stroke-dasharray:none"
         d="m 215.43547,123.8707 -2.77565,33.78296 c 16.14652,4.21239 32.09811,3.94109 47.89013,0 l -3.5112,-33.78296 z"
         id="path346" /><rect
         style="fill:#ffffff;stroke:#000000;stroke-width:0.352;stroke-dasharray:none"
         id="rect347"
         width="42.260662"
         height="2.5356398"
         x="215.05981"
         y="121.33506" /><path
         style="fill:none;stroke:#000000;stroke-width:0.352;stroke-dasharray:none"
         d="m 235.29714,123.71801 v 13.52746 l 1.79172,2.77716"
         id="path347" /><path
         style="fill:none;stroke:#000000;stroke-width:0.352;stroke-dasharray:none"
         d="m 214.51323,132.81097 c 4.52409,0.65696 7.33739,-3.15824 8.19711,-6.89811"
         id="path348" /><path
         style="display:inline;fill:none;stroke:#000000;stroke-width:0.352;stroke-dasharray:none"
         d="m 257.90719,132.81097 c -4.52409,0.65696 -7.33739,-3.15824 -8.19711,-6.89811"
         id="path349" /><circle
         style="fill:none;stroke:#000000;stroke-width:0.352;stroke-dasharray:none"
         id="circle349"
         cx="237.4024"
         cy="127.88375"
         r="0.98544395" /></g><g
       id="g341"
       transform="translate(748.96046,-100.10767)"
       style="display:inline;stroke-width:0.352;stroke-dasharray:none"><rect
         style="display:inline;fill:#ffffff;stroke:#000000;stroke-width:0.352;stroke-dasharray:none"
         id="rect341-9"
         width="14.579063"
         height="9.5790634"
         x="209.94092"
         y="154.75278"
         transform="rotate(4.6530914)" /><rect
         style="display:inline;fill:#ffffff;stroke:#000000;stroke-width:0.352;stroke-dasharray:none"
         id="rect341-9-6"
         width="14.579063"
         height="9.5790634"
         x="-261.3501"
         y="193.11151"
         transform="matrix(-0.99670414,0.08112252,0.08112252,0.99670414,0,0)" /><rect
         style="display:inline;fill:#ffffff;stroke:#000000;stroke-width:0.352;stroke-dasharray:none"
         id="rect341"
         width="14.579063"
         height="9.5790634"
         x="210.11288"
         y="111.54659"
         transform="rotate(4.6530914)" /><rect
         style="display:inline;fill:#ffffff;stroke:#000000;stroke-width:0.352;stroke-dasharray:none"
         id="rect341-5"
         width="14.579063"
         height="9.5790634"
         x="-260.68338"
         y="149.86505"
         transform="matrix(-0.99670415,0.08112252,0.08112252,0.99670415,0,0)" /><path
         style="fill:#ffffff;stroke:#000000;stroke-width:0.352;stroke-dasharray:none"
         d="m 215.43547,123.8707 -5.54084,62.35796 h 16.71644 l 8.45213,-43.48153 h 2.72347 l 9.57908,43.48153 h 15.87123 l -6.19823,-62.35796 z"
         id="path338" /><rect
         style="fill:#ffffff;stroke:#000000;stroke-width:0.352;stroke-dasharray:none"
         id="rect338"
         width="42.260662"
         height="2.5356398"
         x="215.05981"
         y="121.33506" /><path
         style="fill:none;stroke:#000000;stroke-width:0.352;stroke-dasharray:none"
         d="m 235.29714,123.71801 v 13.52746 l 1.79172,2.77716"
         id="path339" /><path
         style="fill:none;stroke:#000000;stroke-width:0.352;stroke-dasharray:none"
         d="m 214.51323,132.81097 c 4.52409,0.65696 7.33739,-3.15824 8.19711,-6.89811"
         id="path340" /><path
         style="display:inline;fill:none;stroke:#000000;stroke-width:0.352;stroke-dasharray:none"
         d="m 257.90719,132.81097 c -4.52409,0.65696 -7.33739,-3.15824 -8.19711,-6.89811"
         id="path340-7" /><circle
         style="fill:none;stroke:#000000;stroke-width:0.352;stroke-dasharray:none"
         id="path341"
         cx="237.4024"
         cy="127.88375"
         r="0.98544395" /></g></g><g
     id="layer2"
     style="display:none"
     transform="translate(-920.99997)"><rect
       style="display:inline;fill:#00ff00;fill-opacity:0.25;stroke:none;stroke-width:0.414988"
       id="rect3-8"
       width="270"
       height="200"
       x="934.5"
       y="5.0000024" /></g></svg>
