<?xml version="1.0" encoding="UTF-8" standalone="no"?>
<!-- Created with Inkscape (http://www.inkscape.org/) -->

<svg
   width="297mm"
   height="210mm"
   viewBox="0 0 297 210"
   version="1.1"
   id="svg1"
   xml:space="preserve"
   xmlns="http://www.w3.org/2000/svg"
   xmlns:svg="http://www.w3.org/2000/svg"><defs
     id="defs1" /><g
     id="layer4"
     style="display:inline"
     transform="translate(-613.99998)"><g
       id="g393"
       transform="translate(576.85027,-19.443239)"
       style="display:inline"><rect
         style="display:inline;fill:#ffffff;stroke:#000000;stroke-width:0.352;stroke-dasharray:none"
         id="rect393"
         width="6.7003813"
         height="14.700381"
         x="182.28419"
         y="128.70851"
         transform="rotate(-16.900135)" /><rect
         style="fill:#ffffff;stroke:#000000;stroke-width:0.352;stroke-dasharray:none"
         id="rect392"
         width="6.7003813"
         height="14.700381"
         x="-270.16046"
         y="-8.7558517"
         transform="matrix(-0.9568129,-0.29070445,-0.29070445,0.9568129,0,0)" /><path
         style="display:inline;fill:#ffffff;stroke:#000000;stroke-width:0.351999"
         d="m 215.94614,84.035645 c -3.13163,33.809285 -7.30419,67.618565 -15.44074,101.427855 9.01239,1.99739 14.2185,-2.83395 21.2827,-1.92024 5.907,0.76403 10.84707,6.1977 16.80213,6.08077 4.95164,-0.0972 8.83717,-5.07466 13.76174,-5.60071 6.13872,-0.65575 12.02941,3.78536 18.24232,3.2004 -8.37269,-34.78391 -12.03846,-68.79601 -13.83846,-103.193303 -11.88749,-5.229047 -26.83045,-5.108033 -40.80969,0.0052 z"
         id="path387" /></g><g
       id="g405"
       transform="translate(476.35935,-28.678777)"><rect
         style="display:inline;fill:#ffffff;stroke:#000000;stroke-width:0.352;stroke-dasharray:none"
         id="rect403"
         width="11.685239"
         height="7.721839"
         x="185.35085"
         y="-121.60468"
         transform="rotate(53.220851)" /><rect
         style="display:inline;fill:#ffffff;stroke:#000000;stroke-width:0.352;stroke-dasharray:none"
         id="rect401"
         width="11.685239"
         height="7.721839"
         x="-97.814575"
         y="257.01215"
         transform="matrix(-0.59873216,0.80094931,0.80094931,0.59873216,0,0)" /><rect
         style="display:inline;fill:#ffffff;stroke:#000000;stroke-width:0.352;stroke-dasharray:none"
         id="rect404"
         width="11.68524"
         height="7.721839"
         x="214.60951"
         y="97.481636"
         transform="rotate(4.6756722)" /><rect
         style="display:inline;fill:#ffffff;stroke:#000000;stroke-width:0.352;stroke-dasharray:none"
         id="rect402"
         width="11.68524"
         height="7.721839"
         x="-256.38882"
         y="136.0034"
         transform="matrix(-0.99667208,0.08151533,0.08151533,0.99667208,0,0)" /><rect
         style="display:inline;fill:#ffffff;stroke:#000000;stroke-width:0.352;stroke-dasharray:none"
         id="rect405"
         width="11.68524"
         height="7.721839"
         x="214.53946"
         y="142.84201"
         transform="rotate(4.6756722)" /><rect
         style="display:inline;fill:#ffffff;stroke:#000000;stroke-width:0.352;stroke-dasharray:none"
         id="rect400"
         width="11.68524"
         height="7.721839"
         x="-257.11398"
         y="181.52881"
         transform="matrix(-0.99667208,0.08151533,0.08151533,0.99667208,0,0)" /><path
         id="path393"
         style="display:inline;fill:#ffffff;stroke:#000000;stroke-width:0.351895;stroke-miterlimit:10"
         class="st0"
         d="m 249.34292,82.007914 c -0.84317,0.456254 -1.71557,0.867469 -2.61173,1.235067 v 5.17e-4 c -2e-4,9.72e-4 -0.83406,4.017621 -0.91725,4.315499 -6.30491,0.348899 -12.62981,0.332656 -18.90014,-0.01654 -0.0446,-0.208071 -0.93586,-4.28811 -0.93586,-4.28811 h 0.0878 c -0.90549,-0.369961 -1.79326,-0.774484 -2.64687,-1.2361 -5.48055,0.77574 -10.54034,3.234314 -14.51074,7.204728 -5.58879,5.527668 -12.55113,13.760435 -16.3189,23.130895 a 13.250433,10.58686 14.013951 0 1 4.82864,0.43821 13.250433,10.58686 14.013951 0 1 6.5872,3.40496 c 3.28717,-7.96973 9.66975,-15.08485 14.79083,-19.901112 l 0.0357,-0.03514 -6.68641,79.633902 -1.75907,16.22227 c -0.0352,0.24633 -0.0357,0.49316 -0.0357,0.73949 0,2.67436 1.58351,5.10203 4.04678,6.1929 0.73898,0.38709 1.5486,0.63337 2.39313,0.73897 0.24633,0.0352 0.49266,0.0357 0.73898,0.0357 3.44856,0 6.33397,-2.56917 6.72103,-6.01772 l 8.72712,-52.11568 h 7.46053 l 7.95248,46.09847 0.63356,5.80637 c 0.24633,2.39289 1.79475,4.46863 3.9765,5.45393 0.95012,0.49266 2.04071,0.77463 3.13159,0.77463 0.24632,0 0.49264,-3.8e-4 0.73897,-0.0357 3.41338,-0.38708 6.01772,-3.2725 6.01772,-6.72103 0,-0.24633 -3e-5,-0.49265 -0.0351,-0.73898 l -9.43095,-96.595138 0.0351,0.03514 c 4.41063,4.102192 11.76671,11.800308 15.38873,20.487128 a 10.58686,13.250433 75.986049 0 1 6.64249,-3.46336 10.58686,13.250433 75.986049 0 1 4.76198,-0.44132 c -3.74828,-9.37592 -10.74232,-17.594207 -16.3065,-23.127785 -3.99226,-3.963355 -9.08611,-6.446482 -14.60169,-7.215064 z" /><path
         id="path3777"
         fill="#c72026"
         stroke="#010101"
         stroke-width="0.39072"
         d="m 236.25622,113.05025 -14.17686,-16.522677 4.79361,-4.623626 h 18.76649 l 4.79361,4.623626 z"
         style="fill:none;stroke:#000000" /><g
         id="g400"><path
           style="fill:#ffffff;stroke:#000000;stroke-width:0.351999"
           d="m 226.91138,87.47404 -0.93476,-4.23276 c -1.30038,-0.557776 -2.54137,-1.181804 -3.6871,-1.85374 -0.91456,-0.204324 -1.17979,-0.247401 -1.89786,0.517702 -0.85096,-0.384196 -1.6786,-0.171401 -1.97915,0.728689 -1.36287,-0.416989 -2.39872,0.519058 -2.5698,1.29325 l 4.93308,3.200992"
           id="path368" /><path
           style="fill:#ffffff;stroke:#000000;stroke-width:0.351999"
           d="m 245.80829,87.47404 0.93476,-4.23276 c 1.30038,-0.557776 2.54137,-1.181804 3.6871,-1.85374 0.91456,-0.204324 1.17979,-0.247401 1.89786,0.517702 0.85096,-0.384196 1.6786,-0.171401 1.97915,0.728689 1.36287,-0.416989 2.39872,0.519058 2.5698,1.29325 l -4.93308,3.200992"
           id="path362" /><path
           style="display:inline;fill:none;stroke:#000000;stroke-width:0.351999"
           d="m 220.65381,87.082433 c 10.35605,0.944429 20.93057,0.99826 31.38317,0.01156"
           id="path345" /></g><g
         id="g398"><path
           style="fill:none;stroke:#000000;stroke-width:0.351999;stroke-dasharray:none"
           d="m 232.94442,141.62954 c -5.16608,-6.6961 -11.06351,-9.52645 -17.04877,-11.89256"
           id="path395" /><path
           style="fill:none;stroke:#000000;stroke-width:0.351999;stroke-dasharray:none"
           d="m 240.42427,141.62954 c 5.16608,-6.6961 10.35083,-9.34828 16.33609,-11.71439"
           id="path394" /><path
           style="fill:none;stroke:#000000;stroke-width:0.351999;stroke-dasharray:none"
           d="m 216.56191,123.33467 h 39.56773"
           id="path396" /></g><g
         id="g399"><path
           style="fill:none;stroke:#000000;stroke-width:0.351999;stroke-dasharray:none"
           d="m 212.75282,168.614 5.56475,-2.16123 2.36503,2.9698 3.151,-2.08191 4.16781,3.9804"
           id="path398" /><path
           style="fill:none;stroke:#000000;stroke-width:0.351999;stroke-dasharray:none"
           d="m 260.54096,168.614 -5.35577,-2.16123 -2.36503,2.9698 -3.151,-2.08191 -4.16781,3.9804"
           id="path397" /></g></g></g><g
     id="layer2"
     style="display:none"
     transform="translate(-613.99998)"><rect
       style="display:inline;fill:#00ff00;fill-opacity:0.25;stroke:none;stroke-width:0.414988"
       id="rect394"
       width="270"
       height="200"
       x="627.49994"
       y="5.0000024" /></g></svg>
