<?xml version="1.0" encoding="UTF-8" standalone="no"?>
<!-- Created with Inkscape (http://www.inkscape.org/) -->

<svg
   width="297mm"
   height="210mm"
   viewBox="0 0 297 210"
   version="1.1"
   id="svg1"
   inkscape:version="1.3.2 (091e20e, 2023-11-25)"
   sodipodi:docname="test-a4-landscape.inkscape.svg"
   xmlns:inkscape="http://www.inkscape.org/namespaces/inkscape"
   xmlns:sodipodi="http://sodipodi.sourceforge.net/DTD/sodipodi-0.dtd"
   xmlns="http://www.w3.org/2000/svg"
   xmlns:svg="http://www.w3.org/2000/svg">
  <sodipodi:namedview
     id="namedview1"
     pagecolor="#ffffff"
     bordercolor="#000000"
     borderopacity="0.25"
     inkscape:showpageshadow="2"
     inkscape:pageopacity="0.0"
     inkscape:pagecheckerboard="0"
     inkscape:deskcolor="#d1d1d1"
     inkscape:document-units="mm"
     inkscape:zoom="1.0289025"
     inkscape:cx="397.51093"
     inkscape:cy="537.46588"
     inkscape:current-layer="layer1" />
  <defs
     id="defs1" />
  <g
     inkscape:label="Layer 1"
     inkscape:groupmode="layer"
     id="layer1">
    <rect
       style="fill:none;stroke:#000000;stroke-width:0.5;stroke-linecap:round;stroke-linejoin:round;stroke-dasharray:none"
       id="rect1"
       width="269.09457"
       height="199.09456"
       x="13.952713"
       y="5.4527206"
       inkscape:label="270x200 rectangle" />
    <g
       id="g1"
       inkscape:label="0, 0"
       transform="translate(-171.5346,-25.472816)">
      <path
         class="d"
         d="m 190.8459,34.949905 c -1.26873,0 -1.88595,1.311592 -1.88595,2.940367 0,1.64592 0.61722,2.888933 1.89452,2.888933 1.27731,0 1.89453,-1.243013 1.89453,-2.888933 0,-1.628775 -0.61722,-2.940367 -1.88595,-2.940367"
         id="path1"
         style="fill:none;stroke:#000000;stroke-width:0.5;stroke-linecap:round;stroke-linejoin:round;stroke-dasharray:none" />
      <polyline
         class="d"
         points="7.524 10.104 8.46 8.244 8.46 7.596 7.812 7.596"
         id="polyline1"
         style="fill:none;stroke:#000000;stroke-width:0.699913;stroke-linecap:round;stroke-linejoin:round;stroke-dasharray:none"
         transform="matrix(0.71437499,0,0,0.71437499,188.57419,34.778455)" />
      <path
         class="d"
         d="m 200.79,34.949905 c -1.26873,0 -1.88595,1.311592 -1.88595,2.940367 0,1.64592 0.61722,2.888933 1.89452,2.888933 1.27731,0 1.89453,-1.243013 1.89453,-2.888933 0,-1.628775 -0.61722,-2.940367 -1.88595,-2.940367"
         id="path2"
         style="fill:none;stroke:#000000;stroke-width:0.5;stroke-linecap:round;stroke-linejoin:round;stroke-dasharray:none" />
    </g>
    <g
       id="g2"
       inkscape:label="270, 0"
       transform="translate(68.387306,-42.044173)">
      <path
         class="d"
         d="m 192.17464,57.350562 h -3.429 v -0.03429 l 1.91167,-2.100263 c 0.65151,-0.72009 1.30302,-1.397317 1.30302,-2.314575 0,-0.934402 -0.67723,-1.380172 -1.42304,-1.380172 -0.75438,0 -1.38017,0.44577 -1.62877,1.183005"
         id="path13"
         style="fill:none;stroke:#000000;stroke-width:0.5;stroke-linecap:round;stroke-linejoin:round;stroke-dasharray:none" />
      <polyline
         class="d"
         points="7.572 31.597 11.4 23.605 11.4 23.557 6.54 23.557"
         id="polyline13"
         style="fill:none;stroke:#000000;stroke-width:0.699913;stroke-linecap:round;stroke-linejoin:round;stroke-dasharray:none"
         transform="matrix(0.71437499,0,0,0.71437499,188.57419,34.778455)" />
      <path
         class="d"
         d="m 199.63271,51.521262 c -1.26873,0 -1.88595,1.311592 -1.88595,2.940367 0,1.64592 0.61722,2.888933 1.89453,2.888933 1.2773,0 1.89452,-1.243013 1.89452,-2.888933 0,-1.628775 -0.61722,-2.940367 -1.88595,-2.940367"
         id="path14"
         style="fill:none;stroke:#000000;stroke-width:0.5;stroke-linecap:round;stroke-linejoin:round;stroke-dasharray:none" />
      <polyline
         class="d"
         points="19.824 33.301 20.76 31.441 20.76 30.793 20.112 30.793"
         id="polyline14"
         style="fill:none;stroke:#000000;stroke-width:0.699913;stroke-linecap:round;stroke-linejoin:round;stroke-dasharray:none"
         transform="matrix(0.71437499,0,0,0.71437499,188.57419,34.778455)" />
      <path
         class="d"
         d="m 209.57681,51.521262 c -1.26873,0 -1.88595,1.311592 -1.88595,2.940367 0,1.64592 0.61722,2.888933 1.89453,2.888933 1.2773,0 1.89452,-1.243013 1.89452,-2.888933 0,-1.628775 -0.61722,-2.940367 -1.88595,-2.940367"
         id="path15"
         style="fill:none;stroke:#000000;stroke-width:0.5;stroke-linecap:round;stroke-linejoin:round;stroke-dasharray:none" />
    </g>
    <g
       id="g3"
       inkscape:label="270, 200"
       transform="translate(58.554646,126.24628)">
      <path
         class="d"
         d="m 192.17464,74.326254 h -3.429 v -0.03429 l 1.91167,-2.100262 c 0.65151,-0.72009 1.30302,-1.397318 1.30302,-2.314575 0,-0.934402 -0.67723,-1.380172 -1.42304,-1.380172 -0.75438,0 -1.38017,0.44577 -1.62877,1.183005"
         id="path16"
         style="fill:none;stroke:#000000;stroke-width:0.5;stroke-linecap:round;stroke-linejoin:round;stroke-dasharray:none" />
      <polyline
         class="d"
         points="7.572 55.359 11.4 47.367 11.4 47.319 6.54 47.319"
         id="polyline16"
         style="fill:none;stroke:#000000;stroke-width:0.699913;stroke-linecap:round;stroke-linejoin:round;stroke-dasharray:none"
         transform="matrix(0.71437499,0,0,0.71437499,188.57419,34.778455)" />
      <path
         class="d"
         d="m 199.63271,68.496955 c -1.26873,0 -1.88595,1.311592 -1.88595,2.940367 0,1.64592 0.61722,2.888932 1.89453,2.888932 1.2773,0 1.89452,-1.243012 1.89452,-2.888932 0,-1.628775 -0.61722,-2.940367 -1.88595,-2.940367"
         id="path17"
         style="fill:none;stroke:#000000;stroke-width:0.5;stroke-linecap:round;stroke-linejoin:round;stroke-dasharray:none" />
      <polyline
         class="d"
         points="19.824 57.064 20.76 55.204 20.76 54.556 20.112 54.556"
         id="polyline17"
         style="fill:none;stroke:#000000;stroke-width:0.699913;stroke-linecap:round;stroke-linejoin:round;stroke-dasharray:none"
         transform="matrix(0.71437499,0,0,0.71437499,188.57419,34.778455)" />
      <path
         class="d"
         d="m 210.90555,74.326254 h -3.429 v -0.03429 l 1.91167,-2.100262 c 0.65151,-0.72009 1.30302,-1.397318 1.30302,-2.314575 0,-0.934402 -0.67723,-1.380172 -1.42304,-1.380172 -0.75438,0 -1.38017,0.44577 -1.62877,1.183005"
         id="path18"
         style="fill:none;stroke:#000000;stroke-width:0.5;stroke-linecap:round;stroke-linejoin:round;stroke-dasharray:none" />
      <path
         class="d"
         d="m 214.24883,68.496955 c -1.26873,0 -1.88595,1.311592 -1.88595,2.940367 0,1.64592 0.61722,2.888932 1.89452,2.888932 1.2773,0 1.89452,-1.243012 1.89452,-2.888932 0,-1.628775 -0.61722,-2.940367 -1.88595,-2.940367"
         id="path19"
         style="fill:none;stroke:#000000;stroke-width:0.5;stroke-linecap:round;stroke-linejoin:round;stroke-dasharray:none" />
      <path
         class="d"
         d="m 219.40947,68.496955 c -1.26873,0 -1.88595,1.311592 -1.88595,2.940367 0,1.64592 0.61722,2.888932 1.89452,2.888932 1.27731,0 1.89453,-1.243012 1.89453,-2.888932 0,-1.628775 -0.61722,-2.940367 -1.88595,-2.940367"
         id="path20"
         style="fill:none;stroke:#000000;stroke-width:0.5;stroke-linecap:round;stroke-linejoin:round;stroke-dasharray:none" />
    </g>
    <g
       id="g4"
       inkscape:label="0, 200"
       transform="translate(-171.5346,109.67492)">
      <path
         class="d"
         d="m 190.8459,85.068311 c -1.26873,0 -1.88595,1.311593 -1.88595,2.940368 0,1.64592 0.61722,2.888932 1.89452,2.888932 1.27731,0 1.89453,-1.243012 1.89453,-2.888932 0,-1.628775 -0.61722,-2.940368 -1.88595,-2.940368"
         id="path21"
         style="fill:none;stroke:#000000;stroke-width:0.5;stroke-linecap:round;stroke-linejoin:round;stroke-dasharray:none" />
      <polyline
         class="d"
         points="7.524 80.261 8.46 78.401 8.46 77.753 7.812 77.753"
         id="polyline21"
         style="fill:none;stroke:#000000;stroke-width:0.699913;stroke-linecap:round;stroke-linejoin:round;stroke-dasharray:none"
         transform="matrix(0.71437499,0,0,0.71437499,188.57419,34.778455)" />
      <path
         class="d"
         d="m 202.11874,90.897611 h -3.429 v -0.03429 l 1.91167,-2.100262 c 0.65151,-0.72009 1.30302,-1.397318 1.30302,-2.314575 0,-0.934403 -0.67723,-1.380173 -1.42304,-1.380173 -0.75438,0 -1.38017,0.44577 -1.62877,1.183005"
         id="path22"
         style="fill:none;stroke:#000000;stroke-width:0.5;stroke-linecap:round;stroke-linejoin:round;stroke-dasharray:none" />
      <path
         class="d"
         d="m 205.46201,85.068311 c -1.26873,0 -1.88595,1.311593 -1.88595,2.940368 0,1.64592 0.61722,2.888932 1.89453,2.888932 1.2773,0 1.89452,-1.243012 1.89452,-2.888932 0,-1.628775 -0.61722,-2.940368 -1.88595,-2.940368"
         id="path23"
         style="fill:none;stroke:#000000;stroke-width:0.5;stroke-linecap:round;stroke-linejoin:round;stroke-dasharray:none" />
      <path
         class="d"
         d="m 210.62266,85.068311 c -1.26873,0 -1.88595,1.311593 -1.88595,2.940368 0,1.64592 0.61722,2.888932 1.89452,2.888932 1.2773,0 1.89452,-1.243012 1.89452,-2.888932 0,-1.628775 -0.61722,-2.940368 -1.88595,-2.940368"
         id="path24-0"
         style="fill:none;stroke:#000000;stroke-width:0.5;stroke-linecap:round;stroke-linejoin:round;stroke-dasharray:none" />
    </g>
    <g
       id="g25"
       transform="translate(56.121874,30.139668)"
       style="stroke-width:0.5;stroke-dasharray:none">
      <path
         style="font-variation-settings:normal;opacity:1;vector-effect:none;fill:none;fill-opacity:1;stroke:#000000;stroke-width:0.499999;stroke-linecap:round;stroke-linejoin:round;stroke-miterlimit:4;stroke-dasharray:none;stroke-dashoffset:0;stroke-opacity:1;-inkscape-stroke:none"
         d="M 129.11667,129.11667 45.772916,45.772916"
         id="path25"
         inkscape:label="line"
         transform="translate(4.9333333,2.8166608)" />
      <rect
         style="font-variation-settings:normal;opacity:1;vector-effect:none;fill:none;fill-opacity:1;stroke:#000000;stroke-width:0.578764;stroke-linecap:round;stroke-linejoin:round;stroke-miterlimit:4;stroke-dasharray:none;stroke-dashoffset:0;stroke-opacity:1;-inkscape-stroke:none"
         id="rect5"
         width="39.421234"
         height="39.421234"
         x="63.010212"
         y="60.628963"
         inkscape:label="square" />
      <circle
         style="font-variation-settings:normal;opacity:1;vector-effect:none;fill:none;fill-opacity:1;stroke:#000000;stroke-width:0.552199;stroke-linecap:round;stroke-linejoin:round;stroke-miterlimit:4;stroke-dasharray:none;stroke-dashoffset:0;stroke-opacity:1;-inkscape-stroke:none"
         id="path24"
         cx="102.03542"
         cy="100.18333"
         r="19.7239"
         inkscape:label="circle" />
    </g>
    <g
       id="g5"
       inkscape:label="a4 landscape"
       transform="translate(-67.274371,-66.733687)">
      <path
         class="d"
         d="m 193.38336,130.91118 -2.26314,-5.78643 h -0.0343 l -2.29743,5.78643 m 0.72866,-1.82594 h 3.14611"
         id="path3"
         style="fill:none;stroke:#000000;stroke-width:0.5;stroke-linecap:round;stroke-linejoin:round;stroke-dasharray:none" />
      <polyline
         class="d"
         points="12.192 134.569 12.192 126.529 12.072 126.529 8.352 132.601 8.352 132.649 13.68 132.649"
         id="polyline3"
         style="fill:none;stroke:#000000;stroke-width:0.699913;stroke-linecap:round;stroke-linejoin:round;stroke-dasharray:none"
         transform="matrix(0.71437499,0,0,0.71437499,188.57419,34.778455)" />
      <path
         class="d"
         d="m 203.76466,130.87689 c -0.06,0.0171 -0.15431,0.0343 -0.26575,0.0343 -0.48863,0 -0.73723,-0.30003 -0.73723,-0.91725 v -5.46926"
         id="path4"
         style="fill:none;stroke:#000000;stroke-width:0.5;stroke-linecap:round;stroke-linejoin:round;stroke-dasharray:none" />
      <path
         class="d"
         d="m 208.10163,130.91118 c -0.0257,-0.31718 -0.0343,-0.83153 -0.0343,-1.183 v -2.0574 c 0,-0.83153 -0.33433,-1.51733 -1.32874,-1.51733 -0.72866,0 -1.15728,0.33432 -1.44018,0.98583 m 2.76892,1.13157 h -0.52292 c -1.73165,0 -2.45174,0.45435 -2.45174,1.43161 0,0.62579 0.37719,1.20872 1.19158,1.20872 0.73724,0 1.31159,-0.48863 1.78308,-1.11442"
         id="path5"
         style="fill:none;stroke:#000000;stroke-width:0.5;stroke-linecap:round;stroke-linejoin:round;stroke-dasharray:none" />
      <path
         class="d"
         d="m 213.18512,130.91118 v -3.55758 c 0,-0.74581 -0.3429,-1.20015 -1.00298,-1.20015 -0.76295,0 -1.32874,0.60007 -1.85166,1.20015 m 0,-1.20015 v 4.75773"
         id="path6"
         style="fill:none;stroke:#000000;stroke-width:0.5;stroke-linecap:round;stroke-linejoin:round;stroke-dasharray:none" />
      <path
         class="d"
         d="m 218.3972,129.73675 c -0.36861,0.72866 -0.92583,1.17443 -1.65449,1.17443 -1.16586,0 -1.62877,-1.13157 -1.62877,-2.39172 0,-1.44018 0.57435,-2.36601 1.6202,-2.36601 0.62579,0 1.20015,0.32575 1.66306,1.14871 m 0,-2.77749 v 6.38651"
         id="path7"
         style="fill:none;stroke:#000000;stroke-width:0.5;stroke-linecap:round;stroke-linejoin:round;stroke-dasharray:none" />
      <path
         class="d"
         d="m 220.36888,129.89963 c 0.20574,0.63436 0.81439,1.01155 1.54305,1.01155 0.69437,0 1.42303,-0.35147 1.42303,-1.15728 0,-1.58592 -2.8032,-1.03728 -2.8032,-2.52889 0,-0.75438 0.72009,-1.07156 1.33731,-1.07156 0.60007,0 1.07156,0.30003 1.28587,0.79724"
         id="path8"
         style="fill:none;stroke:#000000;stroke-width:0.5;stroke-linecap:round;stroke-linejoin:round;stroke-dasharray:none" />
      <path
         class="d"
         d="m 227.87839,127.05356 c -0.1886,-0.46292 -0.62579,-0.90011 -1.33731,-0.90011 -1.08014,0 -1.70593,0.99441 -1.70593,2.43459 0,1.40589 0.60008,2.32314 1.7145,2.32314 0.66866,0 1.03727,-0.32575 1.33731,-0.8401"
         id="path9"
         style="fill:none;stroke:#000000;stroke-width:0.5;stroke-linecap:round;stroke-linejoin:round;stroke-dasharray:none" />
      <path
         class="d"
         d="m 232.3961,130.91118 c -0.0257,-0.31718 -0.0343,-0.83153 -0.0343,-1.183 v -2.0574 c 0,-0.83153 -0.33433,-1.51733 -1.32874,-1.51733 -0.72866,0 -1.15729,0.33432 -1.44018,0.98583 m 2.76892,1.13157 h -0.52293 c -1.73164,0 -2.45173,0.45435 -2.45173,1.43161 0,0.62579 0.37719,1.20872 1.19158,1.20872 0.73723,0 1.31159,-0.48863 1.78308,-1.11442"
         id="path10"
         style="fill:none;stroke:#000000;stroke-width:0.5;stroke-linecap:round;stroke-linejoin:round;stroke-dasharray:none" />
      <path
         class="d"
         d="m 234.62494,129.73675 c 0.36862,0.72866 0.92583,1.17443 1.6545,1.17443 1.16586,0 1.62877,-1.13157 1.62877,-2.39172 0,-1.44018 -0.57436,-2.36601 -1.6202,-2.36601 -0.62579,0 -1.20015,0.32575 -1.66307,1.14871 m 0,-1.14871 v 6.38651"
         id="path11"
         style="fill:none;stroke:#000000;stroke-width:0.5;stroke-linecap:round;stroke-linejoin:round;stroke-dasharray:none" />
      <path
         class="d"
         d="m 239.46841,128.29657 h 3.29184 c 0,-0.96012 -0.31719,-2.14312 -1.5602,-2.14312 -1.07156,0 -1.74879,0.89154 -1.74879,2.4003 0,1.36302 0.54864,2.35743 1.77451,2.35743 0.80581,0 1.25158,-0.43719 1.4659,-0.94297"
         id="path12"
         style="fill:none;stroke:#000000;stroke-width:0.5;stroke-linecap:round;stroke-linejoin:round;stroke-dasharray:none" />
    </g>
  </g>
</svg>
