<?xml version="1.0" encoding="UTF-8" standalone="no"?>
<!-- Created with Inkscape (http://www.inkscape.org/) -->

<svg
   width="210mm"
   height="297mm"
   viewBox="0 0 210 297"
   version="1.1"
   id="svg1"
   inkscape:version="1.3.2 (091e20e, 2023-11-25)"
   sodipodi:docname="test.inkscape.svg"
   xmlns:inkscape="http://www.inkscape.org/namespaces/inkscape"
   xmlns:sodipodi="http://sodipodi.sourceforge.net/DTD/sodipodi-0.dtd"
   xmlns="http://www.w3.org/2000/svg"
   xmlns:svg="http://www.w3.org/2000/svg">
  <sodipodi:namedview
     id="namedview1"
     pagecolor="#ffffff"
     bordercolor="#000000"
     borderopacity="0.25"
     inkscape:showpageshadow="2"
     inkscape:pageopacity="0.0"
     inkscape:pagecheckerboard="0"
     inkscape:deskcolor="#d1d1d1"
     inkscape:document-units="mm"
     inkscape:zoom="1"
     inkscape:cx="253"
     inkscape:cy="492"
     inkscape:current-layer="layer1" />
  <defs
     id="defs1" />
  <g
     inkscape:label="Layer 1"
     inkscape:groupmode="layer"
     id="layer1"
     style="stroke-width:0.5;stroke-dasharray:none">
    <rect
       style="fill:none;fill-opacity:0.25;stroke:#000000;stroke-width:0.5;stroke-dasharray:none"
       id="rect1"
       width="199.44749"
       height="269.44748"
       x="5.2762527"
       y="13.77626"
       inkscape:label="200x270 rectangle" />
    <g
       id="g1"
       inkscape:label="0, 0"
       transform="matrix(2.6921912,0,0,2.6921912,-135.9312,-87.302021)"
       style="stroke-width:0.185722;stroke-dasharray:none">
      <path
         class="d"
         d="M 3.18,0.24 C 1.404,0.24 0.54,2.076 0.54,4.356 0.54,6.66 1.404,8.4 3.192,8.4 4.98,8.4 5.844,6.66 5.844,4.356 5.844,2.076 4.98,0.24 3.204,0.24"
         id="path1"
         style="fill:none;stroke:#000000;stroke-width:0.701943;stroke-linecap:round;stroke-linejoin:round;stroke-dasharray:none"
         transform="matrix(0.26458333,0,0,0.26458333,53.445833,38.89375)" />
      <polyline
         class="d"
         points="7.524 10.104 8.46 8.244 8.46 7.596 7.812 7.596"
         id="polyline1"
         style="fill:none;stroke:#000000;stroke-width:0.701943;stroke-linecap:round;stroke-linejoin:round;stroke-dasharray:none"
         transform="matrix(0.26458333,0,0,0.26458333,53.445833,38.89375)" />
      <path
         class="d"
         d="m 17.1,0.24 c -1.776,0 -2.64,1.836 -2.64,4.116 0,2.304 0.864,4.044 2.652,4.044 1.788,0 2.652,-1.74 2.652,-4.044 0,-2.28 -0.864,-4.116 -2.64,-4.116"
         id="path2"
         style="fill:none;stroke:#000000;stroke-width:0.701943;stroke-linecap:round;stroke-linejoin:round;stroke-dasharray:none"
         transform="matrix(0.26458333,0,0,0.26458333,53.445833,38.89375)" />
    </g>
    <g
       id="g3"
       inkscape:label="200, 0"
       transform="matrix(2.6921912,0,0,2.6921912,34.153222,-103.82545)"
       style="stroke-width:0.185722;stroke-dasharray:none">
      <path
         class="d"
         d="m 5.04,31.597 h -4.8 v -0.048 l 2.676,-2.94 c 0.912,-1.008 1.824,-1.956 1.824,-3.24 0,-1.308 -0.948,-1.932 -1.992,-1.932 -1.056,0 -1.932,0.624 -2.28,1.656"
         id="path12"
         style="fill:none;stroke:#000000;stroke-width:0.701943;stroke-linecap:round;stroke-linejoin:round;stroke-dasharray:none"
         transform="matrix(0.26458333,0,0,0.26458333,53.445833,38.89375)" />
      <path
         class="d"
         d="m 9.72,23.437 c -1.776,0 -2.64,1.836 -2.64,4.116 0,2.304 0.864,4.044 2.652,4.044 1.788,0 2.652,-1.74 2.652,-4.044 0,-2.28 -0.864,-4.116 -2.64,-4.116"
         id="path13"
         style="fill:none;stroke:#000000;stroke-width:0.701943;stroke-linecap:round;stroke-linejoin:round;stroke-dasharray:none"
         transform="matrix(0.26458333,0,0,0.26458333,53.445833,38.89375)" />
      <path
         class="d"
         d="m 16.944,23.437 c -1.776,0 -2.64,1.836 -2.64,4.116 0,2.304 0.864,4.044 2.652,4.044 1.788,0 2.652,-1.74 2.652,-4.044 0,-2.28 -0.864,-4.116 -2.64,-4.116"
         id="path14"
         style="fill:none;stroke:#000000;stroke-width:0.701943;stroke-linecap:round;stroke-linejoin:round;stroke-dasharray:none"
         transform="matrix(0.26458333,0,0,0.26458333,53.445833,38.89375)" />
      <polyline
         class="d"
         points="21.288 33.301 22.224 31.441 22.224 30.793 21.576 30.793"
         id="polyline14"
         style="fill:none;stroke:#000000;stroke-width:0.701943;stroke-linecap:round;stroke-linejoin:round;stroke-dasharray:none"
         transform="matrix(0.26458333,0,0,0.26458333,53.445833,38.89375)" />
      <path
         class="d"
         d="m 30.864,23.437 c -1.776,0 -2.64,1.836 -2.64,4.116 0,2.304 0.864,4.044 2.652,4.044 1.788,0 2.652,-1.74 2.652,-4.044 0,-2.28 -0.864,-4.116 -2.64,-4.116"
         id="path15"
         style="fill:none;stroke:#000000;stroke-width:0.701943;stroke-linecap:round;stroke-linejoin:round;stroke-dasharray:none"
         transform="matrix(0.26458333,0,0,0.26458333,53.445833,38.89375)" />
    </g>
    <g
       id="g4"
       inkscape:label="200, 270"
       transform="matrix(2.6921912,0,0,2.6921912,25.391822,135.47715)"
       style="stroke-width:0.185722;stroke-dasharray:none">
      <path
         class="d"
         d="m 5.04,55.36 h -4.8 v -0.048 l 2.676,-2.94 C 3.828,51.364 4.74,50.416 4.74,49.132 4.74,47.824 3.792,47.2 2.748,47.2 c -1.056,0 -1.932,0.624 -2.28,1.656"
         id="path16"
         style="fill:none;stroke:#000000;stroke-width:0.701943;stroke-linecap:round;stroke-linejoin:round;stroke-dasharray:none"
         transform="matrix(0.26458333,0,0,0.26458333,53.445833,38.89375)" />
      <path
         class="d"
         d="m 9.72,47.2 c -1.776,0 -2.64,1.836 -2.64,4.116 0,2.304 0.864,4.044 2.652,4.044 1.788,0 2.652,-1.74 2.652,-4.044 0,-2.28 -0.864,-4.116 -2.64,-4.116"
         id="path17"
         style="fill:none;stroke:#000000;stroke-width:0.701943;stroke-linecap:round;stroke-linejoin:round;stroke-dasharray:none"
         transform="matrix(0.26458333,0,0,0.26458333,53.445833,38.89375)" />
      <path
         class="d"
         d="m 16.944,47.2 c -1.776,0 -2.64,1.836 -2.64,4.116 0,2.304 0.864,4.044 2.652,4.044 1.788,0 2.652,-1.74 2.652,-4.044 0,-2.28 -0.864,-4.116 -2.64,-4.116"
         id="path18"
         style="fill:none;stroke:#000000;stroke-width:0.701943;stroke-linecap:round;stroke-linejoin:round;stroke-dasharray:none"
         transform="matrix(0.26458333,0,0,0.26458333,53.445833,38.89375)" />
      <polyline
         class="d"
         points="21.288 57.064 22.224 55.204 22.224 54.556 21.576 54.556"
         id="polyline18"
         style="fill:none;stroke:#000000;stroke-width:0.701943;stroke-linecap:round;stroke-linejoin:round;stroke-dasharray:none"
         transform="matrix(0.26458333,0,0,0.26458333,53.445833,38.89375)" />
      <path
         class="d"
         d="m 32.724,55.36 h -4.8 v -0.048 l 2.676,-2.94 c 0.912,-1.008 1.824,-1.956 1.824,-3.24 0,-1.308 -0.948,-1.932 -1.992,-1.932 -1.056,0 -1.932,0.624 -2.28,1.656"
         id="path19"
         style="fill:none;stroke:#000000;stroke-width:0.701943;stroke-linecap:round;stroke-linejoin:round;stroke-dasharray:none"
         transform="matrix(0.26458333,0,0,0.26458333,53.445833,38.89375)" />
      <polyline
         class="d"
         points="35.256 55.359 39.084 47.367 39.084 47.319 34.224 47.319"
         id="polyline19"
         style="fill:none;stroke:#000000;stroke-width:0.701943;stroke-linecap:round;stroke-linejoin:round;stroke-dasharray:none"
         transform="matrix(0.26458333,0,0,0.26458333,53.445833,38.89375)" />
      <path
         class="d"
         d="m 43.164,47.2 c -1.776,0 -2.64,1.836 -2.64,4.116 0,2.304 0.864,4.044 2.652,4.044 1.788,0 2.652,-1.74 2.652,-4.044 0,-2.28 -0.864,-4.116 -2.64,-4.116"
         id="path20"
         style="fill:none;stroke:#000000;stroke-width:0.701943;stroke-linecap:round;stroke-linejoin:round;stroke-dasharray:none"
         transform="matrix(0.26458333,0,0,0.26458333,53.445833,38.89375)" />
    </g>
    <g
       id="g5"
       inkscape:label="0, 270"
       style="stroke-width:0.5;stroke-dasharray:none"
       transform="translate(-46.229269,184.03074)">
      <path
         class="d"
         d="m 56.449617,89.776802 c -1.265061,0 -1.880496,1.307799 -1.880496,2.931864 0,1.64116 0.615435,2.880577 1.889044,2.880577 1.273608,0 1.889043,-1.239417 1.889043,-2.880577 0,-1.624065 -0.615435,-2.931864 -1.880496,-2.931864"
         id="path21"
         style="font-variation-settings:normal;opacity:1;vector-effect:none;fill:none;fill-opacity:1;stroke:#000000;stroke-width:0.5;stroke-linecap:round;stroke-linejoin:round;stroke-miterlimit:4;stroke-dasharray:none;stroke-dashoffset:0;stroke-opacity:1;-inkscape-stroke:none;stop-color:#000000;stop-opacity:1" />
      <polyline
         class="d"
         points="7.524 80.261 8.46 78.401 8.46 77.753 7.812 77.753"
         id="polyline21"
         style="fill:none;stroke:#000000;stroke-width:0.701943;stroke-linecap:round;stroke-linejoin:round;stroke-dasharray:none"
         transform="matrix(0.71230892,0,0,0.71230892,54.184474,39.632391)" />
      <path
         class="d"
         d="m 67.689852,95.589243 h -3.419083 v -0.03419 l 1.906138,-2.094188 c 0.649626,-0.718007 1.299252,-1.393276 1.299252,-2.307881 0,-0.9317 -0.675269,-1.376181 -1.41892,-1.376181 -0.752198,0 -1.37618,0.444481 -1.624064,1.179584"
         id="path22"
         style="font-variation-settings:normal;opacity:1;vector-effect:none;fill:none;fill-opacity:1;stroke:#000000;stroke-width:0.5;stroke-linecap:round;stroke-linejoin:round;stroke-miterlimit:4;stroke-dasharray:none;stroke-dashoffset:0;stroke-opacity:1;-inkscape-stroke:none;stop-color:#000000;stop-opacity:1" />
      <polyline
         class="d"
         points="21.492 78.557 25.32 70.565 25.32 70.517 20.46 70.517"
         id="polyline22"
         style="fill:none;stroke:#000000;stroke-width:0.701943;stroke-linecap:round;stroke-linejoin:round;stroke-dasharray:none"
         transform="matrix(0.71230892,0,0,0.71230892,54.184474,39.632391)" />
      <path
         class="d"
         d="m 75.126357,89.776802 c -1.265061,0 -1.880496,1.307799 -1.880496,2.931864 0,1.64116 0.615435,2.880577 1.889043,2.880577 1.273609,0 1.889044,-1.239417 1.889044,-2.880577 0,-1.624065 -0.615435,-2.931864 -1.880496,-2.931864"
         id="path23"
         style="font-variation-settings:normal;opacity:1;vector-effect:none;fill:none;fill-opacity:1;stroke:#000000;stroke-width:0.5;stroke-linecap:round;stroke-linejoin:round;stroke-miterlimit:4;stroke-dasharray:none;stroke-dashoffset:0;stroke-opacity:1;-inkscape-stroke:none;stop-color:#000000;stop-opacity:1" />
    </g>
    <g
       id="g2"
       inkscape:label="a4 portrait"
       transform="matrix(2.6921912,0,0,2.6921912,-60.545935,-100.32117)"
       style="stroke-width:0.185722;stroke-dasharray:none">
      <path
         class="d"
         d="m 6.732,134.569 -3.168,-8.1 H 3.516 l -3.216,8.1 m 1.02,-2.556 h 4.404"
         id="path3"
         style="fill:none;stroke:#000000;stroke-width:0.701943;stroke-linecap:round;stroke-linejoin:round;stroke-dasharray:none"
         transform="matrix(0.26458333,0,0,0.26458333,53.445833,38.89375)" />
      <polyline
         class="d"
         points="12.192 134.569 12.192 126.529 12.072 126.529 8.352 132.601 8.352 132.649 13.68 132.649"
         id="polyline3"
         style="fill:none;stroke:#000000;stroke-width:0.701943;stroke-linecap:round;stroke-linejoin:round;stroke-dasharray:none"
         transform="matrix(0.26458333,0,0,0.26458333,53.445833,38.89375)" />
      <path
         class="d"
         d="m 19.92,132.925 c 0.516,1.02 1.296,1.644 2.316,1.644 1.632,0 2.28,-1.584 2.28,-3.348 0,-2.016 -0.804,-3.312 -2.268,-3.312 -0.876,0 -1.68,0.456 -2.328,1.608 m 0,-1.608 v 8.94"
         id="path4"
         style="fill:none;stroke:#000000;stroke-width:0.701943;stroke-linecap:round;stroke-linejoin:round;stroke-dasharray:none"
         transform="matrix(0.26458333,0,0,0.26458333,53.445833,38.89375)" />
      <path
         class="d"
         d="m 29.136,127.909 c -1.968,0 -2.46,2.052 -2.46,3.36 0,1.62 0.744,3.3 2.472,3.3 1.728,0 2.472,-1.68 2.472,-3.3 0,-1.308 -0.492,-3.36 -2.46,-3.36"
         id="path5"
         style="fill:none;stroke:#000000;stroke-width:0.701943;stroke-linecap:round;stroke-linejoin:round;stroke-dasharray:none"
         transform="matrix(0.26458333,0,0,0.26458333,53.445833,38.89375)" />
      <path
         class="d"
         d="m 34.38,129.589 c 0.852,-0.984 1.644,-1.68 2.376,-1.68 m -2.376,0 v 6.66"
         id="path6"
         style="fill:none;stroke:#000000;stroke-width:0.701943;stroke-linecap:round;stroke-linejoin:round;stroke-dasharray:none"
         transform="matrix(0.26458333,0,0,0.26458333,53.445833,38.89375)" />
      <path
         class="d"
         d="m 38.027,128.557 h 3.156 m 0.168,5.688 c -0.216,0.192 -0.552,0.324 -0.96,0.324 -0.744,0 -1.164,-0.42 -1.164,-1.404 v -6.516"
         id="path7"
         style="fill:none;stroke:#000000;stroke-width:0.701943;stroke-linecap:round;stroke-linejoin:round;stroke-dasharray:none"
         transform="matrix(0.26458333,0,0,0.26458333,53.445833,38.89375)" />
      <path
         class="d"
         d="m 43.751,129.589 c 0.852,-0.984 1.644,-1.68 2.376,-1.68 m -2.376,0 v 6.66"
         id="path8"
         style="fill:none;stroke:#000000;stroke-width:0.701943;stroke-linecap:round;stroke-linejoin:round;stroke-dasharray:none"
         transform="matrix(0.26458333,0,0,0.26458333,53.445833,38.89375)" />
      <path
         class="d"
         d="m 51.792,134.569 c -0.036,-0.444 -0.048,-1.164 -0.048,-1.656 v -2.88 c 0,-1.164 -0.468,-2.124 -1.86,-2.124 -1.02,0 -1.62,0.468 -2.016,1.38 m 3.876,1.584 h -0.732 c -2.424,0 -3.432,0.636 -3.432,2.004 0,0.876 0.528,1.692 1.668,1.692 1.032,0 1.836,-0.684 2.496,-1.56"
         id="path9"
         style="fill:none;stroke:#000000;stroke-width:0.701943;stroke-linecap:round;stroke-linejoin:round;stroke-dasharray:none"
         transform="matrix(0.26458333,0,0,0.26458333,53.445833,38.89375)" />
      <path
         class="d"
         d="m 54.911,126.433 v -1.284 m 0,9.42 v -6.66"
         id="path10"
         style="fill:none;stroke:#000000;stroke-width:0.701943;stroke-linecap:round;stroke-linejoin:round;stroke-dasharray:none"
         transform="matrix(0.26458333,0,0,0.26458333,53.445833,38.89375)" />
      <path
         class="d"
         d="m 57.191,128.557 h 3.156 m 0.168,5.688 c -0.216,0.192 -0.552,0.324 -0.96,0.324 -0.744,0 -1.164,-0.42 -1.164,-1.404 v -6.516"
         id="path11"
         style="fill:none;stroke:#000000;stroke-width:0.701943;stroke-linecap:round;stroke-linejoin:round;stroke-dasharray:none"
         transform="matrix(0.26458333,0,0,0.26458333,53.445833,38.89375)" />
    </g>
    <g
       id="g25"
       transform="translate(12.621874,70.472923)">
      <path
         style="font-variation-settings:normal;opacity:1;vector-effect:none;fill:none;fill-opacity:1;stroke:#000000;stroke-width:0.499999;stroke-linecap:round;stroke-linejoin:round;stroke-miterlimit:4;stroke-dasharray:none;stroke-dashoffset:0;stroke-opacity:1;-inkscape-stroke:none"
         d="M 129.11667,129.11667 45.772916,45.772916"
         id="path25"
         inkscape:label="line"
         transform="translate(4.9333333,2.8166608)" />
      <rect
         style="font-variation-settings:normal;opacity:1;vector-effect:none;fill:none;fill-opacity:1;stroke:#000000;stroke-width:0.578764;stroke-linecap:round;stroke-linejoin:round;stroke-miterlimit:4;stroke-dasharray:none;stroke-dashoffset:0;stroke-opacity:1;-inkscape-stroke:none"
         id="rect5"
         width="39.421234"
         height="39.421234"
         x="63.010212"
         y="60.628963"
         inkscape:label="square" />
      <circle
         style="font-variation-settings:normal;opacity:1;vector-effect:none;fill:none;fill-opacity:1;stroke:#000000;stroke-width:0.552199;stroke-linecap:round;stroke-linejoin:round;stroke-miterlimit:4;stroke-dasharray:none;stroke-dashoffset:0;stroke-opacity:1;-inkscape-stroke:none"
         id="path24"
         cx="102.03542"
         cy="100.18333"
         r="19.7239"
         inkscape:label="circle" />
    </g>
  </g>
</svg>
