<?xml version="1.0" encoding="utf-8"?>
<!-- Generator: Adobe Illustrator 26.0.3, SVG Export Plug-In . SVG Version: 6.00 Build 0)  -->
<svg version="1.1" id="Layer_1" xmlns:inkscape="http://www.inkscape.org/namespaces/inkscape"
	 xmlns="http://www.w3.org/2000/svg" xmlns:xlink="http://www.w3.org/1999/xlink" x="0px" y="0px" width="595.3px" height="605.6px"
	 viewBox="0 0 595.3 605.6" style="enable-background:new 0 0 595.3 605.6;" xml:space="preserve">
<style type="text/css">
	.st0{fill:none;stroke:#000000;stroke-width:1.4173;stroke-linejoin:bevel;}
</style>
<g id="layer_1">
	<path class="st0" d="M23.9,575.3V30.8"/>
	<path class="st0" d="M31.2,575.3V30.8"/>
	<path class="st0" d="M38.6,575.3V30.8"/>
	<path class="st0" d="M45.9,575.3V30.8"/>
	<path class="st0" d="M53.3,575.3V30.8"/>
	<path class="st0" d="M60.6,575.3V30.8"/>
	<path class="st0" d="M68,575.3V30.8"/>
	<path class="st0" d="M75.4,575.3V30.8"/>
	<path class="st0" d="M82.7,575.3V30.8"/>
	<path class="st0" d="M90.1,575.3V30.8"/>
	<path class="st0" d="M97.4,575.3V30.8"/>
	<path class="st0" d="M104.8,575.3V30.8"/>
	<path class="st0" d="M112.1,575.3V30.8"/>
	<path class="st0" d="M119.5,575.3V30.8"/>
	<path class="st0" d="M126.9,575.3V30.8"/>
	<path class="st0" d="M134.2,575.3V30.8"/>
	<path class="st0" d="M141.6,575.3V30.8"/>
	<path class="st0" d="M148.9,575.3V30.8"/>
	<path class="st0" d="M156.3,575.3V30.8"/>
	<path class="st0" d="M163.6,575.3V30.8"/>
	<path class="st0" d="M171,575.3V30.8"/>
	<path class="st0" d="M178.4,575.3V30.8"/>
	<path class="st0" d="M185.7,575.3V30.8"/>
	<path class="st0" d="M193.1,575.3V30.8"/>
	<path class="st0" d="M200.4,575.3V30.8"/>
	<path class="st0" d="M207.8,575.3V30.8"/>
	<path class="st0" d="M215.2,575.3V30.8"/>
	<path class="st0" d="M222.5,575.3V30.8"/>
	<path class="st0" d="M229.9,575.3V30.8"/>
	<path class="st0" d="M237.2,575.3V30.8"/>
	<path class="st0" d="M244.6,575.3V30.8"/>
	<path class="st0" d="M251.9,575.3V30.8"/>
	<path class="st0" d="M259.3,575.3V30.8"/>
	<path class="st0" d="M266.7,575.3V30.8"/>
	<path class="st0" d="M274,575.3V30.8"/>
	<path class="st0" d="M281.4,575.3V30.8"/>
	<path class="st0" d="M288.7,575.3V30.8"/>
	<path class="st0" d="M296.1,575.3V30.8"/>
	<path class="st0" d="M303.4,575.3V30.8"/>
	<path class="st0" d="M310.8,575.3V30.8"/>
	<path class="st0" d="M318.2,575.3V30.8"/>
	<path class="st0" d="M325.5,575.3V30.8"/>
	<path class="st0" d="M332.9,575.3V30.8"/>
	<path class="st0" d="M340.2,575.3V30.8"/>
	<path class="st0" d="M347.6,575.3V30.8"/>
	<path class="st0" d="M354.9,575.3V30.8"/>
	<path class="st0" d="M362.3,575.3V30.8"/>
	<path class="st0" d="M369.7,575.3V30.8"/>
	<path class="st0" d="M377,575.3V30.8"/>
	<path class="st0" d="M384.4,575.3V30.8"/>
	<path class="st0" d="M391.7,575.3V30.8"/>
	<path class="st0" d="M399.1,575.3V30.8"/>
	<path class="st0" d="M406.4,575.3V30.8"/>
	<path class="st0" d="M413.8,575.3V30.8"/>
	<path class="st0" d="M421.2,575.3V30.8"/>
	<path class="st0" d="M428.5,575.3V30.8"/>
	<path class="st0" d="M435.9,575.3V30.8"/>
	<path class="st0" d="M443.2,575.3V30.8"/>
	<path class="st0" d="M450.6,575.3V30.8"/>
	<path class="st0" d="M457.9,575.3V30.8"/>
	<path class="st0" d="M465.3,575.3V30.8"/>
	<path class="st0" d="M472.7,575.3V30.8"/>
	<path class="st0" d="M480,575.3V30.8"/>
	<path class="st0" d="M487.4,575.3V30.8"/>
	<path class="st0" d="M494.7,575.3V30.8"/>
	<path class="st0" d="M502.1,575.3V30.8"/>
	<path class="st0" d="M509.5,575.3V30.8"/>
	<path class="st0" d="M516.8,575.3V30.8"/>
	<path class="st0" d="M524.2,575.3V30.8"/>
	<path class="st0" d="M531.5,575.3V30.8"/>
	<path class="st0" d="M538.9,575.3V30.8"/>
	<path class="st0" d="M546.2,575.3V30.8"/>
	<path class="st0" d="M553.6,575.3V30.8"/>
	<path class="st0" d="M561,575.3V30.8"/>
	<path class="st0" d="M568.3,575.3V30.8"/>
</g>
<g id="layer_2">
	<path class="st0" d="M23.9,575.3l-1-5.5l-1.2-5.5l-1.2-5.5l-0.9-5.5l-0.3-5.5l0.4-5.5l0.9-5.5l1.2-5.5l1.2-5.5l1-5.5l1-5.5l1.2-5.5
		l1.2-5.5l0.9-5.5l0.2-5.5l-0.4-5.5l-1-5.5l-1.2-5.5l-1.2-5.5l-1-5.5l-1-5.5l-1.2-5.5l-1.2-5.5l-0.8-5.5l-0.2-5.5l0.5-5.5l1-5.5
		l1.2-5.5l1.1-5.5l1-5.5l1.1-5.5l1.2-5.5l1.2-5.5l0.7-5.5l0.1-5.5l-0.6-5.5l-1.1-5.5l-1.2-5.5l-1.1-5.5l-0.9-5.5l-0.7-5.5l-0.3-5.5
		l0.3-5.5l0.7-5.5l0.8-5.5l0.7-5.5l0.3-5.5l-0.2-5.5l-0.7-5.5l-0.9-5.5l-0.9-5.5l-0.7-5.5l-0.4-5.5l0-5.5l0.4-5.5l0.7-5.5l0.7-5.5
		l0.5-5.5l0.2-5.5l0-5.5v-5.5v-5.5v-5.5v-5.5v-5.5v-5.5v-5.5v-5.5v-5.5v-5.5v-5.5v-5.5v-5.5v-5.5v-5.5v-5.5v-5.5v-5.5v-5.5v-5.5
		v-5.5v-5.5v-5.5v-5.5v-5.5v-5.5v-5.5v-5.5v-5.5l0.1-5.5l0.3-5.5l0.6-5.5l0.7-5.5l0.6-5.5l0.2-5.5l-0.2-5.5l-0.6-5.5l-0.8-5.5
		l-0.9-5.5"/>
	<path class="st0" d="M31.2,575.3l-0.9-5.5l-1.1-5.5l-1.1-5.5l-0.7-5.5l-0.1-5.5l0.6-5.5l1.1-5.5l1.3-5.5l1.2-5.5l1-5.5l1-5.5
		l1.1-5.5l1.1-5.5l0.7-5.5l0.1-5.5l-0.6-5.5l-1.1-5.5l-1.3-5.5l-1.2-5.5l-1-5.5l-1-5.5l-1.1-5.5l-1-5.5l-0.5-5.5l0.1-5.5l0.8-5.5
		l1.2-5.5l1.3-5.5l1.2-5.5l0.9-5.5l1-5.5l1.1-5.5l0.9-5.5l0.5-5.5l-0.2-5.5l-0.8-5.5l-1.2-5.5l-1.3-5.5l-1.1-5.5l-0.9-5.5l-0.7-5.5
		l-0.3-5.5l0.1-5.5l0.4-5.5l0.5-5.5l0.4-5.5l0.1-5.5l-0.3-5.5l-0.7-5.5l-0.9-5.5l-0.9-5.5l-0.7-5.5l-0.4-5.5l0-5.5l0.4-5.5l0.6-5.5
		l0.7-5.5l0.5-5.5l0.2-5.5l0-5.5l0-5.5l0-5.5l0-5.5l0-5.5l0-5.5l0-5.5l0-5.5l0-5.5l0-5.5l0-5.5l0-5.5l0-5.5l0-5.5l0-5.5l0-5.5l0-5.5
		l0-5.5l0-5.5l0-5.5l0-5.5l0-5.5l0-5.5l0-5.5l0-5.5l0-5.5l0-5.5l0-5.5l0-5.5l0-5.5l0.1-5.5l0.3-5.5l0.6-5.5l0.7-5.5l0.5-5.5l0.2-5.5
		l-0.2-5.5l-0.6-5.5l-0.8-5.5L30,30.8"/>
	<path class="st0" d="M38.6,575.3l-0.7-5.5l-0.8-5.5l-0.8-5.5l-0.5-5.5l0-5.5l0.5-5.5l0.9-5.5l1.1-5.5l0.9-5.5l0.7-5.5l0.8-5.5
		l0.9-5.5l0.9-5.5l0.6-5.5l0.1-5.5l-0.5-5.5l-1-5.5l-1.2-5.5l-1.1-5.5l-1-5.5l-1-5.5l-0.9-5.5l-0.6-5.5l-0.1-5.5l0.5-5.5l1.1-5.5
		l1.4-5.5l1.3-5.5l1-5.5l0.7-5.5l0.7-5.5l0.7-5.5l0.4-5.5l-0.1-5.5l-0.7-5.5l-1.1-5.5l-1.3-5.5l-1.3-5.5l-1-5.5l-0.7-5.5l-0.6-5.5
		l-0.4-5.5l-0.1-5.5l0.1-5.5l0.2-5.5l0.1-5.5l-0.1-5.5l-0.3-5.5l-0.6-5.5l-0.7-5.5l-0.7-5.5l-0.5-5.5l-0.3-5.5l0-5.5l0.3-5.5
		l0.5-5.5l0.5-5.5l0.4-5.5l0.1-5.5l0-5.5l0-5.5l0-5.5l0-5.5l0.1-5.5l0.1-5.5l0.2-5.5l0.2-5.5l0.2-5.5l0.1-5.5l0.1-5.5l0.1-5.5l0-5.5
		l-0.1-5.5l-0.1-5.5l-0.1-5.5l-0.1-5.5l0-5.5l0-5.5l0.1-5.5l0.1-5.5l0.1-5.5l0.2-5.5l0.2-5.5l0.1-5.5l0.1-5.5l0-5.5l0-5.5l0-5.5
		l0-5.5l0-5.5l0.3-5.5l0.5-5.5l0.6-5.5l0.4-5.5l0.1-5.5l-0.3-5.5l-0.7-5.5l-0.9-5.5l-0.9-5.5"/>
	<path class="st0" d="M45.9,575.3l-0.3-5.5l-0.4-5.5l-0.3-5.5l-0.2-5.5l0-5.5l0.3-5.5l0.4-5.5l0.5-5.5l0.4-5.5l0.3-5.5l0.4-5.5
		l0.6-5.5l0.8-5.5l0.6-5.5l0.3-5.5l-0.2-5.5l-0.6-5.5l-0.9-5.5l-1-5.5l-0.9-5.5l-0.9-5.5l-0.7-5.5l-0.2-5.5l0.4-5.5l1-5.5l1.4-5.5
		l1.4-5.5l1.2-5.5l0.7-5.5l0.4-5.5l0.3-5.5l0-5.5l-0.4-5.5l-0.8-5.5l-1.1-5.5l-1.3-5.5l-1.2-5.5l-0.9-5.5l-0.6-5.5l-0.3-5.5
		l-0.3-5.5l-0.3-5.5l-0.2-5.5l-0.2-5.5l-0.2-5.5l-0.2-5.5l-0.2-5.5l-0.3-5.5l-0.3-5.5l-0.3-5.5l-0.3-5.5l-0.3-5.5l-0.1-5.5l0-5.5
		l0.1-5.5l0.2-5.5l0.2-5.5l0.2-5.5l0.1-5.5l0-5.5l0-5.5l0-5.5l0-5.5l0.1-5.5l0.2-5.5l0.3-5.5l0.4-5.5l0.4-5.5l0.3-5.5l0.3-5.5
		l0.2-5.5l0-5.5l-0.1-5.5l-0.2-5.5l-0.3-5.5l-0.2-5.5l-0.1-5.5l0.1-5.5l0.3-5.5l0.3-5.5l0.4-5.5l0.4-5.5l0.4-5.5l0.3-5.5l0.2-5.5
		l0.1-5.5l0-5.5l0-5.5l0-5.5l0-5.5l0.3-5.5l0.4-5.5l0.4-5.5l0.2-5.5l-0.1-5.5L46,47.3l-0.8-5.5l-0.9-5.5l-0.9-5.5"/>
	<path class="st0" d="M53.3,575.3l0.1-5.5l0.2-5.5l0.1-5.5l0.1-5.5l0-5.5l-0.1-5.5l-0.2-5.5l-0.2-5.5l-0.2-5.5l-0.2-5.5l0-5.5
		l0.3-5.5l0.6-5.5l0.7-5.5l0.6-5.5l0.3-5.5l-0.1-5.5l-0.5-5.5l-0.8-5.5l-0.9-5.5l-0.8-5.5l-0.4-5.5l0.1-5.5l0.8-5.5l1.2-5.5l1.5-5.5
		l1.3-5.5l0.9-5.5l0.3-5.5l-0.1-5.5l-0.3-5.5l-0.7-5.5l-1-5.5l-1.3-5.5l-1.3-5.5l-1.2-5.5l-0.8-5.5l-0.4-5.5l0-5.5l0.1-5.5l0.1-5.5
		l-0.1-5.5l-0.3-5.5l-0.5-5.5l-0.5-5.5l-0.5-5.5l-0.3-5.5l-0.1-5.5l0-5.5l0.1-5.5l0.1-5.5l0.1-5.5l0.1-5.5l0-5.5l-0.1-5.5l-0.1-5.5
		l-0.1-5.5l-0.1-5.5l0-5.5l0-5.5l-0.1-5.5l-0.1-5.5l-0.1-5.5l0.1-5.5l0.3-5.5l0.4-5.5l0.6-5.5l0.6-5.5l0.6-5.5l0.5-5.5l0.3-5.5
		l0.1-5.5l-0.2-5.5l-0.4-5.5l-0.5-5.5l-0.3-5.5l-0.1-5.5l0.2-5.5l0.5-5.5l0.5-5.5l0.6-5.5l0.6-5.5l0.5-5.5l0.4-5.5l0.2-5.5l0-5.5
		l-0.1-5.5l-0.1-5.5l0-5.5l0-5.5l0.2-5.5l0.4-5.5l0.3-5.5l0.1-5.5l-0.2-5.5l-0.6-5.5l-0.8-5.5l-1-5.5l-0.9-5.5"/>
	<path class="st0" d="M60.6,575.3l0.6-5.5l0.7-5.5l0.6-5.5l0.4-5.5l0-5.5l-0.4-5.5l-0.8-5.5l-0.9-5.5l-0.8-5.5l-0.6-5.5l-0.5-5.5
		l0-5.5l0.5-5.5l0.8-5.5l0.9-5.5l0.7-5.5l0.3-5.5l-0.2-5.5l-0.6-5.5l-0.9-5.5l-0.8-5.5l-0.3-5.5l0.3-5.5l0.9-5.5l1.3-5.5l1.3-5.5
		l1-5.5l0.5-5.5l-0.1-5.5l-0.5-5.5l-0.8-5.5l-1.2-5.5l-1.5-5.5l-1.5-5.5l-1.2-5.5l-0.7-5.5l-0.2-5.5l0.2-5.5l0.5-5.5l0.6-5.5
		l0.4-5.5l0.1-5.5l-0.3-5.5l-0.6-5.5l-0.7-5.5l-0.6-5.5l-0.4-5.5l0-5.5l0.4-5.5l0.6-5.5l0.5-5.5l0.4-5.5l0.2-5.5l0-5.5l-0.3-5.5
		l-0.4-5.5l-0.4-5.5l-0.3-5.5l-0.1-5.5l0-5.5l-0.1-5.5l-0.2-5.5l-0.2-5.5l-0.1-5.5l0.2-5.5l0.5-5.5l0.7-5.5l0.8-5.5l0.8-5.5l0.7-5.5
		l0.5-5.5l0.1-5.5l-0.3-5.5l-0.6-5.5l-0.6-5.5l-0.5-5.5l-0.1-5.5l0.3-5.5l0.6-5.5l0.8-5.5l0.8-5.5l0.7-5.5l0.6-5.5l0.3-5.5l0-5.5
		l-0.2-5.5l-0.3-5.5l-0.2-5.5l0-5.5l0-5.5l0.2-5.5l0.4-5.5l0.3-5.5l0.1-5.5l-0.2-5.5l-0.6-5.5l-0.8-5.5l-1-5.5l-0.9-5.5"/>
	<path class="st0" d="M68,575.3l0.9-5.5l1-5.5l1-5.5l0.6-5.5l0-5.5l-0.6-5.5l-1-5.5l-1.2-5.5l-1.1-5.5l-0.9-5.5l-0.7-5.5l-0.3-5.5
		l0.3-5.5l0.8-5.5l1-5.5l0.9-5.5l0.6-5.5l0-5.5l-0.5-5.5l-0.9-5.5l-0.8-5.5l-0.3-5.5l0.3-5.5l0.9-5.5l1.1-5.5l1.1-5.5l0.7-5.5
		l0.2-5.5l-0.4-5.5l-0.8-5.5l-1-5.5l-1.4-5.5l-1.5-5.5l-1.3-5.5l-0.8-5.5l-0.1-5.5l0.4-5.5l0.8-5.5l0.9-5.5l0.8-5.5l0.6-5.5l0.2-5.5
		l-0.3-5.5l-0.7-5.5l-0.8-5.5l-0.7-5.5l-0.3-5.5l0.2-5.5l0.6-5.5l0.8-5.5l0.8-5.5l0.7-5.5l0.4-5.5l0-5.5l-0.4-5.5l-0.6-5.5l-0.6-5.5
		l-0.4-5.5l-0.2-5.5l0-5.5l-0.2-5.5l-0.4-5.5l-0.4-5.5l-0.3-5.5l0-5.5l0.3-5.5l0.7-5.5l0.8-5.5l0.9-5.5l0.9-5.5l0.6-5.5l0.1-5.5
		l-0.4-5.5l-0.7-5.5l-0.8-5.5l-0.6-5.5l-0.2-5.5l0.3-5.5l0.8-5.5l0.9-5.5l0.9-5.5l0.8-5.5l0.5-5.5l0.2-5.5l-0.2-5.5l-0.4-5.5
		l-0.4-5.5l-0.3-5.5l-0.1-5.5l0-5.5l0.3-5.5l0.4-5.5l0.5-5.5l0.3-5.5l-0.1-5.5l-0.5-5.5l-0.8-5.5l-0.9-5.5l-0.9-5.5"/>
	<path class="st0" d="M75.4,575.3l1-5.5l1.2-5.5l1.2-5.5l0.8-5.5l0.2-5.5l-0.5-5.5l-1-5.5l-1.3-5.5l-1.2-5.5l-1-5.5l-0.8-5.5
		l-0.4-5.5l0.2-5.5l0.6-5.5l0.9-5.5l0.8-5.5l0.5-5.5l0-5.5l-0.5-5.5l-0.9-5.5l-0.8-5.5l-0.3-5.5l0.2-5.5l0.7-5.5l0.9-5.5l0.8-5.5
		l0.5-5.5l0-5.5l-0.6-5.5l-0.9-5.5l-1.1-5.5l-1.3-5.5l-1.3-5.5l-0.9-5.5l-0.3-5.5l0.4-5.5l0.9-5.5l1.2-5.5l1.1-5.5l0.9-5.5l0.7-5.5
		l0.3-5.5l-0.3-5.5l-0.7-5.5l-0.8-5.5l-0.7-5.5l-0.3-5.5l0.2-5.5l0.7-5.5l0.9-5.5l0.9-5.5l0.7-5.5l0.4-5.5l0-5.5l-0.4-5.5l-0.7-5.5
		l-0.7-5.5l-0.5-5.5l-0.2-5.5l0-5.5l-0.2-5.5l-0.5-5.5l-0.6-5.5l-0.5-5.5l-0.3-5.5l0.1-5.5l0.5-5.5l0.8-5.5l0.9-5.5l0.9-5.5l0.6-5.5
		l0.1-5.5l-0.4-5.5l-0.7-5.5l-0.8-5.5l-0.6-5.5l-0.2-5.5l0.4-5.5l0.8-5.5l0.9-5.5l0.9-5.5l0.7-5.5l0.3-5.5l-0.1-5.5l-0.4-5.5
		l-0.6-5.5l-0.6-5.5l-0.4-5.5l-0.1-5.5l0.1-5.5l0.3-5.5l0.6-5.5l0.6-5.5l0.5-5.5l0.1-5.5l-0.3-5.5l-0.6-5.5l-0.9-5.5l-0.9-5.5"/>
	<path class="st0" d="M82.8,575.3l1-5.5l1.2-5.5l1.3-5.5l1-5.5l0.4-5.5l-0.2-5.5l-0.8-5.5l-1.1-5.5l-1.1-5.5l-1-5.5l-0.8-5.5
		l-0.5-5.5l0-5.5l0.4-5.5l0.6-5.5l0.6-5.5l0.3-5.5l-0.1-5.5l-0.6-5.5l-0.9-5.5l-0.8-5.5l-0.4-5.5l0.1-5.5l0.5-5.5l0.7-5.5l0.6-5.5
		l0.3-5.5l-0.2-5.5l-0.6-5.5l-0.9-5.5l-1-5.5l-1.1-5.5l-1-5.5l-0.5-5.5l0.2-5.5l0.8-5.5l1.3-5.5l1.4-5.5l1.2-5.5l0.9-5.5l0.7-5.5
		l0.3-5.5l-0.3-5.5l-0.6-5.5l-0.8-5.5l-0.7-5.5l-0.3-5.5l0.2-5.5l0.7-5.5l0.9-5.5l0.9-5.5l0.7-5.5l0.4-5.5l0-5.5l-0.4-5.5l-0.7-5.5
		l-0.7-5.5l-0.5-5.5l-0.2-5.5l0-5.5l-0.3-5.5l-0.6-5.5l-0.8-5.5l-0.8-5.5l-0.5-5.5l-0.1-5.5l0.4-5.5l0.7-5.5l0.9-5.5l0.9-5.5
		l0.6-5.5l0.1-5.5l-0.4-5.5l-0.7-5.5l-0.8-5.5l-0.6-5.5l-0.1-5.5l0.4-5.5l0.8-5.5l0.9-5.5l0.8-5.5l0.6-5.5l0.2-5.5l-0.3-5.5
		l-0.7-5.5l-0.8-5.5l-0.7-5.5L82,91.3l-0.1-5.5l0.1-5.5l0.4-5.5l0.7-5.5l0.8-5.5l0.7-5.5l0.4-5.5l-0.1-5.5l-0.5-5.5l-0.8-5.5
		l-0.9-5.5"/>
	<path class="st0" d="M90.6,575.3l0.9-5.5l1.2-5.5l1.3-5.5l1.1-5.5l0.6-5.5l0-5.5l-0.6-5.5l-0.9-5.5l-1-5.5l-0.8-5.5l-0.7-5.5
		l-0.5-5.5l-0.2-5.5l0.1-5.5l0.2-5.5l0.2-5.5l0-5.5l-0.3-5.5l-0.6-5.5l-0.8-5.5l-0.7-5.5l-0.4-5.5l0-5.5l0.3-5.5l0.4-5.5l0.3-5.5
		l0-5.5l-0.3-5.5l-0.7-5.5l-0.9-5.5l-1-5.5l-1-5.5l-0.8-5.5l-0.2-5.5l0.5-5.5l1.1-5.5l1.5-5.5l1.5-5.5l1.2-5.5l1-5.5l0.8-5.5
		l0.3-5.5l-0.2-5.5l-0.6-5.5l-0.7-5.5l-0.7-5.5l-0.4-5.5l0.1-5.5l0.6-5.5l0.8-5.5l0.8-5.5l0.7-5.5l0.5-5.5l0.1-5.5l-0.2-5.5
		l-0.5-5.5l-0.6-5.5l-0.4-5.5l-0.2-5.5l-0.1-5.5l-0.3-5.5l-0.7-5.5l-1-5.5l-1-5.5l-0.7-5.5l-0.3-5.5l0.2-5.5l0.5-5.5l0.7-5.5
		l0.8-5.5l0.5-5.5l0.1-5.5l-0.3-5.5l-0.5-5.5l-0.5-5.5l-0.3-5.5l0.1-5.5l0.5-5.5l0.8-5.5l0.9-5.5l0.7-5.5l0.4-5.5l-0.2-5.5l-0.7-5.5
		l-1.1-5.5l-1.2-5.5l-1-5.5l-0.6-5.5l-0.1-5.5l0.1-5.5l0.4-5.5l0.8-5.5l1-5.5l0.9-5.5l0.6-5.5l0.2-5.5l-0.2-5.5l-0.6-5.5l-0.8-5.5"
		/>
	<path class="st0" d="M98.9,575.3l0.8-5.5l1-5.5l1-5.5l0.9-5.5l0.6-5.5l0.1-5.5l-0.3-5.5l-0.5-5.5l-0.6-5.5l-0.5-5.5l-0.5-5.5
		l-0.4-5.5l-0.4-5.5l-0.3-5.5l-0.3-5.5l-0.3-5.5l-0.3-5.5l-0.4-5.5l-0.5-5.5l-0.5-5.5l-0.4-5.5l-0.1-5.5l0.1-5.5l0.2-5.5l0.2-5.5
		l0-5.5l-0.3-5.5l-0.6-5.5l-0.8-5.5l-0.9-5.5l-1-5.5l-1-5.5l-0.7-5.5l-0.2-5.5l0.6-5.5l1.2-5.5l1.6-5.5l1.5-5.5l1.2-5.5l1-5.5
		l0.8-5.5l0.5-5.5l0.1-5.5l-0.3-5.5l-0.6-5.5l-0.7-5.5l-0.5-5.5l-0.1-5.5l0.3-5.5l0.5-5.5l0.6-5.5l0.6-5.5l0.6-5.5l0.4-5.5l0.1-5.5
		l-0.1-5.5l-0.3-5.5l-0.3-5.5l-0.3-5.5l-0.2-5.5l-0.5-5.5l-0.8-5.5l-1-5.5l-1-5.5l-0.8-5.5l-0.5-5.5l-0.1-5.5l0.3-5.5l0.4-5.5
		l0.5-5.5l0.3-5.5l0-5.5l-0.1-5.5l-0.2-5.5l0-5.5l0.2-5.5l0.5-5.5l0.7-5.5l0.9-5.5l0.9-5.5l0.6-5.5l0.1-5.5l-0.5-5.5l-1.1-5.5
		l-1.5-5.5l-1.6-5.5l-1.3-5.5l-0.7-5.5l-0.2-5.5l0.1-5.5l0.4-5.5l0.7-5.5l1-5.5l1-5.5l0.8-5.5l0.5-5.5l0.1-5.5l-0.2-5.5l-0.5-5.5"/>
	<path class="st0" d="M107,575.3l0.5-5.5l0.6-5.5l0.6-5.5l0.5-5.5l0.3-5.5l0.1-5.5l0-5.5l-0.1-5.5l-0.1-5.5l-0.1-5.5l-0.1-5.5
		l-0.3-5.5l-0.5-5.5l-0.7-5.5l-0.8-5.5l-0.8-5.5l-0.7-5.5l-0.4-5.5l-0.2-5.5l-0.1-5.5l0-5.5l0.2-5.5l0.4-5.5l0.3-5.5l0.1-5.5
		l-0.3-5.5l-0.6-5.5l-0.9-5.5l-0.9-5.5l-0.9-5.5l-1-5.5l-1.1-5.5l-0.8-5.5l-0.3-5.5l0.4-5.5l1-5.5l1.4-5.5l1.5-5.5l1.2-5.5l1-5.5
		l0.9-5.5l0.7-5.5l0.4-5.5l0-5.5l-0.4-5.5l-0.7-5.5l-0.7-5.5l-0.5-5.5l-0.2-5.5l0-5.5l0.2-5.5l0.5-5.5l0.7-5.5l0.7-5.5l0.6-5.5
		l0.3-5.5l0.1-5.5l-0.2-5.5l-0.4-5.5l-0.5-5.5l-0.6-5.5l-0.7-5.5l-0.8-5.5l-0.8-5.5l-0.7-5.5l-0.4-5.5l-0.2-5.5l-0.1-5.5l0-5.5
		l0-5.5l-0.1-5.5l-0.1-5.5l0-5.5l0.2-5.5l0.5-5.5l0.8-5.5l1-5.5l1-5.5l1-5.5l0.9-5.5l0.6-5.5l0-5.5l-0.7-5.5l-1.4-5.5l-1.8-5.5
		l-1.8-5.5l-1.4-5.5l-0.8-5.5l-0.2-5.5l0-5.5l0.2-5.5l0.5-5.5l0.7-5.5l0.9-5.5l0.9-5.5l0.7-5.5l0.5-5.5l0.2-5.5l0-5.5"/>
	<path class="st0" d="M114.7,575.3l0.2-5.5l0.2-5.5l0.1-5.5l0-5.5l0-5.5l0.1-5.5l0.1-5.5l0.3-5.5l0.4-5.5l0.4-5.5l0.3-5.5l0-5.5
		l-0.5-5.5l-0.9-5.5l-1.1-5.5l-1.1-5.5l-0.8-5.5l-0.4-5.5l0.1-5.5l0.4-5.5l0.5-5.5l0.7-5.5l0.7-5.5l0.5-5.5l0-5.5l-0.5-5.5l-0.9-5.5
		l-1.1-5.5l-1-5.5l-1-5.5l-1-5.5l-1.2-5.5l-1.1-5.5l-0.6-5.5l0-5.5l0.7-5.5l1.2-5.5l1.3-5.5l1.1-5.5l1-5.5l1-5.5l1-5.5l0.7-5.5
		l0.3-5.5l-0.2-5.5l-0.6-5.5l-0.9-5.5l-0.8-5.5l-0.6-5.5l-0.4-5.5l-0.2-5.5l0.3-5.5l0.7-5.5l0.9-5.5l0.9-5.5l0.7-5.5l0.3-5.5
		l-0.1-5.5l-0.5-5.5l-0.7-5.5l-0.7-5.5l-0.6-5.5l-0.5-5.5l-0.4-5.5l-0.3-5.5l-0.2-5.5l-0.2-5.5l-0.3-5.5l-0.4-5.5l-0.4-5.5l-0.5-5.5
		l-0.4-5.5l-0.1-5.5l0.3-5.5l0.8-5.5l1.2-5.5l1.4-5.5l1.3-5.5l1-5.5l0.9-5.5l0.6-5.5l0-5.5l-0.7-5.5l-1.4-5.5l-1.8-5.5l-1.8-5.5
		l-1.4-5.5l-0.8-5.5l-0.2-5.5l0-5.5l0-5.5l0.2-5.5l0.3-5.5l0.5-5.5l0.7-5.5l0.7-5.5l0.7-5.5l0.6-5.5l0.4-5.5"/>
	<path class="st0" d="M121.5,575.3l0-5.5l-0.2-5.5l-0.4-5.5l-0.4-5.5l-0.3-5.5l-0.1-5.5l0.2-5.5l0.5-5.5l0.7-5.5l0.7-5.5l0.6-5.5
		l0.2-5.5l-0.4-5.5l-0.9-5.5l-1.1-5.5l-1.1-5.5l-0.8-5.5l-0.2-5.5l0.3-5.5l0.7-5.5l0.8-5.5l1-5.5l1-5.5l0.7-5.5l0.1-5.5l-0.5-5.5
		l-1-5.5l-1.2-5.5l-1.1-5.5l-1-5.5l-1.1-5.5l-1.3-5.5l-1.2-5.5l-0.9-5.5l-0.2-5.5l0.4-5.5l1-5.5l1.2-5.5l1.1-5.5l1-5.5l1-5.5
		l1.1-5.5l1-5.5l0.6-5.5l0-5.5l-0.6-5.5l-1-5.5l-1.1-5.5l-0.9-5.5l-0.8-5.5l-0.5-5.5l0-5.5l0.6-5.5l1-5.5l1.1-5.5l0.9-5.5l0.4-5.5
		l-0.1-5.5l-0.6-5.5l-0.8-5.5l-0.7-5.5l-0.4-5.5l-0.1-5.5l0.1-5.5l0.2-5.5l0.1-5.5l-0.1-5.5l-0.4-5.5l-0.7-5.5l-0.8-5.5l-0.8-5.5
		l-0.7-5.5l-0.4-5.5l0.2-5.5l0.8-5.5l1.3-5.5l1.5-5.5l1.4-5.5l1.1-5.5l0.9-5.5l0.7-5.5l0.2-5.5l-0.4-5.5l-1-5.5l-1.4-5.5l-1.5-5.5
		l-1.2-5.5l-0.7-5.5l-0.1-5.5l0-5.5l-0.1-5.5l-0.2-5.5l-0.2-5.5l0-5.5l0.3-5.5l0.6-5.5l0.8-5.5l0.8-5.5l0.8-5.5"/>
	<path class="st0" d="M127.8,575.3l-0.1-5.5l-0.3-5.5l-0.6-5.5l-0.7-5.5l-0.5-5.5l-0.2-5.5l0.2-5.5l0.6-5.5l0.8-5.5l0.9-5.5l0.8-5.5
		l0.3-5.5l-0.2-5.5l-0.7-5.5l-1-5.5l-0.9-5.5l-0.6-5.5l-0.1-5.5l0.5-5.5l0.9-5.5l1-5.5l1.2-5.5l1.2-5.5l0.8-5.5l0.2-5.5l-0.5-5.5
		l-1-5.5l-1.2-5.5l-1.1-5.5l-1-5.5l-1.1-5.5l-1.3-5.5l-1.3-5.5l-0.9-5.5l-0.3-5.5l0.4-5.5l1-5.5l1.2-5.5l1.1-5.5l1-5.5l1.1-5.5
		l1.2-5.5l1.1-5.5l0.7-5.5l0-5.5l-0.6-5.5l-1.1-5.5l-1.2-5.5l-1.1-5.5l-0.9-5.5l-0.6-5.5l-0.1-5.5l0.4-5.5l0.8-5.5l1-5.5l0.8-5.5
		l0.4-5.5l-0.2-5.5l-0.7-5.5l-0.9-5.5l-0.7-5.5l-0.2-5.5l0.2-5.5l0.5-5.5l0.6-5.5l0.4-5.5l0.1-5.5l-0.4-5.5l-0.8-5.5l-0.9-5.5
		l-1.1-5.5l-1-5.5l-0.7-5.5l-0.2-5.5l0.5-5.5l1.1-5.5l1.4-5.5l1.3-5.5l1.1-5.5l0.9-5.5l0.8-5.5l0.4-5.5l0-5.5l-0.5-5.5l-0.9-5.5
		l-1-5.5l-0.9-5.5l-0.5-5.5l-0.1-5.5l0-5.5l-0.3-5.5l-0.5-5.5l-0.5-5.5l-0.4-5.5l0-5.5l0.4-5.5l0.7-5.5l0.9-5.5l0.9-5.5"/>
	<path class="st0" d="M134,575.3l-0.1-5.5l-0.4-5.5l-0.6-5.5l-0.7-5.5l-0.5-5.5l-0.2-5.5l0.2-5.5l0.6-5.5l0.8-5.5l0.9-5.5l0.8-5.5
		l0.4-5.5l-0.1-5.5l-0.5-5.5l-0.7-5.5l-0.7-5.5l-0.4-5.5l0.1-5.5l0.6-5.5l0.9-5.5l1-5.5l1.2-5.5l1.2-5.5l0.8-5.5l0.2-5.5l-0.5-5.5
		l-1-5.5l-1.2-5.5l-1.1-5.5l-1-5.5l-1.1-5.5l-1.2-5.5l-1.1-5.5l-0.7-5.5l-0.1-5.5l0.6-5.5l1.1-5.5l1.3-5.5l1.1-5.5l1-5.5l1.1-5.5
		l1.2-5.5l1.1-5.5l0.7-5.5l0-5.5l-0.6-5.5l-1.1-5.5l-1.2-5.5l-1.1-5.5l-0.9-5.5l-0.7-5.5l-0.2-5.5l0.3-5.5l0.6-5.5l0.8-5.5l0.6-5.5
		l0.2-5.5l-0.3-5.5l-0.7-5.5l-0.9-5.5l-0.6-5.5l-0.1-5.5l0.4-5.5l0.7-5.5l0.8-5.5l0.7-5.5l0.2-5.5l-0.3-5.5l-0.8-5.5l-1-5.5
		l-1.2-5.5l-1.3-5.5l-1.1-5.5l-0.6-5.5l0.1-5.5l0.7-5.5l1.1-5.5l1.2-5.5l1-5.5l0.9-5.5l0.9-5.5l0.7-5.5l0.3-5.5l-0.1-5.5l-0.4-5.5
		l-0.6-5.5l-0.6-5.5l-0.4-5.5l-0.1-5.5l-0.1-5.5l-0.3-5.5l-0.6-5.5l-0.8-5.5l-0.6-5.5l-0.3-5.5l0.2-5.5l0.5-5.5l0.8-5.5l0.9-5.5"/>
	<path class="st0" d="M139.9,575.3l-0.1-5.5l-0.4-5.5l-0.6-5.5l-0.7-5.5l-0.5-5.5l-0.2-5.5l0.2-5.5l0.6-5.5l0.8-5.5l0.9-5.5l0.8-5.5
		l0.5-5.5l0.1-5.5l-0.2-5.5l-0.4-5.5l-0.4-5.5l-0.2-5.5l0.2-5.5l0.6-5.5l0.8-5.5l1-5.5l1.2-5.5l1.2-5.5l0.8-5.5l0.2-5.5l-0.4-5.5
		l-0.9-5.5l-1.2-5.5l-1.1-5.5l-1-5.5l-1-5.5l-1.2-5.5l-1-5.5l-0.6-5.5l0.1-5.5l0.7-5.5l1.2-5.5l1.3-5.5l1.1-5.5l0.9-5.5l1-5.5
		l1.2-5.5l1.1-5.5l0.7-5.5l0-5.5l-0.6-5.5l-1.1-5.5l-1.2-5.5l-1.1-5.5l-0.9-5.5l-0.7-5.5l-0.3-5.5l0.2-5.5l0.5-5.5l0.6-5.5l0.5-5.5
		l0.1-5.5l-0.3-5.5l-0.7-5.5l-0.9-5.5l-0.6-5.5l-0.1-5.5l0.5-5.5l0.9-5.5l1-5.5l0.8-5.5l0.4-5.5l-0.2-5.5l-0.7-5.5l-0.9-5.5
		l-1.2-5.5l-1.5-5.5l-1.4-5.5l-1.1-5.5l-0.4-5.5l0.2-5.5l0.7-5.5l1-5.5l1-5.5l0.9-5.5l0.9-5.5l0.9-5.5l0.7-5.5l0.4-5.5l0-5.5
		l-0.2-5.5l-0.3-5.5l-0.2-5.5l-0.1-5.5l-0.1-5.5l-0.4-5.5l-0.7-5.5l-0.9-5.5l-0.7-5.5l-0.4-5.5l0-5.5l0.5-5.5l0.8-5.5l0.9-5.5"/>
	<path class="st0" d="M145.6,575.3l-0.2-5.5l-0.4-5.5l-0.6-5.5l-0.6-5.5l-0.4-5.5l-0.1-5.5l0.3-5.5l0.6-5.5l0.8-5.5l0.8-5.5l0.7-5.5
		l0.6-5.5l0.4-5.5l0.2-5.5l0-5.5l0-5.5l0.1-5.5l0.3-5.5l0.5-5.5l0.6-5.5l0.8-5.5l1-5.5l1.1-5.5l0.9-5.5l0.5-5.5l-0.1-5.5l-0.7-5.5
		l-1-5.5l-1-5.5l-0.9-5.5l-1-5.5l-1.1-5.5l-1-5.5l-0.6-5.5l0-5.5l0.6-5.5l1-5.5l1.2-5.5l1-5.5l0.8-5.5l0.9-5.5l1-5.5l0.9-5.5
		l0.6-5.5l0-5.5l-0.5-5.5l-0.9-5.5l-1-5.5l-0.9-5.5l-0.8-5.5l-0.6-5.5l-0.2-5.5l0.2-5.5l0.5-5.5l0.6-5.5l0.5-5.5l0.2-5.5l-0.2-5.5
		l-0.6-5.5l-0.8-5.5l-0.5-5.5l-0.1-5.5l0.4-5.5l0.7-5.5l0.9-5.5l0.7-5.5l0.4-5.5l-0.1-5.5l-0.5-5.5l-0.7-5.5l-1-5.5l-1.4-5.5
		l-1.6-5.5l-1.5-5.5l-1-5.5l-0.4-5.5l0.2-5.5l0.6-5.5l0.8-5.5l0.8-5.5l0.9-5.5l1-5.5l0.9-5.5l0.7-5.5l0.4-5.5l0.2-5.5l0-5.5
		l-0.1-5.5l0-5.5l-0.1-5.5l-0.3-5.5l-0.6-5.5l-0.8-5.5l-0.6-5.5l-0.3-5.5l0.2-5.5l0.6-5.5l0.8-5.5l0.9-5.5"/>
	<path class="st0" d="M151.8,575.3l-0.4-5.5l-0.5-5.5l-0.6-5.5l-0.5-5.5l-0.3-5.5l0.1-5.5l0.4-5.5l0.6-5.5l0.7-5.5l0.6-5.5l0.6-5.5
		l0.7-5.5l0.7-5.5l0.6-5.5l0.5-5.5l0.4-5.5l0.3-5.5l0.2-5.5l0.2-5.5l0.2-5.5l0.4-5.5l0.7-5.5l1-5.5l1-5.5l0.8-5.5l0.3-5.5l-0.2-5.5
		l-0.6-5.5l-0.9-5.5l-0.9-5.5l-1-5.5l-1.2-5.5l-1.1-5.5l-0.7-5.5l-0.2-5.5l0.3-5.5l0.7-5.5l0.9-5.5l0.7-5.5l0.6-5.5l0.7-5.5l0.8-5.5
		l0.7-5.5l0.4-5.5l0-5.5l-0.4-5.5l-0.7-5.5l-0.8-5.5l-0.7-5.5l-0.6-5.5l-0.4-5.5l0-5.5l0.4-5.5l0.7-5.5l0.8-5.5l0.7-5.5l0.3-5.5
		l-0.1-5.5l-0.4-5.5l-0.6-5.5l-0.5-5.5l-0.3-5.5l0-5.5l0.3-5.5l0.5-5.5l0.5-5.5l0.4-5.5l0.1-5.5l-0.1-5.5l-0.3-5.5l-0.6-5.5
		l-1.2-5.5l-1.5-5.5l-1.6-5.5l-1.4-5.5l-0.9-5.5l-0.3-5.5l0.2-5.5l0.5-5.5l0.6-5.5l0.7-5.5l0.9-5.5l0.9-5.5l0.8-5.5l0.6-5.5l0.4-5.5
		l0.2-5.5l0-5.5l0-5.5l0-5.5l-0.3-5.5l-0.5-5.5l-0.5-5.5l-0.3-5.5l0-5.5l0.4-5.5l0.7-5.5l0.9-5.5l0.9-5.5"/>
	<path class="st0" d="M159.2,575.3l-0.6-5.5l-0.7-5.5l-0.6-5.5l-0.4-5.5l-0.1-5.5l0.3-5.5l0.5-5.5l0.6-5.5l0.5-5.5l0.4-5.5l0.4-5.5
		l0.7-5.5l0.9-5.5l1-5.5l0.9-5.5l0.6-5.5l0.3-5.5l0-5.5l-0.1-5.5l-0.2-5.5l-0.1-5.5l0.4-5.5l0.8-5.5l1.1-5.5l1-5.5l0.7-5.5l0.2-5.5
		l-0.3-5.5l-0.7-5.5l-0.9-5.5l-1-5.5l-1.1-5.5l-1.1-5.5l-0.8-5.5l-0.4-5.5l0.1-5.5l0.4-5.5l0.6-5.5l0.5-5.5l0.4-5.5l0.4-5.5l0.5-5.5
		l0.4-5.5l0.3-5.5l0-5.5l-0.2-5.5l-0.4-5.5l-0.5-5.5l-0.4-5.5l-0.3-5.5l-0.2-5.5l0.2-5.5l0.5-5.5l0.8-5.5l0.9-5.5l0.8-5.5l0.5-5.5
		l0.1-5.5l-0.2-5.5l-0.4-5.5l-0.4-5.5l-0.4-5.5l-0.4-5.5l-0.2-5.5l0-5.5l0.2-5.5l0.3-5.5l0.3-5.5l0.3-5.5l0.2-5.5l-0.1-5.5l-0.6-5.5
		l-1.1-5.5l-1.4-5.5l-1.4-5.5l-1.2-5.5l-0.7-5.5l-0.2-5.5l0.2-5.5l0.4-5.5l0.5-5.5l0.6-5.5l0.7-5.5l0.7-5.5l0.5-5.5l0.4-5.5l0.2-5.5
		l0.1-5.5l0-5.5l0-5.5l-0.2-5.5l-0.3-5.5l-0.3-5.5l0-5.5l0.3-5.5l0.7-5.5l0.9-5.5l1-5.5l1-5.5"/>
	<path class="st0" d="M167.7,575.3l-0.8-5.5l-0.8-5.5l-0.6-5.5l-0.3-5.5l0.1-5.5l0.4-5.5l0.6-5.5l0.6-5.5l0.4-5.5l0.2-5.5l0.2-5.5
		l0.6-5.5l0.9-5.5l1-5.5l0.9-5.5l0.6-5.5l0.2-5.5l-0.2-5.5l-0.5-5.5l-0.6-5.5l-0.5-5.5l0-5.5l0.6-5.5l1-5.5l1.1-5.5l0.9-5.5l0.5-5.5
		l-0.1-5.5l-0.6-5.5l-0.9-5.5l-1-5.5l-1.1-5.5l-1-5.5l-0.8-5.5l-0.4-5.5l0-5.5l0.3-5.5l0.4-5.5l0.3-5.5l0.2-5.5l0.2-5.5l0.2-5.5
		l0.2-5.5l0.1-5.5l0-5.5l-0.1-5.5l-0.2-5.5l-0.2-5.5l-0.2-5.5l-0.1-5.5l0-5.5l0.2-5.5l0.5-5.5l0.7-5.5l0.8-5.5l0.7-5.5l0.5-5.5
		l0.2-5.5l0-5.5l-0.2-5.5l-0.3-5.5l-0.6-5.5l-0.7-5.5l-0.6-5.5l-0.4-5.5l-0.1-5.5l0.3-5.5l0.5-5.5l0.6-5.5l0.6-5.5l0.4-5.5l0-5.5
		l-0.5-5.5l-1-5.5l-1.2-5.5l-1.2-5.5l-0.9-5.5l-0.4-5.5l0-5.5l0.2-5.5l0.2-5.5l0.3-5.5l0.4-5.5l0.4-5.5l0.3-5.5l0.2-5.5l0.1-5.5
		l0.1-5.5l0-5.5l0-5.5l-0.2-5.5l-0.3-5.5l-0.2-5.5l0.1-5.5l0.4-5.5l0.8-5.5l1-5.5l1-5.5l1-5.5"/>
	<path class="st0" d="M176.7,575.3l-0.9-5.5l-0.8-5.5l-0.6-5.5l-0.2-5.5l0.2-5.5l0.5-5.5l0.7-5.5l0.6-5.5l0.3-5.5l0.1-5.5l0.1-5.5
		l0.5-5.5l0.8-5.5l0.9-5.5l0.8-5.5l0.4-5.5l0-5.5l-0.5-5.5l-0.7-5.5l-0.9-5.5l-0.7-5.5l-0.2-5.5l0.4-5.5l0.8-5.5l1-5.5l0.9-5.5
		l0.6-5.5l0-5.5l-0.6-5.5l-0.9-5.5l-1-5.5l-1-5.5l-0.8-5.5l-0.5-5.5l-0.2-5.5l0.2-5.5l0.4-5.5l0.3-5.5l0.2-5.5l0-5.5l0-5.5l0-5.5
		l0-5.5l0-5.5l0-5.5l0-5.5l0-5.5l0-5.5l0-5.5l0-5.5l0-5.5l0.2-5.5l0.4-5.5l0.5-5.5l0.5-5.5l0.5-5.5l0.4-5.5l0.2-5.5l0-5.5l0-5.5
		l-0.3-5.5l-0.6-5.5l-0.8-5.5l-0.8-5.5l-0.5-5.5l-0.1-5.5l0.3-5.5l0.7-5.5l0.8-5.5l0.9-5.5l0.7-5.5l0.4-5.5l0-5.5l-0.5-5.5l-0.8-5.5
		l-1-5.5l-0.8-5.5l-0.5-5.5l-0.1-5.5l0-5.5l0-5.5l0.1-5.5l0.1-5.5l0.1-5.5l0.1-5.5l0.1-5.5l0-5.5l0-5.5l0-5.5l0-5.5l-0.2-5.5
		l-0.3-5.5l-0.3-5.5l-0.1-5.5l0.3-5.5l0.6-5.5l0.9-5.5l1-5.5l0.9-5.5"/>
	<path class="st0" d="M185.5,575.3l-0.9-5.5l-0.8-5.5l-0.6-5.5l-0.2-5.5l0.2-5.5l0.6-5.5l0.7-5.5l0.6-5.5l0.3-5.5l0.1-5.5l0.1-5.5
		l0.4-5.5l0.7-5.5l0.7-5.5l0.6-5.5l0.2-5.5l-0.2-5.5l-0.6-5.5l-0.9-5.5l-0.9-5.5l-0.8-5.5l-0.3-5.5l0.2-5.5l0.6-5.5l0.8-5.5l0.8-5.5
		l0.4-5.5l-0.1-5.5l-0.6-5.5l-0.9-5.5l-0.9-5.5l-0.8-5.5l-0.5-5.5l-0.1-5.5l0.3-5.5l0.5-5.5l0.6-5.5l0.5-5.5l0.2-5.5l0-5.5l0-5.5
		l0-5.5l0-5.5l0-5.5l0-5.5l0-5.5l0-5.5l0-5.5l0-5.5l0-5.5l0-5.5l0-5.5l0.1-5.5l0.1-5.5l0.1-5.5l0.1-5.5l0.1-5.5l0-5.5l0-5.5l0-5.5
		l-0.2-5.5l-0.6-5.5l-0.7-5.5l-0.7-5.5l-0.4-5.5l0-5.5l0.4-5.5l0.8-5.5l0.9-5.5l0.9-5.5l0.9-5.5l0.6-5.5l0.3-5.5l-0.2-5.5l-0.5-5.5
		l-0.7-5.5l-0.7-5.5l-0.4-5.5l-0.1-5.5l0-5.5l0-5.5l0-5.5l0-5.5l0-5.5l0-5.5l0-5.5l0-5.5l0-5.5l0-5.5l-0.1-5.5l-0.3-5.5l-0.6-5.5
		l-0.6-5.5l-0.5-5.5l-0.1-5.5l0.3-5.5l0.6-5.5l0.9-5.5l0.9-5.5"/>
	<path class="st0" d="M194,575.3l-0.9-5.5l-0.8-5.5l-0.6-5.5l-0.2-5.5l0.2-5.5l0.6-5.5l0.7-5.5l0.6-5.5l0.3-5.5l0.1-5.5l0.1-5.5
		l0.3-5.5l0.5-5.5l0.5-5.5l0.3-5.5l0-5.5l-0.4-5.5l-0.7-5.5l-0.9-5.5l-0.9-5.5l-0.8-5.5l-0.4-5.5l0.1-5.5l0.4-5.5l0.6-5.5l0.5-5.5
		l0.2-5.5l-0.2-5.5l-0.6-5.5l-0.9-5.5l-0.9-5.5l-0.6-5.5l-0.2-5.5l0.2-5.5l0.7-5.5l1-5.5l1-5.5l0.7-5.5l0.3-5.5l0-5.5l0-5.5l0-5.5
		l0-5.5l0-5.5l0-5.5l0-5.5l0-5.5l0-5.5l0-5.5l0-5.5l-0.1-5.5l-0.2-5.5l-0.3-5.5l-0.3-5.5l-0.4-5.5l-0.3-5.5l-0.3-5.5l-0.1-5.5l0-5.5
		l0-5.5l-0.2-5.5l-0.5-5.5l-0.6-5.5l-0.5-5.5l-0.2-5.5l0.2-5.5l0.6-5.5l0.8-5.5l0.9-5.5l0.9-5.5l0.9-5.5l0.8-5.5l0.5-5.5l0.1-5.5
		l-0.3-5.5l-0.5-5.5l-0.5-5.5l-0.4-5.5l-0.1-5.5l0-5.5l0-5.5l0-5.5l0-5.5l0-5.5l0-5.5l0-5.5l0-5.5l0-5.5l0-5.5l-0.1-5.5l-0.4-5.5
		l-0.8-5.5l-1-5.5l-1-5.5l-0.6-5.5l-0.2-5.5l0.3-5.5l0.7-5.5l0.9-5.5"/>
	<path class="st0" d="M201.8,575.3l-0.7-5.5l-0.7-5.5l-0.5-5.5l-0.1-5.5l0.3-5.5l0.6-5.5l0.7-5.5l0.6-5.5l0.4-5.5l0.1-5.5l0.1-5.5
		l0.3-5.5l0.4-5.5l0.4-5.5l0.1-5.5l-0.2-5.5l-0.5-5.5l-0.7-5.5l-0.8-5.5l-0.8-5.5l-0.7-5.5l-0.3-5.5l0-5.5l0.3-5.5l0.4-5.5l0.2-5.5
		l0-5.5l-0.4-5.5l-0.7-5.5l-0.9-5.5l-0.8-5.5l-0.5-5.5l-0.1-5.5l0.5-5.5l0.9-5.5l1.1-5.5l1.1-5.5l0.7-5.5l0.2-5.5l-0.1-5.5l-0.1-5.5
		l0-5.5l0.1-5.5l0.2-5.5l0.3-5.5l0.3-5.5l0.2-5.5l0.2-5.5l0.1-5.5l0-5.5l-0.1-5.5l-0.3-5.5l-0.5-5.5l-0.7-5.5l-0.8-5.5l-0.7-5.5
		l-0.5-5.5l-0.3-5.5l-0.1-5.5l0-5.5l-0.1-5.5l-0.3-5.5l-0.4-5.5l-0.3-5.5l0-5.5l0.3-5.5l0.5-5.5l0.7-5.5l0.8-5.5l0.8-5.5l0.8-5.5
		l0.8-5.5l0.6-5.5l0.4-5.5l0.1-5.5l-0.1-5.5l-0.2-5.5l-0.2-5.5l-0.1-5.5l0-5.5l0-5.5l-0.1-5.5l-0.1-5.5l-0.1-5.5l0-5.5l0-5.5
		l0.1-5.5l0.1-5.5l0.1-5.5l0-5.5l-0.5-5.5l-1.1-5.5l-1.5-5.5l-1.6-5.5l-1.3-5.5l-0.7-5.5l-0.1-5.5l0.5-5.5l0.9-5.5"/>
	<path class="st0" d="M208.7,575.3l-0.4-5.5l-0.4-5.5l-0.3-5.5l0-5.5l0.2-5.5l0.5-5.5l0.6-5.5l0.6-5.5l0.5-5.5l0.3-5.5l0.3-5.5
		l0.4-5.5l0.3-5.5l0.2-5.5l0-5.5l-0.3-5.5l-0.5-5.5l-0.5-5.5l-0.5-5.5l-0.4-5.5l-0.3-5.5l-0.1-5.5l0.2-5.5l0.2-5.5l0.2-5.5l-0.1-5.5
		l-0.4-5.5l-0.6-5.5l-0.8-5.5l-0.9-5.5l-0.8-5.5l-0.5-5.5l-0.1-5.5l0.4-5.5l0.8-5.5l1-5.5l0.9-5.5l0.5-5.5l0-5.5l-0.2-5.5l-0.2-5.5
		l0-5.5l0.3-5.5l0.5-5.5l0.7-5.5l0.7-5.5l0.6-5.5l0.4-5.5l0.1-5.5l0-5.5l-0.1-5.5l-0.4-5.5l-0.7-5.5l-0.9-5.5l-0.9-5.5l-0.9-5.5
		l-0.7-5.5l-0.4-5.5l-0.1-5.5l0-5.5l-0.1-5.5l-0.2-5.5l-0.2-5.5l-0.1-5.5l0-5.5l0.2-5.5l0.3-5.5l0.4-5.5l0.4-5.5l0.4-5.5l0.5-5.5
		l0.7-5.5l0.7-5.5l0.7-5.5l0.6-5.5l0.4-5.5l0.2-5.5l0.1-5.5l0-5.5l0-5.5l-0.1-5.5l-0.2-5.5l-0.2-5.5l-0.2-5.5l-0.1-5.5l0-5.5
		l0.2-5.5l0.2-5.5l0.3-5.5l0.2-5.5l-0.5-5.5l-1.3-5.5l-1.9-5.5l-2.1-5.5l-1.9-5.5l-1.3-5.5l-0.5-5.5l0.3-5.5l0.8-5.5"/>
	<path class="st0" d="M215,575.3l0-5.5l0-5.5l-0.1-5.5l0-5.5l0.1-5.5l0.3-5.5l0.4-5.5l0.5-5.5l0.5-5.5l0.5-5.5l0.5-5.5l0.4-5.5
		l0.3-5.5l0.1-5.5l-0.1-5.5l-0.3-5.5l-0.3-5.5l-0.3-5.5l-0.1-5.5l0-5.5l0.1-5.5l0.3-5.5l0.4-5.5l0.3-5.5l0-5.5l-0.3-5.5l-0.7-5.5
		l-0.9-5.5l-1-5.5l-0.9-5.5l-0.8-5.5l-0.5-5.5l-0.1-5.5l0.3-5.5l0.5-5.5l0.6-5.5l0.5-5.5l0.2-5.5l-0.2-5.5l-0.5-5.5l-0.4-5.5l0-5.5
		l0.4-5.5l0.8-5.5l1.1-5.5l1.2-5.5l1-5.5l0.6-5.5l0.2-5.5l0-5.5l-0.1-5.5l-0.4-5.5l-0.6-5.5l-0.8-5.5l-0.8-5.5l-0.8-5.5l-0.6-5.5
		l-0.3-5.5l-0.1-5.5l0-5.5l0-5.5l0-5.5l0-5.5l0-5.5l0-5.5l0-5.5l0-5.5l0-5.5l0-5.5l0-5.5l0.1-5.5l0.4-5.5l0.6-5.5l0.8-5.5l0.9-5.5
		l0.8-5.5l0.6-5.5l0.3-5.5l0.1-5.5l0-5.5l-0.2-5.5l-0.3-5.5l-0.4-5.5l-0.3-5.5l-0.1-5.5l0.1-5.5l0.3-5.5l0.4-5.5l0.5-5.5l0.4-5.5
		l-0.3-5.5l-1.2-5.5l-2-5.5l-2.4-5.5l-2.2-5.5l-1.6-5.5l-0.8-5.5l0.2-5.5l0.8-5.5"/>
	<path class="st0" d="M221.5,575.3l0.5-5.5l0.3-5.5l0.1-5.5l-0.1-5.5l-0.1-5.5l0-5.5l0.2-5.5l0.4-5.5l0.6-5.5l0.7-5.5l0.7-5.5
		l0.5-5.5l0.2-5.5l-0.1-5.5l-0.3-5.5l-0.3-5.5l-0.2-5.5l0-5.5l0.3-5.5l0.5-5.5l0.6-5.5l0.8-5.5l0.8-5.5l0.5-5.5l0.1-5.5l-0.5-5.5
		l-0.9-5.5l-1.1-5.5l-1.1-5.5l-0.9-5.5l-0.8-5.5l-0.6-5.5l-0.2-5.5l0.1-5.5l0.3-5.5l0.3-5.5l0.1-5.5l-0.2-5.5l-0.5-5.5l-0.7-5.5
		l-0.6-5.5l-0.2-5.5l0.3-5.5l0.8-5.5l1.2-5.5l1.4-5.5l1.2-5.5l0.8-5.5l0.3-5.5l0-5.5l-0.1-5.5l-0.2-5.5l-0.4-5.5l-0.5-5.5l-0.5-5.5
		l-0.5-5.5l-0.4-5.5l-0.2-5.5l-0.1-5.5l0-5.5l0.1-5.5l0.2-5.5l0.2-5.5l0.1-5.5l0-5.5l-0.2-5.5l-0.4-5.5l-0.5-5.5l-0.5-5.5l-0.5-5.5
		l-0.3-5.5l0-5.5l0.4-5.5l0.8-5.5l1-5.5l1-5.5l0.8-5.5l0.5-5.5l0.1-5.5l0-5.5l-0.2-5.5l-0.5-5.5l-0.5-5.5l-0.5-5.5l-0.2-5.5l0.1-5.5
		l0.4-5.5l0.6-5.5l0.7-5.5l0.6-5.5l0-5.5l-0.9-5.5l-1.7-5.5l-2.1-5.5l-2.1-5.5l-1.6-5.5l-0.7-5.5l0.2-5.5l0.8-5.5"/>
	<path class="st0" d="M228.5,575.3l0.7-5.5l0.5-5.5l0.1-5.5l-0.2-5.5l-0.4-5.5l-0.3-5.5l-0.1-5.5l0.2-5.5l0.6-5.5l0.8-5.5l0.8-5.5
		l0.5-5.5l0.1-5.5l-0.3-5.5l-0.4-5.5l-0.4-5.5l-0.2-5.5l0.1-5.5l0.5-5.5l0.8-5.5l0.9-5.5l1.1-5.5l1-5.5l0.7-5.5l0.1-5.5l-0.5-5.5
		l-1-5.5l-1.2-5.5l-1.1-5.5l-1-5.5l-0.8-5.5l-0.5-5.5l-0.2-5.5l0.1-5.5l0.3-5.5l0.2-5.5l0-5.5l-0.3-5.5l-0.7-5.5l-0.9-5.5l-0.8-5.5
		l-0.4-5.5l0.1-5.5l0.6-5.5l1.1-5.5l1.3-5.5l1.2-5.5l0.8-5.5l0.3-5.5l0-5.5l0-5.5l-0.1-5.5l-0.1-5.5l-0.2-5.5l-0.2-5.5l-0.2-5.5
		l-0.1-5.5l-0.1-5.5l0-5.5l0-5.5l0.2-5.5l0.4-5.5l0.4-5.5l0.3-5.5l0-5.5l-0.3-5.5l-0.6-5.5l-0.8-5.5l-0.8-5.5l-0.8-5.5l-0.7-5.5
		l-0.4-5.5l0.1-5.5l0.5-5.5l0.9-5.5l1-5.5l0.9-5.5l0.5-5.5l0.1-5.5l0-5.5l-0.3-5.5l-0.6-5.5l-0.7-5.5l-0.6-5.5l-0.3-5.5l0.1-5.5
		l0.5-5.5l0.8-5.5l0.9-5.5l0.8-5.5l0.2-5.5l-0.5-5.5l-1.2-5.5l-1.6-5.5l-1.6-5.5l-1.2-5.5l-0.5-5.5l0.3-5.5l0.8-5.5"/>
	<path class="st0" d="M236.5,575.3l0.9-5.5l0.5-5.5l0-5.5l-0.4-5.5l-0.6-5.5l-0.6-5.5l-0.4-5.5l0.1-5.5l0.5-5.5l0.9-5.5l0.8-5.5
		l0.5-5.5l0-5.5l-0.4-5.5l-0.6-5.5l-0.6-5.5l-0.3-5.5l0.1-5.5l0.6-5.5l0.9-5.5l1-5.5l1.2-5.5l1.2-5.5l0.8-5.5l0.2-5.5l-0.5-5.5
		l-1-5.5l-1.2-5.5l-1.1-5.5l-1-5.5l-0.8-5.5l-0.4-5.5l0-5.5l0.4-5.5l0.5-5.5l0.5-5.5l0.2-5.5l-0.3-5.5l-0.7-5.5l-0.9-5.5l-0.9-5.5
		l-0.6-5.5l-0.2-5.5l0.2-5.5l0.7-5.5l0.9-5.5l0.9-5.5l0.6-5.5l0.2-5.5l0-5.5l0-5.5l0-5.5l0-5.5l0-5.5l0-5.5l0-5.5l0-5.5l0-5.5l0-5.5
		l0-5.5l0.2-5.5l0.5-5.5l0.6-5.5l0.5-5.5l0.2-5.5l-0.2-5.5l-0.6-5.5l-0.8-5.5l-0.9-5.5l-0.9-5.5l-0.8-5.5l-0.6-5.5l-0.2-5.5l0.2-5.5
		l0.6-5.5l0.8-5.5l0.8-5.5l0.5-5.5l0.1-5.5l0-5.5l-0.3-5.5l-0.6-5.5l-0.7-5.5l-0.6-5.5l-0.3-5.5l0.1-5.5l0.5-5.5l0.8-5.5l0.9-5.5
		l0.9-5.5l0.4-5.5l-0.2-5.5l-0.7-5.5l-1-5.5l-1.1-5.5l-0.8-5.5l-0.2-5.5l0.4-5.5l0.8-5.5"/>
	<path class="st0" d="M245.1,575.3l0.8-5.5l0.4-5.5l-0.1-5.5l-0.6-5.5l-0.9-5.5l-0.9-5.5l-0.6-5.5l-0.1-5.5l0.5-5.5l0.9-5.5l0.8-5.5
		l0.4-5.5l-0.2-5.5l-0.6-5.5l-0.9-5.5l-0.8-5.5l-0.5-5.5l0-5.5l0.5-5.5l0.9-5.5l1-5.5l1.2-5.5l1.2-5.5l0.8-5.5l0.2-5.5l-0.5-5.5
		l-1-5.5l-1.2-5.5l-1.1-5.5l-1-5.5l-0.7-5.5l-0.2-5.5l0.3-5.5l0.8-5.5l1-5.5l0.9-5.5l0.5-5.5l-0.1-5.5l-0.6-5.5l-0.9-5.5l-0.9-5.5
		l-0.8-5.5l-0.6-5.5l-0.2-5.5l0.2-5.5l0.5-5.5l0.6-5.5l0.4-5.5l0.2-5.5l0-5.5l0-5.5l0-5.5l0-5.5l0-5.5l0-5.5l0-5.5l0-5.5l0-5.5
		l0-5.5l0-5.5l0.3-5.5l0.6-5.5l0.8-5.5l0.7-5.5l0.4-5.5l0-5.5l-0.4-5.5l-0.7-5.5l-0.9-5.5l-0.9-5.5l-0.9-5.5l-0.7-5.5l-0.4-5.5
		l0-5.5l0.4-5.5l0.6-5.5l0.6-5.5l0.4-5.5l0.1-5.5l0-5.5l-0.3-5.5l-0.6-5.5l-0.7-5.5l-0.6-5.5l-0.3-5.5l0.1-5.5l0.5-5.5l0.8-5.5
		l0.9-5.5l0.9-5.5l0.6-5.5l0.1-5.5l-0.3-5.5l-0.6-5.5l-0.6-5.5l-0.4-5.5l0-5.5l0.5-5.5l0.9-5.5"/>
	<path class="st0" d="M253.2,575.3l0.8-5.5l0.4-5.5l-0.2-5.5l-0.7-5.5l-1-5.5l-1-5.5l-0.7-5.5l-0.1-5.5l0.5-5.5l0.9-5.5l0.8-5.5
		l0.3-5.5l-0.3-5.5l-0.9-5.5l-1.2-5.5l-1.1-5.5l-0.7-5.5l-0.2-5.5l0.5-5.5l0.9-5.5l1-5.5l1.2-5.5l1.2-5.5l0.9-5.5l0.2-5.5l-0.4-5.5
		l-1-5.5l-1.2-5.5l-1.1-5.5l-1-5.5l-0.7-5.5l-0.1-5.5l0.6-5.5l1.2-5.5l1.4-5.5l1.3-5.5l0.8-5.5l0.1-5.5l-0.5-5.5l-0.9-5.5l-1-5.5
		l-1-5.5l-0.8-5.5l-0.6-5.5l-0.2-5.5l0.1-5.5l0.2-5.5l0.2-5.5l0.1-5.5l0-5.5l0-5.5l0-5.5l0-5.5l0.1-5.5l0.1-5.5l0.1-5.5l0.1-5.5
		l0.1-5.5l0-5.5l0-5.5l0.3-5.5l0.7-5.5l0.9-5.5l0.9-5.5l0.6-5.5l0.2-5.5l-0.2-5.5l-0.6-5.5l-0.8-5.5l-0.9-5.5l-0.9-5.5l-0.8-5.5
		l-0.6-5.5l-0.3-5.5l0.1-5.5l0.3-5.5l0.4-5.5l0.3-5.5l0.1-5.5l0-5.5l-0.2-5.5l-0.5-5.5l-0.6-5.5l-0.5-5.5l-0.2-5.5l0.2-5.5l0.5-5.5
		l0.8-5.5l0.9-5.5l0.8-5.5l0.6-5.5l0.3-5.5l-0.1-5.5l-0.3-5.5l-0.3-5.5l-0.1-5.5l0.2-5.5l0.6-5.5l0.8-5.5"/>
	<path class="st0" d="M260.5,575.3l0.8-5.5l0.4-5.5l-0.2-5.5l-0.7-5.5l-1-5.5l-1-5.5l-0.7-5.5l-0.1-5.5l0.5-5.5l0.9-5.5l0.8-5.5
		l0.2-5.5l-0.5-5.5l-1.1-5.5l-1.5-5.5l-1.4-5.5l-1-5.5l-0.3-5.5l0.4-5.5l0.9-5.5l1.1-5.5l1.3-5.5l1.3-5.5l1-5.5l0.4-5.5l-0.3-5.5
		l-0.9-5.5l-1.1-5.5l-1.1-5.5l-1-5.5l-0.7-5.5l0-5.5l0.8-5.5l1.4-5.5l1.7-5.5l1.6-5.5l1-5.5l0.3-5.5l-0.5-5.5l-0.9-5.5l-1-5.5
		l-1-5.5l-0.9-5.5l-0.7-5.5l-0.4-5.5l-0.2-5.5l0-5.5l0-5.5l-0.1-5.5l-0.2-5.5l-0.1-5.5l0-5.5l0.1-5.5l0.2-5.5l0.3-5.5l0.3-5.5
		l0.3-5.5l0.2-5.5l0.1-5.5l0-5.5l0.3-5.5l0.6-5.5l0.9-5.5l0.9-5.5l0.7-5.5l0.4-5.5l-0.1-5.5l-0.5-5.5l-0.7-5.5l-0.8-5.5l-0.9-5.5
		l-1-5.5l-0.9-5.5l-0.7-5.5l-0.4-5.5l0-5.5l0.2-5.5l0.3-5.5l0.2-5.5l0.2-5.5l0-5.5l-0.2-5.5l-0.3-5.5l-0.3-5.5l-0.1-5.5l0.2-5.5
		l0.4-5.5l0.6-5.5l0.7-5.5l0.7-5.5l0.5-5.5l0.2-5.5l0-5.5l-0.2-5.5l-0.2-5.5l0-5.5l0.2-5.5l0.5-5.5l0.7-5.5"/>
	<path class="st0" d="M267,575.3l0.8-5.5l0.4-5.5l-0.1-5.5l-0.6-5.5l-0.8-5.5l-0.8-5.5l-0.5-5.5l0-5.5l0.5-5.5l0.9-5.5l0.8-5.5
		l0.2-5.5l-0.6-5.5l-1.3-5.5l-1.6-5.5l-1.6-5.5l-1.1-5.5l-0.4-5.5l0.4-5.5l0.9-5.5l1.1-5.5l1.4-5.5l1.4-5.5l1.1-5.5l0.6-5.5
		l-0.1-5.5l-0.7-5.5l-1-5.5l-1.1-5.5l-0.9-5.5l-0.7-5.5l0-5.5l0.8-5.5l1.4-5.5l1.7-5.5l1.6-5.5l1-5.5l0.3-5.5l-0.5-5.5l-0.9-5.5
		l-0.9-5.5l-0.9-5.5l-0.8-5.5l-0.6-5.5l-0.4-5.5l-0.2-5.5l-0.1-5.5l-0.2-5.5l-0.3-5.5l-0.4-5.5l-0.3-5.5l-0.1-5.5l0.1-5.5l0.4-5.5
		l0.6-5.5l0.6-5.5l0.6-5.5l0.4-5.5l0.1-5.5l0-5.5l0.2-5.5l0.5-5.5l0.7-5.5l0.8-5.5l0.7-5.5l0.4-5.5l0-5.5l-0.3-5.5l-0.5-5.5
		l-0.6-5.5l-0.8-5.5l-1-5.5l-1.1-5.5l-1-5.5l-0.7-5.5l-0.3-5.5l0.1-5.5l0.3-5.5l0.4-5.5l0.4-5.5l0.3-5.5l0.1-5.5l0-5.5l0-5.5l0-5.5
		l0.1-5.5l0.3-5.5l0.4-5.5l0.5-5.5l0.5-5.5l0.3-5.5l0.1-5.5l-0.2-5.5l-0.3-5.5l-0.3-5.5l-0.2-5.5l0-5.5l0.3-5.5l0.5-5.5"/>
	<path class="st0" d="M273.3,575.3l0.9-5.5l0.5-5.5l0-5.5l-0.4-5.5l-0.6-5.5l-0.6-5.5l-0.4-5.5l0.1-5.5l0.5-5.5l0.9-5.5l0.8-5.5
		l0.2-5.5l-0.6-5.5l-1.3-5.5l-1.6-5.5l-1.5-5.5l-1.1-5.5l-0.4-5.5l0.4-5.5l0.9-5.5l1.1-5.5l1.4-5.5l1.5-5.5l1.2-5.5l0.6-5.5
		l-0.1-5.5l-0.7-5.5l-1-5.5l-1.1-5.5l-0.9-5.5l-0.7-5.5l-0.1-5.5l0.7-5.5l1.2-5.5l1.5-5.5l1.3-5.5l0.9-5.5l0.2-5.5l-0.5-5.5
		l-0.9-5.5l-0.9-5.5l-0.7-5.5l-0.4-5.5l-0.2-5.5l0-5.5l0-5.5l0-5.5l-0.3-5.5l-0.5-5.5l-0.6-5.5l-0.5-5.5l-0.3-5.5l0.1-5.5l0.5-5.5
		l0.8-5.5l0.9-5.5l0.8-5.5l0.5-5.5l0.2-5.5l0-5.5l0.1-5.5l0.3-5.5l0.5-5.5l0.5-5.5l0.5-5.5l0.3-5.5l0.1-5.5l-0.1-5.5l-0.3-5.5
		l-0.3-5.5l-0.6-5.5l-1-5.5l-1.2-5.5l-1.2-5.5l-0.9-5.5l-0.4-5.5l0-5.5l0.4-5.5l0.6-5.5l0.6-5.5l0.6-5.5l0.5-5.5l0.3-5.5l0.2-5.5
		l0-5.5l0-5.5l0-5.5l0.1-5.5l0.3-5.5l0.3-5.5l0.1-5.5l-0.2-5.5l-0.4-5.5l-0.5-5.5l-0.5-5.5l-0.4-5.5l-0.2-5.5l0.1-5.5l0.3-5.5"/>
	<path class="st0" d="M280,575.3l0.9-5.5l0.5-5.5l0.1-5.5l-0.3-5.5l-0.5-5.5l-0.5-5.5l-0.3-5.5l0.1-5.5l0.6-5.5l0.9-5.5l0.8-5.5
		l0.2-5.5l-0.5-5.5l-1-5.5l-1.4-5.5l-1.3-5.5l-0.9-5.5l-0.2-5.5l0.4-5.5l0.9-5.5l1.1-5.5l1.4-5.5l1.4-5.5l1.2-5.5l0.6-5.5l-0.1-5.5
		l-0.7-5.5l-1-5.5l-1.1-5.5l-0.9-5.5l-0.7-5.5l-0.2-5.5l0.4-5.5l0.9-5.5l1.1-5.5l1-5.5l0.6-5.5l0-5.5l-0.6-5.5l-0.9-5.5l-0.8-5.5
		l-0.4-5.5l0-5.5l0.3-5.5l0.4-5.5l0.4-5.5l0.1-5.5l-0.2-5.5l-0.6-5.5l-0.8-5.5l-0.7-5.5l-0.5-5.5l-0.1-5.5l0.4-5.5l0.8-5.5l1-5.5
		l0.9-5.5l0.6-5.5l0.2-5.5l0-5.5l0.1-5.5l0.1-5.5l0.2-5.5l0.2-5.5l0.2-5.5l0.1-5.5l0-5.5l0-5.5l-0.1-5.5l-0.2-5.5l-0.5-5.5l-0.9-5.5
		l-1.1-5.5l-1.1-5.5l-0.8-5.5l-0.3-5.5l0.2-5.5l0.6-5.5l0.8-5.5l0.8-5.5l0.8-5.5l0.7-5.5l0.5-5.5l0.2-5.5l-0.1-5.5l-0.2-5.5
		l-0.3-5.5l-0.1-5.5l0.1-5.5l0.1-5.5l-0.1-5.5l-0.3-5.5l-0.5-5.5l-0.6-5.5l-0.6-5.5l-0.5-5.5l-0.3-5.5l-0.1-5.5l0.1-5.5"/>
	<path class="st0" d="M287.7,575.3l0.9-5.5l0.5-5.5l0.1-5.5l-0.4-5.5l-0.6-5.5l-0.6-5.5l-0.3-5.5l0.1-5.5l0.6-5.5l0.9-5.5l0.8-5.5
		l0.3-5.5l-0.3-5.5l-0.8-5.5l-1-5.5l-1-5.5l-0.6-5.5l-0.1-5.5l0.5-5.5l0.9-5.5l1.1-5.5l1.3-5.5l1.3-5.5l1-5.5l0.4-5.5l-0.3-5.5
		l-0.9-5.5l-1.1-5.5l-1.1-5.5l-1-5.5l-0.8-5.5l-0.3-5.5l0.3-5.5l0.7-5.5l0.9-5.5l0.8-5.5l0.4-5.5l-0.1-5.5l-0.6-5.5l-0.9-5.5
		l-0.7-5.5l-0.3-5.5l0.2-5.5l0.6-5.5l0.7-5.5l0.6-5.5l0.3-5.5l-0.2-5.5l-0.7-5.5l-0.9-5.5l-0.8-5.5l-0.6-5.5l-0.2-5.5l0.2-5.5
		l0.6-5.5l0.9-5.5l0.8-5.5l0.6-5.5l0.2-5.5l0-5.5l0-5.5l0-5.5l0-5.5l0-5.5l0-5.5l0-5.5l0-5.5l0-5.5l0-5.5l0-5.5l-0.3-5.5l-0.7-5.5
		l-0.9-5.5l-0.9-5.5l-0.6-5.5l-0.1-5.5l0.3-5.5l0.7-5.5l0.9-5.5l0.9-5.5l0.9-5.5l0.7-5.5l0.4-5.5l0.1-5.5l-0.3-5.5l-0.5-5.5
		l-0.5-5.5l-0.3-5.5l-0.1-5.5l0-5.5l-0.1-5.5l-0.2-5.5l-0.3-5.5l-0.4-5.5l-0.4-5.5l-0.3-5.5l-0.2-5.5l-0.1-5.5l0-5.5"/>
	<path class="st0" d="M296.1,575.3l0.9-5.5l0.5-5.5l-0.1-5.5l-0.5-5.5l-0.8-5.5l-0.8-5.5l-0.5-5.5l0-5.5l0.5-5.5l0.9-5.5l0.8-5.5
		l0.4-5.5l-0.1-5.5l-0.6-5.5l-0.8-5.5l-0.7-5.5l-0.4-5.5l0-5.5l0.6-5.5l0.9-5.5l1-5.5l1.2-5.5l1.2-5.5l0.8-5.5l0.2-5.5l-0.5-5.5
		l-1-5.5l-1.2-5.5l-1.1-5.5l-1-5.5l-0.8-5.5l-0.3-5.5l0.2-5.5l0.6-5.5l0.8-5.5l0.7-5.5l0.4-5.5l-0.2-5.5l-0.7-5.5l-0.9-5.5l-0.7-5.5
		l-0.3-5.5l0.3-5.5l0.7-5.5l0.8-5.5l0.7-5.5l0.3-5.5l-0.2-5.5l-0.7-5.5l-0.9-5.5l-0.9-5.5l-0.7-5.5l-0.4-5.5l0-5.5l0.4-5.5l0.7-5.5
		l0.7-5.5l0.5-5.5l0.2-5.5l0-5.5v-5.5v-5.5v-5.5v-5.5v-5.5v-5.5v-5.5v-5.5v-5.5l0-5.5l-0.3-5.5l-0.6-5.5l-0.7-5.5l-0.6-5.5l-0.3-5.5
		l0.1-5.5l0.5-5.5l0.8-5.5l0.9-5.5l0.9-5.5l0.9-5.5l0.6-5.5l0.3-5.5l-0.2-5.5l-0.5-5.5l-0.7-5.5l-0.7-5.5l-0.4-5.5l-0.1-5.5l0-5.5
		v-5.5v-5.5v-5.5v-5.5v-5.5v-5.5v-5.5v-5.5v-5.5"/>
	<path class="st0" d="M304.8,575.3l0.8-5.5l0.4-5.5l-0.2-5.5l-0.7-5.5l-1-5.5l-1-5.5l-0.7-5.5l-0.2-5.5l0.4-5.5l0.8-5.5l0.8-5.5
		l0.5-5.5l0.1-5.5l-0.3-5.5l-0.5-5.5l-0.4-5.5l-0.2-5.5l0.2-5.5l0.6-5.5l0.9-5.5l1-5.5l1.1-5.5l1-5.5l0.6-5.5l-0.1-5.5l-0.7-5.5
		l-1.2-5.5l-1.3-5.5l-1.2-5.5l-0.9-5.5l-0.8-5.5l-0.3-5.5l0.2-5.5l0.6-5.5l0.8-5.5l0.7-5.5l0.3-5.5l-0.2-5.5l-0.7-5.5l-0.9-5.5
		l-0.7-5.5l-0.2-5.5l0.3-5.5l0.7-5.5l0.8-5.5l0.7-5.5l0.3-5.5l-0.2-5.5l-0.7-5.5l-0.9-5.5l-0.9-5.5l-0.8-5.5l-0.6-5.5l-0.2-5.5
		l0.1-5.5l0.4-5.5l0.5-5.5l0.4-5.5l0.1-5.5l0-5.5l0-5.5l0-5.5l0-5.5l0.1-5.5l0.1-5.5l0.1-5.5l0-5.5l0-5.5l0-5.5l0-5.5l-0.2-5.5
		l-0.5-5.5l-0.5-5.5l-0.4-5.5l-0.1-5.5l0.3-5.5l0.6-5.5l0.8-5.5l0.9-5.5l0.9-5.5l0.8-5.5l0.5-5.5l0.1-5.5l-0.4-5.5l-0.7-5.5
		l-0.9-5.5l-0.8-5.5l-0.5-5.5l-0.1-5.5l0-5.5l0.1-5.5l0.2-5.5l0.4-5.5l0.4-5.5l0.5-5.5l0.4-5.5l0.3-5.5l0.1-5.5l0-5.5"/>
	<path class="st0" d="M313.8,575.3l0.7-5.5l0.3-5.5l-0.4-5.5l-1-5.5l-1.3-5.5l-1.4-5.5l-1-5.5l-0.5-5.5l0.2-5.5l0.6-5.5l0.7-5.5
		l0.5-5.5l0.3-5.5l0.1-5.5l0.1-5.5l0.1-5.5l0.3-5.5l0.5-5.5l0.7-5.5l0.8-5.5l0.9-5.5l0.9-5.5l0.8-5.5l0.3-5.5l-0.3-5.5l-0.8-5.5
		l-1.2-5.5l-1.3-5.5l-1.1-5.5l-0.8-5.5l-0.7-5.5l-0.3-5.5l0.2-5.5l0.5-5.5l0.6-5.5l0.5-5.5l0.1-5.5l-0.3-5.5l-0.7-5.5l-0.9-5.5
		l-0.7-5.5l-0.2-5.5l0.4-5.5l0.8-5.5l1-5.5l0.8-5.5l0.4-5.5l-0.1-5.5l-0.7-5.5l-0.9-5.5l-1-5.5l-1-5.5l-0.9-5.5l-0.7-5.5l-0.3-5.5
		l0-5.5l0.2-5.5l0.2-5.5l0.1-5.5l0-5.5l0.1-5.5l0.1-5.5l0.2-5.5l0.3-5.5l0.3-5.5l0.3-5.5l0.2-5.5l0.1-5.5l0-5.5l0-5.5l-0.2-5.5
		l-0.3-5.5l-0.3-5.5l-0.2-5.5l0-5.5l0.3-5.5l0.5-5.5l0.7-5.5l0.7-5.5l0.7-5.5l0.6-5.5l0.3-5.5l0-5.5l-0.4-5.5l-0.8-5.5l-0.9-5.5
		l-0.8-5.5l-0.5-5.5l-0.2-5.5l-0.1-5.5l0-5.5l0.3-5.5l0.5-5.5l0.8-5.5l0.8-5.5l0.8-5.5l0.6-5.5l0.4-5.5l0.2-5.5"/>
	<path class="st0" d="M322.5,575.3l0.5-5.5l0.1-5.5l-0.5-5.5l-1.1-5.5l-1.5-5.5l-1.6-5.5l-1.3-5.5l-0.8-5.5l-0.2-5.5l0.2-5.5
		l0.3-5.5l0.4-5.5l0.4-5.5l0.6-5.5l0.7-5.5l0.8-5.5l0.8-5.5l0.8-5.5l0.7-5.5l0.6-5.5l0.7-5.5l0.7-5.5l0.5-5.5l0.1-5.5l-0.4-5.5
		l-0.8-5.5l-1.1-5.5l-1.1-5.5l-0.9-5.5l-0.7-5.5l-0.5-5.5l-0.2-5.5l0.1-5.5l0.3-5.5l0.4-5.5l0.2-5.5l-0.1-5.5l-0.5-5.5l-0.8-5.5
		l-0.9-5.5l-0.7-5.5l-0.1-5.5l0.5-5.5l1-5.5l1.1-5.5l1-5.5l0.6-5.5l-0.1-5.5l-0.6-5.5l-0.9-5.5l-1.1-5.5l-1.2-5.5l-1.2-5.5l-1-5.5
		l-0.7-5.5l-0.4-5.5l-0.1-5.5l0-5.5l0-5.5l0-5.5l0.1-5.5l0.3-5.5l0.5-5.5l0.6-5.5l0.7-5.5l0.6-5.5l0.4-5.5l0.2-5.5l0.1-5.5l0-5.5
		l-0.1-5.5l-0.1-5.5l-0.1-5.5l-0.1-5.5l0-5.5l0.2-5.5l0.3-5.5l0.3-5.5l0.3-5.5l0.3-5.5l0.3-5.5l0.2-5.5l0-5.5l-0.3-5.5l-0.6-5.5
		l-0.7-5.5l-0.7-5.5l-0.5-5.5l-0.4-5.5l-0.3-5.5l-0.2-5.5l0.1-5.5l0.5-5.5l0.8-5.5l1-5.5l1.1-5.5l0.9-5.5l0.6-5.5l0.4-5.5"/>
	<path class="st0" d="M330.1,575.3l0.3-5.5l0.1-5.5l-0.4-5.5l-0.9-5.5l-1.3-5.5l-1.5-5.5l-1.4-5.5l-1.1-5.5l-0.6-5.5l-0.2-5.5
		l-0.1-5.5l0.1-5.5l0.4-5.5l0.8-5.5l1.1-5.5l1.3-5.5l1.3-5.5l1-5.5l0.7-5.5l0.4-5.5l0.4-5.5l0.4-5.5l0.2-5.5l0-5.5l-0.3-5.5
		l-0.6-5.5l-0.7-5.5l-0.7-5.5l-0.6-5.5l-0.4-5.5l-0.3-5.5l0-5.5l0.2-5.5l0.2-5.5l0.1-5.5l-0.1-5.5l-0.4-5.5l-0.7-5.5l-0.9-5.5
		l-0.9-5.5l-0.7-5.5l-0.1-5.5l0.6-5.5l1.1-5.5l1.3-5.5l1.1-5.5l0.6-5.5l0-5.5l-0.6-5.5l-0.9-5.5l-1.1-5.5l-1.3-5.5l-1.3-5.5
		l-1.2-5.5l-0.9-5.5l-0.5-5.5l-0.2-5.5l0-5.5l0-5.5l0-5.5l0.1-5.5l0.4-5.5l0.7-5.5l0.9-5.5l0.9-5.5l0.8-5.5l0.6-5.5l0.3-5.5l0.1-5.5
		l0-5.5l0-5.5l0.1-5.5l0.1-5.5l0-5.5l0-5.5l-0.1-5.5l-0.1-5.5l-0.1-5.5l-0.1-5.5l-0.1-5.5l0-5.5l0-5.5l0.1-5.5l0-5.5l-0.2-5.5
		l-0.3-5.5l-0.5-5.5l-0.5-5.5l-0.5-5.5l-0.5-5.5l-0.5-5.5l-0.3-5.5l0.1-5.5l0.6-5.5l1-5.5l1.2-5.5l1.2-5.5l0.9-5.5l0.6-5.5"/>
	<path class="st0" d="M336.5,575.3l0.2-5.5l0.1-5.5l-0.2-5.5l-0.5-5.5l-0.8-5.5l-1.1-5.5l-1.2-5.5l-1.1-5.5l-0.9-5.5l-0.6-5.5
		l-0.5-5.5l-0.2-5.5l0.2-5.5l0.7-5.5l1.2-5.5l1.4-5.5l1.4-5.5l1.1-5.5l0.6-5.5l0.2-5.5l0.2-5.5l0.2-5.5l0.1-5.5l0-5.5l-0.2-5.5
		l-0.3-5.5l-0.4-5.5l-0.4-5.5l-0.3-5.5l-0.2-5.5l-0.1-5.5l0.1-5.5l0.3-5.5l0.3-5.5l0.1-5.5l-0.2-5.5l-0.6-5.5l-0.8-5.5l-0.9-5.5
		l-0.9-5.5l-0.7-5.5l-0.1-5.5l0.6-5.5l1.1-5.5l1.3-5.5l1.1-5.5l0.6-5.5l0-5.5l-0.6-5.5l-0.9-5.5l-1.1-5.5l-1.2-5.5l-1.2-5.5l-1-5.5
		l-0.7-5.5l-0.4-5.5l-0.1-5.5l0-5.5l0-5.5l0-5.5l0.1-5.5l0.4-5.5l0.7-5.5l0.9-5.5l0.9-5.5l0.8-5.5l0.6-5.5l0.3-5.5l0.1-5.5l0-5.5
		l0.1-5.5l0.2-5.5l0.3-5.5l0.2-5.5l0-5.5l-0.3-5.5l-0.4-5.5l-0.6-5.5l-0.6-5.5l-0.5-5.5l-0.3-5.5l0-5.5l0.2-5.5l0.3-5.5l0.3-5.5
		l0.1-5.5l-0.2-5.5l-0.5-5.5l-0.7-5.5l-0.8-5.5l-0.8-5.5l-0.7-5.5l-0.4-5.5l0.1-5.5l0.7-5.5l1.1-5.5l1.2-5.5l1.1-5.5l0.8-5.5"/>
	<path class="st0" d="M342.3,575.3l0.1-5.5l0.2-5.5l0.2-5.5l0.1-5.5l-0.2-5.5l-0.5-5.5l-0.8-5.5l-1-5.5l-0.9-5.5l-0.9-5.5l-0.8-5.5
		l-0.5-5.5l-0.1-5.5l0.4-5.5l0.9-5.5l1.2-5.5l1.2-5.5l0.9-5.5l0.5-5.5l0.1-5.5l0-5.5l0-5.5l0-5.5l0-5.5l-0.1-5.5l-0.1-5.5l-0.1-5.5
		l-0.1-5.5l-0.1-5.5l0-5.5l0.1-5.5l0.3-5.5l0.5-5.5l0.4-5.5l0.2-5.5l-0.2-5.5l-0.6-5.5l-0.8-5.5l-0.9-5.5l-0.9-5.5l-0.7-5.5
		l-0.1-5.5l0.5-5.5l0.9-5.5l1.1-5.5l1-5.5l0.5-5.5l-0.1-5.5l-0.6-5.5l-0.9-5.5l-1-5.5l-1-5.5l-0.9-5.5l-0.6-5.5l-0.3-5.5l0-5.5
		l0.2-5.5l0.2-5.5l0.1-5.5l0-5.5l0.1-5.5l0.3-5.5l0.5-5.5l0.6-5.5l0.6-5.5l0.6-5.5l0.4-5.5l0.2-5.5l0.1-5.5l0-5.5l0.2-5.5l0.4-5.5
		l0.5-5.5l0.3-5.5l0-5.5l-0.3-5.5l-0.6-5.5l-0.8-5.5l-0.8-5.5l-0.8-5.5l-0.5-5.5l0-5.5l0.4-5.5l0.6-5.5l0.7-5.5l0.4-5.5l0-5.5
		l-0.4-5.5l-0.8-5.5l-0.9-5.5l-1.1-5.5l-1.1-5.5l-0.8-5.5l-0.2-5.5l0.4-5.5l1-5.5l1.2-5.5l1.2-5.5l1-5.5"/>
	<path class="st0" d="M348.1,575.3l0.1-5.5l0.3-5.5l0.5-5.5l0.5-5.5l0.4-5.5l0-5.5l-0.4-5.5l-0.7-5.5l-0.9-5.5l-0.9-5.5l-0.9-5.5
		l-0.8-5.5l-0.4-5.5l0-5.5l0.5-5.5l0.8-5.5l0.9-5.5l0.7-5.5l0.3-5.5l0-5.5l0-5.5l0-5.5l0-5.5l0-5.5l0-5.5l0-5.5l0-5.5l0-5.5l0-5.5
		l0-5.5l0.1-5.5l0.4-5.5l0.6-5.5l0.6-5.5l0.4-5.5l0-5.5l-0.4-5.5l-0.7-5.5l-0.9-5.5l-0.9-5.5l-0.7-5.5l-0.2-5.5l0.3-5.5l0.7-5.5
		l0.9-5.5l0.8-5.5l0.4-5.5l-0.2-5.5l-0.7-5.5l-0.9-5.5l-0.9-5.5l-0.8-5.5l-0.5-5.5l-0.2-5.5l0.2-5.5l0.5-5.5l0.6-5.5l0.4-5.5
		l0.2-5.5l0-5.5l0-5.5l0.1-5.5l0.1-5.5l0.2-5.5l0.2-5.5l0.2-5.5l0.1-5.5l0.1-5.5l0-5.5l0-5.5l0.2-5.5l0.5-5.5l0.6-5.5l0.5-5.5
		l0.2-5.5l-0.2-5.5l-0.6-5.5l-0.8-5.5l-0.9-5.5l-0.9-5.5l-0.6-5.5l0-5.5l0.4-5.5l0.7-5.5l0.8-5.5l0.6-5.5l0.1-5.5l-0.4-5.5l-0.8-5.5
		l-1-5.5l-1.2-5.5l-1.2-5.5l-0.9-5.5l-0.4-5.5l0.3-5.5l0.9-5.5l1.2-5.5l1.2-5.5l1-5.5"/>
	<path class="st0" d="M354.2,575.3l0.1-5.5l0.4-5.5l0.8-5.5l0.9-5.5l0.8-5.5l0.5-5.5l0-5.5l-0.5-5.5l-0.8-5.5l-0.9-5.5l-0.9-5.5
		l-0.9-5.5l-0.7-5.5l-0.4-5.5l0-5.5l0.3-5.5l0.5-5.5l0.4-5.5l0.2-5.5l0-5.5l0-5.5l0-5.5l0-5.5l0-5.5l0-5.5l0-5.5l0-5.5l0-5.5l0-5.5
		l0-5.5l0.2-5.5l0.5-5.5l0.8-5.5l0.8-5.5l0.6-5.5l0.2-5.5l-0.3-5.5l-0.6-5.5l-0.9-5.5l-0.9-5.5l-0.7-5.5l-0.3-5.5l0.2-5.5l0.5-5.5
		l0.7-5.5l0.5-5.5l0.2-5.5l-0.3-5.5l-0.7-5.5l-0.9-5.5l-0.8-5.5l-0.6-5.5l-0.2-5.5l0.3-5.5l0.7-5.5l0.9-5.5l0.9-5.5l0.6-5.5l0.2-5.5
		l0-5.5l0-5.5l-0.1-5.5l-0.2-5.5l-0.3-5.5l-0.3-5.5l-0.3-5.5l-0.2-5.5l-0.1-5.5l0-5.5l0-5.5l0.3-5.5l0.6-5.5l0.8-5.5l0.8-5.5
		l0.5-5.5l0-5.5l-0.4-5.5l-0.7-5.5l-0.9-5.5l-0.9-5.5l-0.6-5.5l-0.1-5.5l0.4-5.5l0.7-5.5l0.8-5.5l0.5-5.5l0.1-5.5l-0.4-5.5l-0.8-5.5
		l-1-5.5l-1.2-5.5l-1.2-5.5l-0.9-5.5l-0.4-5.5l0.3-5.5l0.9-5.5l1.2-5.5l1.2-5.5l1-5.5"/>
	<path class="st0" d="M361,575.3l0.1-5.5l0.5-5.5l0.9-5.5l1.1-5.5l1.1-5.5l0.8-5.5l0.3-5.5l-0.2-5.5l-0.6-5.5l-0.8-5.5l-0.8-5.5
		l-1-5.5l-1-5.5l-0.9-5.5l-0.6-5.5l-0.3-5.5l0-5.5l0.1-5.5l0.1-5.5l0.1-5.5l0.1-5.5l0.2-5.5l0.2-5.5l0.2-5.5l0.2-5.5l0.1-5.5
		l0.1-5.5l0-5.5l0-5.5l-0.1-5.5l0.1-5.5l0.5-5.5l0.8-5.5l0.9-5.5l0.7-5.5l0.4-5.5l-0.1-5.5l-0.5-5.5l-0.8-5.5l-0.9-5.5l-0.8-5.5
		l-0.5-5.5l-0.1-5.5l0.2-5.5l0.3-5.5l0.3-5.5l0-5.5l-0.3-5.5l-0.6-5.5l-0.8-5.5l-0.6-5.5l-0.2-5.5l0.3-5.5l0.8-5.5l1.3-5.5l1.4-5.5
		l1.2-5.5l0.8-5.5l0.3-5.5l0-5.5l-0.1-5.5l-0.3-5.5l-0.5-5.5l-0.7-5.5l-0.8-5.5l-0.7-5.5l-0.6-5.5l-0.3-5.5l-0.1-5.5l0-5.5l0.3-5.5
		l0.7-5.5l1-5.5l1-5.5l0.8-5.5l0.3-5.5l-0.1-5.5l-0.6-5.5l-0.8-5.5l-0.8-5.5l-0.6-5.5l-0.1-5.5l0.3-5.5l0.5-5.5l0.5-5.5l0.4-5.5
		l0-5.5l-0.4-5.5l-0.8-5.5l-0.9-5.5l-1.1-5.5l-1.1-5.5l-0.9-5.5l-0.3-5.5l0.4-5.5l0.9-5.5l1.2-5.5l1.2-5.5l1-5.5"/>
	<path class="st0" d="M368.6,575.3l0.1-5.5l0.4-5.5l0.7-5.5l0.9-5.5l0.9-5.5l0.7-5.5l0.4-5.5l0-5.5l-0.3-5.5l-0.5-5.5l-0.6-5.5
		l-0.9-5.5l-1.2-5.5l-1.3-5.5l-1.2-5.5l-0.9-5.5l-0.5-5.5l-0.1-5.5l0.1-5.5l0.2-5.5l0.3-5.5l0.5-5.5l0.6-5.5l0.7-5.5l0.6-5.5
		l0.4-5.5l0.2-5.5l0-5.5l-0.2-5.5l-0.2-5.5l-0.1-5.5l0.3-5.5l0.7-5.5l0.8-5.5l0.7-5.5l0.4-5.5l0-5.5l-0.5-5.5l-0.8-5.5l-0.9-5.5
		l-0.9-5.5l-0.8-5.5l-0.6-5.5l-0.3-5.5l-0.1-5.5l0-5.5l0-5.5l-0.2-5.5l-0.4-5.5l-0.5-5.5l-0.3-5.5l0.2-5.5l0.8-5.5l1.4-5.5l1.7-5.5
		l1.7-5.5l1.4-5.5l0.8-5.5l0.3-5.5l0-5.5l-0.1-5.5l-0.4-5.5l-0.7-5.5l-1-5.5l-1.1-5.5l-1.1-5.5l-0.9-5.5l-0.6-5.5l-0.3-5.5l-0.2-5.5
		l0.1-5.5l0.6-5.5l1-5.5l1.2-5.5l1.1-5.5l0.7-5.5l0.2-5.5l-0.3-5.5l-0.6-5.5l-0.7-5.5l-0.5-5.5l-0.3-5.5l-0.1-5.5l0.1-5.5l0.1-5.5
		l0-5.5l-0.2-5.5l-0.5-5.5l-0.7-5.5l-0.8-5.5l-0.9-5.5l-0.9-5.5l-0.7-5.5l-0.2-5.5l0.4-5.5l1-5.5l1.2-5.5l1.2-5.5l1-5.5"/>
	<path class="st0" d="M376.9,575.3l0-5.5l0.1-5.5l0.3-5.5l0.4-5.5l0.5-5.5l0.5-5.5l0.4-5.5l0.2-5.5l0.1-5.5l0-5.5l-0.2-5.5l-0.6-5.5
		l-1.1-5.5l-1.5-5.5l-1.5-5.5l-1.3-5.5l-0.9-5.5l-0.3-5.5l0.1-5.5l0.4-5.5l0.6-5.5l0.9-5.5l1.1-5.5l1.1-5.5l0.9-5.5l0.6-5.5l0.2-5.5
		l-0.2-5.5l-0.4-5.5l-0.4-5.5l-0.3-5.5l0.1-5.5l0.5-5.5l0.7-5.5l0.6-5.5l0.4-5.5l0-5.5l-0.4-5.5l-0.8-5.5l-0.9-5.5l-1-5.5l-1.1-5.5
		l-1-5.5l-0.8-5.5l-0.5-5.5l-0.1-5.5l0.1-5.5l0.1-5.5l0-5.5l0-5.5l0.2-5.5l0.7-5.5l1.2-5.5l1.6-5.5l1.8-5.5l1.6-5.5l1.2-5.5l0.7-5.5
		l0.2-5.5l0-5.5l-0.1-5.5l-0.3-5.5l-0.6-5.5l-0.9-5.5l-1.1-5.5l-1.2-5.5l-1.1-5.5l-0.8-5.5l-0.6-5.5l-0.4-5.5l-0.1-5.5l0.4-5.5
		l0.9-5.5l1.2-5.5l1.3-5.5l1-5.5l0.6-5.5l0.1-5.5l-0.4-5.5l-0.5-5.5l-0.5-5.5l-0.5-5.5l-0.4-5.5l-0.4-5.5l-0.4-5.5l-0.4-5.5
		l-0.5-5.5l-0.5-5.5l-0.5-5.5l-0.5-5.5l-0.7-5.5l-0.7-5.5l-0.5-5.5l-0.1-5.5l0.5-5.5l0.9-5.5l1.2-5.5l1.1-5.5l1-5.5"/>
	<path class="st0" d="M385.3,575.3l0-5.5l-0.1-5.5l-0.2-5.5l-0.2-5.5l-0.1-5.5l0-5.5l0.2-5.5l0.3-5.5l0.4-5.5l0.4-5.5l0.3-5.5
		l-0.3-5.5l-0.9-5.5l-1.4-5.5l-1.6-5.5l-1.4-5.5l-1-5.5l-0.4-5.5l0.3-5.5l0.6-5.5l0.8-5.5l1.2-5.5l1.4-5.5l1.4-5.5l1.1-5.5l0.5-5.5
		l0-5.5l-0.4-5.5l-0.6-5.5l-0.7-5.5l-0.5-5.5l-0.2-5.5l0.2-5.5l0.5-5.5l0.5-5.5l0.4-5.5l0-5.5l-0.4-5.5l-0.7-5.5l-0.9-5.5l-1.1-5.5
		l-1.3-5.5l-1.3-5.5l-1-5.5l-0.6-5.5l-0.1-5.5l0.3-5.5l0.5-5.5l0.5-5.5l0.4-5.5l0.6-5.5l1-5.5l1.3-5.5l1.4-5.5l1.4-5.5l1.1-5.5
		l0.8-5.5l0.4-5.5l0.1-5.5l0-5.5l0-5.5l-0.1-5.5l-0.3-5.5l-0.6-5.5l-0.8-5.5l-1-5.5l-1.1-5.5l-0.9-5.5l-0.8-5.5l-0.7-5.5l-0.4-5.5
		l0.1-5.5l0.6-5.5l1-5.5l1.2-5.5l1.2-5.5l0.8-5.5l0.3-5.5l-0.1-5.5l-0.3-5.5l-0.4-5.5l-0.5-5.5l-0.6-5.5l-0.7-5.5l-0.7-5.5l-0.7-5.5
		l-0.5-5.5l-0.4-5.5l-0.3-5.5l-0.3-5.5l-0.5-5.5l-0.5-5.5l-0.4-5.5l-0.1-5.5l0.4-5.5l0.8-5.5l1-5.5l1.1-5.5l1-5.5"/>
	<path class="st0" d="M393.1,575.3l-0.1-5.5l-0.3-5.5l-0.6-5.5l-0.7-5.5l-0.6-5.5l-0.3-5.5l0.1-5.5l0.4-5.5l0.7-5.5l0.7-5.5l0.6-5.5
		l0.1-5.5l-0.5-5.5l-1.1-5.5l-1.3-5.5l-1.2-5.5l-0.8-5.5l-0.2-5.5l0.4-5.5l0.8-5.5l1-5.5l1.4-5.5l1.5-5.5l1.4-5.5l0.9-5.5l0.3-5.5
		l-0.3-5.5l-0.8-5.5l-0.9-5.5l-0.9-5.5l-0.7-5.5l-0.3-5.5l0.1-5.5l0.4-5.5l0.5-5.5l0.4-5.5l0.1-5.5l-0.3-5.5l-0.7-5.5l-0.9-5.5
		l-1.1-5.5l-1.3-5.5l-1.3-5.5l-1-5.5l-0.5-5.5l0.2-5.5l0.7-5.5l0.9-5.5l0.9-5.5l0.8-5.5l0.9-5.5l1-5.5l1-5.5l0.9-5.5l0.7-5.5
		l0.4-5.5l0.1-5.5l0-5.5l0-5.5l0-5.5l0.1-5.5l0.2-5.5l0.2-5.5l0-5.5l-0.3-5.5l-0.6-5.5l-0.8-5.5l-0.9-5.5l-0.9-5.5l-0.8-5.5
		l-0.7-5.5l-0.3-5.5l0.2-5.5l0.6-5.5l1-5.5l1.1-5.5l0.9-5.5l0.5-5.5l0.1-5.5l-0.1-5.5l-0.2-5.5l-0.4-5.5l-0.6-5.5l-0.7-5.5l-0.7-5.5
		l-0.6-5.5l-0.4-5.5l-0.3-5.5l-0.1-5.5l-0.1-5.5l-0.3-5.5l-0.5-5.5l-0.4-5.5l-0.2-5.5l0.2-5.5l0.6-5.5l0.9-5.5l1-5.5l1-5.5"/>
	<path class="st0" d="M400,575.3l-0.1-5.5l-0.4-5.5l-0.7-5.5l-0.8-5.5l-0.7-5.5l-0.3-5.5l0.1-5.5l0.5-5.5l0.8-5.5l0.9-5.5l0.8-5.5
		l0.3-5.5l-0.2-5.5l-0.7-5.5l-1-5.5l-0.9-5.5l-0.6-5.5l-0.1-5.5l0.5-5.5l0.9-5.5l1.1-5.5l1.3-5.5l1.4-5.5l1.1-5.5l0.5-5.5l-0.1-5.5
		l-0.7-5.5l-1-5.5l-1.1-5.5l-0.9-5.5l-0.8-5.5l-0.4-5.5l0.1-5.5l0.5-5.5l0.6-5.5l0.5-5.5l0.2-5.5l-0.2-5.5l-0.7-5.5l-0.9-5.5
		l-1.1-5.5l-1.3-5.5l-1.3-5.5l-0.9-5.5l-0.2-5.5l0.4-5.5l0.9-5.5l1.1-5.5l1.1-5.5l0.9-5.5l0.9-5.5l0.9-5.5l0.7-5.5l0.4-5.5l0-5.5
		l-0.3-5.5l-0.4-5.5l-0.3-5.5l-0.1-5.5l0-5.5l0.2-5.5l0.4-5.5l0.5-5.5l0.4-5.5l0.1-5.5l-0.3-5.5l-0.6-5.5l-0.8-5.5l-0.9-5.5
		l-0.9-5.5l-0.8-5.5l-0.6-5.5l-0.1-5.5l0.3-5.5l0.7-5.5l0.9-5.5l0.8-5.5l0.5-5.5l0.1-5.5l0-5.5l-0.1-5.5l-0.2-5.5l-0.3-5.5l-0.4-5.5
		l-0.4-5.5l-0.3-5.5l-0.2-5.5l-0.1-5.5l0-5.5l-0.1-5.5l-0.3-5.5l-0.5-5.5l-0.6-5.5l-0.4-5.5l0-5.5l0.4-5.5l0.7-5.5l0.9-5.5l0.9-5.5"
		/>
	<path class="st0" d="M406.2,575.3l-0.1-5.5l-0.4-5.5l-0.6-5.5l-0.7-5.5l-0.5-5.5l-0.1-5.5l0.3-5.5l0.6-5.5l0.9-5.5l0.9-5.5l0.8-5.5
		l0.4-5.5l-0.1-5.5l-0.5-5.5l-0.7-5.5l-0.7-5.5l-0.4-5.5l0.1-5.5l0.6-5.5l0.9-5.5l1-5.5l1.2-5.5l1.1-5.5l0.7-5.5l0.1-5.5l-0.6-5.5
		l-1.1-5.5l-1.3-5.5l-1.2-5.5l-1-5.5l-0.8-5.5l-0.3-5.5l0.2-5.5l0.7-5.5l0.8-5.5l0.7-5.5l0.4-5.5l-0.1-5.5l-0.6-5.5l-0.9-5.5
		l-1.1-5.5l-1.2-5.5l-1.1-5.5l-0.6-5.5l0-5.5l0.7-5.5l1.1-5.5l1.3-5.5l1.1-5.5l0.9-5.5l0.9-5.5l0.7-5.5l0.3-5.5l-0.1-5.5l-0.5-5.5
		l-0.8-5.5l-0.8-5.5l-0.5-5.5l-0.2-5.5l0-5.5l0.2-5.5l0.6-5.5l0.7-5.5l0.7-5.5l0.4-5.5l0-5.5l-0.4-5.5l-0.8-5.5l-0.9-5.5l-0.9-5.5
		l-0.9-5.5l-0.7-5.5l-0.4-5.5l0.1-5.5l0.4-5.5l0.7-5.5l0.6-5.5l0.4-5.5l0.1-5.5l0-5.5l0-5.5l0-5.5l0.1-5.5l0.1-5.5l0.1-5.5l0.1-5.5
		l0.1-5.5l0-5.5l0-5.5l-0.1-5.5l-0.3-5.5l-0.6-5.5l-0.8-5.5l-0.6-5.5l-0.3-5.5l0.2-5.5l0.5-5.5l0.8-5.5l0.9-5.5"/>
	<path class="st0" d="M412.1,575.3l0-5.5l-0.2-5.5l-0.4-5.5l-0.4-5.5l-0.2-5.5l0.1-5.5l0.5-5.5l0.8-5.5l0.9-5.5l0.9-5.5l0.8-5.5
		l0.5-5.5l0.1-5.5l-0.3-5.5l-0.5-5.5l-0.5-5.5l-0.3-5.5l0.1-5.5l0.6-5.5l0.8-5.5l0.9-5.5l1-5.5l0.8-5.5l0.3-5.5l-0.3-5.5l-0.9-5.5
		l-1.4-5.5l-1.4-5.5l-1.2-5.5l-0.9-5.5l-0.7-5.5l-0.2-5.5l0.4-5.5l0.8-5.5l1-5.5l0.9-5.5l0.5-5.5l-0.1-5.5l-0.6-5.5l-0.9-5.5l-1-5.5
		l-1.1-5.5l-1-5.5l-0.5-5.5l0.2-5.5l0.8-5.5l1.2-5.5l1.3-5.5l1.1-5.5l0.9-5.5l0.8-5.5l0.5-5.5l0-5.5l-0.5-5.5l-0.9-5.5l-1.1-5.5
		l-1.1-5.5l-0.7-5.5l-0.3-5.5l0-5.5l0.3-5.5l0.7-5.5l0.9-5.5l1-5.5l0.7-5.5l0.3-5.5l-0.2-5.5l-0.6-5.5l-0.8-5.5l-0.9-5.5l-0.9-5.5
		l-0.8-5.5l-0.5-5.5l-0.2-5.5l0.2-5.5l0.4-5.5l0.4-5.5l0.3-5.5l0.1-5.5l0-5.5l0.1-5.5l0.3-5.5l0.5-5.5l0.6-5.5l0.6-5.5l0.5-5.5
		l0.4-5.5l0.2-5.5l0-5.5l-0.1-5.5l-0.4-5.5l-0.8-5.5l-1-5.5l-0.9-5.5l-0.5-5.5l-0.1-5.5l0.4-5.5l0.8-5.5l0.9-5.5"/>
	<path class="st0" d="M417.8,575.3l0.1-5.5l0-5.5l-0.1-5.5l0-5.5l0.2-5.5l0.5-5.5l0.8-5.5l1-5.5l1-5.5l0.9-5.5l0.9-5.5l0.6-5.5
		l0.2-5.5l-0.1-5.5l-0.4-5.5l-0.5-5.5l-0.3-5.5l0-5.5l0.3-5.5l0.6-5.5l0.7-5.5l0.7-5.5l0.5-5.5l0.1-5.5l-0.5-5.5l-1-5.5l-1.3-5.5
		l-1.3-5.5l-1-5.5l-0.8-5.5l-0.6-5.5l-0.1-5.5l0.4-5.5l0.8-5.5l1-5.5l0.8-5.5l0.4-5.5l-0.1-5.5l-0.6-5.5l-0.9-5.5l-1-5.5l-1.1-5.5
		l-0.9-5.5l-0.4-5.5l0.3-5.5l0.9-5.5l1.2-5.5l1.2-5.5l1-5.5l0.8-5.5l0.7-5.5l0.3-5.5l-0.2-5.5l-0.7-5.5l-1.2-5.5l-1.4-5.5l-1.3-5.5
		l-0.9-5.5l-0.4-5.5l-0.1-5.5l0.2-5.5l0.7-5.5l1.2-5.5l1.3-5.5l1.2-5.5l0.8-5.5l0.3-5.5l-0.3-5.5l-0.7-5.5l-0.8-5.5l-0.8-5.5
		l-0.8-5.5l-0.6-5.5l-0.4-5.5l-0.2-5.5l0-5.5l0.1-5.5l0-5.5l-0.1-5.5l-0.1-5.5l0.1-5.5l0.5-5.5l0.9-5.5l1.1-5.5l1.2-5.5l1-5.5
		l0.7-5.5l0.3-5.5l-0.1-5.5l-0.2-5.5l-0.6-5.5l-1.1-5.5l-1.3-5.5l-1.2-5.5l-0.8-5.5l-0.2-5.5l0.3-5.5l0.7-5.5l0.9-5.5"/>
	<path class="st0" d="M424.1,575.3l0.3-5.5l0.3-5.5l0.3-5.5l0.4-5.5l0.6-5.5l0.8-5.5l0.9-5.5l1-5.5l1-5.5l0.9-5.5l0.9-5.5l0.7-5.5
		l0.4-5.5l0.1-5.5l-0.3-5.5l-0.5-5.5l-0.6-5.5l-0.4-5.5l-0.1-5.5l0.2-5.5l0.3-5.5l0.3-5.5l0.2-5.5l0-5.5l-0.3-5.5l-0.6-5.5l-0.8-5.5
		l-0.8-5.5l-0.7-5.5l-0.6-5.5l-0.4-5.5l0-5.5l0.5-5.5l0.7-5.5l0.8-5.5l0.6-5.5l0.2-5.5l-0.3-5.5l-0.7-5.5l-0.9-5.5l-1-5.5l-1-5.5
		l-0.8-5.5l-0.3-5.5l0.2-5.5l0.7-5.5l1-5.5l1-5.5l0.8-5.5l0.6-5.5l0.5-5.5l0.3-5.5l-0.2-5.5l-0.6-5.5l-1.1-5.5l-1.3-5.5l-1.2-5.5
		l-1-5.5l-0.6-5.5l-0.3-5.5l0-5.5l0.6-5.5l1.2-5.5l1.6-5.5l1.6-5.5l1.3-5.5l0.8-5.5l0.1-5.5l-0.4-5.5l-0.6-5.5l-0.6-5.5l-0.6-5.5
		l-0.6-5.5l-0.5-5.5l-0.4-5.5l-0.3-5.5l-0.3-5.5l-0.3-5.5l-0.3-5.5l-0.3-5.5l0.1-5.5l0.7-5.5l1.2-5.5l1.5-5.5l1.6-5.5l1.3-5.5
		l0.8-5.5l0.2-5.5l-0.2-5.5l-0.4-5.5l-0.9-5.5l-1.3-5.5l-1.5-5.5l-1.3-5.5l-0.9-5.5l-0.2-5.5l0.3-5.5l0.7-5.5l0.9-5.5"/>
	<path class="st0" d="M431.4,575.3l0.6-5.5l0.5-5.5l0.5-5.5l0.5-5.5l0.6-5.5l0.7-5.5l0.9-5.5l0.9-5.5l1-5.5l0.9-5.5l0.9-5.5l0.9-5.5
		l0.6-5.5l0.2-5.5l-0.2-5.5l-0.7-5.5l-0.9-5.5l-0.8-5.5l-0.5-5.5l-0.3-5.5l-0.2-5.5l-0.1-5.5l0-5.5l0-5.5l0-5.5l-0.1-5.5l-0.1-5.5
		l-0.2-5.5l-0.3-5.5l-0.3-5.5l-0.2-5.5l0.1-5.5l0.4-5.5l0.6-5.5l0.5-5.5l0.2-5.5l-0.2-5.5l-0.5-5.5l-0.8-5.5l-0.9-5.5l-1-5.5l-1-5.5
		l-0.8-5.5l-0.4-5.5l0.1-5.5l0.6-5.5l0.8-5.5l0.7-5.5l0.5-5.5l0.4-5.5l0.4-5.5l0.3-5.5l0.1-5.5l-0.3-5.5l-0.7-5.5l-0.9-5.5l-1-5.5
		l-0.9-5.5l-0.7-5.5l-0.6-5.5l-0.3-5.5l0.4-5.5l1-5.5l1.5-5.5l1.7-5.5l1.6-5.5l1.1-5.5l0.5-5.5l-0.1-5.5l-0.3-5.5l-0.3-5.5l-0.3-5.5
		l-0.3-5.5l-0.4-5.5l-0.5-5.5l-0.5-5.5l-0.6-5.5l-0.6-5.5l-0.6-5.5l-0.5-5.5l-0.1-5.5l0.6-5.5l1.2-5.5l1.6-5.5l1.7-5.5l1.4-5.5
		l0.8-5.5l0.1-5.5l-0.4-5.5l-0.7-5.5l-1.1-5.5l-1.5-5.5l-1.5-5.5l-1.3-5.5l-0.7-5.5l-0.1-5.5l0.5-5.5l0.8-5.5l0.9-5.5"/>
	<path class="st0" d="M439.9,575.3l0.8-5.5l0.6-5.5l0.5-5.5l0.3-5.5l0.3-5.5l0.4-5.5l0.5-5.5l0.7-5.5l0.8-5.5l0.9-5.5l1-5.5l1-5.5
		l0.8-5.5l0.4-5.5l-0.2-5.5l-0.7-5.5l-1.1-5.5l-1.2-5.5l-0.9-5.5l-0.7-5.5l-0.6-5.5l-0.5-5.5l-0.2-5.5l0.1-5.5l0.3-5.5l0.5-5.5
		l0.5-5.5l0.3-5.5l0.1-5.5l-0.1-5.5l0-5.5l0.3-5.5l0.5-5.5l0.5-5.5l0.3-5.5l-0.1-5.5l-0.4-5.5l-0.7-5.5l-0.9-5.5l-0.9-5.5l-1-5.5
		l-0.9-5.5l-0.7-5.5l-0.3-5.5l0.1-5.5l0.4-5.5l0.6-5.5l0.5-5.5l0.3-5.5l0.2-5.5l0.3-5.5l0.4-5.5l0.4-5.5l0.2-5.5l-0.1-5.5l-0.5-5.5
		l-0.7-5.5l-0.9-5.5l-0.8-5.5l-0.8-5.5l-0.5-5.5l0-5.5l0.6-5.5l1.2-5.5l1.5-5.5l1.5-5.5l1.2-5.5l0.6-5.5l0.1-5.5l-0.1-5.5l0-5.5
		l0.1-5.5l0.1-5.5l-0.1-5.5l-0.3-5.5l-0.5-5.5l-0.7-5.5l-0.8-5.5l-0.8-5.5l-0.7-5.5l-0.3-5.5l0.4-5.5l1-5.5l1.4-5.5l1.5-5.5l1.2-5.5
		l0.6-5.5l-0.1-5.5l-0.6-5.5l-0.9-5.5l-1.2-5.5l-1.5-5.5l-1.4-5.5l-1-5.5l-0.4-5.5l0.3-5.5l0.8-5.5l1-5.5l1-5.5"/>
	<path class="st0" d="M448.9,575.3l0.8-5.5l0.6-5.5l0.3-5.5l0-5.5l-0.2-5.5l-0.2-5.5l0-5.5l0.3-5.5l0.7-5.5l0.9-5.5l1-5.5l1.1-5.5
		l1-5.5l0.6-5.5l0-5.5l-0.7-5.5l-1.1-5.5l-1.3-5.5l-1.2-5.5l-0.9-5.5l-0.8-5.5l-0.7-5.5l-0.3-5.5l0.1-5.5l0.5-5.5l0.7-5.5l0.8-5.5
		l0.6-5.5l0.3-5.5l0-5.5l0.1-5.5l0.4-5.5l0.5-5.5l0.5-5.5l0.2-5.5l-0.1-5.5l-0.5-5.5l-0.8-5.5l-0.9-5.5l-0.9-5.5l-0.9-5.5l-0.9-5.5
		l-0.6-5.5l-0.2-5.5l0.1-5.5l0.4-5.5l0.6-5.5l0.4-5.5l0.2-5.5l0-5.5l0.2-5.5l0.5-5.5l0.6-5.5l0.5-5.5l0.3-5.5l-0.1-5.5l-0.5-5.5
		l-0.8-5.5l-0.9-5.5l-0.9-5.5l-0.8-5.5l-0.4-5.5l0.1-5.5l0.6-5.5l1-5.5l1.2-5.5l1-5.5l0.6-5.5l0.2-5.5l0-5.5l0.2-5.5l0.4-5.5
		l0.4-5.5l0.3-5.5l0-5.5l-0.4-5.5l-0.7-5.5l-0.9-5.5l-0.9-5.5l-0.9-5.5l-0.5-5.5l0.1-5.5l0.7-5.5l1.1-5.5l1.1-5.5l0.9-5.5l0.3-5.5
		l-0.3-5.5l-0.8-5.5l-1-5.5l-1.2-5.5l-1.4-5.5l-1.2-5.5l-0.7-5.5l0-5.5l0.6-5.5l1-5.5l1.1-5.5l1-5.5"/>
	<path class="st0" d="M457.7,575.3l0.9-5.5l0.5-5.5l0-5.5l-0.4-5.5l-0.7-5.5l-0.7-5.5l-0.4-5.5l0-5.5l0.5-5.5l0.9-5.5l1-5.5l1.2-5.5
		l1.2-5.5l0.8-5.5l0.2-5.5l-0.5-5.5l-1-5.5l-1.3-5.5l-1.2-5.5l-1-5.5l-0.9-5.5l-0.8-5.5l-0.5-5.5l-0.1-5.5l0.4-5.5l0.7-5.5l0.7-5.5
		l0.6-5.5l0.3-5.5l0-5.5l0.1-5.5l0.4-5.5l0.7-5.5l0.6-5.5l0.4-5.5l0-5.5l-0.4-5.5l-0.7-5.5l-0.9-5.5l-0.9-5.5l-0.9-5.5l-0.8-5.5
		l-0.5-5.5l-0.1-5.5l0.3-5.5l0.6-5.5l0.7-5.5l0.5-5.5l0.2-5.5l0-5.5l0.2-5.5l0.5-5.5l0.7-5.5l0.7-5.5l0.4-5.5l0-5.5l-0.4-5.5
		l-0.7-5.5l-0.9-5.5l-0.9-5.5l-0.9-5.5l-0.7-5.5l-0.3-5.5l0.2-5.5l0.5-5.5l0.8-5.5l0.7-5.5l0.5-5.5l0.2-5.5l0-5.5l0.3-5.5l0.5-5.5
		l0.7-5.5l0.6-5.5l0.3-5.5l-0.1-5.5l-0.5-5.5l-0.8-5.5l-0.9-5.5l-0.9-5.5l-0.6-5.5l0-5.5l0.5-5.5l0.8-5.5l0.8-5.5l0.6-5.5l0.1-5.5
		l-0.4-5.5l-0.8-5.5l-1-5.5l-1.2-5.5l-1.3-5.5l-1-5.5l-0.4-5.5l0.3-5.5l0.9-5.5l1.2-5.5l1.2-5.5l1-5.5"/>
	<path class="st0" d="M466.3,575.3l0.8-5.5l0.3-5.5l-0.3-5.5l-0.8-5.5l-1.1-5.5l-1.1-5.5l-0.8-5.5l-0.2-5.5l0.4-5.5l0.9-5.5l1-5.5
		l1.3-5.5l1.3-5.5l1-5.5l0.4-5.5l-0.3-5.5l-0.9-5.5l-1.1-5.5l-1.1-5.5l-1-5.5l-0.9-5.5l-0.9-5.5l-0.6-5.5l-0.3-5.5l0.1-5.5l0.5-5.5
		l0.6-5.5l0.5-5.5l0.2-5.5l0-5.5l0.2-5.5l0.5-5.5l0.8-5.5l0.8-5.5l0.6-5.5l0.2-5.5l-0.2-5.5l-0.6-5.5l-0.8-5.5l-0.9-5.5l-0.9-5.5
		l-0.7-5.5l-0.3-5.5l0.2-5.5l0.6-5.5l0.8-5.5l0.8-5.5l0.6-5.5l0.2-5.5l0-5.5l0.2-5.5l0.5-5.5l0.7-5.5l0.7-5.5l0.4-5.5l0-5.5
		l-0.4-5.5l-0.7-5.5l-0.9-5.5l-0.9-5.5l-0.9-5.5l-0.9-5.5l-0.6-5.5l-0.3-5.5l0.1-5.5l0.4-5.5l0.4-5.5l0.3-5.5l0.1-5.5l0-5.5l0.3-5.5
		l0.7-5.5l0.8-5.5l0.8-5.5l0.5-5.5l0.1-5.5l-0.4-5.5l-0.7-5.5l-0.9-5.5l-0.9-5.5l-0.6-5.5l-0.1-5.5l0.3-5.5l0.6-5.5l0.6-5.5l0.4-5.5
		l0-5.5l-0.5-5.5l-0.8-5.5l-1-5.5l-1.1-5.5l-1.1-5.5l-0.8-5.5l-0.2-5.5l0.5-5.5l1-5.5l1.3-5.5l1.2-5.5l1-5.5"/>
	<path class="st0" d="M474.7,575.3l0.6-5.5l0.1-5.5l-0.6-5.5l-1.2-5.5l-1.5-5.5l-1.4-5.5l-1-5.5l-0.3-5.5l0.4-5.5l0.9-5.5l1-5.5
		l1.3-5.5l1.4-5.5l1.1-5.5l0.5-5.5l-0.2-5.5l-0.8-5.5l-1.1-5.5l-1.1-5.5l-1-5.5l-0.9-5.5l-0.9-5.5l-0.7-5.5l-0.4-5.5l0-5.5l0.4-5.5
		l0.5-5.5l0.5-5.5l0.3-5.5l0.1-5.5l0.2-5.5l0.6-5.5l0.8-5.5l0.9-5.5l0.7-5.5l0.4-5.5l-0.1-5.5l-0.4-5.5l-0.7-5.5l-0.7-5.5l-0.7-5.5
		l-0.4-5.5l0-5.5l0.4-5.5l0.8-5.5l1-5.5l0.9-5.5l0.6-5.5l0.2-5.5l0-5.5l0.2-5.5l0.5-5.5l0.7-5.5l0.7-5.5l0.4-5.5l0-5.5l-0.4-5.5
		l-0.7-5.5l-0.9-5.5l-0.9-5.5l-1-5.5l-1-5.5l-0.9-5.5l-0.7-5.5l-0.3-5.5l0-5.5l0.2-5.5l0.2-5.5l0.1-5.5l0-5.5l0.3-5.5l0.7-5.5
		l0.9-5.5l0.9-5.5l0.7-5.5l0.2-5.5l-0.2-5.5l-0.6-5.5l-0.8-5.5l-0.8-5.5l-0.6-5.5l-0.2-5.5l0.1-5.5l0.3-5.5l0.3-5.5l0.2-5.5
		l-0.1-5.5l-0.5-5.5l-0.8-5.5l-0.9-5.5l-1-5.5l-0.9-5.5l-0.5-5.5l0-5.5l0.7-5.5l1.1-5.5l1.3-5.5l1.2-5.5l0.9-5.5"/>
	<path class="st0" d="M482.5,575.3l0.3-5.5l-0.3-5.5l-0.9-5.5l-1.4-5.5l-1.6-5.5l-1.4-5.5l-0.9-5.5l-0.2-5.5l0.5-5.5l0.9-5.5l1-5.5
		l1.3-5.5l1.3-5.5l1-5.5l0.4-5.5l-0.3-5.5l-0.9-5.5l-1.1-5.5l-1.1-5.5l-1-5.5l-1-5.5l-1-5.5l-0.8-5.5l-0.4-5.5l0-5.5l0.4-5.5
		l0.7-5.5l0.7-5.5l0.5-5.5l0.3-5.5l0.4-5.5l0.6-5.5l0.7-5.5l0.7-5.5l0.6-5.5l0.3-5.5l0-5.5l-0.2-5.5l-0.4-5.5l-0.4-5.5l-0.3-5.5
		l0-5.5l0.3-5.5l0.7-5.5l0.9-5.5l1-5.5l0.9-5.5l0.6-5.5l0.2-5.5l0-5.5l0.2-5.5l0.5-5.5l0.7-5.5l0.7-5.5l0.4-5.5l0-5.5l-0.4-5.5
		l-0.7-5.5l-0.9-5.5l-0.9-5.5l-1-5.5l-1.1-5.5l-1.1-5.5l-0.8-5.5l-0.5-5.5l-0.2-5.5l0.1-5.5l0.1-5.5l0.1-5.5l0-5.5l0.3-5.5l0.6-5.5
		l0.9-5.5l0.9-5.5l0.7-5.5l0.3-5.5l-0.1-5.5l-0.4-5.5l-0.6-5.5l-0.7-5.5l-0.5-5.5l-0.3-5.5l-0.1-5.5l0.1-5.5l0.1-5.5l0-5.5l-0.2-5.5
		l-0.4-5.5l-0.6-5.5l-0.7-5.5l-0.7-5.5l-0.6-5.5l-0.3-5.5l0.2-5.5l0.7-5.5l1-5.5l1.1-5.5l1-5.5l0.7-5.5"/>
	<path class="st0" d="M489.6,575.3l-0.2-5.5l-0.6-5.5l-1.2-5.5l-1.4-5.5l-1.4-5.5l-1-5.5l-0.4-5.5l0.2-5.5l0.7-5.5l0.9-5.5l1-5.5
		l1.2-5.5l1.2-5.5l0.8-5.5l0.2-5.5l-0.5-5.5l-1-5.5l-1.2-5.5l-1.2-5.5l-1-5.5l-1-5.5l-1-5.5l-0.8-5.5l-0.5-5.5l0.1-5.5l0.6-5.5
		l0.9-5.5l0.9-5.5l0.7-5.5l0.5-5.5l0.5-5.5l0.5-5.5l0.5-5.5l0.4-5.5l0.2-5.5l0.1-5.5l0-5.5l-0.1-5.5l0-5.5l0-5.5l0.1-5.5l0.4-5.5
		l0.6-5.5l0.8-5.5l0.8-5.5l0.8-5.5l0.6-5.5l0.3-5.5l0.1-5.5l0-5.5l0.2-5.5l0.5-5.5l0.7-5.5l0.7-5.5l0.4-5.5l0-5.5l-0.4-5.5l-0.7-5.5
		l-0.9-5.5l-0.9-5.5l-1-5.5l-1.1-5.5l-1-5.5l-0.7-5.5l-0.4-5.5l-0.1-5.5l0.1-5.5l0.2-5.5l0.1-5.5l0-5.5l0.2-5.5l0.5-5.5l0.7-5.5
		l0.7-5.5l0.6-5.5l0.3-5.5l0-5.5l-0.2-5.5l-0.4-5.5l-0.4-5.5l-0.4-5.5l-0.2-5.5l-0.1-5.5l-0.1-5.5l0-5.5l-0.1-5.5l-0.2-5.5l-0.3-5.5
		l-0.4-5.5l-0.5-5.5l-0.5-5.5l-0.4-5.5l-0.1-5.5l0.2-5.5l0.6-5.5l0.8-5.5l0.8-5.5l0.7-5.5l0.5-5.5"/>
	<path class="st0" d="M496.2,575.3l-0.6-5.5l-0.9-5.5l-1.2-5.5l-1.3-5.5l-0.9-5.5l-0.4-5.5l0.2-5.5l0.6-5.5l0.9-5.5l0.9-5.5l1-5.5
		l1.2-5.5l1.1-5.5l0.7-5.5l0-5.5l-0.6-5.5l-1.1-5.5l-1.3-5.5l-1.2-5.5l-1-5.5l-1-5.5l-1.1-5.5l-0.9-5.5l-0.5-5.5l0.1-5.5l0.7-5.5
		l1.1-5.5l1.2-5.5l1-5.5l0.7-5.5l0.6-5.5l0.4-5.5l0.2-5.5l-0.1-5.5l-0.2-5.5l-0.3-5.5l-0.2-5.5l0.1-5.5l0.3-5.5l0.5-5.5l0.6-5.5
		l0.7-5.5l0.7-5.5l0.7-5.5l0.5-5.5l0.3-5.5l0.2-5.5l0-5.5l0-5.5l0-5.5l0.2-5.5l0.5-5.5l0.7-5.5l0.7-5.5l0.4-5.5l0-5.5l-0.4-5.5
		l-0.7-5.5l-0.9-5.5l-0.9-5.5l-1-5.5l-0.9-5.5l-0.8-5.5l-0.4-5.5l-0.1-5.5l0.2-5.5l0.3-5.5l0.3-5.5l0.1-5.5l0-5.5l0.1-5.5l0.3-5.5
		l0.4-5.5l0.4-5.5l0.3-5.5l0.2-5.5l0-5.5l-0.1-5.5l-0.2-5.5l-0.2-5.5l-0.2-5.5l-0.1-5.5l-0.1-5.5l-0.1-5.5l-0.1-5.5l-0.1-5.5
		l-0.1-5.5l-0.2-5.5l-0.2-5.5l-0.2-5.5l-0.2-5.5l-0.1-5.5l0-5.5l0.2-5.5l0.3-5.5l0.4-5.5l0.4-5.5l0.4-5.5l0.2-5.5"/>
	<path class="st0" d="M502.6,575.3l-0.9-5.5l-1.1-5.5l-1.2-5.5l-1-5.5l-0.5-5.5l0.1-5.5l0.7-5.5l1-5.5l1.1-5.5l1-5.5l1-5.5l1.1-5.5
		l1-5.5l0.6-5.5l0-5.5l-0.7-5.5l-1.2-5.5l-1.4-5.5l-1.2-5.5l-1-5.5l-1-5.5l-1.1-5.5l-1-5.5l-0.5-5.5l0.1-5.5l0.8-5.5l1.2-5.5
		l1.3-5.5l1.1-5.5l0.9-5.5l0.7-5.5l0.4-5.5l-0.1-5.5l-0.4-5.5l-0.6-5.5l-0.6-5.5l-0.3-5.5l0.1-5.5l0.6-5.5l0.8-5.5l0.8-5.5l0.8-5.5
		l0.7-5.5l0.4-5.5l0.1-5.5l-0.1-5.5l-0.3-5.5l-0.3-5.5l-0.1-5.5l0-5.5l0.2-5.5l0.5-5.5l0.7-5.5l0.7-5.5l0.4-5.5l0-5.5l-0.4-5.5
		l-0.7-5.5l-0.9-5.5l-0.9-5.5l-0.9-5.5l-0.8-5.5l-0.5-5.5l-0.1-5.5l0.3-5.5l0.5-5.5l0.6-5.5l0.4-5.5l0.1-5.5l0-5.5l0-5.5l0.1-5.5
		l0.1-5.5l0.1-5.5l0.1-5.5l0.1-5.5l0-5.5l0-5.5l-0.1-5.5l-0.1-5.5l-0.1-5.5l-0.1-5.5l0-5.5l0-5.5l0-5.5l0-5.5l-0.1-5.5l-0.1-5.5
		l-0.1-5.5l-0.1-5.5l-0.1-5.5l0-5.5l0-5.5l0.1-5.5l0.1-5.5l0.1-5.5l0.1-5.5l0.1-5.5l0.1-5.5"/>
	<path class="st0" d="M509.5,575.3l-1-5.5l-1.2-5.5l-1.2-5.5l-0.9-5.5l-0.3-5.5l0.4-5.5l0.9-5.5l1.2-5.5l1.2-5.5l1-5.5l1-5.5
		l1.2-5.5l1.1-5.5l0.7-5.5l0.1-5.5l-0.6-5.5l-1.1-5.5l-1.3-5.5l-1.2-5.5l-1-5.5l-1-5.5l-1.2-5.5l-1.1-5.5l-0.7-5.5l0-5.5l0.6-5.5
		l1.1-5.5l1.3-5.5l1.2-5.5l1-5.5l0.8-5.5l0.3-5.5l-0.2-5.5l-0.6-5.5l-0.8-5.5l-0.7-5.5l-0.3-5.5l0.2-5.5l0.6-5.5l0.9-5.5l0.9-5.5
		l0.8-5.5l0.5-5.5l0.2-5.5l-0.2-5.5l-0.5-5.5l-0.6-5.5l-0.5-5.5l-0.2-5.5l0-5.5l0.2-5.5l0.5-5.5l0.7-5.5l0.7-5.5l0.4-5.5l0-5.5
		l-0.4-5.5l-0.7-5.5l-0.9-5.5l-0.9-5.5l-0.9-5.5l-0.7-5.5l-0.4-5.5l0.1-5.5l0.4-5.5l0.7-5.5l0.7-5.5l0.5-5.5l0.1-5.5l0-5.5l0-5.5
		l0-5.5l0-5.5l0-5.5l0-5.5l0-5.5l0-5.5l0-5.5l0-5.5l0-5.5l0-5.5l0-5.5l0-5.5l0-5.5l0-5.5l0-5.5l0-5.5l0-5.5l0-5.5l0-5.5l0-5.5l0-5.5
		l0-5.5l0-5.5l0-5.5l0-5.5l0-5.5l0-5.5l0-5.5"/>
	<path class="st0" d="M516.8,575.3l-1-5.5l-1.2-5.5l-1.2-5.5l-0.9-5.5l-0.3-5.5l0.4-5.5l0.9-5.5l1.2-5.5l1.2-5.5l1-5.5l1-5.5
		l1.2-5.5l1.3-5.5l0.9-5.5l0.3-5.5l-0.3-5.5l-0.9-5.5l-1.2-5.5l-1.1-5.5l-1-5.5l-1-5.5l-1.3-5.5l-1.2-5.5l-0.9-5.5l-0.3-5.5l0.4-5.5
		l1-5.5l1.2-5.5l1.1-5.5l1-5.5l0.8-5.5l0.3-5.5l-0.2-5.5l-0.6-5.5l-0.8-5.5l-0.7-5.5l-0.4-5.5l0.1-5.5l0.6-5.5l0.9-5.5l0.9-5.5
		l0.7-5.5l0.4-5.5l-0.1-5.5l-0.5-5.5l-0.7-5.5l-0.8-5.5l-0.6-5.5l-0.2-5.5l0-5.5l0.2-5.5l0.5-5.5l0.7-5.5l0.7-5.5l0.4-5.5l0-5.5
		l-0.4-5.5l-0.7-5.5l-0.9-5.5l-0.9-5.5l-0.9-5.5l-0.7-5.5l-0.4-5.5l0.1-5.5l0.5-5.5l0.7-5.5l0.7-5.5l0.5-5.5l0.1-5.5l0-5.5l0-5.5
		l0-5.5l0-5.5l0-5.5l0-5.5l0-5.5l0-5.5l0-5.5l0-5.5l0-5.5l0-5.5l0-5.5l0-5.5l0-5.5l0-5.5l0-5.5l0-5.5l0-5.5l0-5.5l0-5.5l0-5.5l0-5.5
		l0-5.5l0-5.5l0-5.5l0-5.5l0-5.5l0-5.5l0-5.5"/>
	<path class="st0" d="M523.8,575.3l-1-5.5l-1.1-5.5l-1.1-5.5l-0.8-5.5l-0.2-5.5l0.5-5.5l1-5.5l1.2-5.5l1.1-5.5l0.9-5.5l0.9-5.5
		l1.2-5.5l1.4-5.5l1.2-5.5l0.6-5.5l0-5.5l-0.6-5.5l-1-5.5l-1-5.5l-1-5.5l-1.1-5.5l-1.3-5.5l-1.4-5.5l-1.1-5.5l-0.6-5.5l0.1-5.5
		l0.7-5.5l1.1-5.5l1.1-5.5l0.9-5.5l0.8-5.5l0.4-5.5l-0.1-5.5l-0.6-5.5l-0.8-5.5l-0.7-5.5l-0.4-5.5l0.1-5.5l0.6-5.5l0.8-5.5l0.8-5.5
		l0.5-5.5l0.2-5.5l-0.3-5.5l-0.7-5.5l-0.9-5.5l-0.9-5.5l-0.7-5.5l-0.3-5.5l0-5.5l0.2-5.5l0.5-5.5l0.7-5.5l0.7-5.5l0.5-5.5l0.1-5.5
		l-0.4-5.5l-0.7-5.5l-0.9-5.5l-0.9-5.5l-0.9-5.5l-0.7-5.5l-0.4-5.5l0-5.5l0.4-5.5l0.7-5.5l0.7-5.5l0.5-5.5l0.2-5.5l0-5.5l0-5.5
		l0-5.5l0-5.5l0-5.5l0-5.5l0-5.5l0-5.5l0-5.5l0-5.5l0-5.5l0-5.5l0-5.5l0-5.5l-0.1-5.5l-0.1-5.5l-0.1-5.5l-0.1-5.5l0-5.5l0-5.5l0-5.5
		l0-5.5l0-5.5l0-5.5l0-5.5l0-5.5l0-5.5l0-5.5l0-5.5l0-5.5"/>
	<path class="st0" d="M530.3,575.3l-1-5.5l-1-5.5l-0.8-5.5l-0.4-5.5l0.1-5.5l0.7-5.5l1-5.5l1.1-5.5l0.9-5.5l0.6-5.5l0.7-5.5l1.1-5.5
		l1.4-5.5l1.4-5.5l1-5.5l0.5-5.5l-0.2-5.5l-0.7-5.5l-0.9-5.5l-0.9-5.5l-1.1-5.5l-1.4-5.5l-1.6-5.5l-1.4-5.5l-0.9-5.5l-0.1-5.5
		l0.5-5.5l0.9-5.5l1-5.5l0.9-5.5l0.8-5.5l0.5-5.5l0.1-5.5l-0.4-5.5l-0.6-5.5l-0.7-5.5l-0.5-5.5l-0.1-5.5l0.3-5.5l0.5-5.5l0.5-5.5
		l0.3-5.5l-0.1-5.5l-0.5-5.5l-0.8-5.5l-1-5.5l-1-5.5l-0.7-5.5l-0.4-5.5l-0.2-5.5l0.1-5.5l0.5-5.5l0.8-5.5l0.9-5.5l0.7-5.5l0.3-5.5
		l-0.1-5.5l-0.6-5.5l-0.8-5.5l-0.9-5.5l-0.9-5.5l-0.8-5.5l-0.5-5.5l-0.1-5.5l0.4-5.5l0.7-5.5l0.8-5.5l0.6-5.5l0.3-5.5l0.2-5.5
		l0.1-5.5l0-5.5l-0.1-5.5l-0.1-5.5l-0.2-5.5l-0.1-5.5l0-5.5l0.1-5.5l0.2-5.5l0.2-5.5l0.1-5.5l0-5.5l-0.1-5.5l-0.3-5.5l-0.3-5.5
		l-0.3-5.5l-0.3-5.5l-0.1-5.5l0-5.5l0-5.5l0.1-5.5l0.1-5.5l0.1-5.5l0.1-5.5l0-5.5l0-5.5l-0.1-5.5l-0.2-5.5l-0.2-5.5"/>
	<path class="st0" d="M536.8,575.3l-0.9-5.5l-0.8-5.5l-0.4-5.5l0-5.5l0.5-5.5l0.9-5.5l1.1-5.5l0.9-5.5l0.6-5.5l0.2-5.5l0.3-5.5
		l0.8-5.5l1.3-5.5l1.5-5.5l1.3-5.5l0.9-5.5l0.3-5.5l-0.3-5.5l-0.7-5.5l-0.9-5.5l-1.1-5.5l-1.5-5.5l-1.7-5.5l-1.6-5.5l-1-5.5
		l-0.3-5.5l0.4-5.5l0.8-5.5l1-5.5l0.9-5.5l0.9-5.5l0.7-5.5l0.4-5.5l0-5.5l-0.4-5.5l-0.6-5.5l-0.7-5.5l-0.4-5.5l-0.1-5.5l0.1-5.5
		l0.1-5.5l0-5.5l-0.2-5.5l-0.5-5.5l-0.7-5.5l-0.9-5.5l-0.9-5.5l-0.7-5.5l-0.5-5.5l-0.4-5.5l-0.1-5.5l0.4-5.5l0.8-5.5l1-5.5l1-5.5
		l0.6-5.5l0.1-5.5l-0.4-5.5l-0.8-5.5l-0.9-5.5l-1-5.5l-0.9-5.5l-0.7-5.5l-0.2-5.5l0.3-5.5l0.7-5.5l0.9-5.5l0.8-5.5l0.5-5.5l0.4-5.5
		l0.3-5.5l0-5.5l-0.2-5.5l-0.3-5.5l-0.3-5.5l-0.3-5.5l-0.1-5.5l0.2-5.5l0.3-5.5l0.4-5.5l0.3-5.5l0.1-5.5l-0.2-5.5l-0.4-5.5l-0.6-5.5
		l-0.6-5.5l-0.5-5.5l-0.3-5.5l-0.1-5.5l0-5.5l0.1-5.5l0.3-5.5l0.3-5.5l0.2-5.5l0.1-5.5l-0.1-5.5l-0.2-5.5l-0.4-5.5l-0.4-5.5"/>
	<path class="st0" d="M543.7,575.3l-0.9-5.5l-0.6-5.5l-0.1-5.5l0.5-5.5l0.9-5.5l1.1-5.5l1-5.5l0.7-5.5l0.2-5.5l-0.2-5.5l-0.2-5.5
		l0.4-5.5l1-5.5l1.3-5.5l1.4-5.5l1.1-5.5l0.6-5.5l0-5.5l-0.6-5.5l-0.9-5.5l-1.1-5.5l-1.5-5.5l-1.7-5.5l-1.5-5.5l-1-5.5l-0.3-5.5
		l0.4-5.5l0.9-5.5l1-5.5l0.9-5.5l1-5.5l0.9-5.5l0.7-5.5l0.3-5.5l-0.2-5.5l-0.6-5.5l-0.8-5.5l-0.8-5.5l-0.5-5.5l-0.3-5.5l-0.3-5.5
		l-0.2-5.5l-0.2-5.5l-0.3-5.5l-0.4-5.5l-0.5-5.5l-0.6-5.5l-0.6-5.5l-0.6-5.5l-0.6-5.5l-0.3-5.5l0.2-5.5l0.8-5.5l1.1-5.5l1.1-5.5
		l0.9-5.5l0.4-5.5l-0.2-5.5l-0.7-5.5l-0.9-5.5l-1-5.5l-1.1-5.5l-0.8-5.5l-0.4-5.5l0.2-5.5l0.7-5.5l1-5.5l1-5.5l0.8-5.5l0.6-5.5
		l0.4-5.5l0.1-5.5l-0.3-5.5l-0.5-5.5l-0.5-5.5l-0.4-5.5l-0.1-5.5l0.2-5.5l0.5-5.5l0.6-5.5l0.5-5.5l0.2-5.5l-0.2-5.5l-0.6-5.5
		l-0.8-5.5l-0.9-5.5l-0.7-5.5l-0.4-5.5l-0.1-5.5l0-5.5l0.2-5.5l0.4-5.5l0.5-5.5l0.4-5.5l0.2-5.5l-0.1-5.5l-0.4-5.5l-0.6-5.5
		l-0.6-5.5"/>
	<path class="st0" d="M551.4,575.3l-0.9-5.5l-0.4-5.5l0.1-5.5l0.7-5.5l1-5.5l1.1-5.5l0.9-5.5l0.4-5.5l-0.2-5.5l-0.6-5.5l-0.6-5.5
		l0-5.5l0.6-5.5l1.1-5.5l1.3-5.5l1.1-5.5l0.7-5.5l0.1-5.5l-0.5-5.5l-0.9-5.5l-1.1-5.5l-1.4-5.5l-1.5-5.5l-1.3-5.5l-0.7-5.5l0-5.5
		l0.6-5.5l1-5.5l1-5.5l1-5.5l1-5.5l1.1-5.5l1-5.5l0.6-5.5l0-5.5l-0.6-5.5l-1-5.5l-1.1-5.5l-0.9-5.5l-0.7-5.5l-0.6-5.5l-0.4-5.5
		l-0.1-5.5l0.1-5.5l0.1-5.5l0-5.5l-0.2-5.5l-0.5-5.5l-0.7-5.5l-0.8-5.5l-0.5-5.5l0.1-5.5l0.7-5.5l1.1-5.5l1.2-5.5l0.9-5.5l0.5-5.5
		l-0.2-5.5l-0.7-5.5l-0.9-5.5l-1.1-5.5l-1.2-5.5l-1-5.5l-0.5-5.5l0.1-5.5l0.7-5.5l1.1-5.5l1.1-5.5l0.9-5.5l0.8-5.5l0.5-5.5l0.1-5.5
		l-0.3-5.5l-0.6-5.5l-0.7-5.5l-0.5-5.5l-0.1-5.5l0.3-5.5l0.7-5.5l0.8-5.5l0.7-5.5l0.3-5.5l-0.1-5.5l-0.5-5.5l-0.9-5.5l-1-5.5
		l-0.8-5.5l-0.5-5.5l-0.1-5.5l0-5.5l0.3-5.5l0.5-5.5l0.6-5.5l0.5-5.5l0.2-5.5l-0.2-5.5l-0.5-5.5l-0.7-5.5l-0.8-5.5"/>
	<path class="st0" d="M559.7,575.3l-0.8-5.5l-0.4-5.5l0.2-5.5l0.7-5.5l1-5.5l1-5.5l0.7-5.5l0.2-5.5l-0.4-5.5l-0.8-5.5l-0.8-5.5
		l-0.3-5.5l0.3-5.5l0.8-5.5l1-5.5l1-5.5l0.6-5.5l0.1-5.5l-0.5-5.5l-0.9-5.5l-1.1-5.5l-1.3-5.5l-1.3-5.5l-1-5.5l-0.4-5.5l0.3-5.5
		l0.8-5.5l1.1-5.5l1.1-5.5l1-5.5l1.1-5.5l1.2-5.5l1.1-5.5l0.7-5.5l0.1-5.5l-0.6-5.5l-1.1-5.5l-1.2-5.5l-1.1-5.5l-0.9-5.5l-0.7-5.5
		l-0.3-5.5l0.1-5.5l0.4-5.5l0.5-5.5l0.4-5.5l0.1-5.5l-0.3-5.5l-0.7-5.5l-0.9-5.5l-0.6-5.5l-0.1-5.5l0.5-5.5l0.9-5.5l1-5.5l0.8-5.5
		l0.4-5.5l-0.2-5.5l-0.7-5.5l-0.9-5.5l-1.1-5.5l-1.2-5.5l-1.1-5.5l-0.6-5.5l0.1-5.5l0.7-5.5l1.1-5.5l1.2-5.5l1-5.5l0.9-5.5l0.6-5.5
		l0.1-5.5l-0.4-5.5l-0.7-5.5l-0.8-5.5l-0.6-5.5l-0.2-5.5l0.4-5.5l0.8-5.5l0.9-5.5l0.8-5.5l0.5-5.5l0.1-5.5l-0.4-5.5l-0.7-5.5
		l-0.9-5.5l-0.8-5.5l-0.5-5.5l-0.1-5.5l0.1-5.5l0.3-5.5l0.6-5.5l0.7-5.5l0.6-5.5l0.2-5.5l-0.2-5.5l-0.6-5.5l-0.8-5.5l-0.9-5.5"/>
	<path class="st0" d="M568.3,575.3l-0.9-5.5l-0.5-5.5l0.1-5.5l0.5-5.5l0.8-5.5l0.8-5.5l0.5-5.5l0-5.5l-0.5-5.5l-0.9-5.5l-0.8-5.5
		l-0.4-5.5l0.1-5.5l0.6-5.5l0.8-5.5l0.7-5.5l0.4-5.5l0-5.5l-0.6-5.5l-0.9-5.5l-1-5.5l-1.2-5.5l-1.2-5.5l-0.8-5.5l-0.2-5.5l0.5-5.5
		l1-5.5l1.2-5.5l1.1-5.5l1-5.5l1.1-5.5l1.2-5.5l1.2-5.5l0.7-5.5l0.1-5.5l-0.6-5.5l-1.1-5.5l-1.2-5.5l-1.1-5.5l-0.9-5.5l-0.7-5.5
		l-0.3-5.5l0.3-5.5l0.7-5.5l0.8-5.5l0.7-5.5l0.3-5.5l-0.2-5.5l-0.7-5.5l-0.9-5.5l-0.7-5.5l-0.2-5.5l0.3-5.5l0.7-5.5l0.8-5.5l0.7-5.5
		l0.3-5.5l-0.3-5.5l-0.7-5.5l-0.9-5.5l-1.1-5.5l-1.2-5.5l-1.1-5.5l-0.6-5.5l0.1-5.5l0.7-5.5l1.2-5.5l1.2-5.5l1.1-5.5l0.9-5.5
		l0.6-5.5l0.1-5.5l-0.4-5.5l-0.7-5.5l-0.8-5.5l-0.6-5.5l-0.2-5.5l0.4-5.5l0.8-5.5l0.9-5.5l0.9-5.5l0.6-5.5l0.3-5.5l-0.2-5.5
		l-0.5-5.5l-0.7-5.5l-0.7-5.5l-0.4-5.5l-0.1-5.5l0.1-5.5l0.3-5.5l0.6-5.5l0.7-5.5l0.6-5.5l0.2-5.5l-0.2-5.5l-0.6-5.5l-0.8-5.5
		l-0.9-5.5"/>
</g>
</svg>
