<?xml version="1.0" encoding="UTF-8" standalone="no"?>
<!-- Created with Inkscape (http://www.inkscape.org/) -->

<svg
   width="297mm"
   height="210mm"
   viewBox="0 0 297 210"
   version="1.1"
   id="svg1"
   xml:space="preserve"
   sodipodi:docname="a4.p1.svg"
   inkscape:version="1.3.2 (091e20e, 2023-11-25)"
   xmlns:inkscape="http://www.inkscape.org/namespaces/inkscape"
   xmlns:sodipodi="http://sodipodi.sourceforge.net/DTD/sodipodi-0.dtd"
   xmlns="http://www.w3.org/2000/svg"
   xmlns:svg="http://www.w3.org/2000/svg"><sodipodi:namedview
     id="namedview1"
     pagecolor="#ffffff"
     bordercolor="#000000"
     borderopacity="0.25"
     inkscape:showpageshadow="2"
     inkscape:pageopacity="0.0"
     inkscape:pagecheckerboard="0"
     inkscape:deskcolor="#d1d1d1"
     inkscape:document-units="mm"
     inkscape:zoom="0.16397184"
     inkscape:cx="1789.9415"
     inkscape:cy="963.58008"
     inkscape:current-layer="svg1" /><defs
     id="defs1"><clipPath
       clipPathUnits="userSpaceOnUse"
       id="clipPath3"><path
         d="M 8.504,46.771 H 586.772 V 795.118 H 8.504 Z"
         transform="translate(-247.2748,-476.92021)"
         id="path3-9" /></clipPath><clipPath
       clipPathUnits="userSpaceOnUse"
       id="clipPath5"><path
         d="M 8.504,46.771 H 586.772 V 795.118 H 8.504 Z"
         transform="translate(-355.90861,-432.10851)"
         id="path5-4" /></clipPath><clipPath
       clipPathUnits="userSpaceOnUse"
       id="clipPath7"><path
         d="M 8.504,46.771 H 586.772 V 795.118 H 8.504 Z"
         transform="translate(-301.22811,-438.11921)"
         id="path7" /></clipPath><clipPath
       clipPathUnits="userSpaceOnUse"
       id="clipPath9"><path
         d="M 8.504,46.771 H 586.772 V 795.118 H 8.504 Z"
         transform="translate(-241.38961,-353.52451)"
         id="path9" /></clipPath><clipPath
       clipPathUnits="userSpaceOnUse"
       id="clipPath11"><path
         d="M 8.504,46.771 H 586.772 V 795.118 H 8.504 Z"
         transform="translate(-241.25311,-756.73722)"
         id="path11-3" /></clipPath><clipPath
       clipPathUnits="userSpaceOnUse"
       id="clipPath13"><path
         d="M 8.504,46.771 H 586.772 V 795.118 H 8.504 Z"
         transform="translate(-300.91991,-751.77842)"
         id="path13-9" /></clipPath><clipPath
       clipPathUnits="userSpaceOnUse"
       id="clipPath15"><path
         d="M 8.504,46.771 H 586.772 V 795.118 H 8.504 Z"
         transform="translate(-306.00331,-751.77842)"
         id="path15-0" /></clipPath><clipPath
       clipPathUnits="userSpaceOnUse"
       id="clipPath17"><path
         d="M 8.504,46.771 H 586.772 V 795.118 H 8.504 Z"
         transform="translate(-311.22691,-751.77842)"
         id="path17-5" /></clipPath><clipPath
       clipPathUnits="userSpaceOnUse"
       id="clipPath19"><path
         d="M 8.504,46.771 H 586.772 V 795.118 H 8.504 Z"
         transform="translate(-316.45061,-753.28162)"
         id="path19-6" /></clipPath><clipPath
       clipPathUnits="userSpaceOnUse"
       id="clipPath21"><path
         d="M 8.504,46.771 H 586.772 V 795.118 H 8.504 Z"
         transform="translate(-321.67421,-753.28162)"
         id="path21-3" /></clipPath><clipPath
       clipPathUnits="userSpaceOnUse"
       id="clipPath23"><path
         d="M 8.504,46.771 H 586.772 V 795.118 H 8.504 Z"
         transform="translate(-326.89871,-753.89982)"
         id="path23-6" /></clipPath><clipPath
       clipPathUnits="userSpaceOnUse"
       id="clipPath25"><path
         d="M 8.504,46.771 H 586.772 V 795.118 H 8.504 Z"
         transform="translate(-332.12231,-753.89982)"
         id="path25-3" /></clipPath><clipPath
       clipPathUnits="userSpaceOnUse"
       id="clipPath27"><path
         d="M 8.504,46.771 H 586.772 V 795.118 H 8.504 Z"
         transform="translate(-337.34591,-753.89982)"
         id="path27" /></clipPath><clipPath
       clipPathUnits="userSpaceOnUse"
       id="clipPath29"><path
         d="M 8.504,46.771 H 586.772 V 795.118 H 8.504 Z"
         transform="translate(-342.56951,-753.89982)"
         id="path29" /></clipPath><clipPath
       clipPathUnits="userSpaceOnUse"
       id="clipPath31"><path
         d="M 8.504,46.771 H 586.772 V 795.118 H 8.504 Z"
         transform="translate(-347.79321,-754.81612)"
         id="path31-0" /></clipPath><clipPath
       clipPathUnits="userSpaceOnUse"
       id="clipPath33"><path
         d="M 8.504,46.771 H 586.772 V 795.118 H 8.504 Z"
         transform="translate(-353.01771,-754.81612)"
         id="path33-8" /></clipPath><clipPath
       clipPathUnits="userSpaceOnUse"
       id="clipPath35"><path
         d="M 8.504,46.771 H 586.772 V 795.118 H 8.504 Z"
         transform="translate(-300.78431,-751.77842)"
         id="path35-4" /></clipPath><clipPath
       clipPathUnits="userSpaceOnUse"
       id="clipPath37"><path
         d="M 8.504,46.771 H 586.772 V 795.118 H 8.504 Z"
         transform="translate(-295.70101,-751.77842)"
         id="path37-0" /></clipPath><clipPath
       clipPathUnits="userSpaceOnUse"
       id="clipPath39"><path
         d="M 8.504,46.771 H 586.772 V 795.118 H 8.504 Z"
         transform="translate(-290.47741,-751.77842)"
         id="path39-4" /></clipPath><clipPath
       clipPathUnits="userSpaceOnUse"
       id="clipPath41"><path
         d="M 8.504,46.771 H 586.772 V 795.118 H 8.504 Z"
         transform="translate(-285.25381,-753.28162)"
         id="path41-6" /></clipPath><clipPath
       clipPathUnits="userSpaceOnUse"
       id="clipPath43"><path
         d="M 8.504,46.771 H 586.772 V 795.118 H 8.504 Z"
         transform="translate(-280.03011,-753.28162)"
         id="path43-4" /></clipPath><clipPath
       clipPathUnits="userSpaceOnUse"
       id="clipPath45"><path
         d="M 8.504,46.771 H 586.772 V 795.118 H 8.504 Z"
         transform="translate(-274.80651,-753.89982)"
         id="path45-6" /></clipPath><clipPath
       clipPathUnits="userSpaceOnUse"
       id="clipPath47"><path
         d="M 8.504,46.771 H 586.772 V 795.118 H 8.504 Z"
         transform="translate(-269.58201,-753.89982)"
         id="path47" /></clipPath><clipPath
       clipPathUnits="userSpaceOnUse"
       id="clipPath49"><path
         d="M 8.504,46.771 H 586.772 V 795.118 H 8.504 Z"
         transform="translate(-264.35841,-753.89982)"
         id="path49" /></clipPath><clipPath
       clipPathUnits="userSpaceOnUse"
       id="clipPath51"><path
         d="M 8.504,46.771 H 586.772 V 795.118 H 8.504 Z"
         transform="translate(-259.13481,-753.89982)"
         id="path51" /></clipPath><clipPath
       clipPathUnits="userSpaceOnUse"
       id="clipPath53"><path
         d="M 8.504,46.771 H 586.772 V 795.118 H 8.504 Z"
         transform="translate(-253.91121,-754.81612)"
         id="path53" /></clipPath><clipPath
       clipPathUnits="userSpaceOnUse"
       id="clipPath55"><path
         d="M 8.504,46.771 H 586.772 V 795.118 H 8.504 Z"
         transform="translate(-248.6875,-754.81612)"
         id="path55" /></clipPath><clipPath
       clipPathUnits="userSpaceOnUse"
       id="clipPath57"><path
         d="M 8.504,46.771 H 586.772 V 795.118 H 8.504 Z"
         transform="translate(-358.24131,-755.31722)"
         id="path57" /></clipPath><clipPath
       clipPathUnits="userSpaceOnUse"
       id="clipPath59"><path
         d="M 8.504,46.771 H 586.772 V 795.118 H 8.504 Z"
         transform="translate(-241.25311,-756.73722)"
         id="path59" /></clipPath><clipPath
       clipPathUnits="userSpaceOnUse"
       id="clipPath61"><path
         d="M 8.504,46.771 H 586.772 V 795.118 H 8.504 Z"
         transform="translate(-283.615,-594.63191)"
         id="path61" /></clipPath><clipPath
       clipPathUnits="userSpaceOnUse"
       id="clipPath63"><path
         d="M 8.504,46.771 H 586.772 V 795.118 H 8.504 Z"
         transform="translate(-283.615,-578.79121)"
         id="path63" /></clipPath><clipPath
       clipPathUnits="userSpaceOnUse"
       id="clipPath65"><path
         d="M 8.504,46.771 H 586.772 V 795.118 H 8.504 Z"
         transform="translate(-283.615,-562.95061)"
         id="path65" /></clipPath><clipPath
       clipPathUnits="userSpaceOnUse"
       id="clipPath67"><path
         d="M 8.504,46.771 H 586.772 V 795.118 H 8.504 Z"
         transform="translate(-283.615,-547.11001)"
         id="path67" /></clipPath><clipPath
       clipPathUnits="userSpaceOnUse"
       id="clipPath69"><path
         d="M 8.504,46.771 H 586.772 V 795.118 H 8.504 Z"
         transform="translate(-283.615,-531.26941)"
         id="path69" /></clipPath><clipPath
       clipPathUnits="userSpaceOnUse"
       id="clipPath71"><path
         d="M 8.504,46.771 H 586.772 V 795.118 H 8.504 Z"
         transform="translate(-283.615,-515.42782)"
         id="path71" /></clipPath><clipPath
       clipPathUnits="userSpaceOnUse"
       id="clipPath73"><path
         d="M 8.504,46.771 H 586.772 V 795.118 H 8.504 Z"
         transform="translate(-283.615,-499.58721)"
         id="path73" /></clipPath><clipPath
       clipPathUnits="userSpaceOnUse"
       id="clipPath75"><path
         d="M 8.504,46.771 H 586.772 V 795.118 H 8.504 Z"
         transform="translate(-348.32651,-588.02411)"
         id="path75" /></clipPath><clipPath
       clipPathUnits="userSpaceOnUse"
       id="clipPath77"><path
         d="M 8.504,46.771 H 586.772 V 795.118 H 8.504 Z"
         transform="translate(-228.06621,-228.23451)"
         id="path77" /></clipPath><clipPath
       clipPathUnits="userSpaceOnUse"
       id="clipPath79"><path
         d="M 8.504,46.771 H 586.772 V 795.118 H 8.504 Z"
         transform="translate(-244.74651,-334.57891)"
         id="path79" /></clipPath><clipPath
       clipPathUnits="userSpaceOnUse"
       id="clipPath81"><path
         d="M 8.504,46.771 H 586.772 V 795.118 H 8.504 Z"
         id="path81" /></clipPath><clipPath
       clipPathUnits="userSpaceOnUse"
       id="clipPath83"><path
         d="M 8.504,46.771 H 586.772 V 795.118 H 8.504 Z"
         transform="translate(-296.1688,-291.68641)"
         id="path83" /></clipPath><clipPath
       clipPathUnits="userSpaceOnUse"
       id="clipPath85"><path
         d="M 8.504,46.771 H 586.772 V 795.118 H 8.504 Z"
         transform="translate(-292.18711,-331.69541)"
         id="path85" /></clipPath><clipPath
       clipPathUnits="userSpaceOnUse"
       id="clipPath87"><path
         d="M 8.504,46.771 H 586.772 V 795.118 H 8.504 Z"
         id="path87" /></clipPath><clipPath
       clipPathUnits="userSpaceOnUse"
       id="clipPath89"><path
         d="M 8.504,46.771 H 586.772 V 795.118 H 8.504 Z"
         id="path89" /></clipPath><clipPath
       clipPathUnits="userSpaceOnUse"
       id="clipPath91"><path
         d="M 8.504,46.771 H 586.772 V 795.118 H 8.504 Z"
         transform="translate(-238.87891,-310.67631)"
         id="path91" /></clipPath><clipPath
       clipPathUnits="userSpaceOnUse"
       id="clipPath93"><path
         d="M 8.504,46.771 H 586.772 V 795.118 H 8.504 Z"
         transform="translate(-241.36561,-330.98211)"
         id="path93" /></clipPath><clipPath
       clipPathUnits="userSpaceOnUse"
       id="clipPath95"><path
         d="M 8.504,46.771 H 586.772 V 795.118 H 8.504 Z"
         transform="translate(-361.11101,-310.67631)"
         id="path95" /></clipPath><clipPath
       clipPathUnits="userSpaceOnUse"
       id="clipPath97"><path
         d="M 8.504,46.771 H 586.772 V 795.118 H 8.504 Z"
         transform="translate(-358.62511,-330.98211)"
         id="path97" /></clipPath><clipPath
       clipPathUnits="userSpaceOnUse"
       id="clipPath99"><path
         d="M 8.504,46.771 H 586.772 V 795.118 H 8.504 Z"
         transform="translate(-169.4208,-677.06362)"
         id="path99" /></clipPath><clipPath
       clipPathUnits="userSpaceOnUse"
       id="clipPath101"><path
         d="M 8.504,46.771 H 586.772 V 795.118 H 8.504 Z"
         transform="translate(-77.595699,-750.94892)"
         id="path101" /></clipPath><clipPath
       clipPathUnits="userSpaceOnUse"
       id="clipPath103"><path
         d="M 8.504,46.771 H 586.772 V 795.118 H 8.504 Z"
         transform="translate(-66.544001,-705.59922)"
         id="path103" /></clipPath><clipPath
       clipPathUnits="userSpaceOnUse"
       id="clipPath105"><path
         d="M 8.504,46.771 H 586.772 V 795.118 H 8.504 Z"
         transform="translate(-66.539402,-705.54482)"
         id="path105" /></clipPath><clipPath
       clipPathUnits="userSpaceOnUse"
       id="clipPath107"><path
         d="M 8.504,46.771 H 586.772 V 795.118 H 8.504 Z"
         transform="translate(-116.86821,-663.35272)"
         id="path107" /></clipPath><clipPath
       clipPathUnits="userSpaceOnUse"
       id="clipPath109"><path
         d="M 8.504,46.771 H 586.772 V 795.118 H 8.504 Z"
         transform="translate(-122.6482,-672.54671)"
         id="path109" /></clipPath><clipPath
       clipPathUnits="userSpaceOnUse"
       id="clipPath111"><path
         d="M 8.504,46.771 H 586.772 V 795.118 H 8.504 Z"
         transform="translate(-109.6413,-672.54671)"
         id="path111" /></clipPath><clipPath
       clipPathUnits="userSpaceOnUse"
       id="clipPath113"><path
         d="M 8.504,46.771 H 586.772 V 795.118 H 8.504 Z"
         transform="translate(-127.3782,-649.75882)"
         id="path113" /></clipPath><clipPath
       clipPathUnits="userSpaceOnUse"
       id="clipPath115"><path
         d="M 8.504,46.771 H 586.772 V 795.118 H 8.504 Z"
         transform="translate(-107.04291,-653.17952)"
         id="path115" /></clipPath><clipPath
       clipPathUnits="userSpaceOnUse"
       id="clipPath117"><path
         d="M 8.504,46.771 H 586.772 V 795.118 H 8.504 Z"
         transform="translate(-166.588,-517.29082)"
         id="path117" /></clipPath><clipPath
       clipPathUnits="userSpaceOnUse"
       id="clipPath119"><path
         d="M 8.504,46.771 H 586.772 V 795.118 H 8.504 Z"
         transform="translate(-156.85131,-520.28791)"
         id="path119" /></clipPath><clipPath
       clipPathUnits="userSpaceOnUse"
       id="clipPath121"><path
         d="M 8.504,46.771 H 586.772 V 795.118 H 8.504 Z"
         transform="translate(-193.7017,-301.39361)"
         id="path121" /></clipPath><clipPath
       clipPathUnits="userSpaceOnUse"
       id="clipPath123"><path
         d="M 8.504,46.771 H 586.772 V 795.118 H 8.504 Z"
         transform="translate(-173.3203,-462.80971)"
         id="path123" /></clipPath><clipPath
       clipPathUnits="userSpaceOnUse"
       id="clipPath125"><path
         d="M 8.504,46.771 H 586.772 V 795.118 H 8.504 Z"
         transform="translate(-52.987201,-462.80971)"
         id="path125" /></clipPath><clipPath
       clipPathUnits="userSpaceOnUse"
       id="clipPath127"><path
         d="M 8.504,46.771 H 586.772 V 795.118 H 8.504 Z"
         transform="translate(-171.2358,-515.29781)"
         id="path127" /></clipPath><clipPath
       clipPathUnits="userSpaceOnUse"
       id="clipPath129"><path
         d="M 8.504,46.771 H 586.772 V 795.118 H 8.504 Z"
         transform="translate(-55.210901,-515.43611)"
         id="path129" /></clipPath><clipPath
       clipPathUnits="userSpaceOnUse"
       id="clipPath131"><path
         d="M 8.504,46.771 H 586.772 V 795.118 H 8.504 Z"
         transform="translate(-505.81721,-421.69451)"
         id="path131" /></clipPath><clipPath
       clipPathUnits="userSpaceOnUse"
       id="clipPath133"><path
         d="M 8.504,46.771 H 586.772 V 795.118 H 8.504 Z"
         id="path133" /></clipPath><clipPath
       clipPathUnits="userSpaceOnUse"
       id="clipPath135"><path
         d="M 8.504,46.771 H 586.772 V 795.118 H 8.504 Z"
         id="path135" /></clipPath><clipPath
       clipPathUnits="userSpaceOnUse"
       id="clipPath137"><path
         d="M 8.504,46.771 H 586.772 V 795.118 H 8.504 Z"
         id="path137" /></clipPath><clipPath
       clipPathUnits="userSpaceOnUse"
       id="clipPath139"><path
         d="M 8.504,46.771 H 586.772 V 795.118 H 8.504 Z"
         id="path139" /></clipPath><clipPath
       clipPathUnits="userSpaceOnUse"
       id="clipPath141"><path
         d="M 8.504,46.771 H 586.772 V 795.118 H 8.504 Z"
         transform="translate(-472.85991,-545.75441)"
         id="path141" /></clipPath><clipPath
       clipPathUnits="userSpaceOnUse"
       id="clipPath143"><path
         d="M 8.504,46.771 H 586.772 V 795.118 H 8.504 Z"
         transform="translate(-468.87831,-580.77041)"
         id="path143" /></clipPath><clipPath
       clipPathUnits="userSpaceOnUse"
       id="clipPath145"><path
         d="M 8.504,46.771 H 586.772 V 795.118 H 8.504 Z"
         id="path145" /></clipPath><clipPath
       clipPathUnits="userSpaceOnUse"
       id="clipPath147"><path
         d="M 8.504,46.771 H 586.772 V 795.118 H 8.504 Z"
         id="path147" /></clipPath><clipPath
       clipPathUnits="userSpaceOnUse"
       id="clipPath149"><path
         d="M 8.504,46.771 H 586.772 V 795.118 H 8.504 Z"
         id="path149" /></clipPath><clipPath
       clipPathUnits="userSpaceOnUse"
       id="clipPath151"><path
         d="M 8.504,46.771 H 586.772 V 795.118 H 8.504 Z"
         id="path151" /></clipPath><clipPath
       clipPathUnits="userSpaceOnUse"
       id="clipPath153"><path
         d="M 8.504,46.771 H 586.772 V 795.118 H 8.504 Z"
         id="path153" /></clipPath><clipPath
       clipPathUnits="userSpaceOnUse"
       id="clipPath155"><path
         d="M 8.504,46.771 H 586.772 V 795.118 H 8.504 Z"
         id="path155" /></clipPath><clipPath
       clipPathUnits="userSpaceOnUse"
       id="clipPath157"><path
         d="M 8.504,46.771 H 586.772 V 795.118 H 8.504 Z"
         id="path157" /></clipPath><clipPath
       clipPathUnits="userSpaceOnUse"
       id="clipPath159"><path
         d="M 8.504,46.771 H 586.772 V 795.118 H 8.504 Z"
         id="path159" /></clipPath><clipPath
       clipPathUnits="userSpaceOnUse"
       id="clipPath161"><path
         d="M 8.504,46.771 H 586.772 V 795.118 H 8.504 Z"
         id="path161" /></clipPath><clipPath
       clipPathUnits="userSpaceOnUse"
       id="clipPath163"><path
         d="M 8.504,46.771 H 586.772 V 795.118 H 8.504 Z"
         id="path163" /></clipPath><clipPath
       clipPathUnits="userSpaceOnUse"
       id="clipPath165"><path
         d="M 8.504,46.771 H 586.772 V 795.118 H 8.504 Z"
         id="path165" /></clipPath><clipPath
       clipPathUnits="userSpaceOnUse"
       id="clipPath167"><path
         d="M 8.504,46.771 H 586.772 V 795.118 H 8.504 Z"
         id="path167" /></clipPath><clipPath
       clipPathUnits="userSpaceOnUse"
       id="clipPath169"><path
         d="M 8.504,46.771 H 586.772 V 795.118 H 8.504 Z"
         transform="translate(-418.65011,-578.42122)"
         id="path169" /></clipPath><clipPath
       clipPathUnits="userSpaceOnUse"
       id="clipPath171"><path
         d="M 8.504,46.771 H 586.772 V 795.118 H 8.504 Z"
         transform="translate(-529.51132,-578.42021)"
         id="path171" /></clipPath><clipPath
       clipPathUnits="userSpaceOnUse"
       id="clipPath173"><path
         d="M 8.504,46.771 H 586.772 V 795.118 H 8.504 Z"
         transform="translate(-419.65031,-756.97072)"
         id="path173" /></clipPath><clipPath
       clipPathUnits="userSpaceOnUse"
       id="clipPath175"><path
         d="M 8.504,46.771 H 586.772 V 795.118 H 8.504 Z"
         transform="translate(-527.37881,-758.76082)"
         id="path175" /></clipPath><clipPath
       clipPathUnits="userSpaceOnUse"
       id="clipPath177"><path
         d="M 8.504,46.771 H 586.772 V 795.118 H 8.504 Z"
         transform="translate(-412.90411,-612.19241)"
         id="path177" /></clipPath><clipPath
       clipPathUnits="userSpaceOnUse"
       id="clipPath179"><path
         d="M 8.504,46.771 H 586.772 V 795.118 H 8.504 Z"
         transform="translate(-149.0754,-103.01091)"
         id="path179" /></clipPath><clipPath
       clipPathUnits="userSpaceOnUse"
       id="clipPath181"><path
         d="M 8.504,46.771 H 586.772 V 795.118 H 8.504 Z"
         transform="translate(-117.3444,-228.28891)"
         id="path181" /></clipPath><clipPath
       clipPathUnits="userSpaceOnUse"
       id="clipPath183"><path
         d="M 8.504,46.771 H 586.772 V 795.118 H 8.504 Z"
         transform="translate(-121.3656,-263.6473)"
         id="path183" /></clipPath><clipPath
       clipPathUnits="userSpaceOnUse"
       id="clipPath185"><path
         d="M 8.504,46.771 H 586.772 V 795.118 H 8.504 Z"
         id="path185" /></clipPath><clipPath
       clipPathUnits="userSpaceOnUse"
       id="clipPath187"><path
         d="M 8.504,46.771 H 586.772 V 795.118 H 8.504 Z"
         id="path187" /></clipPath><clipPath
       clipPathUnits="userSpaceOnUse"
       id="clipPath189"><path
         d="M 8.504,46.771 H 586.772 V 795.118 H 8.504 Z"
         id="path189" /></clipPath><clipPath
       clipPathUnits="userSpaceOnUse"
       id="clipPath191"><path
         d="M 8.504,46.771 H 586.772 V 795.118 H 8.504 Z"
         transform="translate(-57.041602,-269.44851)"
         id="path191" /></clipPath><clipPath
       clipPathUnits="userSpaceOnUse"
       id="clipPath193"><path
         d="M 8.504,46.771 H 586.772 V 795.118 H 8.504 Z"
         transform="translate(-55.907602,-248.39811)"
         id="path193" /></clipPath><clipPath
       clipPathUnits="userSpaceOnUse"
       id="clipPath195"><path
         d="M 8.504,46.771 H 586.772 V 795.118 H 8.504 Z"
         transform="translate(-176.5084,-269.44851)"
         id="path195" /></clipPath><clipPath
       clipPathUnits="userSpaceOnUse"
       id="clipPath197"><path
         d="M 8.504,46.771 H 586.772 V 795.118 H 8.504 Z"
         transform="translate(-177.6433,-248.39811)"
         id="path197" /></clipPath><clipPath
       clipPathUnits="userSpaceOnUse"
       id="clipPath199"><path
         d="M 8.504,46.771 H 586.772 V 795.118 H 8.504 Z"
         transform="translate(-69.927701,-205.97811)"
         id="path199" /></clipPath><clipPath
       clipPathUnits="userSpaceOnUse"
       id="clipPath201"><path
         d="M 8.504,46.771 H 586.772 V 795.118 H 8.504 Z"
         transform="translate(-51.336401,-206.36011)"
         id="path201" /></clipPath><clipPath
       clipPathUnits="userSpaceOnUse"
       id="clipPath203"><path
         d="M 8.504,46.771 H 586.772 V 795.118 H 8.504 Z"
         transform="translate(-49.403301,-186.7362)"
         id="path203" /></clipPath><clipPath
       clipPathUnits="userSpaceOnUse"
       id="clipPath205"><path
         d="M 8.504,46.771 H 586.772 V 795.118 H 8.504 Z"
         transform="translate(-162.9238,-205.97811)"
         id="path205" /></clipPath><clipPath
       clipPathUnits="userSpaceOnUse"
       id="clipPath207"><path
         d="M 8.504,46.771 H 586.772 V 795.118 H 8.504 Z"
         transform="translate(-181.1257,-209.28331)"
         id="path207" /></clipPath><clipPath
       clipPathUnits="userSpaceOnUse"
       id="clipPath209"><path
         d="M 8.504,46.771 H 586.772 V 795.118 H 8.504 Z"
         transform="translate(-181.6074,-204.6133)"
         id="path209" /></clipPath><clipPath
       clipPathUnits="userSpaceOnUse"
       id="clipPath211"><path
         d="M 8.504,46.771 H 586.772 V 795.118 H 8.504 Z"
         transform="translate(-84.924902,-104.4688)"
         id="path211" /></clipPath><clipPath
       clipPathUnits="userSpaceOnUse"
       id="clipPath213"><path
         d="M 8.504,46.771 H 586.772 V 795.118 H 8.504 Z"
         transform="translate(-148.3243,-98.3206)"
         id="path213" /></clipPath><clipPath
       clipPathUnits="userSpaceOnUse"
       id="clipPath215"><path
         d="M 8.504,46.771 H 586.772 V 795.118 H 8.504 Z"
         transform="translate(-194.78961,-97.584302)"
         id="path215" /></clipPath><clipPath
       clipPathUnits="userSpaceOnUse"
       id="clipPath217"><path
         d="M 8.504,46.771 H 586.772 V 795.118 H 8.504 Z"
         transform="translate(-85.2673,-98.3206)"
         id="path217" /></clipPath><clipPath
       clipPathUnits="userSpaceOnUse"
       id="clipPath219"><path
         d="M 8.504,46.771 H 586.772 V 795.118 H 8.504 Z"
         transform="translate(-39.575201,-105.9415)"
         id="path219" /></clipPath><clipPath
       clipPathUnits="userSpaceOnUse"
       id="clipPath221"><path
         d="M 8.504,46.771 H 586.772 V 795.118 H 8.504 Z"
         transform="translate(-282.0952,-194.346)"
         id="path221" /></clipPath><clipPath
       clipPathUnits="userSpaceOnUse"
       id="clipPath223"><path
         d="M 8.504,46.771 H 586.772 V 795.118 H 8.504 Z"
         transform="translate(-285.99931,-160.01751)"
         id="path223" /></clipPath><clipPath
       clipPathUnits="userSpaceOnUse"
       id="clipPath225"><path
         d="M 8.504,46.771 H 586.772 V 795.118 H 8.504 Z"
         id="path225" /></clipPath><clipPath
       clipPathUnits="userSpaceOnUse"
       id="clipPath227"><path
         d="M 8.504,46.771 H 586.772 V 795.118 H 8.504 Z"
         transform="translate(-346.63601,-193.6687)"
         id="path227" /></clipPath><clipPath
       clipPathUnits="userSpaceOnUse"
       id="clipPath229"><path
         d="M 8.504,46.771 H 586.772 V 795.118 H 8.504 Z"
         transform="translate(-338.27231,-202.4164)"
         id="path229" /></clipPath><clipPath
       clipPathUnits="userSpaceOnUse"
       id="clipPath231"><path
         d="M 8.504,46.771 H 586.772 V 795.118 H 8.504 Z"
         transform="translate(-225.5296,-195.26241)"
         id="path231" /></clipPath><clipPath
       clipPathUnits="userSpaceOnUse"
       id="clipPath233"><path
         d="M 8.504,46.771 H 586.772 V 795.118 H 8.504 Z"
         transform="translate(-224.6743,-173.7828)"
         id="path233" /></clipPath><clipPath
       clipPathUnits="userSpaceOnUse"
       id="clipPath235"><path
         d="M 8.504,46.771 H 586.772 V 795.118 H 8.504 Z"
         transform="translate(-346.39701,-195.26241)"
         id="path235" /></clipPath><clipPath
       clipPathUnits="userSpaceOnUse"
       id="clipPath237"><path
         d="M 8.504,46.771 H 586.772 V 795.118 H 8.504 Z"
         transform="translate(-347.25341,-173.7828)"
         id="path237" /></clipPath><clipPath
       clipPathUnits="userSpaceOnUse"
       id="clipPath239"><path
         d="M 8.504,46.771 H 586.772 V 795.118 H 8.504 Z"
         transform="translate(-535.19992,-386.58611)"
         id="path239" /></clipPath><clipPath
       clipPathUnits="userSpaceOnUse"
       id="clipPath241"><path
         d="M 8.504,46.771 H 586.772 V 795.118 H 8.504 Z"
         transform="translate(-409.56021,-364.87321)"
         id="path241" /></clipPath><clipPath
       clipPathUnits="userSpaceOnUse"
       id="clipPath243"><path
         d="M 8.504,46.771 H 586.772 V 795.118 H 8.504 Z"
         transform="translate(-536.40322,-364.87321)"
         id="path243" /></clipPath><clipPath
       clipPathUnits="userSpaceOnUse"
       id="clipPath245"><path
         d="M 8.504,46.771 H 586.772 V 795.118 H 8.504 Z"
         transform="translate(-532.63012,-397.35351)"
         id="path245" /></clipPath><clipPath
       clipPathUnits="userSpaceOnUse"
       id="clipPath247"><path
         d="M 8.504,46.771 H 586.772 V 795.118 H 8.504 Z"
         id="path247" /></clipPath><clipPath
       clipPathUnits="userSpaceOnUse"
       id="clipPath249"><path
         d="M 8.504,46.771 H 586.772 V 795.118 H 8.504 Z"
         transform="translate(-468.11701,-385.53421)"
         id="path249" /></clipPath><clipPath
       clipPathUnits="userSpaceOnUse"
       id="clipPath251"><path
         d="M 8.504,46.771 H 586.772 V 795.118 H 8.504 Z"
         transform="translate(-462.95151,-385.50751)"
         id="path251" /></clipPath><clipPath
       clipPathUnits="userSpaceOnUse"
       id="clipPath253"><path
         d="M 8.504,46.771 H 586.772 V 795.118 H 8.504 Z"
         transform="translate(-457.78521,-385.48071)"
         id="path253" /></clipPath><clipPath
       clipPathUnits="userSpaceOnUse"
       id="clipPath255"><path
         d="M 8.504,46.771 H 586.772 V 795.118 H 8.504 Z"
         transform="translate(-452.61781,-385.45401)"
         id="path255" /></clipPath><clipPath
       clipPathUnits="userSpaceOnUse"
       id="clipPath257"><path
         d="M 8.504,46.771 H 586.772 V 795.118 H 8.504 Z"
         transform="translate(-447.44961,-385.42721)"
         id="path257" /></clipPath><clipPath
       clipPathUnits="userSpaceOnUse"
       id="clipPath259"><path
         d="M 8.504,46.771 H 586.772 V 795.118 H 8.504 Z"
         transform="translate(-442.28041,-385.40141)"
         id="path259" /></clipPath><clipPath
       clipPathUnits="userSpaceOnUse"
       id="clipPath261"><path
         d="M 8.504,46.771 H 586.772 V 795.118 H 8.504 Z"
         transform="translate(-437.11031,-385.37561)"
         id="path261" /></clipPath><clipPath
       clipPathUnits="userSpaceOnUse"
       id="clipPath263"><path
         d="M 8.504,46.771 H 586.772 V 795.118 H 8.504 Z"
         transform="translate(-431.94021,-385.35061)"
         id="path263" /></clipPath><clipPath
       clipPathUnits="userSpaceOnUse"
       id="clipPath265"><path
         d="M 8.504,46.771 H 586.772 V 795.118 H 8.504 Z"
         transform="translate(-426.76921,-385.32661)"
         id="path265" /></clipPath><clipPath
       clipPathUnits="userSpaceOnUse"
       id="clipPath267"><path
         d="M 8.504,46.771 H 586.772 V 795.118 H 8.504 Z"
         transform="translate(-421.59821,-385.30261)"
         id="path267" /></clipPath><clipPath
       clipPathUnits="userSpaceOnUse"
       id="clipPath269"><path
         d="M 8.504,46.771 H 586.772 V 795.118 H 8.504 Z"
         transform="translate(-416.42631,-385.27961)"
         id="path269" /></clipPath><clipPath
       clipPathUnits="userSpaceOnUse"
       id="clipPath271"><path
         d="M 8.504,46.771 H 586.772 V 795.118 H 8.504 Z"
         transform="translate(-476.89961,-385.53421)"
         id="path271" /></clipPath><clipPath
       clipPathUnits="userSpaceOnUse"
       id="clipPath273"><path
         d="M 8.504,46.771 H 586.772 V 795.118 H 8.504 Z"
         transform="translate(-482.06501,-385.50751)"
         id="path273" /></clipPath><clipPath
       clipPathUnits="userSpaceOnUse"
       id="clipPath275"><path
         d="M 8.504,46.771 H 586.772 V 795.118 H 8.504 Z"
         transform="translate(-487.23241,-385.48071)"
         id="path275" /></clipPath><clipPath
       clipPathUnits="userSpaceOnUse"
       id="clipPath277"><path
         d="M 8.504,46.771 H 586.772 V 795.118 H 8.504 Z"
         transform="translate(-492.39881,-385.45401)"
         id="path277" /></clipPath><clipPath
       clipPathUnits="userSpaceOnUse"
       id="clipPath279"><path
         d="M 8.504,46.771 H 586.772 V 795.118 H 8.504 Z"
         transform="translate(-497.56711,-385.42721)"
         id="path279" /></clipPath><clipPath
       clipPathUnits="userSpaceOnUse"
       id="clipPath281"><path
         d="M 8.504,46.771 H 586.772 V 795.118 H 8.504 Z"
         transform="translate(-502.73621,-385.40141)"
         id="path281" /></clipPath><clipPath
       clipPathUnits="userSpaceOnUse"
       id="clipPath283"><path
         d="M 8.504,46.771 H 586.772 V 795.118 H 8.504 Z"
         transform="translate(-507.90631,-385.37561)"
         id="path283" /></clipPath><clipPath
       clipPathUnits="userSpaceOnUse"
       id="clipPath285"><path
         d="M 8.504,46.771 H 586.772 V 795.118 H 8.504 Z"
         transform="translate(-513.07651,-385.35061)"
         id="path285" /></clipPath><clipPath
       clipPathUnits="userSpaceOnUse"
       id="clipPath287"><path
         d="M 8.504,46.771 H 586.772 V 795.118 H 8.504 Z"
         transform="translate(-518.24741,-385.32661)"
         id="path287" /></clipPath><clipPath
       clipPathUnits="userSpaceOnUse"
       id="clipPath289"><path
         d="M 8.504,46.771 H 586.772 V 795.118 H 8.504 Z"
         transform="translate(-523.41931,-385.30261)"
         id="path289" /></clipPath><clipPath
       clipPathUnits="userSpaceOnUse"
       id="clipPath291"><path
         d="M 8.504,46.771 H 586.772 V 795.118 H 8.504 Z"
         transform="translate(-528.59131,-385.27961)"
         id="path291" /></clipPath><clipPath
       clipPathUnits="userSpaceOnUse"
       id="clipPath293"><path
         d="M 8.504,46.771 H 586.772 V 795.118 H 8.504 Z"
         transform="translate(-473.13581,-384.67611)"
         id="path293" /></clipPath><clipPath
       clipPathUnits="userSpaceOnUse"
       id="clipPath295"><path
         d="M 8.504,46.771 H 586.772 V 795.118 H 8.504 Z"
         transform="translate(-479.57741,-392.61441)"
         id="path295" /></clipPath><clipPath
       clipPathUnits="userSpaceOnUse"
       id="clipPath297"><path
         d="M 8.504,46.771 H 586.772 V 795.118 H 8.504 Z"
         transform="translate(-472.62181,-384.67611)"
         id="path297" /></clipPath><clipPath
       clipPathUnits="userSpaceOnUse"
       id="clipPath299"><path
         d="M 8.504,46.771 H 586.772 V 795.118 H 8.504 Z"
         transform="translate(-466.18111,-392.61441)"
         id="path299" /></clipPath><clipPath
       clipPathUnits="userSpaceOnUse"
       id="clipPath301"><path
         d="M 8.504,46.771 H 586.772 V 795.118 H 8.504 Z"
         transform="translate(-484.44951,-369.14281)"
         id="path301" /></clipPath><clipPath
       clipPathUnits="userSpaceOnUse"
       id="clipPath303"><path
         d="M 8.504,46.771 H 586.772 V 795.118 H 8.504 Z"
         transform="translate(-463.50431,-372.66581)"
         id="path303" /></clipPath><clipPath
       clipPathUnits="userSpaceOnUse"
       id="clipPath324"><path
         d="M 8.504,46.771 H 586.772 V 795.118 H 8.504 Z"
         transform="translate(-399.02071,-173.5264)"
         id="path324" /></clipPath><clipPath
       clipPathUnits="userSpaceOnUse"
       id="clipPath326"><path
         d="M 8.504,46.771 H 586.772 V 795.118 H 8.504 Z"
         transform="translate(-399.02071,-174.2701)"
         id="path326" /></clipPath><clipPath
       clipPathUnits="userSpaceOnUse"
       id="clipPath328"><path
         d="M 8.504,46.771 H 586.772 V 795.118 H 8.504 Z"
         transform="translate(-408.43451,-180.48561)"
         id="path328" /></clipPath><clipPath
       clipPathUnits="userSpaceOnUse"
       id="clipPath330"><path
         d="M 8.504,46.771 H 586.772 V 795.118 H 8.504 Z"
         transform="translate(-448.38061,-136.25241)"
         id="path330" /></clipPath><clipPath
       clipPathUnits="userSpaceOnUse"
       id="clipPath332"><path
         d="M 8.504,46.771 H 586.772 V 795.118 H 8.504 Z"
         transform="translate(-514.07482,-64.246727)"
         id="path332" /></clipPath><clipPath
       clipPathUnits="userSpaceOnUse"
       id="clipPath334"><path
         d="M 8.504,46.771 H 586.772 V 795.118 H 8.504 Z"
         transform="translate(-502.74181,-180.8197)"
         id="path334" /></clipPath></defs><g
     id="layer1"
     transform="rotate(90,61.279475,36.698645)"
     style="display:inline"><path
       id="body"
       class="st0"
       d="m 142.90619,77.62891 c -0.56304,0 -1.09088,-0.07038 -1.61873,-0.211138 -11.15509,-3.096683 -21.11375,-11.366234 -27.48305,-17.805928 -4.85616,-4.856162 -7.49539,-11.331047 -7.49539,-18.228205 v -18.5801 c 0,-6.897157 2.67441,-13.3720404 7.49539,-18.2282029 6.3693,-6.4045054 16.29277,-14.7092471 27.44787,-17.7707401 0.52784,-0.140759 1.09087,-0.211138 1.61872,-0.211138 2.81517,0 5.27844,1.865048 5.94704,4.5394564 0.1056,0.4574646 0.17595,0.9501188 0.17595,1.442773 0,2.7095979 -1.82986,5.10249 -4.43389,5.8062808 -10.16979,2.779978 -19.53022,11.6477528 -24.21043,16.6798638 l -0.0352,0.03519 96.5954,-9.4308076 c 0.24633,-0.035192 0.49266,-0.035192 0.73898,-0.035192 3.44857,0 6.33413,2.6040283 6.72121,6.0174186 0.0352,0.246327 0.0352,0.492654 0.0352,0.738982 0,1.090876 -0.28152,2.181753 -0.77418,3.131872 -0.98531,2.181754 -3.06149,3.730096 -5.45439,3.976423 l -5.80627,0.633413 -46.09836,7.952845 v 7.460192 l 52.11577,8.727016 c 3.44859,0.387086 6.01743,3.272631 6.01743,6.721211 0,0.246326 0,0.492654 -0.0352,0.738981 -0.1056,0.84455 -0.35189,1.653911 -0.73899,2.392892 -1.09086,2.46327 -3.51895,4.046802 -6.19335,4.046802 -0.24633,0 -0.49266,0 -0.73899,-0.03519 l -16.2224,-1.75948 -79.63403,-6.68602 0.0353,0.03519 c 5.55996,5.91185 14.1814,13.5128 23.6474,16.081639 2.60403,0.703792 4.43389,3.096684 4.43389,5.806281 0,0.598223 -0.0704,1.196447 -0.24633,1.75948 -0.73898,2.53365 -3.13187,4.257939 -5.80628,4.257939 z"
       style="fill:none;stroke:#000000;stroke-width:0.351895;stroke-miterlimit:10" /><g
       id="shorts"
       transform="matrix(0.35189583,0,0,0.35189583,34.067726,-154.44641)"
       style="display:none">
	<line
   id="pants_top"
   class="st1"
   x1="340.89999"
   y1="472.60001"
   x2="340.89999"
   y2="587.5"
   style="fill:none;stroke:#3265ae;stroke-miterlimit:10" />
	<line
   id="pants_leg"
   class="st1"
   x1="400.10001"
   y1="543.40002"
   x2="392.29999"
   y2="592"
   style="fill:none;stroke:#3265ae;stroke-miterlimit:10" />
	
		<line
   id="pants_leg_00000154399437059703933320000012751104359486683782_"
   class="st1"
   x1="394"
   y1="467.60001"
   x2="400.10001"
   y2="515.20001"
   style="fill:none;stroke:#3265ae;stroke-miterlimit:10" />
</g><g
       id="bra"
       transform="matrix(0.35189583,0,0,0.35189583,32.692413,-154.44641)">
	<path
   class="st2"
   d="m 271.2,581.8 c 14.5,-19.2 13.3,-78.1 0.7,-102.3"
   id="path1"
   style="fill:none;stroke:#b74e97;stroke-miterlimit:10" />
	<line
   class="st2"
   x1="249.3"
   y1="481.70001"
   x2="211.3"
   y2="485.20001"
   id="line1"
   style="fill:none;stroke:#b74e97;stroke-miterlimit:10" />
	<line
   class="st2"
   x1="251.10001"
   y1="580.20001"
   x2="212"
   y2="576.90002"
   id="line2"
   style="fill:none;stroke:#b74e97;stroke-miterlimit:10" />
	<path
   class="st2"
   d="m 210.7,571.8 c 54.9,-25.7 51.2,-60.3 -0.4,-81.6"
   id="path2"
   style="fill:none;stroke:#b74e97;stroke-miterlimit:10" />
</g><g
       id="panties"
       transform="matrix(0.35189583,0,0,0.35189583,32.692413,-154.44641)">
	<path
   class="st2"
   d="m 317.9,475 c 0,0 22.1,15.5 22.1,55.1 0,39.6 -22.2,55.6 -22.2,55.6"
   id="path3"
   style="fill:none;stroke:#b74e97;stroke-miterlimit:10" />
	<line
   class="st2"
   x1="347.79999"
   y1="472.10001"
   x2="379.60001"
   y2="518.79999"
   id="line3"
   style="fill:none;stroke:#b74e97;stroke-miterlimit:10" />
	<line
   class="st2"
   x1="379.60001"
   y1="539.90002"
   x2="347.79999"
   y2="588.29999"
   id="line4"
   style="fill:none;stroke:#b74e97;stroke-miterlimit:10" />
</g><g
       id="short_hair_ears"
       transform="matrix(0.35189583,0,0,0.35189583,34.067726,-154.44641)"
       style="display:none">
	<path
   id="ear_00000134244838907327822830000000210152333635462027_"
   class="st1"
   d="m 145.3,464 c -9.2,-0.3 -16.5,-5.4 -16.3,-11.4 0.2,-6 7.8,-10.7 17,-10.4 9.2,0.3 16.5,5.4 16.3,11.4 -0.2,6 -7.8,10.7 -17,10.4 z"
   style="fill:none;stroke:#3265ae;stroke-miterlimit:10" />
	<path
   id="ear"
   class="st1"
   d="m 152,595.8 c -9.1,1.2 -15.9,7 -15.1,12.9 0.8,6 8.8,9.9 17.9,8.7 9.1,-1.2 15.9,-7 15.1,-12.9 -0.8,-6 -8.8,-9.9 -17.9,-8.7 z"
   style="fill:none;stroke:#3265ae;stroke-miterlimit:10" />
</g><g
       id="long_hair_ponytails"
       transform="matrix(0.35189583,0,0,0.35189583,32.692413,-154.44641)">
	<path
   id="ponytail_00000018920695854897356630000017633903483718003903_"
   class="st2"
   d="m 160.7,446.9 c 1.1,-3 2.8,-5.8 4.8,-8.3 3.1,-3.8 7,-6.9 9.8,-10.9 2.8,-4 4.3,-9.5 2.1,-13.8 -0.4,-0.8 -0.9,-1.6 -0.5,-2.4 0.4,-0.8 1.5,-1 2.4,-0.9 3.3,0.2 6.5,1.6 9.2,3.7 5.6,4.4 8.9,11.5 9.2,18.6 0.3,7.1 -2.1,14.2 -6.2,20.1 -2.7,3.9 -6.1,7.3 -10.3,9.5 -6.2,3.2 -16.2,3.8 -20,-3.3 -1.3,-2.4 -1.6,-5.3 -1.3,-8.1 0,-1.5 0.3,-2.9 0.8,-4.2"
   style="fill:none;stroke:#b74e97;stroke-miterlimit:10" />
	<path
   id="ponytail"
   class="st2"
   d="m 164.7,614.7 c 2,3.2 5,5.9 8.1,8.1 4.2,3 8.9,5.3 12.3,9.2 3,3.4 4.6,8.5 2.8,12.5 -0.3,0.8 0.2,1.7 1.1,1.7 6.1,-0.4 11.1,-5.9 13.3,-11.8 7.5,-20.2 -9.6,-33.2 -15.5,-37 -10.5,-6.8 -29.3,-2.2 -24.1,13.3 0.5,1.4 1.2,2.7 2,4"
   style="fill:none;stroke:#b74e97;stroke-miterlimit:10" />
</g><path
       id="head"
       class="st3"
       d="M 84.737807,59.013621 C 70.134129,59.752602 57.677016,48.280797 56.938035,33.430794 56.199054,18.580789 67.424532,5.9477299 82.028208,5.2087486 96.631885,4.4697674 109.089,15.941571 109.82798,30.791575 110.56696,45.641579 99.341491,58.274639 84.737807,59.013621 Z"
       style="fill:#ffffff;stroke:#000000;stroke-width:0.351895;stroke-miterlimit:10" /><path
       id="mouth"
       class="st0"
       d="m 96.455937,41.031744 0.211137,-3.272631 c 0.281517,-4.22275 -0.03519,-8.4455 -0.914928,-12.562681 l -0.879741,-4.25794 c -0.03519,-0.387085 0.316707,-0.668603 0.703792,-0.563034 2.111375,0.633413 7.988043,2.955925 8.515893,9.923463 0.56303,7.002728 -4.891357,10.204979 -6.861982,11.155098 -0.351896,0.211138 -0.738981,-0.03519 -0.774171,-0.422275 z"
       style="fill:none;stroke:#000000;stroke-width:0.351895;stroke-miterlimit:10" /><path
       id="nose"
       class="st0"
       d="m 92.796221,31.530557 c 0.527843,0.84455 0.281516,1.970617 -0.563034,2.49846 -0.84455,0.527844 -1.970616,0.281516 -2.49846,-0.563034"
       style="fill:none;stroke:#000000;stroke-width:0.351895;stroke-miterlimit:10" /><path
       id="short_hair"
       class="st4"
       d="m 61.410032,13.161594 c -4.152372,5.243248 -6.404504,12.492302 -6.615642,18.931995 -0.175948,5.348818 0.105562,8.938155 2.428081,13.970265 2.252133,4.926542 7.037917,8.551068 11.471805,10.768012 4.011612,2.005806 10.06422,3.167063 14.920383,1.829859 2.005806,-0.563034 4.187559,-1.6891 4.680214,-3.765286 -2.991114,0.457465 -5.806281,-0.457464 -8.621447,-1.442773 -0.774172,-0.281516 -1.583531,-0.563033 -2.357703,-0.84455 1.900237,-2.322512 3.272631,-5.348816 3.976423,-8.551069 0.140758,-0.598222 1.513152,-8.058414 1.442774,-8.058414 -2.040997,0.175949 -4.046803,0.738981 -5.876661,1.653911 1.935426,-5.806281 4.293129,-11.436614 7.108295,-16.82062 -2.322512,0.84455 -4.680214,2.111375 -6.404503,3.976422 0.211137,-2.744788 1.442772,-7.178675 2.674408,-9.606757 C 82.523782,10.663133 85.057432,8.094294 89.35056,5.5958332 88.083735,3.8011657 67.603398,5.3846957 61.410032,13.161594 Z"
       style="display:none;fill:#ffffff;stroke:#3265ae;stroke-width:0.351895;stroke-miterlimit:10" /><g
       id="long_hair"
       transform="matrix(0.35189583,0,0,0.35189583,32.692413,-154.44641)">
	<path
   class="st5"
   d="m 109.8,542.4 c 8.9,-9.8 10.6,-20.8 10.8,-33.5 -4.7,5.2 -6.8,5.4 -6.8,5.4 7.3,-9.9 15.6,-24.5 15.3,-36.7 -0.8,1.1 -5.7,5.4 -5.7,5.4 2.3,-8.4 11.4,-16.9 19.3,-20.5 7.9,-3.6 18.3,-3 26.9,-4.2 -8.3,-3.5 -18.8,-5.9 -27.8,-6.7 -11.4,-1.1 -21.7,1.4 -32.5,5.1 -21.3,7.4 -58.2,41 -41.5,93.3 2.4,7.7 6.7,14.9 6.7,14.9 0,0 21.9,-7.8 35.3,-22.5 z"
   id="path4"
   style="fill:#ffffff;stroke:#b74e97;stroke-miterlimit:10" />
	<path
   class="st5"
   d="m 63.8,519.2 c 8.2,-3.8 41.1,7.1 51.4,22.7 5.4,8.2 8.9,17.4 11.8,26.8 1.6,5.1 3,10.3 5.5,15.1 9,16.9 20,17.8 37.2,18.3 C 103.2,623.9 59,589.7 63.8,519.2 Z"
   id="path5"
   style="fill:#ffffff;stroke:#b74e97;stroke-miterlimit:10" />
</g><path
       id="eye_00000077303645340664995420000007728925370770267787_"
       class="st0"
       d="m 88.890177,21.114439 c 0.07038,1.372394 -0.985309,2.53365 -2.357703,2.60403 -1.372392,0.07038 -2.533649,-0.985308 -2.604028,-2.357702 -0.07038,-1.372393 0.985308,-2.53365 2.357701,-2.604029 1.372394,-0.07038 2.53365,0.985308 2.60403,2.357701"
       style="fill:none;stroke:#000000;stroke-width:0.351895;stroke-miterlimit:10" /><path
       id="pupil"
       class="st0"
       d="m 85.652735,22.803539 c -0.598222,0.03519 -1.126066,-0.422275 -1.161256,-1.055687 -0.03519,-0.598222 0.422275,-1.126066 1.055687,-1.161256 0.598223,-0.03519 1.126067,0.422275 1.161256,1.055687 0,0.633413 -0.457464,1.126067 -1.055687,1.161256"
       style="fill:none;stroke:#000000;stroke-width:0.351895;stroke-miterlimit:10" /><path
       id="eye"
       class="st0"
       d="m 88.890177,42.826413 c 0.07038,1.372394 -0.985309,2.53365 -2.357703,2.604028 -1.372392,0.07038 -2.533649,-0.985308 -2.604028,-2.357702 -0.07038,-1.372393 0.985308,-2.53365 2.357701,-2.604029 1.372394,-0.03519 2.53365,1.020498 2.60403,2.357703"
       style="fill:none;stroke:#000000;stroke-width:0.351895;stroke-miterlimit:10" /><path
       id="pupil_00000149367124268036342930000001570494510261434269_"
       class="st0"
       d="m 85.652735,43.530204 c -0.598222,0.03519 -1.126066,-0.422275 -1.161256,-1.055688 -0.03519,-0.598222 0.422275,-1.126066 1.055687,-1.161256 0.598223,-0.03519 1.126067,0.422275 1.161256,1.055687 0,0.633413 -0.457464,1.126067 -1.055687,1.161257 z"
       style="fill:none;stroke:#000000;stroke-width:0.351895;stroke-miterlimit:10" /></g><g
     id="g25"
     transform="rotate(90,102.59197,78.011141)"
     style="display:inline"><path
       id="path6"
       class="st0"
       d="m 116.25584,-13.406544 c 0.56304,0 1.09087,0.07038 1.61873,0.211138 11.15509,3.096683 21.11375,11.3662339 27.48305,17.8059259 4.85616,4.85616 7.49539,11.3310501 7.49539,18.2282101 v 18.5801 c 0,6.89715 -2.6744,13.37204 -7.49539,18.2282 -6.3693,6.40451 -16.29277,14.70925 -27.44788,17.77074 -0.52783,0.14076 -1.09086,0.21114 -1.61871,0.21114 -2.81517,0 -5.27844,-1.86505 -5.94704,-4.53946 -0.10561,-0.45746 -0.17595,-0.95012 -0.17595,-1.44277 0,-2.7096 1.82985,-5.10249 4.43389,-5.80628 10.16979,-2.77998 19.53022,-11.64776 24.21043,-16.67987 l 0.0352,-0.0352 -96.595393,9.43081 c -0.24633,0.0352 -0.49266,0.0352 -0.73899,0.0352 -3.44857,0 -6.33412,-2.60402 -6.7212,-6.01742 -0.0352,-0.24632 -0.0352,-0.49265 -0.0352,-0.73898 0,-1.09087 0.28152,-2.18175 0.77418,-3.13187 0.9853,-2.18175 3.06149,-3.7301 5.45438,-3.97642 l 5.80628,-0.63342 46.098354,-7.95284 V 28.6802 L 40.774207,19.95318 c -3.44859,-0.38708 -6.01743,-3.27263 -6.01743,-6.72121 0,-0.24633 0,-0.49265 0.0352,-0.73898 0.1056,-0.84455 0.35189,-1.65391 0.73898,-2.39289 1.09087,-2.4632701 3.51896,-4.0468001 6.19336,-4.0468001 0.24633,0 0.49266,0 0.73899,0.0352 l 16.222388,1.75948 79.634025,6.6860201 -0.0352,-0.0352 c -5.55996,-5.9118501 -14.18141,-13.51280409 -23.6474,-16.0816431 -2.60403,-0.703792 -4.43389,-3.096684 -4.43389,-5.806281 0,-0.598223 0.0704,-1.196447 0.24633,-1.75948 0.73898,-2.5336499 3.13187,-4.2579389 5.80628,-4.2579389 z"
       style="fill:none;stroke:#000000;stroke-width:0.351895;stroke-miterlimit:10" /><g
       id="g8"
       transform="matrix(-0.35189583,0,0,-0.35189583,226.46962,218.66878)"
       style="display:none">
	<line
   id="line6"
   class="st1"
   x1="340.89999"
   y1="472.60001"
   x2="340.89999"
   y2="587.5"
   style="fill:none;stroke:#3265ae;stroke-miterlimit:10" />
	<line
   id="line7"
   class="st1"
   x1="400.10001"
   y1="543.40002"
   x2="392.29999"
   y2="592"
   style="fill:none;stroke:#3265ae;stroke-miterlimit:10" />
	
		<line
   id="line8"
   class="st1"
   x1="394"
   y1="467.60001"
   x2="400.10001"
   y2="515.20001"
   style="fill:none;stroke:#3265ae;stroke-miterlimit:10" />
</g><g
       id="g10"
       transform="matrix(-0.35189583,0,0,-0.35189583,226.42557,218.66878)"
       style="display:inline">
	<path
   class="st2"
   d="m 271.2,581.8 c 14.5,-19.2 13.3,-78.1 0.7,-102.3"
   id="path8"
   style="fill:none;stroke:#b74e97;stroke-miterlimit:10" />
	<line
   class="st2"
   x1="249.3"
   y1="481.70001"
   x2="211.3"
   y2="485.20001"
   id="line9"
   style="fill:none;stroke:#b74e97;stroke-miterlimit:10" />
	<line
   class="st2"
   x1="251.10001"
   y1="580.20001"
   x2="212"
   y2="576.90002"
   id="line10"
   style="fill:none;stroke:#b74e97;stroke-miterlimit:10" />
	<path
   class="st2"
   d="m 210.7,571.8 c 54.9,-25.7 51.2,-60.3 -0.4,-81.6"
   id="path10"
   style="fill:none;stroke:#b74e97;stroke-miterlimit:10" />
</g><g
       id="g12"
       transform="matrix(-0.35189583,0,0,-0.35189583,226.42557,218.66878)"
       style="display:inline">
	<path
   class="st2"
   d="m 317.9,475 c 0,0 22.1,15.5 22.1,55.1 0,39.6 -22.2,55.6 -22.2,55.6"
   id="path11"
   style="fill:none;stroke:#b74e97;stroke-miterlimit:10" />
	<line
   class="st2"
   x1="347.79999"
   y1="472.10001"
   x2="379.60001"
   y2="518.79999"
   id="line11"
   style="fill:none;stroke:#b74e97;stroke-miterlimit:10" />
	<line
   class="st2"
   x1="379.60001"
   y1="539.90002"
   x2="347.79999"
   y2="588.29999"
   id="line12"
   style="fill:none;stroke:#b74e97;stroke-miterlimit:10" />
</g><g
       id="g13"
       transform="matrix(-0.35189583,0,0,-0.35189583,226.46962,218.66878)"
       style="display:inline">
	<path
   id="path12"
   class="st1"
   d="m 145.3,464 c -9.2,-0.3 -16.5,-5.4 -16.3,-11.4 0.2,-6 7.8,-10.7 17,-10.4 9.2,0.3 16.5,5.4 16.3,11.4 -0.2,6 -7.8,10.7 -17,10.4 z"
   style="fill:none;stroke:#3265ae;stroke-miterlimit:10" />
	<path
   id="path13"
   class="st1"
   d="m 152,595.8 c -9.1,1.2 -15.9,7 -15.1,12.9 0.8,6 8.8,9.9 17.9,8.7 9.1,-1.2 15.9,-7 15.1,-12.9 -0.8,-6 -8.8,-9.9 -17.9,-8.7 z"
   style="fill:none;stroke:#3265ae;stroke-miterlimit:10" />
</g><g
       id="g15"
       transform="matrix(-0.35189583,0,0,-0.35189583,225.09431,218.66878)"
       style="display:none">
	<path
   id="path14"
   class="st2"
   d="m 160.7,446.9 c 1.1,-3 2.8,-5.8 4.8,-8.3 3.1,-3.8 7,-6.9 9.8,-10.9 2.8,-4 4.3,-9.5 2.1,-13.8 -0.4,-0.8 -0.9,-1.6 -0.5,-2.4 0.4,-0.8 1.5,-1 2.4,-0.9 3.3,0.2 6.5,1.6 9.2,3.7 5.6,4.4 8.9,11.5 9.2,18.6 0.3,7.1 -2.1,14.2 -6.2,20.1 -2.7,3.9 -6.1,7.3 -10.3,9.5 -6.2,3.2 -16.2,3.8 -20,-3.3 -1.3,-2.4 -1.6,-5.3 -1.3,-8.1 0,-1.5 0.3,-2.9 0.8,-4.2"
   style="fill:none;stroke:#b74e97;stroke-miterlimit:10" />
	<path
   id="path15"
   class="st2"
   d="m 164.7,614.7 c 2,3.2 5,5.9 8.1,8.1 4.2,3 8.9,5.3 12.3,9.2 3,3.4 4.6,8.5 2.8,12.5 -0.3,0.8 0.2,1.7 1.1,1.7 6.1,-0.4 11.1,-5.9 13.3,-11.8 7.5,-20.2 -9.6,-33.2 -15.5,-37 -10.5,-6.8 -29.3,-2.2 -24.1,13.3 0.5,1.4 1.2,2.7 2,4"
   style="fill:none;stroke:#b74e97;stroke-miterlimit:10" />
</g><path
       id="path16"
       class="st3"
       d="M 174.42423,5.2087399 C 189.02791,4.4697599 201.48502,15.94157 202.224,30.79157 202.96298,45.64158 191.7375,58.27464 177.13383,59.01362 162.53015,59.7526 150.07303,48.28079 149.33405,33.43079 148.59506,18.58079 159.82054,5.9477299 174.42423,5.2087399 Z"
       style="fill:#ffffff;stroke:#000000;stroke-width:0.351895;stroke-miterlimit:10" /><path
       id="path17"
       class="st0"
       d="m 162.7061,23.19062 -0.21114,3.27263 c -0.28152,4.22275 0.0352,8.4455 0.91493,12.56268 l 0.87974,4.25794 c 0.0352,0.38709 -0.31671,0.66861 -0.70379,0.56304 -2.11138,-0.63342 -7.98804,-2.95593 -8.51589,-9.92347 -0.56303,-7.00272 4.89135,-10.20497 6.86198,-11.15509 0.35189,-0.21114 0.73898,0.0352 0.77417,0.42227 z"
       style="fill:none;stroke:#000000;stroke-width:0.351895;stroke-miterlimit:10" /><path
       id="path18"
       class="st0"
       d="m 166.36581,32.69181 c -0.52784,-0.84455 -0.28151,-1.97062 0.56304,-2.49846 0.84455,-0.52785 1.97061,-0.28152 2.49846,0.56303"
       style="fill:none;stroke:#000000;stroke-width:0.351895;stroke-miterlimit:10" /><path
       id="path19"
       class="st4"
       d="m 199.12732,13.22017 c 4.15237,5.24325 6.4045,12.4923 6.61564,18.93199 0.17595,5.34882 -0.10556,8.93816 -2.42808,13.97027 -2.25214,4.92654 -7.03792,8.55107 -11.47181,10.76801 -4.01161,2.00581 -10.06422,3.16706 -14.92038,1.82986 -2.00581,-0.56304 -4.18756,-1.6891 -4.68021,-3.76529 2.99111,0.45747 5.80628,-0.45746 8.62144,-1.44277 0.77417,-0.28152 1.58353,-0.56303 2.35771,-0.84455 -1.90024,-2.32251 -3.27264,-5.34882 -3.97643,-8.55107 -0.14076,-0.59822 -1.51315,-8.05841 -1.44277,-8.05841 2.041,0.17594 4.0468,0.73898 5.87666,1.65391 -1.93543,-5.80628 -4.29313,-11.43662 -7.1083,-16.82062 2.32252,0.84455 4.68022,2.11137 6.40451,3.97642 -0.21114,-2.74479 -1.44277,-7.17868 -2.67441,-9.60676 -2.28732,-4.53945 -4.82097,-7.1082901 -9.1141,-9.6067501 1.26682,-1.79467 21.74716,-0.21114 27.94053,7.5657601 z"
       style="fill:#ffffff;stroke:#3265ae;stroke-width:0.351895;stroke-miterlimit:10" /><g
       id="g21"
       transform="matrix(-0.35189583,0,0,-0.35189583,225.09431,218.66878)"
       style="display:none">
	<path
   class="st5"
   d="m 109.8,542.4 c 8.9,-9.8 10.6,-20.8 10.8,-33.5 -4.7,5.2 -6.8,5.4 -6.8,5.4 7.3,-9.9 15.6,-24.5 15.3,-36.7 -0.8,1.1 -5.7,5.4 -5.7,5.4 2.3,-8.4 11.4,-16.9 19.3,-20.5 7.9,-3.6 18.3,-3 26.9,-4.2 -8.3,-3.5 -18.8,-5.9 -27.8,-6.7 -11.4,-1.1 -21.7,1.4 -32.5,5.1 -21.3,7.4 -58.2,41 -41.5,93.3 2.4,7.7 6.7,14.9 6.7,14.9 0,0 21.9,-7.8 35.3,-22.5 z"
   id="path20"
   style="fill:#ffffff;stroke:#b74e97;stroke-miterlimit:10" />
	<path
   class="st5"
   d="m 63.8,519.2 c 8.2,-3.8 41.1,7.1 51.4,22.7 5.4,8.2 8.9,17.4 11.8,26.8 1.6,5.1 3,10.3 5.5,15.1 9,16.9 20,17.8 37.2,18.3 C 103.2,623.9 59,589.7 63.8,519.2 Z"
   id="path21"
   style="fill:#ffffff;stroke:#b74e97;stroke-miterlimit:10" />
</g><path
       id="path22"
       class="st0"
       d="m 170.27186,43.10793 c -0.0704,-1.3724 0.98531,-2.53365 2.3577,-2.60403 1.37239,-0.0704 2.53365,0.9853 2.60403,2.3577 0.0704,1.37239 -0.98531,2.53365 -2.3577,2.60403 -1.3724,0.0704 -2.53365,-0.98531 -2.60403,-2.3577"
       style="fill:none;stroke:#000000;stroke-width:0.351895;stroke-miterlimit:10" /><path
       id="path23"
       class="st0"
       d="m 173.5093,41.41883 c 0.59822,-0.0352 1.12607,0.42227 1.16126,1.05568 0.0352,0.59823 -0.42228,1.12607 -1.05569,1.16126 -0.59822,0.0352 -1.12607,-0.42228 -1.16126,-1.05569 0,-0.63341 0.45747,-1.12606 1.05569,-1.16125"
       style="fill:none;stroke:#000000;stroke-width:0.351895;stroke-miterlimit:10" /><path
       id="path24"
       class="st0"
       d="m 170.27186,21.39595 c -0.0704,-1.37239 0.98531,-2.53365 2.3577,-2.60403 1.37239,-0.0704 2.53365,0.98531 2.60403,2.35771 0.0704,1.37239 -0.98531,2.53365 -2.3577,2.60403 -1.3724,0.0352 -2.53365,-1.0205 -2.60403,-2.35771"
       style="fill:none;stroke:#000000;stroke-width:0.351895;stroke-miterlimit:10" /><path
       id="path25"
       class="st0"
       d="m 173.5093,20.69216 c 0.59822,-0.0352 1.12607,0.42228 1.16126,1.05569 0.0352,0.59822 -0.42228,1.12607 -1.05569,1.16126 -0.59822,0.0352 -1.12607,-0.42228 -1.16126,-1.05569 0,-0.63341 0.45747,-1.12607 1.05569,-1.16126 z"
       style="fill:none;stroke:#000000;stroke-width:0.351895;stroke-miterlimit:10" /></g><g
     id="g45"
     transform="rotate(90,143.90447,119.32364)"
     style="display:inline"><path
       id="path26"
       class="st0"
       d="m 142.9055,77.62891 c -0.56304,0 -1.09087,-0.07038 -1.61873,-0.211138 -11.15509,-3.096683 -21.11375,-11.366234 -27.48305,-17.805928 -4.85616,-4.856162 -7.49538,-11.331047 -7.49538,-18.228205 v -18.5801 c 0,-6.897157 2.6744,-13.3720404 7.49538,-18.2282029 6.3693,-6.4045054 16.29277,-14.7092471 27.44788,-17.7707401 0.52783,-0.140759 1.09086,-0.211138 1.61871,-0.211138 2.81517,0 5.27844,1.865048 5.94704,4.5394564 0.10561,0.4574646 0.17595,0.9501188 0.17595,1.442773 0,2.7095979 -1.82985,5.10249 -4.43389,5.8062808 -10.16979,2.779978 -19.53022,11.6477528 -24.21043,16.6798638 l -0.0352,0.03519 96.5954,-9.4308076 c 0.24633,-0.035192 0.49266,-0.035192 0.73899,-0.035192 3.44857,0 6.33412,2.6040283 6.7212,6.0174186 0.0352,0.246327 0.0352,0.492654 0.0352,0.738982 0,1.090876 -0.28152,2.181753 -0.77418,3.131872 -0.9853,2.181754 -3.06149,3.730096 -5.45438,3.976423 l -5.80628,0.633413 -46.09836,7.952845 v 7.460192 l 52.11577,8.727016 c 3.44859,0.387086 6.01743,3.272631 6.01743,6.721211 0,0.246326 0,0.492654 -0.0352,0.738981 -0.1056,0.84455 -0.35189,1.653911 -0.73898,2.392892 -1.09087,2.46327 -3.51896,4.046802 -6.19336,4.046802 -0.24633,0 -0.49266,0 -0.73899,-0.03519 l -16.22239,-1.75948 -79.63403,-6.68602 0.0352,0.03519 c 5.55996,5.91185 14.18141,13.5128 23.6474,16.081639 2.60403,0.703792 4.43389,3.096684 4.43389,5.806281 0,0.598223 -0.0704,1.196447 -0.24633,1.75948 -0.73898,2.53365 -3.13187,4.257939 -5.80628,4.257939 z"
       style="fill:none;stroke:#000000;stroke-width:0.351895;stroke-miterlimit:10" /><g
       id="g28"
       transform="matrix(0.35189583,0,0,0.35189583,34.067038,-154.44641)"
       style="display:inline">
	<line
   id="line26"
   class="st1"
   x1="340.89999"
   y1="472.60001"
   x2="340.89999"
   y2="587.5"
   style="fill:none;stroke:#3265ae;stroke-miterlimit:10" />
	<line
   id="line27"
   class="st1"
   x1="400.10001"
   y1="543.40002"
   x2="392.29999"
   y2="592"
   style="fill:none;stroke:#3265ae;stroke-miterlimit:10" />
	
		<line
   id="line28"
   class="st1"
   x1="394"
   y1="467.60001"
   x2="400.10001"
   y2="515.20001"
   style="fill:none;stroke:#3265ae;stroke-miterlimit:10" />
</g><g
       id="g30"
       transform="matrix(0.35189583,0,0,0.35189583,32.691725,-154.44641)"
       style="display:none">
	<path
   class="st2"
   d="m 271.2,581.8 c 14.5,-19.2 13.3,-78.1 0.7,-102.3"
   id="path28"
   style="fill:none;stroke:#b74e97;stroke-miterlimit:10" />
	<line
   class="st2"
   x1="249.3"
   y1="481.70001"
   x2="211.3"
   y2="485.20001"
   id="line29"
   style="fill:none;stroke:#b74e97;stroke-miterlimit:10" />
	<line
   class="st2"
   x1="251.10001"
   y1="580.20001"
   x2="212"
   y2="576.90002"
   id="line30"
   style="fill:none;stroke:#b74e97;stroke-miterlimit:10" />
	<path
   class="st2"
   d="m 210.7,571.8 c 54.9,-25.7 51.2,-60.3 -0.4,-81.6"
   id="path30"
   style="fill:none;stroke:#b74e97;stroke-miterlimit:10" />
</g><g
       id="g32"
       transform="matrix(0.35189583,0,0,0.35189583,32.691725,-154.44641)"
       style="display:none">
	<path
   class="st2"
   d="m 317.9,475 c 0,0 22.1,15.5 22.1,55.1 0,39.6 -22.2,55.6 -22.2,55.6"
   id="path31"
   style="fill:none;stroke:#b74e97;stroke-miterlimit:10" />
	<line
   class="st2"
   x1="347.79999"
   y1="472.10001"
   x2="379.60001"
   y2="518.79999"
   id="line31"
   style="fill:none;stroke:#b74e97;stroke-miterlimit:10" />
	<line
   class="st2"
   x1="379.60001"
   y1="539.90002"
   x2="347.79999"
   y2="588.29999"
   id="line32"
   style="fill:none;stroke:#b74e97;stroke-miterlimit:10" />
</g><g
       id="g33"
       transform="matrix(0.35189583,0,0,0.35189583,32.691725,-154.44641)">
	<path
   id="path32"
   class="st1"
   d="m 145.3,464 c -9.2,-0.3 -16.5,-5.4 -16.3,-11.4 0.2,-6 7.8,-10.7 17,-10.4 9.2,0.3 16.5,5.4 16.3,11.4 -0.2,6 -7.8,10.7 -17,10.4 z"
   style="fill:none;stroke:#3265ae;stroke-miterlimit:10" />
	<path
   id="path33"
   class="st1"
   d="m 152,595.8 c -9.1,1.2 -15.9,7 -15.1,12.9 0.8,6 8.8,9.9 17.9,8.7 9.1,-1.2 15.9,-7 15.1,-12.9 -0.8,-6 -8.8,-9.9 -17.9,-8.7 z"
   style="fill:none;stroke:#3265ae;stroke-miterlimit:10" />
</g><g
       id="g35"
       transform="matrix(0.35189583,0,0,0.35189583,34.067038,-154.44641)"
       style="display:none">
	<path
   id="path34"
   class="st2"
   d="m 160.7,446.9 c 1.1,-3 2.8,-5.8 4.8,-8.3 3.1,-3.8 7,-6.9 9.8,-10.9 2.8,-4 4.3,-9.5 2.1,-13.8 -0.4,-0.8 -0.9,-1.6 -0.5,-2.4 0.4,-0.8 1.5,-1 2.4,-0.9 3.3,0.2 6.5,1.6 9.2,3.7 5.6,4.4 8.9,11.5 9.2,18.6 0.3,7.1 -2.1,14.2 -6.2,20.1 -2.7,3.9 -6.1,7.3 -10.3,9.5 -6.2,3.2 -16.2,3.8 -20,-3.3 -1.3,-2.4 -1.6,-5.3 -1.3,-8.1 0,-1.5 0.3,-2.9 0.8,-4.2"
   style="fill:none;stroke:#b74e97;stroke-miterlimit:10" />
	<path
   id="path35"
   class="st2"
   d="m 164.7,614.7 c 2,3.2 5,5.9 8.1,8.1 4.2,3 8.9,5.3 12.3,9.2 3,3.4 4.6,8.5 2.8,12.5 -0.3,0.8 0.2,1.7 1.1,1.7 6.1,-0.4 11.1,-5.9 13.3,-11.8 7.5,-20.2 -9.6,-33.2 -15.5,-37 -10.5,-6.8 -29.3,-2.2 -24.1,13.3 0.5,1.4 1.2,2.7 2,4"
   style="fill:none;stroke:#b74e97;stroke-miterlimit:10" />
</g><path
       id="path36"
       class="st3"
       d="M 84.737119,59.013621 C 70.133441,59.752602 57.676329,48.280797 56.937347,33.430794 56.198366,18.580789 67.423844,5.9477299 82.027521,5.2087486 96.631197,4.4697674 109.08832,15.941571 109.82729,30.791575 110.56628,45.641579 99.340804,58.274639 84.737119,59.013621 Z"
       style="fill:#ffffff;stroke:#000000;stroke-width:0.351895;stroke-miterlimit:10" /><path
       id="path37"
       class="st0"
       d="m 96.455249,41.031744 0.211138,-3.272631 c 0.281517,-4.22275 -0.03519,-8.4455 -0.914929,-12.562681 l -0.87974,-4.25794 c -0.03519,-0.387085 0.316706,-0.668603 0.703792,-0.563034 2.111375,0.633413 7.98804,2.955925 8.51589,9.923463 0.56303,7.002728 -4.891354,10.204979 -6.861979,11.155098 -0.351897,0.211138 -0.738981,-0.03519 -0.774172,-0.422275 z"
       style="fill:none;stroke:#000000;stroke-width:0.351895;stroke-miterlimit:10" /><path
       id="path38"
       class="st0"
       d="m 92.795533,31.530557 c 0.527844,0.84455 0.281516,1.970617 -0.563034,2.49846 -0.84455,0.527844 -1.970616,0.281516 -2.498459,-0.563034"
       style="fill:none;stroke:#000000;stroke-width:0.351895;stroke-miterlimit:10" /><path
       id="path39"
       class="st4"
       d="m 60.034032,13.161594 c -4.152372,5.243248 -6.404505,12.492302 -6.615642,18.931995 -0.175949,5.348818 0.105562,8.938155 2.428081,13.970265 2.252133,4.926542 7.037917,8.551068 11.471804,10.768012 4.011613,2.005806 10.064221,3.167063 14.920383,1.829859 2.005807,-0.563034 4.18756,-1.6891 4.680214,-3.765286 -2.991114,0.457465 -5.806281,-0.457464 -8.621447,-1.442773 -0.774171,-0.281516 -1.583531,-0.563033 -2.357703,-0.84455 1.900238,-2.322512 3.272632,-5.348816 3.976424,-8.551069 0.140758,-0.598222 1.513151,-8.058414 1.442773,-8.058414 -2.040997,0.175949 -4.046803,0.738981 -5.876661,1.653911 1.935427,-5.806281 4.29313,-11.436614 7.108296,-16.82062 -2.322513,0.84455 -4.680214,2.111375 -6.404504,3.976422 0.211138,-2.744788 1.442772,-7.178675 2.674408,-9.606757 C 81.147782,10.663133 83.681432,8.094294 87.97456,5.5958332 86.707735,3.8011657 66.227397,5.3846957 60.034032,13.161594 Z"
       style="fill:#ffffff;stroke:#3265ae;stroke-width:0.351895;stroke-miterlimit:10" /><g
       id="g41"
       transform="matrix(0.35189583,0,0,0.35189583,34.067038,-154.44641)"
       style="display:none">
	<path
   class="st5"
   d="m 109.8,542.4 c 8.9,-9.8 10.6,-20.8 10.8,-33.5 -4.7,5.2 -6.8,5.4 -6.8,5.4 7.3,-9.9 15.6,-24.5 15.3,-36.7 -0.8,1.1 -5.7,5.4 -5.7,5.4 2.3,-8.4 11.4,-16.9 19.3,-20.5 7.9,-3.6 18.3,-3 26.9,-4.2 -8.3,-3.5 -18.8,-5.9 -27.8,-6.7 -11.4,-1.1 -21.7,1.4 -32.5,5.1 -21.3,7.4 -58.2,41 -41.5,93.3 2.4,7.7 6.7,14.9 6.7,14.9 0,0 21.9,-7.8 35.3,-22.5 z"
   id="path40"
   style="fill:#ffffff;stroke:#b74e97;stroke-miterlimit:10" />
	<path
   class="st5"
   d="m 63.8,519.2 c 8.2,-3.8 41.1,7.1 51.4,22.7 5.4,8.2 8.9,17.4 11.8,26.8 1.6,5.1 3,10.3 5.5,15.1 9,16.9 20,17.8 37.2,18.3 C 103.2,623.9 59,589.7 63.8,519.2 Z"
   id="path41"
   style="fill:#ffffff;stroke:#b74e97;stroke-miterlimit:10" />
</g><path
       id="path42"
       class="st0"
       d="m 88.88949,21.114439 c 0.07038,1.372394 -0.98531,2.53365 -2.357703,2.60403 -1.372393,0.07038 -2.533649,-0.985308 -2.604029,-2.357702 -0.07038,-1.372393 0.985308,-2.53365 2.357702,-2.604029 1.372394,-0.07038 2.53365,0.985308 2.60403,2.357701"
       style="fill:none;stroke:#000000;stroke-width:0.351895;stroke-miterlimit:10" /><path
       id="path43"
       class="st0"
       d="m 85.652047,22.803539 c -0.598222,0.03519 -1.126065,-0.422275 -1.161256,-1.055687 -0.03519,-0.598222 0.422275,-1.126066 1.055688,-1.161256 0.598223,-0.03519 1.126067,0.422275 1.161256,1.055687 0,0.633413 -0.457464,1.126067 -1.055688,1.161256"
       style="fill:none;stroke:#000000;stroke-width:0.351895;stroke-miterlimit:10" /><path
       id="path44"
       class="st0"
       d="m 88.88949,42.826413 c 0.07038,1.372394 -0.98531,2.53365 -2.357703,2.604028 -1.372393,0.07038 -2.533649,-0.985308 -2.604029,-2.357702 -0.07038,-1.372393 0.985308,-2.53365 2.357702,-2.604029 1.372394,-0.03519 2.53365,1.020498 2.60403,2.357703"
       style="fill:none;stroke:#000000;stroke-width:0.351895;stroke-miterlimit:10" /><path
       id="path45"
       class="st0"
       d="m 85.652047,43.530204 c -0.598222,0.03519 -1.126065,-0.422275 -1.161256,-1.055688 -0.03519,-0.598222 0.422275,-1.126066 1.055688,-1.161256 0.598223,-0.03519 1.126067,0.422275 1.161256,1.055687 0,0.633413 -0.457464,1.126067 -1.055688,1.161257 z"
       style="fill:none;stroke:#000000;stroke-width:0.351895;stroke-miterlimit:10" /></g></svg>
