<?xml version="1.0" encoding="UTF-8" standalone="no"?>
<!-- Created with Inkscape (http://www.inkscape.org/) -->

<svg
   width="297mm"
   height="210mm"
   viewBox="0 0 297 210"
   version="1.1"
   id="svg1"
   xml:space="preserve"
   sodipodi:docname="paper-dolls-a4.p2.svg"
   inkscape:version="1.3.2 (091e20e, 2023-11-25)"
   xmlns:inkscape="http://www.inkscape.org/namespaces/inkscape"
   xmlns:sodipodi="http://sodipodi.sourceforge.net/DTD/sodipodi-0.dtd"
   xmlns="http://www.w3.org/2000/svg"
   xmlns:svg="http://www.w3.org/2000/svg"><sodipodi:namedview
     id="namedview1"
     pagecolor="#ffffff"
     bordercolor="#000000"
     borderopacity="0.25"
     inkscape:showpageshadow="2"
     inkscape:pageopacity="0.0"
     inkscape:pagecheckerboard="0"
     inkscape:deskcolor="#d1d1d1"
     inkscape:document-units="mm"
     inkscape:zoom="0.73963516"
     inkscape:cx="609.08408"
     inkscape:cy="528.63901"
     inkscape:current-layer="g382" /><defs
     id="defs1"><clipPath
       clipPathUnits="userSpaceOnUse"
       id="clipPath3"><path
         d="M 8.504,46.771 H 586.772 V 795.118 H 8.504 Z"
         transform="translate(-247.2748,-476.92021)"
         id="path3-9" /></clipPath><clipPath
       clipPathUnits="userSpaceOnUse"
       id="clipPath5"><path
         d="M 8.504,46.771 H 586.772 V 795.118 H 8.504 Z"
         transform="translate(-355.90861,-432.10851)"
         id="path5-4" /></clipPath><clipPath
       clipPathUnits="userSpaceOnUse"
       id="clipPath7"><path
         d="M 8.504,46.771 H 586.772 V 795.118 H 8.504 Z"
         transform="translate(-301.22811,-438.11921)"
         id="path7" /></clipPath><clipPath
       clipPathUnits="userSpaceOnUse"
       id="clipPath9"><path
         d="M 8.504,46.771 H 586.772 V 795.118 H 8.504 Z"
         transform="translate(-241.38961,-353.52451)"
         id="path9" /></clipPath><clipPath
       clipPathUnits="userSpaceOnUse"
       id="clipPath11"><path
         d="M 8.504,46.771 H 586.772 V 795.118 H 8.504 Z"
         transform="translate(-241.25311,-756.73722)"
         id="path11-3" /></clipPath><clipPath
       clipPathUnits="userSpaceOnUse"
       id="clipPath13"><path
         d="M 8.504,46.771 H 586.772 V 795.118 H 8.504 Z"
         transform="translate(-300.91991,-751.77842)"
         id="path13-9" /></clipPath><clipPath
       clipPathUnits="userSpaceOnUse"
       id="clipPath15"><path
         d="M 8.504,46.771 H 586.772 V 795.118 H 8.504 Z"
         transform="translate(-306.00331,-751.77842)"
         id="path15-0" /></clipPath><clipPath
       clipPathUnits="userSpaceOnUse"
       id="clipPath17"><path
         d="M 8.504,46.771 H 586.772 V 795.118 H 8.504 Z"
         transform="translate(-311.22691,-751.77842)"
         id="path17-5" /></clipPath><clipPath
       clipPathUnits="userSpaceOnUse"
       id="clipPath19"><path
         d="M 8.504,46.771 H 586.772 V 795.118 H 8.504 Z"
         transform="translate(-316.45061,-753.28162)"
         id="path19-6" /></clipPath><clipPath
       clipPathUnits="userSpaceOnUse"
       id="clipPath21"><path
         d="M 8.504,46.771 H 586.772 V 795.118 H 8.504 Z"
         transform="translate(-321.67421,-753.28162)"
         id="path21-3" /></clipPath><clipPath
       clipPathUnits="userSpaceOnUse"
       id="clipPath23"><path
         d="M 8.504,46.771 H 586.772 V 795.118 H 8.504 Z"
         transform="translate(-326.89871,-753.89982)"
         id="path23-6" /></clipPath><clipPath
       clipPathUnits="userSpaceOnUse"
       id="clipPath25"><path
         d="M 8.504,46.771 H 586.772 V 795.118 H 8.504 Z"
         transform="translate(-332.12231,-753.89982)"
         id="path25-3" /></clipPath><clipPath
       clipPathUnits="userSpaceOnUse"
       id="clipPath27"><path
         d="M 8.504,46.771 H 586.772 V 795.118 H 8.504 Z"
         transform="translate(-337.34591,-753.89982)"
         id="path27" /></clipPath><clipPath
       clipPathUnits="userSpaceOnUse"
       id="clipPath29"><path
         d="M 8.504,46.771 H 586.772 V 795.118 H 8.504 Z"
         transform="translate(-342.56951,-753.89982)"
         id="path29" /></clipPath><clipPath
       clipPathUnits="userSpaceOnUse"
       id="clipPath31"><path
         d="M 8.504,46.771 H 586.772 V 795.118 H 8.504 Z"
         transform="translate(-347.79321,-754.81612)"
         id="path31-0" /></clipPath><clipPath
       clipPathUnits="userSpaceOnUse"
       id="clipPath33"><path
         d="M 8.504,46.771 H 586.772 V 795.118 H 8.504 Z"
         transform="translate(-353.01771,-754.81612)"
         id="path33-8" /></clipPath><clipPath
       clipPathUnits="userSpaceOnUse"
       id="clipPath35"><path
         d="M 8.504,46.771 H 586.772 V 795.118 H 8.504 Z"
         transform="translate(-300.78431,-751.77842)"
         id="path35-4" /></clipPath><clipPath
       clipPathUnits="userSpaceOnUse"
       id="clipPath37"><path
         d="M 8.504,46.771 H 586.772 V 795.118 H 8.504 Z"
         transform="translate(-295.70101,-751.77842)"
         id="path37-0" /></clipPath><clipPath
       clipPathUnits="userSpaceOnUse"
       id="clipPath39"><path
         d="M 8.504,46.771 H 586.772 V 795.118 H 8.504 Z"
         transform="translate(-290.47741,-751.77842)"
         id="path39-4" /></clipPath><clipPath
       clipPathUnits="userSpaceOnUse"
       id="clipPath41"><path
         d="M 8.504,46.771 H 586.772 V 795.118 H 8.504 Z"
         transform="translate(-285.25381,-753.28162)"
         id="path41-6" /></clipPath><clipPath
       clipPathUnits="userSpaceOnUse"
       id="clipPath43"><path
         d="M 8.504,46.771 H 586.772 V 795.118 H 8.504 Z"
         transform="translate(-280.03011,-753.28162)"
         id="path43-4" /></clipPath><clipPath
       clipPathUnits="userSpaceOnUse"
       id="clipPath45"><path
         d="M 8.504,46.771 H 586.772 V 795.118 H 8.504 Z"
         transform="translate(-274.80651,-753.89982)"
         id="path45-6" /></clipPath><clipPath
       clipPathUnits="userSpaceOnUse"
       id="clipPath47"><path
         d="M 8.504,46.771 H 586.772 V 795.118 H 8.504 Z"
         transform="translate(-269.58201,-753.89982)"
         id="path47" /></clipPath><clipPath
       clipPathUnits="userSpaceOnUse"
       id="clipPath49"><path
         d="M 8.504,46.771 H 586.772 V 795.118 H 8.504 Z"
         transform="translate(-264.35841,-753.89982)"
         id="path49" /></clipPath><clipPath
       clipPathUnits="userSpaceOnUse"
       id="clipPath51"><path
         d="M 8.504,46.771 H 586.772 V 795.118 H 8.504 Z"
         transform="translate(-259.13481,-753.89982)"
         id="path51" /></clipPath><clipPath
       clipPathUnits="userSpaceOnUse"
       id="clipPath53"><path
         d="M 8.504,46.771 H 586.772 V 795.118 H 8.504 Z"
         transform="translate(-253.91121,-754.81612)"
         id="path53" /></clipPath><clipPath
       clipPathUnits="userSpaceOnUse"
       id="clipPath55"><path
         d="M 8.504,46.771 H 586.772 V 795.118 H 8.504 Z"
         transform="translate(-248.6875,-754.81612)"
         id="path55" /></clipPath><clipPath
       clipPathUnits="userSpaceOnUse"
       id="clipPath57"><path
         d="M 8.504,46.771 H 586.772 V 795.118 H 8.504 Z"
         transform="translate(-358.24131,-755.31722)"
         id="path57" /></clipPath><clipPath
       clipPathUnits="userSpaceOnUse"
       id="clipPath59"><path
         d="M 8.504,46.771 H 586.772 V 795.118 H 8.504 Z"
         transform="translate(-241.25311,-756.73722)"
         id="path59" /></clipPath><clipPath
       clipPathUnits="userSpaceOnUse"
       id="clipPath61"><path
         d="M 8.504,46.771 H 586.772 V 795.118 H 8.504 Z"
         transform="translate(-283.615,-594.63191)"
         id="path61" /></clipPath><clipPath
       clipPathUnits="userSpaceOnUse"
       id="clipPath63"><path
         d="M 8.504,46.771 H 586.772 V 795.118 H 8.504 Z"
         transform="translate(-283.615,-578.79121)"
         id="path63" /></clipPath><clipPath
       clipPathUnits="userSpaceOnUse"
       id="clipPath65"><path
         d="M 8.504,46.771 H 586.772 V 795.118 H 8.504 Z"
         transform="translate(-283.615,-562.95061)"
         id="path65" /></clipPath><clipPath
       clipPathUnits="userSpaceOnUse"
       id="clipPath67"><path
         d="M 8.504,46.771 H 586.772 V 795.118 H 8.504 Z"
         transform="translate(-283.615,-547.11001)"
         id="path67" /></clipPath><clipPath
       clipPathUnits="userSpaceOnUse"
       id="clipPath69"><path
         d="M 8.504,46.771 H 586.772 V 795.118 H 8.504 Z"
         transform="translate(-283.615,-531.26941)"
         id="path69" /></clipPath><clipPath
       clipPathUnits="userSpaceOnUse"
       id="clipPath71"><path
         d="M 8.504,46.771 H 586.772 V 795.118 H 8.504 Z"
         transform="translate(-283.615,-515.42782)"
         id="path71" /></clipPath><clipPath
       clipPathUnits="userSpaceOnUse"
       id="clipPath73"><path
         d="M 8.504,46.771 H 586.772 V 795.118 H 8.504 Z"
         transform="translate(-283.615,-499.58721)"
         id="path73" /></clipPath><clipPath
       clipPathUnits="userSpaceOnUse"
       id="clipPath75"><path
         d="M 8.504,46.771 H 586.772 V 795.118 H 8.504 Z"
         transform="translate(-348.32651,-588.02411)"
         id="path75" /></clipPath><clipPath
       clipPathUnits="userSpaceOnUse"
       id="clipPath77"><path
         d="M 8.504,46.771 H 586.772 V 795.118 H 8.504 Z"
         transform="translate(-228.06621,-228.23451)"
         id="path77" /></clipPath><clipPath
       clipPathUnits="userSpaceOnUse"
       id="clipPath79"><path
         d="M 8.504,46.771 H 586.772 V 795.118 H 8.504 Z"
         transform="translate(-244.74651,-334.57891)"
         id="path79" /></clipPath><clipPath
       clipPathUnits="userSpaceOnUse"
       id="clipPath81"><path
         d="M 8.504,46.771 H 586.772 V 795.118 H 8.504 Z"
         id="path81" /></clipPath><clipPath
       clipPathUnits="userSpaceOnUse"
       id="clipPath83"><path
         d="M 8.504,46.771 H 586.772 V 795.118 H 8.504 Z"
         transform="translate(-296.1688,-291.68641)"
         id="path83" /></clipPath><clipPath
       clipPathUnits="userSpaceOnUse"
       id="clipPath85"><path
         d="M 8.504,46.771 H 586.772 V 795.118 H 8.504 Z"
         transform="translate(-292.18711,-331.69541)"
         id="path85" /></clipPath><clipPath
       clipPathUnits="userSpaceOnUse"
       id="clipPath87"><path
         d="M 8.504,46.771 H 586.772 V 795.118 H 8.504 Z"
         id="path87" /></clipPath><clipPath
       clipPathUnits="userSpaceOnUse"
       id="clipPath89"><path
         d="M 8.504,46.771 H 586.772 V 795.118 H 8.504 Z"
         id="path89" /></clipPath><clipPath
       clipPathUnits="userSpaceOnUse"
       id="clipPath91"><path
         d="M 8.504,46.771 H 586.772 V 795.118 H 8.504 Z"
         transform="translate(-238.87891,-310.67631)"
         id="path91" /></clipPath><clipPath
       clipPathUnits="userSpaceOnUse"
       id="clipPath93"><path
         d="M 8.504,46.771 H 586.772 V 795.118 H 8.504 Z"
         transform="translate(-241.36561,-330.98211)"
         id="path93" /></clipPath><clipPath
       clipPathUnits="userSpaceOnUse"
       id="clipPath95"><path
         d="M 8.504,46.771 H 586.772 V 795.118 H 8.504 Z"
         transform="translate(-361.11101,-310.67631)"
         id="path95" /></clipPath><clipPath
       clipPathUnits="userSpaceOnUse"
       id="clipPath97"><path
         d="M 8.504,46.771 H 586.772 V 795.118 H 8.504 Z"
         transform="translate(-358.62511,-330.98211)"
         id="path97" /></clipPath><clipPath
       clipPathUnits="userSpaceOnUse"
       id="clipPath99"><path
         d="M 8.504,46.771 H 586.772 V 795.118 H 8.504 Z"
         transform="translate(-169.4208,-677.06362)"
         id="path99" /></clipPath><clipPath
       clipPathUnits="userSpaceOnUse"
       id="clipPath101"><path
         d="M 8.504,46.771 H 586.772 V 795.118 H 8.504 Z"
         transform="translate(-77.595699,-750.94892)"
         id="path101" /></clipPath><clipPath
       clipPathUnits="userSpaceOnUse"
       id="clipPath103"><path
         d="M 8.504,46.771 H 586.772 V 795.118 H 8.504 Z"
         transform="translate(-66.544001,-705.59922)"
         id="path103" /></clipPath><clipPath
       clipPathUnits="userSpaceOnUse"
       id="clipPath105"><path
         d="M 8.504,46.771 H 586.772 V 795.118 H 8.504 Z"
         transform="translate(-66.539402,-705.54482)"
         id="path105" /></clipPath><clipPath
       clipPathUnits="userSpaceOnUse"
       id="clipPath107"><path
         d="M 8.504,46.771 H 586.772 V 795.118 H 8.504 Z"
         transform="translate(-116.86821,-663.35272)"
         id="path107" /></clipPath><clipPath
       clipPathUnits="userSpaceOnUse"
       id="clipPath109"><path
         d="M 8.504,46.771 H 586.772 V 795.118 H 8.504 Z"
         transform="translate(-122.6482,-672.54671)"
         id="path109" /></clipPath><clipPath
       clipPathUnits="userSpaceOnUse"
       id="clipPath111"><path
         d="M 8.504,46.771 H 586.772 V 795.118 H 8.504 Z"
         transform="translate(-109.6413,-672.54671)"
         id="path111" /></clipPath><clipPath
       clipPathUnits="userSpaceOnUse"
       id="clipPath113"><path
         d="M 8.504,46.771 H 586.772 V 795.118 H 8.504 Z"
         transform="translate(-127.3782,-649.75882)"
         id="path113" /></clipPath><clipPath
       clipPathUnits="userSpaceOnUse"
       id="clipPath115"><path
         d="M 8.504,46.771 H 586.772 V 795.118 H 8.504 Z"
         transform="translate(-107.04291,-653.17952)"
         id="path115" /></clipPath><clipPath
       clipPathUnits="userSpaceOnUse"
       id="clipPath117"><path
         d="M 8.504,46.771 H 586.772 V 795.118 H 8.504 Z"
         transform="translate(-166.588,-517.29082)"
         id="path117" /></clipPath><clipPath
       clipPathUnits="userSpaceOnUse"
       id="clipPath119"><path
         d="M 8.504,46.771 H 586.772 V 795.118 H 8.504 Z"
         transform="translate(-156.85131,-520.28791)"
         id="path119" /></clipPath><clipPath
       clipPathUnits="userSpaceOnUse"
       id="clipPath121"><path
         d="M 8.504,46.771 H 586.772 V 795.118 H 8.504 Z"
         transform="translate(-193.7017,-301.39361)"
         id="path121" /></clipPath><clipPath
       clipPathUnits="userSpaceOnUse"
       id="clipPath123"><path
         d="M 8.504,46.771 H 586.772 V 795.118 H 8.504 Z"
         transform="translate(-173.3203,-462.80971)"
         id="path123" /></clipPath><clipPath
       clipPathUnits="userSpaceOnUse"
       id="clipPath125"><path
         d="M 8.504,46.771 H 586.772 V 795.118 H 8.504 Z"
         transform="translate(-52.987201,-462.80971)"
         id="path125" /></clipPath><clipPath
       clipPathUnits="userSpaceOnUse"
       id="clipPath127"><path
         d="M 8.504,46.771 H 586.772 V 795.118 H 8.504 Z"
         transform="translate(-171.2358,-515.29781)"
         id="path127" /></clipPath><clipPath
       clipPathUnits="userSpaceOnUse"
       id="clipPath129"><path
         d="M 8.504,46.771 H 586.772 V 795.118 H 8.504 Z"
         transform="translate(-55.210901,-515.43611)"
         id="path129" /></clipPath><clipPath
       clipPathUnits="userSpaceOnUse"
       id="clipPath131"><path
         d="M 8.504,46.771 H 586.772 V 795.118 H 8.504 Z"
         transform="translate(-505.81721,-421.69451)"
         id="path131" /></clipPath><clipPath
       clipPathUnits="userSpaceOnUse"
       id="clipPath133"><path
         d="M 8.504,46.771 H 586.772 V 795.118 H 8.504 Z"
         id="path133" /></clipPath><clipPath
       clipPathUnits="userSpaceOnUse"
       id="clipPath135"><path
         d="M 8.504,46.771 H 586.772 V 795.118 H 8.504 Z"
         id="path135" /></clipPath><clipPath
       clipPathUnits="userSpaceOnUse"
       id="clipPath137"><path
         d="M 8.504,46.771 H 586.772 V 795.118 H 8.504 Z"
         id="path137" /></clipPath><clipPath
       clipPathUnits="userSpaceOnUse"
       id="clipPath139"><path
         d="M 8.504,46.771 H 586.772 V 795.118 H 8.504 Z"
         id="path139" /></clipPath><clipPath
       clipPathUnits="userSpaceOnUse"
       id="clipPath141"><path
         d="M 8.504,46.771 H 586.772 V 795.118 H 8.504 Z"
         transform="translate(-472.85991,-545.75441)"
         id="path141" /></clipPath><clipPath
       clipPathUnits="userSpaceOnUse"
       id="clipPath143"><path
         d="M 8.504,46.771 H 586.772 V 795.118 H 8.504 Z"
         transform="translate(-468.87831,-580.77041)"
         id="path143" /></clipPath><clipPath
       clipPathUnits="userSpaceOnUse"
       id="clipPath145"><path
         d="M 8.504,46.771 H 586.772 V 795.118 H 8.504 Z"
         id="path145" /></clipPath><clipPath
       clipPathUnits="userSpaceOnUse"
       id="clipPath147"><path
         d="M 8.504,46.771 H 586.772 V 795.118 H 8.504 Z"
         id="path147" /></clipPath><clipPath
       clipPathUnits="userSpaceOnUse"
       id="clipPath149"><path
         d="M 8.504,46.771 H 586.772 V 795.118 H 8.504 Z"
         id="path149" /></clipPath><clipPath
       clipPathUnits="userSpaceOnUse"
       id="clipPath151"><path
         d="M 8.504,46.771 H 586.772 V 795.118 H 8.504 Z"
         id="path151" /></clipPath><clipPath
       clipPathUnits="userSpaceOnUse"
       id="clipPath153"><path
         d="M 8.504,46.771 H 586.772 V 795.118 H 8.504 Z"
         id="path153" /></clipPath><clipPath
       clipPathUnits="userSpaceOnUse"
       id="clipPath155"><path
         d="M 8.504,46.771 H 586.772 V 795.118 H 8.504 Z"
         id="path155" /></clipPath><clipPath
       clipPathUnits="userSpaceOnUse"
       id="clipPath157"><path
         d="M 8.504,46.771 H 586.772 V 795.118 H 8.504 Z"
         id="path157" /></clipPath><clipPath
       clipPathUnits="userSpaceOnUse"
       id="clipPath159"><path
         d="M 8.504,46.771 H 586.772 V 795.118 H 8.504 Z"
         id="path159" /></clipPath><clipPath
       clipPathUnits="userSpaceOnUse"
       id="clipPath161"><path
         d="M 8.504,46.771 H 586.772 V 795.118 H 8.504 Z"
         id="path161" /></clipPath><clipPath
       clipPathUnits="userSpaceOnUse"
       id="clipPath163"><path
         d="M 8.504,46.771 H 586.772 V 795.118 H 8.504 Z"
         id="path163" /></clipPath><clipPath
       clipPathUnits="userSpaceOnUse"
       id="clipPath165"><path
         d="M 8.504,46.771 H 586.772 V 795.118 H 8.504 Z"
         id="path165" /></clipPath><clipPath
       clipPathUnits="userSpaceOnUse"
       id="clipPath167"><path
         d="M 8.504,46.771 H 586.772 V 795.118 H 8.504 Z"
         id="path167" /></clipPath><clipPath
       clipPathUnits="userSpaceOnUse"
       id="clipPath169"><path
         d="M 8.504,46.771 H 586.772 V 795.118 H 8.504 Z"
         transform="translate(-418.65011,-578.42122)"
         id="path169" /></clipPath><clipPath
       clipPathUnits="userSpaceOnUse"
       id="clipPath171"><path
         d="M 8.504,46.771 H 586.772 V 795.118 H 8.504 Z"
         transform="translate(-529.51132,-578.42021)"
         id="path171" /></clipPath><clipPath
       clipPathUnits="userSpaceOnUse"
       id="clipPath173"><path
         d="M 8.504,46.771 H 586.772 V 795.118 H 8.504 Z"
         transform="translate(-419.65031,-756.97072)"
         id="path173" /></clipPath><clipPath
       clipPathUnits="userSpaceOnUse"
       id="clipPath175"><path
         d="M 8.504,46.771 H 586.772 V 795.118 H 8.504 Z"
         transform="translate(-527.37881,-758.76082)"
         id="path175" /></clipPath><clipPath
       clipPathUnits="userSpaceOnUse"
       id="clipPath177"><path
         d="M 8.504,46.771 H 586.772 V 795.118 H 8.504 Z"
         transform="translate(-412.90411,-612.19241)"
         id="path177" /></clipPath><clipPath
       clipPathUnits="userSpaceOnUse"
       id="clipPath179"><path
         d="M 8.504,46.771 H 586.772 V 795.118 H 8.504 Z"
         transform="translate(-149.0754,-103.01091)"
         id="path179" /></clipPath><clipPath
       clipPathUnits="userSpaceOnUse"
       id="clipPath181"><path
         d="M 8.504,46.771 H 586.772 V 795.118 H 8.504 Z"
         transform="translate(-117.3444,-228.28891)"
         id="path181" /></clipPath><clipPath
       clipPathUnits="userSpaceOnUse"
       id="clipPath183"><path
         d="M 8.504,46.771 H 586.772 V 795.118 H 8.504 Z"
         transform="translate(-121.3656,-263.6473)"
         id="path183" /></clipPath><clipPath
       clipPathUnits="userSpaceOnUse"
       id="clipPath185"><path
         d="M 8.504,46.771 H 586.772 V 795.118 H 8.504 Z"
         id="path185" /></clipPath><clipPath
       clipPathUnits="userSpaceOnUse"
       id="clipPath187"><path
         d="M 8.504,46.771 H 586.772 V 795.118 H 8.504 Z"
         id="path187" /></clipPath><clipPath
       clipPathUnits="userSpaceOnUse"
       id="clipPath189"><path
         d="M 8.504,46.771 H 586.772 V 795.118 H 8.504 Z"
         id="path189" /></clipPath><clipPath
       clipPathUnits="userSpaceOnUse"
       id="clipPath191"><path
         d="M 8.504,46.771 H 586.772 V 795.118 H 8.504 Z"
         transform="translate(-57.041602,-269.44851)"
         id="path191" /></clipPath><clipPath
       clipPathUnits="userSpaceOnUse"
       id="clipPath193"><path
         d="M 8.504,46.771 H 586.772 V 795.118 H 8.504 Z"
         transform="translate(-55.907602,-248.39811)"
         id="path193" /></clipPath><clipPath
       clipPathUnits="userSpaceOnUse"
       id="clipPath195"><path
         d="M 8.504,46.771 H 586.772 V 795.118 H 8.504 Z"
         transform="translate(-176.5084,-269.44851)"
         id="path195" /></clipPath><clipPath
       clipPathUnits="userSpaceOnUse"
       id="clipPath197"><path
         d="M 8.504,46.771 H 586.772 V 795.118 H 8.504 Z"
         transform="translate(-177.6433,-248.39811)"
         id="path197" /></clipPath><clipPath
       clipPathUnits="userSpaceOnUse"
       id="clipPath199"><path
         d="M 8.504,46.771 H 586.772 V 795.118 H 8.504 Z"
         transform="translate(-69.927701,-205.97811)"
         id="path199" /></clipPath><clipPath
       clipPathUnits="userSpaceOnUse"
       id="clipPath201"><path
         d="M 8.504,46.771 H 586.772 V 795.118 H 8.504 Z"
         transform="translate(-51.336401,-206.36011)"
         id="path201" /></clipPath><clipPath
       clipPathUnits="userSpaceOnUse"
       id="clipPath203"><path
         d="M 8.504,46.771 H 586.772 V 795.118 H 8.504 Z"
         transform="translate(-49.403301,-186.7362)"
         id="path203" /></clipPath><clipPath
       clipPathUnits="userSpaceOnUse"
       id="clipPath205"><path
         d="M 8.504,46.771 H 586.772 V 795.118 H 8.504 Z"
         transform="translate(-162.9238,-205.97811)"
         id="path205" /></clipPath><clipPath
       clipPathUnits="userSpaceOnUse"
       id="clipPath207"><path
         d="M 8.504,46.771 H 586.772 V 795.118 H 8.504 Z"
         transform="translate(-181.1257,-209.28331)"
         id="path207" /></clipPath><clipPath
       clipPathUnits="userSpaceOnUse"
       id="clipPath209"><path
         d="M 8.504,46.771 H 586.772 V 795.118 H 8.504 Z"
         transform="translate(-181.6074,-204.6133)"
         id="path209" /></clipPath><clipPath
       clipPathUnits="userSpaceOnUse"
       id="clipPath211"><path
         d="M 8.504,46.771 H 586.772 V 795.118 H 8.504 Z"
         transform="translate(-84.924902,-104.4688)"
         id="path211" /></clipPath><clipPath
       clipPathUnits="userSpaceOnUse"
       id="clipPath213"><path
         d="M 8.504,46.771 H 586.772 V 795.118 H 8.504 Z"
         transform="translate(-148.3243,-98.3206)"
         id="path213" /></clipPath><clipPath
       clipPathUnits="userSpaceOnUse"
       id="clipPath215"><path
         d="M 8.504,46.771 H 586.772 V 795.118 H 8.504 Z"
         transform="translate(-194.78961,-97.584302)"
         id="path215" /></clipPath><clipPath
       clipPathUnits="userSpaceOnUse"
       id="clipPath217"><path
         d="M 8.504,46.771 H 586.772 V 795.118 H 8.504 Z"
         transform="translate(-85.2673,-98.3206)"
         id="path217" /></clipPath><clipPath
       clipPathUnits="userSpaceOnUse"
       id="clipPath219"><path
         d="M 8.504,46.771 H 586.772 V 795.118 H 8.504 Z"
         transform="translate(-39.575201,-105.9415)"
         id="path219" /></clipPath><clipPath
       clipPathUnits="userSpaceOnUse"
       id="clipPath221"><path
         d="M 8.504,46.771 H 586.772 V 795.118 H 8.504 Z"
         transform="translate(-282.0952,-194.346)"
         id="path221" /></clipPath><clipPath
       clipPathUnits="userSpaceOnUse"
       id="clipPath223"><path
         d="M 8.504,46.771 H 586.772 V 795.118 H 8.504 Z"
         transform="translate(-285.99931,-160.01751)"
         id="path223" /></clipPath><clipPath
       clipPathUnits="userSpaceOnUse"
       id="clipPath225"><path
         d="M 8.504,46.771 H 586.772 V 795.118 H 8.504 Z"
         id="path225" /></clipPath><clipPath
       clipPathUnits="userSpaceOnUse"
       id="clipPath227"><path
         d="M 8.504,46.771 H 586.772 V 795.118 H 8.504 Z"
         transform="translate(-346.63601,-193.6687)"
         id="path227" /></clipPath><clipPath
       clipPathUnits="userSpaceOnUse"
       id="clipPath229"><path
         d="M 8.504,46.771 H 586.772 V 795.118 H 8.504 Z"
         transform="translate(-338.27231,-202.4164)"
         id="path229" /></clipPath><clipPath
       clipPathUnits="userSpaceOnUse"
       id="clipPath231"><path
         d="M 8.504,46.771 H 586.772 V 795.118 H 8.504 Z"
         transform="translate(-225.5296,-195.26241)"
         id="path231" /></clipPath><clipPath
       clipPathUnits="userSpaceOnUse"
       id="clipPath233"><path
         d="M 8.504,46.771 H 586.772 V 795.118 H 8.504 Z"
         transform="translate(-224.6743,-173.7828)"
         id="path233" /></clipPath><clipPath
       clipPathUnits="userSpaceOnUse"
       id="clipPath235"><path
         d="M 8.504,46.771 H 586.772 V 795.118 H 8.504 Z"
         transform="translate(-346.39701,-195.26241)"
         id="path235" /></clipPath><clipPath
       clipPathUnits="userSpaceOnUse"
       id="clipPath237"><path
         d="M 8.504,46.771 H 586.772 V 795.118 H 8.504 Z"
         transform="translate(-347.25341,-173.7828)"
         id="path237" /></clipPath><clipPath
       clipPathUnits="userSpaceOnUse"
       id="clipPath239"><path
         d="M 8.504,46.771 H 586.772 V 795.118 H 8.504 Z"
         transform="translate(-535.19992,-386.58611)"
         id="path239" /></clipPath><clipPath
       clipPathUnits="userSpaceOnUse"
       id="clipPath241"><path
         d="M 8.504,46.771 H 586.772 V 795.118 H 8.504 Z"
         transform="translate(-409.56021,-364.87321)"
         id="path241" /></clipPath><clipPath
       clipPathUnits="userSpaceOnUse"
       id="clipPath243"><path
         d="M 8.504,46.771 H 586.772 V 795.118 H 8.504 Z"
         transform="translate(-536.40322,-364.87321)"
         id="path243" /></clipPath><clipPath
       clipPathUnits="userSpaceOnUse"
       id="clipPath245"><path
         d="M 8.504,46.771 H 586.772 V 795.118 H 8.504 Z"
         transform="translate(-532.63012,-397.35351)"
         id="path245" /></clipPath><clipPath
       clipPathUnits="userSpaceOnUse"
       id="clipPath247"><path
         d="M 8.504,46.771 H 586.772 V 795.118 H 8.504 Z"
         id="path247" /></clipPath><clipPath
       clipPathUnits="userSpaceOnUse"
       id="clipPath249"><path
         d="M 8.504,46.771 H 586.772 V 795.118 H 8.504 Z"
         transform="translate(-468.11701,-385.53421)"
         id="path249" /></clipPath><clipPath
       clipPathUnits="userSpaceOnUse"
       id="clipPath251"><path
         d="M 8.504,46.771 H 586.772 V 795.118 H 8.504 Z"
         transform="translate(-462.95151,-385.50751)"
         id="path251" /></clipPath><clipPath
       clipPathUnits="userSpaceOnUse"
       id="clipPath253"><path
         d="M 8.504,46.771 H 586.772 V 795.118 H 8.504 Z"
         transform="translate(-457.78521,-385.48071)"
         id="path253" /></clipPath><clipPath
       clipPathUnits="userSpaceOnUse"
       id="clipPath255"><path
         d="M 8.504,46.771 H 586.772 V 795.118 H 8.504 Z"
         transform="translate(-452.61781,-385.45401)"
         id="path255" /></clipPath><clipPath
       clipPathUnits="userSpaceOnUse"
       id="clipPath257"><path
         d="M 8.504,46.771 H 586.772 V 795.118 H 8.504 Z"
         transform="translate(-447.44961,-385.42721)"
         id="path257" /></clipPath><clipPath
       clipPathUnits="userSpaceOnUse"
       id="clipPath259"><path
         d="M 8.504,46.771 H 586.772 V 795.118 H 8.504 Z"
         transform="translate(-442.28041,-385.40141)"
         id="path259" /></clipPath><clipPath
       clipPathUnits="userSpaceOnUse"
       id="clipPath261"><path
         d="M 8.504,46.771 H 586.772 V 795.118 H 8.504 Z"
         transform="translate(-437.11031,-385.37561)"
         id="path261" /></clipPath><clipPath
       clipPathUnits="userSpaceOnUse"
       id="clipPath263"><path
         d="M 8.504,46.771 H 586.772 V 795.118 H 8.504 Z"
         transform="translate(-431.94021,-385.35061)"
         id="path263" /></clipPath><clipPath
       clipPathUnits="userSpaceOnUse"
       id="clipPath265"><path
         d="M 8.504,46.771 H 586.772 V 795.118 H 8.504 Z"
         transform="translate(-426.76921,-385.32661)"
         id="path265" /></clipPath><clipPath
       clipPathUnits="userSpaceOnUse"
       id="clipPath267"><path
         d="M 8.504,46.771 H 586.772 V 795.118 H 8.504 Z"
         transform="translate(-421.59821,-385.30261)"
         id="path267" /></clipPath><clipPath
       clipPathUnits="userSpaceOnUse"
       id="clipPath269"><path
         d="M 8.504,46.771 H 586.772 V 795.118 H 8.504 Z"
         transform="translate(-416.42631,-385.27961)"
         id="path269" /></clipPath><clipPath
       clipPathUnits="userSpaceOnUse"
       id="clipPath271"><path
         d="M 8.504,46.771 H 586.772 V 795.118 H 8.504 Z"
         transform="translate(-476.89961,-385.53421)"
         id="path271" /></clipPath><clipPath
       clipPathUnits="userSpaceOnUse"
       id="clipPath273"><path
         d="M 8.504,46.771 H 586.772 V 795.118 H 8.504 Z"
         transform="translate(-482.06501,-385.50751)"
         id="path273" /></clipPath><clipPath
       clipPathUnits="userSpaceOnUse"
       id="clipPath275"><path
         d="M 8.504,46.771 H 586.772 V 795.118 H 8.504 Z"
         transform="translate(-487.23241,-385.48071)"
         id="path275" /></clipPath><clipPath
       clipPathUnits="userSpaceOnUse"
       id="clipPath277"><path
         d="M 8.504,46.771 H 586.772 V 795.118 H 8.504 Z"
         transform="translate(-492.39881,-385.45401)"
         id="path277" /></clipPath><clipPath
       clipPathUnits="userSpaceOnUse"
       id="clipPath279"><path
         d="M 8.504,46.771 H 586.772 V 795.118 H 8.504 Z"
         transform="translate(-497.56711,-385.42721)"
         id="path279" /></clipPath><clipPath
       clipPathUnits="userSpaceOnUse"
       id="clipPath281"><path
         d="M 8.504,46.771 H 586.772 V 795.118 H 8.504 Z"
         transform="translate(-502.73621,-385.40141)"
         id="path281" /></clipPath><clipPath
       clipPathUnits="userSpaceOnUse"
       id="clipPath283"><path
         d="M 8.504,46.771 H 586.772 V 795.118 H 8.504 Z"
         transform="translate(-507.90631,-385.37561)"
         id="path283" /></clipPath><clipPath
       clipPathUnits="userSpaceOnUse"
       id="clipPath285"><path
         d="M 8.504,46.771 H 586.772 V 795.118 H 8.504 Z"
         transform="translate(-513.07651,-385.35061)"
         id="path285" /></clipPath><clipPath
       clipPathUnits="userSpaceOnUse"
       id="clipPath287"><path
         d="M 8.504,46.771 H 586.772 V 795.118 H 8.504 Z"
         transform="translate(-518.24741,-385.32661)"
         id="path287" /></clipPath><clipPath
       clipPathUnits="userSpaceOnUse"
       id="clipPath289"><path
         d="M 8.504,46.771 H 586.772 V 795.118 H 8.504 Z"
         transform="translate(-523.41931,-385.30261)"
         id="path289" /></clipPath><clipPath
       clipPathUnits="userSpaceOnUse"
       id="clipPath291"><path
         d="M 8.504,46.771 H 586.772 V 795.118 H 8.504 Z"
         transform="translate(-528.59131,-385.27961)"
         id="path291" /></clipPath><clipPath
       clipPathUnits="userSpaceOnUse"
       id="clipPath293"><path
         d="M 8.504,46.771 H 586.772 V 795.118 H 8.504 Z"
         transform="translate(-473.13581,-384.67611)"
         id="path293" /></clipPath><clipPath
       clipPathUnits="userSpaceOnUse"
       id="clipPath295"><path
         d="M 8.504,46.771 H 586.772 V 795.118 H 8.504 Z"
         transform="translate(-479.57741,-392.61441)"
         id="path295" /></clipPath><clipPath
       clipPathUnits="userSpaceOnUse"
       id="clipPath297"><path
         d="M 8.504,46.771 H 586.772 V 795.118 H 8.504 Z"
         transform="translate(-472.62181,-384.67611)"
         id="path297" /></clipPath><clipPath
       clipPathUnits="userSpaceOnUse"
       id="clipPath299"><path
         d="M 8.504,46.771 H 586.772 V 795.118 H 8.504 Z"
         transform="translate(-466.18111,-392.61441)"
         id="path299" /></clipPath><clipPath
       clipPathUnits="userSpaceOnUse"
       id="clipPath301"><path
         d="M 8.504,46.771 H 586.772 V 795.118 H 8.504 Z"
         transform="translate(-484.44951,-369.14281)"
         id="path301" /></clipPath><clipPath
       clipPathUnits="userSpaceOnUse"
       id="clipPath303"><path
         d="M 8.504,46.771 H 586.772 V 795.118 H 8.504 Z"
         transform="translate(-463.50431,-372.66581)"
         id="path303" /></clipPath><clipPath
       clipPathUnits="userSpaceOnUse"
       id="clipPath324"><path
         d="M 8.504,46.771 H 586.772 V 795.118 H 8.504 Z"
         transform="translate(-399.02071,-173.5264)"
         id="path324" /></clipPath><clipPath
       clipPathUnits="userSpaceOnUse"
       id="clipPath326"><path
         d="M 8.504,46.771 H 586.772 V 795.118 H 8.504 Z"
         transform="translate(-399.02071,-174.2701)"
         id="path326" /></clipPath><clipPath
       clipPathUnits="userSpaceOnUse"
       id="clipPath328"><path
         d="M 8.504,46.771 H 586.772 V 795.118 H 8.504 Z"
         transform="translate(-408.43451,-180.48561)"
         id="path328" /></clipPath><clipPath
       clipPathUnits="userSpaceOnUse"
       id="clipPath330"><path
         d="M 8.504,46.771 H 586.772 V 795.118 H 8.504 Z"
         transform="translate(-448.38061,-136.25241)"
         id="path330" /></clipPath><clipPath
       clipPathUnits="userSpaceOnUse"
       id="clipPath332"><path
         d="M 8.504,46.771 H 586.772 V 795.118 H 8.504 Z"
         transform="translate(-514.07482,-64.246727)"
         id="path332" /></clipPath><clipPath
       clipPathUnits="userSpaceOnUse"
       id="clipPath334"><path
         d="M 8.504,46.771 H 586.772 V 795.118 H 8.504 Z"
         transform="translate(-502.74181,-180.8197)"
         id="path334" /></clipPath></defs><g
     id="layer4"
     style="display:inline;fill:none"
     transform="translate(-306.99999)"><g
       id="g382"
       transform="translate(154.54864,-10.55631)"
       style="fill:none"><path
         d="m 198.80511,77.224592 -6.94015,6.835759 10.311,10.468611 c 2.25913,-2.509363 4.62327,-4.887674 6.87555,-6.901904 z"
         style="display:inline;stroke:#000000;stroke-width:0.352"
         id="path43" /><path
         d="m 273.41503,77.224592 -9.84591,9.996289 v 0.453202 c 2.17726,1.950453 4.47307,4.255285 6.66057,6.666777 l 10.126,-10.280509 z"
         style="display:inline;stroke:#000000;stroke-width:0.352"
         id="path42" /><path
         d="m 197.71939,144.128 -0.60617,9.72292 14.37329,0.89659 c 0.24093,-3.23464 0.4956,-6.46844 0.76894,-9.71259 z"
         style="display:inline;stroke:#000000;stroke-width:0.352"
         id="path41" /><path
         d="m 274.50126,144.128 -14.17691,0.88419 c 0.27354,3.24424 0.52884,6.47835 0.76998,9.7131 l 14.0131,-0.87437 z"
         style="display:inline;stroke:#000000;stroke-width:0.352"
         id="path40" /><path
         d="m 262.30201,78.434854 c -1.20486,1.756338 -2.7183,3.320108 -4.62401,4.647778 0.007,-0.0051 0.016,-0.0094 0.0233,-0.01447 1.65309,1.005875 3.71305,2.675589 5.86786,4.60592 v -5.059639 c 0,-1.498628 -0.44707,-2.951185 -1.26711,-4.17959 z m -51.49402,0.0015 c -0.81938,1.228078 -1.26607,2.68004 -1.26607,4.17804 v 4.556828 c 2.09523,-1.839836 4.05388,-3.345069 5.6317,-4.261239 -1.78829,-1.288401 -3.21495,-2.794945 -4.36563,-4.473629 z m 6.92981,20.560503 c -2.49751,3.448103 -5.36284,8.914063 -8.19588,12.694313 v 16.17989 c 0,1.996 0.79304,3.91064 2.20504,5.32164 0.44047,0.44048 0.93427,0.81286 1.45985,1.12758 1.1563,-11.82682 2.60065,-23.65096 4.53099,-35.323423 z m 37.1073,0 c 1.94544,11.763783 3.39602,23.681553 4.55683,35.600923 0.71831,-0.35873 1.38406,-0.82658 1.96215,-1.40508 1.412,-1.411 2.20504,-3.32564 2.20504,-5.32164 v -15.46314 c -3.0027,-3.77196 -6.07076,-9.74881 -8.72402,-13.411063 z"
         style="display:inline;stroke:#000000;stroke-width:0.351999"
         id="path39"
         sodipodi:nodetypes="ccccscccscccccsccccccscc" /><path
         style="display:none;fill:none;stroke:#000000;stroke-width:0.351999;stroke-dasharray:none"
         d="m 217.5805,81.88633 c -5.78876,0.83991 -27.2856,23.23988 -25.39429,30.01784 -1.71676,1.59493 -2.87906,0.39635 -3.81438,2.36516 -0.93532,1.96881 -0.18533,3.3026 1.47159,3.91042 -0.79908,4.12389 1.55022,5.96224 5.41257,7.17093 3.86234,1.20869 9.43807,-2.21793 8.65222,-9.49374 4.37728,0.57737 9.62494,-11.05626 13.82975,-16.86002 -4.9766,30.08899 -6.77764,61.18691 -8.51396,90.73585 -2.84187,6.71094 -0.80305,10.61878 6.25611,11.66472 7.05916,1.04595 10.56393,-1.34209 10.10016,-8.80237 6.53074,-9.81165 6.06067,-41.32075 10.89748,-48.43784 4.67687,7.35861 5.53424,38.87151 10.52449,48.43784 -0.46377,7.46028 3.041,9.84832 10.10016,8.80237 7.05916,-1.04594 9.09798,-4.95378 6.25611,-11.66472 -1.73632,-29.54894 -3.53736,-60.64686 -8.51396,-90.73585 4.20481,5.80376 9.45247,17.43739 13.82975,16.86002 -0.78585,7.27581 4.78988,10.70243 8.65222,9.49374 3.86235,-1.20869 6.21165,-3.04704 5.41256,-7.17093 1.65692,-0.60782 2.40691,-1.94161 1.4716,-3.91042 -0.93532,-1.96881 -2.09762,-0.77023 -3.81439,-2.36516 1.89132,-6.77796 -19.60552,-29.17793 -25.39428,-30.01784"
         id="path345" /><path
         d="m 215.17362,82.910033 c -7.78524,4.520552 -24.6737,22.949257 -22.98774,28.994097 -1.716,1.595 -2.87773,0.39672 -3.81373,2.36471 -0.93499,1.969 -0.18528,3.30339 1.47072,3.91139 -0.799,4.12399 1.55111,5.96163 5.4131,7.17062 3.86199,1.209 9.43819,-2.21801 8.65219,-9.49399 4.37799,0.577 9.62565,-11.05587 13.82964,-16.859953 -4.97599,30.089043 -6.77669,61.187123 -8.51369,90.736063 -2.84199,6.71099 -0.80303,10.61789 6.25595,11.66389 7.05899,1.046 10.56416,-1.34106 10.10016,-8.80205 6.53099,-9.81098 6.06054,-41.31988 10.89753,-48.43787 4.67699,7.35899 5.53443,38.87189 10.52442,48.43787 -0.463,7.46099 3.04065,9.84805 10.09964,8.80205 7.05999,-1.046 9.09898,-4.9529 6.25698,-11.66389 -1.73599,-29.54894 -3.5377,-60.64702 -8.51369,-90.736063 4.20499,5.804083 9.45214,17.436953 13.82913,16.859953 -0.786,7.27598 4.78971,10.70299 8.6527,9.49399 3.86199,-1.20899 6.21107,-3.04663 5.41207,-7.17062 1.657,-0.608 2.40675,-1.94239 1.47175,-3.91139 -0.935,-1.96799 -2.09772,-0.76971 -3.81372,-2.36471 1.664,-5.96599 -14.78179,-24.020477 -22.69577,-28.835967 -0.007,0.0051 -0.0159,0.0094 -0.0233,0.01447 -0.52913,0.368638 -1.09187,0.717296 -1.68258,1.049032 -0.0524,0.02943 -0.10319,0.05975 -0.15607,0.08888 -0.61444,0.338358 -1.2594,0.658781 -1.94303,0.956014 -0.0139,0.0061 -0.0289,0.01152 -0.0429,0.01757 -0.64061,0.27714 -1.31843,0.531918 -2.02262,0.77153 -0.1129,0.03847 -0.22441,0.07775 -0.33899,0.115238 -0.73701,0.240752 -1.5022,0.465059 -2.31046,0.664042 -0.0406,0.01 -0.0843,0.01801 -0.12505,0.02791 -0.75117,0.182115 -1.5405,0.342358 -2.35542,0.487309 -0.17819,0.03175 -0.35611,0.0636 -0.53743,0.09354 -0.87747,0.144603 -1.78129,0.273985 -2.73368,0.37517 -0.0353,0.0038 -0.0736,0.0056 -0.10904,0.0093 -0.89688,0.09346 -1.83734,0.16166 -2.80293,0.215491 -0.25764,0.01439 -0.51714,0.02777 -0.7798,0.03927 -1.02627,0.04487 -2.07676,0.07594 -3.1812,0.07596 -3.6e-4,0 -6.7e-4,0 -0.001,0 -1.8e-4,0 -3.4e-4,0 -5.2e-4,0 -1.11962,0 -2.18374,-0.03195 -3.22306,-0.07803 -0.2659,-0.01179 -0.52937,-0.02504 -0.79013,-0.03979 -2.04043,-0.115371 -3.92503,-0.320251 -5.66426,-0.609782 -0.21597,-0.03595 -0.42977,-0.07309 -0.6413,-0.111621 -0.84488,-0.15391 -1.66743,-0.321033 -2.44326,-0.515214 -0.005,-0.0013 -0.0113,-0.0023 -0.0165,-0.0036 -3.3e-4,-8.3e-5 -7e-4,8.3e-5 -0.001,0 -0.007,-0.0017 -0.0128,-0.004 -0.0196,-0.0057 -0.77532,-0.19496 -1.50526,-0.416802 -2.21433,-0.650606 -0.17886,-0.05898 -0.35597,-0.118957 -0.53072,-0.180351 -1.39879,-0.491371 -2.66795,-1.058899 -3.81734,-1.698087 -0.13944,-0.07756 -0.27744,-0.15601 -0.41341,-0.235645 -0.56065,-0.328314 -1.10323,-0.667753 -1.60662,-1.030428 z"
         style="display:inline;stroke:#000000;stroke-width:0.351999"
         id="path38" /><path
         style="fill:none;stroke:#000000;stroke-width:0.351999;stroke-dasharray:none"
         d="m 216.51082,60.102736 c 4.61048,1.135946 10.6244,1.337423 11.43883,-7.164662 0.81443,-8.502085 -4.69069,-10.023634 -9.08638,-10.063408"
         id="path373"
         transform="rotate(90,146.5503,121.96947)" /><path
         style="fill:none;stroke:#000000;stroke-width:0.351999;stroke-dasharray:none"
         d="m 216.51082,4.3542957 c 4.61048,-1.135946 10.6244,-1.337423 11.43883,7.1646623 0.81443,8.502086 -4.69069,10.023635 -9.08638,10.063409"
         id="path369"
         transform="rotate(90,146.5503,121.96947)" /><path
         style="fill:none;stroke:#000000;stroke-width:0.351999;stroke-dasharray:none"
         d="m 218.34454,56.253425 c -1.34525,-3.3797 -1.20454,-6.556767 0.7995,-9.479745"
         id="path374"
         transform="rotate(90,146.5503,121.96947)" /><path
         style="fill:none;stroke:#000000;stroke-width:0.351999;stroke-dasharray:none"
         d="m 218.34454,8.2036067 c -1.34525,3.3797003 -1.20454,6.5567683 0.7995,9.4797463"
         id="path370"
         transform="rotate(90,146.5503,121.96947)" /><path
         style="fill:none;stroke:#000000;stroke-width:0.351999;stroke-dasharray:none"
         d="m 135.71084,76.264856 1.35825,0.679128 c 2.62021,-3.660975 4.72671,-7.801885 4.87738,-12.286041 l -1.48173,-0.246954 c -0.0341,4.558472 -2.08587,8.283128 -4.7539,11.853867 z"
         id="path375"
         transform="rotate(90,146.5503,121.96947)" /><path
         style="fill:none;stroke:#000000;stroke-width:0.351999;stroke-dasharray:none"
         d="m 135.71084,-11.807824 1.35825,-0.679128 c 2.62021,3.6609747 4.72671,7.8018847 4.87738,12.28604077 l -1.48173,0.246954 c -0.0341,-4.55847207 -2.08587,-8.28312807 -4.7539,-11.85386677 z"
         id="path371"
         transform="rotate(90,146.5503,121.96947)" /><path
         id="path376"
         style="display:inline;fill:none;stroke:#000000;stroke-width:0.351999"
         d="m 205.026,93.601486 h 4.60154 a 1.1047952,1.1047952 45 0 1 1.1048,1.104795 V 101.475 a 1.1047952,1.1047952 135 0 1 -1.1048,1.1048 H 205.026 a 1.1047952,1.1047952 45 0 1 -1.1048,-1.1048 v -6.768719 a 1.1047952,1.1047952 135 0 1 1.1048,-1.104795 z"
         transform="rotate(42.057395,207.35859,96.596775)" /><path
         id="path367"
         style="display:inline;fill:none;stroke:#000000;stroke-width:0.351999"
         d="m 205.026,93.601486 h 4.60154 a 1.1047952,1.1047952 45 0 1 1.1048,1.104795 V 101.475 a 1.1047952,1.1047952 135 0 1 -1.1048,1.1048 H 205.026 a 1.1047952,1.1047952 45 0 1 -1.1048,-1.1048 v -6.768719 a 1.1047952,1.1047952 135 0 1 1.1048,-1.104795 z"
         transform="matrix(-0.74247415,0.6698747,0.6698747,0.74247415,354.47457,-114.02811)" /><path
         id="path377"
         style="display:inline;fill:none;stroke:#000000;stroke-width:0.26149;stroke-dasharray:none"
         d="m 204.63047,93.601486 h 5.3926 a 0.70926972,0.70926972 45 0 1 0.70927,0.70927 l 0,7.559774 a 0.70926972,0.70926972 135 0 1 -0.70927,0.70927 h -5.3926 a 0.70926972,0.70926972 45 0 1 -0.70927,-0.70927 v -7.559774 a 0.70926972,0.70926972 135 0 1 0.70927,-0.70927 z"
         transform="matrix(1.3414637,0.11201092,-0.11201092,1.3414637,-49.030266,-4.3420006)" /><path
         id="rect367"
         style="display:inline;fill:none;stroke:#000000;stroke-width:0.26149;stroke-dasharray:none"
         d="m 204.63047,93.601486 h 5.3926 a 0.70926972,0.70926972 45 0 1 0.70927,0.70927 l 0,7.559774 a 0.70926972,0.70926972 135 0 1 -0.70927,0.70927 h -5.3926 a 0.70926972,0.70926972 45 0 1 -0.70927,-0.70927 v -7.559774 a 0.70926972,0.70926972 135 0 1 0.70927,-0.70927 z"
         transform="matrix(-1.3414637,0.11201092,0.11201092,1.3414637,521.61276,-4.3420006)" /><path
         d="m 207.371,50.081029 c -2.19393,0.628349 -3.80148,2.644715 -3.80132,5.040519 v 8.972579 c 7e-5,2.329299 1.51932,4.301169 3.61993,4.986259 -0.6449,-3.468252 -0.83664,-7.25023 -0.83664,-11.214302 0,-2.692548 0.35695,-5.300697 1.01803,-7.785055 z m 58.37421,0.01809 c 0.65797,2.4789 1.01286,5.080999 1.01286,7.766968 0,3.954255 -0.19091,7.727233 -0.83199,11.188464 2.06336,-0.706256 3.54906,-2.65771 3.54913,-4.960421 v -8.972579 c 1.6e-4,-2.370143 -1.57216,-4.371419 -3.73,-5.022432 z"
         style="display:inline;stroke:#000000;stroke-width:0.351999"
         id="path36" /><path
         d="m 236.55526,27.663793 c -16.68042,1e-6 -30.20229,13.521866 -30.20229,30.202291 0,16.680423 3.29548,30.202807 30.20229,30.202807 26.90681,0 30.20281,-13.522384 30.20281,-30.202807 0,-16.680425 -13.52239,-30.20229 -30.20281,-30.202291 z m -0.076,15.216125 c 13.48194,-1e-6 24.41143,0.0022 24.41143,19.832382 0,19.830183 -18.03992,19.832898 -24.41143,19.832898 -6.37152,0 -24.41092,0.247726 -24.41092,-19.832898 0,-20.080624 10.92897,-19.832383 24.41092,-19.832382 z"
         style="display:inline;stroke:#000000;stroke-width:0.352"
         id="path37" /><path
         d="m 236.4793,42.879918 c -13.48197,-1e-6 -24.41092,-0.248282 -24.41092,19.832382 0,20.080665 18.03939,19.832898 24.41092,19.832898 6.37153,0 24.41143,-0.0027 24.41143,-19.832898 0,-19.830178 -10.92946,-19.832383 -24.41143,-19.832382 z"
         style="display:inline;stroke:#000000;stroke-width:0.352"
         id="path34" /><g
         id="g380"
         style="fill:none"><path
           id="rect357"
           style="display:inline;fill:none;stroke:#000000;stroke-width:0.351999"
           d="m 226.90555,97.01693 h 19.29991 a 2.8975727,2.8975727 45 0 1 2.89757,2.897573 v 12.832107 a 2.8975727,2.8975727 135 0 1 -2.89757,2.89757 h -19.29991 a 2.8975727,2.8975727 45 0 1 -2.89757,-2.89757 V 99.914503 a 2.8975727,2.8975727 135 0 1 2.89757,-2.897573 z" /><circle
           style="fill:none;stroke:#000000;stroke-width:0.352;stroke-dasharray:none"
           id="circle358"
           cx="243.94835"
           cy="102.33742"
           r="2.6150455" /><circle
           style="fill:none;stroke:#000000;stroke-width:0.352;stroke-dasharray:none"
           id="path358"
           cx="243.94835"
           cy="110.34819"
           r="2.6150455" /><path
           style="fill:none;stroke:#000000;stroke-width:0.351999;stroke-dasharray:none"
           d="m 227.4794,100.69738 h 10.79137"
           id="path363" /><path
           style="fill:none;stroke:#000000;stroke-width:0.351999;stroke-dasharray:none"
           d="m 227.4794,107.60915 h 10.79137"
           id="path360" /><path
           style="fill:none;stroke:#000000;stroke-width:0.351999;stroke-dasharray:none"
           d="m 227.4794,103.0013 h 10.79137"
           id="path364" /><path
           style="fill:none;stroke:#000000;stroke-width:0.351999;stroke-dasharray:none"
           d="m 227.4794,109.91307 h 10.79137"
           id="path361" /><path
           style="fill:none;stroke:#000000;stroke-width:0.351999;stroke-dasharray:none"
           d="m 227.4794,105.30522 h 10.79137"
           id="path365" /><path
           style="fill:none;stroke:#000000;stroke-width:0.351999;stroke-dasharray:none"
           d="m 227.4794,112.21699 h 10.79137"
           id="path359" /></g></g><g
       id="g386"
       transform="translate(453.44226,-28.065644)"
       style="display:inline;fill:none"><path
         d="m 38.853913,63.660887 -8.965861,3.546554 7.173723,18.135844 c 2.486009,-1.58111 4.880253,-2.871418 8.903849,-3.372404 l 0.113688,-0.04496 z"
         style="display:inline;stroke:#000000;stroke-width:0.352"
         id="path60" /><path
         d="m 82.114322,63.660887 -7.225399,18.265035 0.0925,0.03669 c 4.045145,0.491689 6.449958,1.775609 8.935372,3.3538 l 7.163387,-18.108972 z"
         style="display:inline;stroke:#000000;stroke-width:0.352"
         id="path58" /><path
         d="m 17.622651,88.416482 -5.832202,7.784021 9.151379,6.856947 c 1.749262,-2.74232 3.704726,-5.345684 5.810498,-7.800558 z"
         style="display:inline;stroke:#000000;stroke-width:0.352"
         id="path56" /><path
         d="m 103.34558,88.416482 -9.097115,6.816122 c 2.106605,2.453793 4.062978,5.056196 5.813595,7.797456 l 9.11521,-6.829557 z"
         style="display:inline;stroke:#000000;stroke-width:0.352"
         id="path54" /><path
         d="m 39.016177,109.95264 -5.047237,0.87488 1.65778,9.55962 5.000728,-0.86713 c -0.260986,-3.3749 -0.85645,-6.52354 -1.611271,-9.56737 z"
         style="display:inline;stroke:#000000;stroke-width:0.352"
         id="path52" /><path
         d="m 82.003217,109.96142 c -0.754452,3.04394 -1.34933,6.19271 -1.60972,9.56789 l 4.948018,0.85783 1.65778,-9.55962 z"
         style="display:inline;stroke:#000000;stroke-width:0.352"
         id="path50" /><path
         d="M 57.753018,123.13374 46.22969,199.02058 c 9.560653,1.66517 19.244579,1.60583 29.050424,-0.16174 l -11.50059,-75.7251 z"
         style="display:inline;stroke:#000000;stroke-width:0.351999"
         id="path48" /><path
         d="m 47.195523,81.831354 c -5.451519,0.423832 -8.036574,2.134697 -11.229289,4.201294 -6.941258,6.012575 -13.542895,13.405614 -17.884696,21.976432 -0.418508,0.92799 -0.703524,2.09451 -0.914156,3.37706 0.420007,-0.97915 0.861443,-1.94984 1.343587,-2.9006 6.54215,0.97597 8.343056,6.05804 8.209835,11.95741 -0.858547,2.33527 -3.112996,3.93516 -5.64565,3.93516 -0.59822,0 -1.196554,-0.0706 -1.759583,-0.2465 -0.826194,-0.24097 -1.554236,-0.67132 -2.176611,-1.21646 1.053137,10.16268 4.203368,20.94346 6.250264,20.94343 3.242864,-4e-5 5.248268,-27.65958 13.799675,-40.33966 1.636267,5.11364 3.039668,10.36546 3.464388,16.28118 -9.409445,4.45694 -18.303873,50.05598 -26.807666,74.60733 10.624028,4.09671 21.222775,6.78545 31.85542,8.09615 l 12.051977,-79.36984 h 6.026506 l 12.042675,79.29335 c 10.348333,-1.32813 20.780158,-3.96942 31.353641,-8.01966 -8.503793,-24.55135 -17.398221,-70.15039 -26.807665,-74.60733 0.424719,-5.91572 1.828121,-11.16754 3.464388,-16.28118 8.551404,12.68008 10.556814,40.33962 13.799675,40.33966 2.038572,3e-5 5.173582,-10.69424 6.239412,-20.82044 -0.66535,0.55353 -1.44205,0.97986 -2.3182,1.19889 -0.45747,0.10562 -0.95016,0.17622 -1.44281,0.17622 -2.509469,0 -4.745418,-1.57063 -5.621363,-3.87108 -0.121398,-5.93135 1.676526,-11.06627 8.160223,-12.09849 0.38167,0.75239 0.73921,1.51702 1.08211,2.28772 -0.20199,-1.01313 -0.44646,-1.95682 -0.79169,-2.72232 C 98.598127,99.438262 91.996486,92.045223 85.055228,86.032648 81.862514,83.966051 79.277457,82.255186 73.825939,81.831354 c -1.44095,1.445233 -8.93477,3.623035 -13.430188,3.623035 -4.495419,0 -11.532639,-1.89612 -13.200228,-3.623035 z"
         style="display:inline;stroke:#000000;stroke-width:0.351999"
         id="path46" /><path
         style="display:inline;fill:none;stroke:#000000;stroke-width:0.351999"
         d="M 41.113366,83.176423 V 102.13035 H 79.643971 V 83.060284"
         id="path351" /><path
         style="display:inline;fill:none;stroke:#000000;stroke-width:0.351999"
         d="M 44.272504,82.226406 V 99.204641 H 76.640448 V 82.202429"
         id="path357" /><path
         d="m 18.510969,108.48554 c -1.33738,2.63725 -2.456459,5.39083 -3.242179,8.22121 -0.140758,0.52784 -0.211357,1.05546 -0.211357,1.6185 0,2.67441 1.724498,5.06739 4.258138,5.80636 0.56303,0.17593 1.161363,0.2465 1.759583,0.2465 2.532656,0 4.787102,-1.59988 5.64565,-3.93516 0.133221,-5.89938 -1.667678,-10.98144 -8.209835,-11.95741 z"
         style="display:inline;stroke:#000000;stroke-width:0.351895;stroke-miterlimit:10"
         id="path45" /><path
         d="m 102.6495,108.44368 c -6.48371,1.03222 -8.281622,6.16713 -8.160223,12.09849 0.875947,2.30046 3.111889,3.87108 5.621363,3.87108 0.49265,0 0.98534,-0.0706 1.44281,-0.17622 2.6744,-0.66859 4.53977,-3.13175 4.53977,-5.94692 0,-0.52785 -0.0706,-1.09067 -0.21136,-1.6185 -0.77798,-2.83473 -1.89441,-5.59037 -3.23236,-8.22793 z"
         style="display:inline;stroke:#000000;stroke-width:0.351895;stroke-miterlimit:10"
         id="path44" /><path
         style="display:inline;fill:none;stroke:#000000;stroke-width:0.351999"
         d="m 18.478245,108.47964 c 13.335342,1.9562 7.062701,20.90807 4.72167,29.22436"
         id="path378" /><path
         style="display:inline;fill:none;stroke:#000000;stroke-width:0.351999"
         d="m 102.81189,108.41598 c -13.335342,1.9562 -7.228225,20.97173 -4.887194,29.28802"
         id="path379" /><path
         style="fill:none;stroke:#000000;stroke-width:0.351999;stroke-dasharray:none;stroke-dashoffset:0"
         d="m 40.575341,119.67044 c 2.863358,2.65883 13.585242,6.13505 20.108925,5.80925 6.523683,-0.3258 18.140076,-3.36345 19.662058,-5.71987"
         id="path381" /><path
         style="fill:none;stroke:#000000;stroke-width:0.351999;stroke-dasharray:none;stroke-dashoffset:0"
         d="m 60.503667,125.48059 v 58.93357"
         id="path382" /><circle
         style="fill:none;stroke:#000000;stroke-width:0.351999;stroke-dasharray:none;stroke-dashoffset:0"
         id="path383"
         cx="60.49493"
         cy="93.169441"
         r="1.9561235" /><path
         style="fill:none;stroke:#000000;stroke-width:0.351999;stroke-dasharray:none;stroke-dashoffset:0"
         d="m 49.250221,83.020814 11.244712,8.047607 10.424245,-7.764045"
         id="path384" /><path
         style="fill:none;stroke:#000000;stroke-width:0.351999;stroke-dasharray:none;stroke-dashoffset:0"
         d="M 48.572242,82.729495 60.28442,106.23219 72.662507,82.494468"
         id="path385" /><path
         style="fill:none;stroke:#000000;stroke-width:0.351999;stroke-dasharray:none;stroke-dashoffset:0"
         id="path386"
         d="m 60.86394,106.32299 -0.832768,2.16943 -2.320594,-0.12161 -0.601438,-2.2446 1.948885,-1.26562 z"
         transform="translate(1.2426878,1.4985353)" /></g></g></svg>
